<?xml version="1.0" encoding="utf-8"?>
<!-- Generator: Adobe Illustrator 24.2.3, SVG Export Plug-In . SVG Version: 6.00 Build 0)  -->
<svg version="1.1" id="Layer_1" xmlns="http://www.w3.org/2000/svg" xmlns:xlink="http://www.w3.org/1999/xlink" x="0px" y="0px"
	 viewBox="0 0 600 600" style="enable-background:new 0 0 600 600;" xml:space="preserve">
<style type="text/css">
	.st0{fill:#6DA04F;}
	.st1{fill:#AECED5;}
	.st2{fill:#45565E;}
	.st3{fill:#7C321B;}
	.st4{fill:none;stroke:#45565E;stroke-width:0.5;stroke-miterlimit:10;}
</style>
<g id="XMLID_83_">
	<path id="XMLID_256_" class="st0" d="M486.21,115.64C436.47,65.9,370.34,38.51,300,38.51S163.53,65.9,113.79,115.64
		c-49.74,49.74-77.13,115.87-77.13,186.21s27.39,136.47,77.13,186.21C163.53,537.81,229.66,565.2,300,565.2
		s136.47-27.39,186.21-77.13c49.74-49.74,77.13-115.87,77.13-186.21S535.95,165.38,486.21,115.64z M300,548.39
		c-135.94,0-246.54-110.6-246.54-246.54S164.06,55.31,300,55.31s246.54,110.6,246.54,246.54S435.94,548.39,300,548.39z"/>
	<path id="XMLID_249_" class="st1" d="M474.77,398.82c0-4.64-3.76-8.4-8.4-8.4H234.49c-4.64,0-8.4,3.76-8.4,8.4
		c0,4.64,3.76,8.4,8.4,8.4h231.88C471.01,407.22,474.77,403.46,474.77,398.82z"/>
	<path id="XMLID_248_" class="st1" d="M209.28,398.82c0-4.64-3.76-8.4-8.4-8.4h-67.24c-4.64,0-8.4,3.76-8.4,8.4
		c0,4.64,3.76,8.4,8.4,8.4h67.24C205.51,407.22,209.28,403.46,209.28,398.82z"/>
	<path id="XMLID_246_" class="st1" d="M156.17,440.84H353.4c4.64,0,8.4-3.76,8.4-8.4c0-4.64-3.76-8.4-8.4-8.4H156.17
		c-4.64,0-8.4,3.76-8.4,8.4C147.77,437.08,151.53,440.84,156.17,440.84z"/>
	<path id="XMLID_245_" class="st1" d="M273.71,457.65c-4.64,0-8.4,3.76-8.4,8.4c0,4.64,3.76,8.4,8.4,8.4h133.35
		c4.64,0,8.4-3.76,8.4-8.4c0-4.64-3.76-8.4-8.4-8.4H273.71z"/>
	<g id="XMLID_228_">
		<g id="XMLID_234_">
			<path id="XMLID_1_" class="st2" d="M528.69,294.85c1.01,2.63,0.71,5.51-0.86,7.84c-1.57,2.28-4.2,3.69-6.98,3.69h-41.58v16.79
				h41.17c4.65,0,8.4,3.74,8.4,8.4c0,4.65-3.74,8.4-8.4,8.4H79.54c-4.65,0-8.45-3.74-8.45-8.4c0-4.65,3.79-8.4,8.45-8.4h41.12
				v-16.79H79.09c-2.78,0-5.36-1.42-6.93-3.69c-1.57-2.33-1.87-5.21-0.86-7.84l49.97-126.45c1.26-3.19,4.35-5.31,7.84-5.31
				c3.44,0,6.52,2.12,7.79,5.31l50.02,126.45c1.01,2.63,0.66,5.51-0.91,7.84c-1.52,2.28-4.15,3.69-6.93,3.69h-41.58v16.79h97.11
				v-16.79h-19.37c-4.65,0-8.4-3.79-8.4-8.45c0-2.88,1.47-5.46,3.69-6.93c1.37-0.91,2.93-1.47,4.7-1.47h65.4l-37.63-95.19
				l-31.06,78.6c-1.32,3.34-4.5,5.31-7.84,5.31c-1.06,0-2.07-0.15-3.09-0.56c-4.3-1.72-6.42-6.63-4.7-10.93l38.9-98.38
				c1.26-3.19,4.35-5.31,7.79-5.31c3.44,0,6.58,2.12,7.84,5.31l49.97,126.45c1.01,2.63,0.71,5.51-0.86,7.84
				c-1.57,2.28-4.2,3.69-6.98,3.69h-41.58v16.79h97.11v-16.79h-19.37c-4.65,0-8.4-3.79-8.4-8.45c0-2.88,1.47-5.46,3.69-6.93
				c1.37-0.91,2.93-1.47,4.7-1.47h65.45l-37.63-95.19l-31.11,78.6c-1.32,3.34-4.5,5.31-7.84,5.31c-1.01,0-2.02-0.15-3.03-0.56
				c-4.35-1.72-6.47-6.63-4.75-10.93l38.9-98.38c1.26-3.19,4.35-5.31,7.84-5.31c3.44,0,6.52,2.12,7.79,5.31l49.97,126.45
				c1.06,2.63,0.71,5.51-0.86,7.84c-1.57,2.28-4.15,3.69-6.93,3.69h-41.58v16.79h97.11v-16.79h-19.37c-4.65,0-8.45-3.79-8.45-8.45
				c0-2.88,1.47-5.46,3.74-6.93c1.32-0.91,2.98-1.47,4.7-1.47h65.4l-37.63-95.19l-31.06,78.6c-1.32,3.34-4.5,5.31-7.84,5.31
				c-1.06,0-2.07-0.15-3.09-0.56c-4.3-1.72-6.42-6.63-4.7-10.93l38.85-98.38c1.32-3.19,4.4-5.31,7.84-5.31s6.52,2.12,7.84,5.31
				L528.69,294.85z M166.74,289.54l-37.63-95.19l-37.63,95.19H166.74z"/>
		</g>
	</g>
	<path id="XMLID_225_" class="st3" d="M300,166.29c23.17,0,42.02-18.85,42.02-42.02S323.17,82.24,300,82.24
		s-42.02,18.85-42.02,42.02S276.83,166.29,300,166.29z M300,99.05c13.9,0,25.21,11.31,25.21,25.21S313.9,149.48,300,149.48
		s-25.21-11.31-25.21-25.21S286.1,99.05,300,99.05z"/>
</g>
</svg>
