<?xml version="1.0" encoding="utf-8"?>
<!-- Generator: Adobe Illustrator 24.2.3, SVG Export Plug-In . SVG Version: 6.00 Build 0)  -->
<svg version="1.1" id="Layer_1" xmlns="http://www.w3.org/2000/svg" xmlns:xlink="http://www.w3.org/1999/xlink" x="0px" y="0px"
	 viewBox="0 0 600 600" style="enable-background:new 0 0 600 600;" xml:space="preserve">
<style type="text/css">
	.st0{fill:#6DA04F;}
	.st1{fill:#AECED5;}
	.st2{fill:#45565E;}
	.st3{fill:#7C321B;}
	.st4{fill:none;stroke:#45565E;stroke-width:0.5;stroke-miterlimit:10;}
</style>
<g id="XMLID_69_">
	<path id="XMLID_253_" class="st0" d="M485.71,115.29C436.11,65.68,370.15,38.37,300,38.37s-136.11,27.32-185.71,76.92
		C64.68,164.89,37.37,230.85,37.37,301s27.32,136.11,76.92,185.71c49.6,49.61,115.56,76.92,185.71,76.92s136.11-27.32,185.71-76.92
		c49.61-49.6,76.92-115.56,76.92-185.71S535.32,164.89,485.71,115.29z M300,546.87c-135.57,0-245.87-110.3-245.87-245.87
		S164.43,55.13,300,55.13S545.87,165.43,545.87,301S435.57,546.87,300,546.87z"/>
	<path id="XMLID_247_" class="st1" d="M388.71,270.63c0-4.63-3.75-8.38-8.38-8.38h-67.06c-4.63,0-8.38,3.75-8.38,8.38
		s3.75,8.38,8.38,8.38h67.06C384.96,279.01,388.71,275.26,388.71,270.63z"/>
	<path id="XMLID_244_" class="st1" d="M409.74,262.41c-3.97,0-7.19,3.75-7.19,8.38s3.22,8.38,7.19,8.38h114.05
		c3.97,0,7.19-3.75,7.19-8.38s-3.22-8.38-7.19-8.38H409.74z"/>
	<path id="XMLID_240_" class="st1" d="M362.27,227.01c-4.63,0-8.38,3.75-8.38,8.38c0,4.63,3.75,8.38,8.38,8.38h132.99
		c4.63,0,8.38-3.75,8.38-8.38c0-4.63-3.75-8.38-8.38-8.38H362.27z"/>
	<path id="XMLID_222_" class="st3" d="M373,197.48c23.11,0,41.91-18.8,41.91-41.91s-18.8-41.91-41.91-41.91s-41.91,18.8-41.91,41.91
		S349.89,197.48,373,197.48z M373,130.42c13.87,0,25.15,11.28,25.15,25.15c0,13.87-11.28,25.15-25.15,25.15
		c-13.87,0-25.15-11.28-25.15-25.15C347.86,141.7,359.14,130.42,373,130.42z"/>
	<g id="XMLID_196_">
		<g id="XMLID_210_">
			<path id="XMLID_61_" class="st2" d="M185.31,205.24l39.65-35.06l-61.59,10.24L185.31,205.24z M267.38,298l-25.62-125.7
				l-47.97,42.47L267.38,298z M184.2,223.25l-47.97,42.47l121.62,40.71L184.2,223.25z M175.77,213.71l-21.99-24.87l-17.66,59.93
				L175.77,213.71z M149.9,169.73l94.88-15.79c3.38-0.55,6.61,1.66,7.26,4.99l31.78,155.82c9.99,2.32,36.87,9.03,65.37,19.37
				c49.08,17.76,79.45,37.33,90.19,58.21c5.55,10.79,5.95,21.84,1.16,32.84c-10.59,24.52-42.37,21.49-52.86,20.48
				c-23.2-2.17-51-10.04-80.46-18.36c-58.16-16.44-118.34-33.44-129.99-0.81c-4.29,11.95-3.13,22.3,3.48,31.58
				c15.49,21.69,60.48,37.58,130.04,45.85c53.62,6.41,103,5.85,103.46,5.85c3.53-0.05,6.41,2.77,6.46,6.31s-2.77,6.41-6.31,6.46
				c-0.05,0-1.16,0-3.18,0c-11.95,0-55.29-0.4-101.79-5.95c-74.35-8.83-121.16-26.03-139.07-51.15
				c-9.08-12.71-10.79-27.29-5.09-43.23c7.21-20.23,26.03-28.9,57.5-26.63c25.73,1.87,57.35,10.79,87.97,19.47
				c32.38,9.13,65.47,18.51,88.68,18.51c14.58,0,25.27-3.68,29.46-13.42c3.23-7.42,2.98-14.63-0.81-21.94
				c-9.08-17.65-37.78-35.66-83.08-52.06c-35.01-12.66-68.5-19.98-68.6-20.03l-154.66-51.8c-3.23-1.06-5.04-4.54-4.09-7.82
				l27.19-92.26C145.51,171.84,147.48,170.13,149.9,169.73z"/>
		</g>
		<g id="XMLID_204_">
			<path id="XMLID_60_" class="st4" d="M439.39,392.33c-10.74-20.88-41.11-40.46-90.19-58.21c-28.5-10.34-55.39-17.05-65.37-19.37
				l-31.78-155.82c-0.66-3.33-3.88-5.55-7.26-4.99l-94.88,15.79c-2.42,0.4-4.39,2.12-5.09,4.49l-27.19,92.26
				c-0.96,3.28,0.86,6.76,4.09,7.82l154.66,51.8c0.1,0.05,33.59,7.36,68.6,20.03c45.3,16.39,74,34.4,83.08,52.06
				c3.78,7.31,4.04,14.53,0.81,21.94c-4.19,9.74-14.88,13.42-29.46,13.42c-23.2,0-56.29-9.38-88.68-18.51
				c-30.62-8.68-62.25-17.6-87.97-19.47c-31.48-2.27-50.29,6.41-57.5,26.63c-5.7,15.94-3.98,30.52,5.09,43.23
				c17.91,25.12,64.72,42.32,139.07,51.15c46.51,5.55,89.84,5.95,101.79,5.95c2.02,0,3.13,0,3.18,0c3.53-0.05,6.36-2.93,6.31-6.46
				s-2.93-6.36-6.46-6.31c-0.45,0-49.84,0.55-103.46-5.85c-69.56-8.27-114.56-24.16-130.04-45.85c-6.61-9.28-7.77-19.62-3.48-31.58
				c11.65-32.64,71.83-15.64,129.99,0.81c29.46,8.32,57.25,16.19,80.46,18.36c10.49,1.01,42.27,4.04,52.86-20.48
				C445.34,414.17,444.94,403.12,439.39,392.33z"/>
			<polygon id="XMLID_59_" class="st4" points="267.38,298 193.78,214.77 241.75,172.3 			"/>
			<polygon id="XMLID_58_" class="st4" points="257.85,306.43 136.23,265.72 184.2,223.25 			"/>
			<polygon id="XMLID_57_" class="st4" points="185.31,205.24 163.37,180.42 224.96,170.18 			"/>
			<polygon id="XMLID_56_" class="st4" points="153.78,188.84 175.77,213.71 136.13,248.77 			"/>
		</g>
	</g>
</g>
</svg>
