<svg id="Layer_1" data-name="Layer 1" xmlns="http://www.w3.org/2000/svg" viewBox="0 0 600 600"><defs><style>.cls-1{fill:#aeced5;}.cls-2{fill:#7c321b;}.cls-3{fill:#6da04f;}.cls-4{fill:#fff;stroke:#45575f;stroke-miterlimit:10;stroke-width:12px;}</style></defs><title>icono-menu-lasgolondrinas</title><g id="_Grupo_" data-name="&lt;Grupo&gt;"><path id="_Trazado_" data-name="&lt;Trazado&gt;" class="cls-1" d="M238.25,176.33A8.29,8.29,0,0,0,230,168H163.59a8.3,8.3,0,1,0,0,16.59H230A8.29,8.29,0,0,0,238.25,176.33Z"/><path id="_Trazado_2" data-name="&lt;Trazado&gt;" class="cls-1" d="M92.1,207.29a8.3,8.3,0,1,0,0,16.59H223.73a8.3,8.3,0,1,0,0-16.59Z"/><path id="_Trazado_compuesto_" data-name="&lt;Trazado compuesto&gt;" class="cls-2" d="M378.88,181.57a41.48,41.48,0,1,0-41.48-41.48A41.52,41.52,0,0,0,378.88,181.57Zm0-66.37A24.89,24.89,0,1,1,354,140.09,24.92,24.92,0,0,1,378.88,115.2Z"/><path id="_Trazado_compuesto_2" data-name="&lt;Trazado compuesto&gt;" class="cls-3" d="M483,123.73A259.95,259.95,0,1,0,115.37,491.35,259.95,259.95,0,1,0,483,123.73ZM299.18,550.9C165,550.9,55.82,441.73,55.82,307.54S165,64.18,299.18,64.18,542.53,173.35,542.53,307.54,433.37,550.9,299.18,550.9Z"/></g><path class="cls-4" d="M198.8,288.68c3.51.19,9.09.34,9.88-1.83.43-1.16-.65-2.57-1.11-3.09-4.07-4.72-19-10-16.84-22.3,6-34.54,89.47-138.24,96.54-141.7,1.53-1.09,3.08-1.32,4-.61s.75,2.5.35,5.35c-.48,3.48-1.44,6.22-1.12,6.35s.79-1.38,1.48-1.49c1.62-.23,3.49,2.62,2.35,6.7-1.57,5.5-19.84,44.24-36.18,64.11,0,0,11.73-13.29,22.05-28,1.23-2.64,7-4.75,3.95,2.56s-12.47,24.48-15.82,27.8c0,0,10.3-12,11.74-11.42s3.55.11-.49,6.06l-17.58,26s13.87-15.68,14.35-13.68-5.44,17.94-17.6,27.85c0,0,13.79-11.26,13.25-7.81S260.2,245.25,258,249c-24.54,40.58,23.28,62.45,39.22,66.28,40.49,6.65,132.28-6.74,172.76-32.21,0,0,3.85-1,1.46,2.66-8.06,12.42-77,36.28-85,38.93-19.06,6.4-49.79,28.3,4.78,45.77,21.38,6.85,81.45,17.9,86.94,19.43,0,0,3.73,2.76-.37,3.87-7.32,2-120.54-4-176.34-34.34-19.85-11.65-48.28,34.59-37.77,56.35,2,4.2,9.63,12.57,8.3,14.14-.25.29-.72-.05-1,.24-1.4,1.48,8.35,11.24,6.25,14.36a1.18,1.18,0,0,1-.62.55c-1.44.41-3.68-3.45-4.48-4.91,6.61,11.75,10.88,20.32,9.71,21.11l-10.69-8.88h0a75.07,75.07,0,0,1,13.29,23.79c2.84,8.41,5.94,17.58,3.46,19.23-5.77,3.84-37.46-35.83-66.1-75.65-11.39-15.85-38.85-43.86-27.56-75,0,0-38.2-19.39-46.05-47.16-1.3-2.38-8.2-2.93-7.73-4.68.26-.93,4.16.14,8.77-1.17,5-1.41,6.35-4.32,9.48-6.34C166.64,280.27,175.89,287.43,198.8,288.68Z"/><path id="_Trazado_3" data-name="&lt;Trazado&gt;" class="cls-1" d="M364.89,185.09c-3.93,0-7.12,3.72-7.12,8.3s3.19,8.3,7.12,8.3H477.77c3.93,0,7.12-3.72,7.12-8.3s-3.19-8.3-7.12-8.3Z"/><path id="_Trazado_4" data-name="&lt;Trazado&gt;" class="cls-1" d="M382.59,225.58c-3.93,0-7.12,3.72-7.12,8.3s3.19,8.3,7.12,8.3H495.47c3.93,0,7.12-3.72,7.12-8.3s-3.19-8.3-7.12-8.3Z"/></svg>