<?xml version="1.0" encoding="utf-8"?>
<!-- Generator: Adobe Illustrator 24.2.3, SVG Export Plug-In . SVG Version: 6.00 Build 0)  -->
<svg version="1.1" id="Layer_1" xmlns="http://www.w3.org/2000/svg" xmlns:xlink="http://www.w3.org/1999/xlink" x="0px" y="0px"
	 viewBox="0 0 600 600" style="enable-background:new 0 0 600 600;" xml:space="preserve">
<style type="text/css">
	.st0{fill:#6DA04F;}
	.st1{fill:#AECED5;}
	.st2{fill:#45565E;}
	.st3{fill:#7C321B;}
	.st4{fill:none;stroke:#45565E;stroke-width:0.5;stroke-miterlimit:10;}
</style>
<g id="XMLID_125_">
	<path id="XMLID_163_" class="st3" d="M345.51,190.63c23.07,0,41.84-18.77,41.84-41.84s-18.77-41.84-41.84-41.84
		s-41.84,18.77-41.84,41.84S322.44,190.63,345.51,190.63z M345.51,123.69c13.84,0,25.1,11.26,25.1,25.1s-11.26,25.1-25.1,25.1
		s-25.1-11.26-25.1-25.1S331.67,123.69,345.51,123.69z"/>
	<path id="XMLID_160_" class="st0" d="M485.4,124.82C435.88,75.3,370.04,48.02,300,48.02s-135.88,27.27-185.4,76.8
		c-49.52,49.52-76.8,115.36-76.8,185.4s27.27,135.88,76.8,185.4c49.52,49.52,115.36,76.8,185.4,76.8s135.88-27.27,185.4-76.8
		c49.52-49.52,76.8-115.36,76.8-185.4S534.92,174.34,485.4,124.82z M300,555.68c-135.35,0-245.46-110.11-245.46-245.46
		S164.65,64.76,300,64.76s245.46,110.11,245.46,245.46S435.35,555.68,300,555.68z"/>
	<path id="XMLID_159_" class="st2" d="M359.57,274.38c4,2.31,9.12,0.94,11.43-3.06l34.27-59.36l82.01,141.81
		c1.55,2.68,4.36,4.18,7.25,4.18c1.42,0,2.86-0.36,4.18-1.13c4-2.31,5.37-7.43,3.05-11.43l-89.26-154.35
		c-1.5-2.59-4.26-4.18-7.24-4.18c-2.99,0-5.75,1.6-7.25,4.18l-41.51,71.9C354.19,266.95,355.56,272.07,359.57,274.38z"/>
	<path id="XMLID_158_" class="st1" d="M474.01,416.52c0-4.62-3.75-8.37-8.37-8.37H234.78c-4.62,0-8.37,3.75-8.37,8.37
		c0,4.62,3.75,8.37,8.37,8.37h230.86C470.26,424.89,474.01,421.14,474.01,416.52z"/>
	<path id="XMLID_157_" class="st1" d="M209.67,416.52c0-4.62-3.75-8.37-8.37-8.37h-66.94c-4.62,0-8.37,3.75-8.37,8.37
		c0,4.62,3.75,8.37,8.37,8.37h66.94C205.93,424.89,209.67,421.14,209.67,416.52z"/>
	<path id="XMLID_156_" class="st1" d="M156.8,458.36h196.37c4.62,0,8.37-3.75,8.37-8.37s-3.75-8.37-8.37-8.37H156.8
		c-4.62,0-8.37,3.75-8.37,8.37S152.18,458.36,156.8,458.36z"/>
	<path id="XMLID_155_" class="st1" d="M273.82,475.09c-4.62,0-8.37,3.75-8.37,8.37s3.75,8.37,8.37,8.37h132.77
		c4.62,0,8.37-3.75,8.37-8.37s-3.75-8.37-8.37-8.37H273.82z"/>
	<g id="XMLID_144_">
		<g id="XMLID_150_">
			<path id="XMLID_126_" class="st2" d="M112.68,353.79c-2.28,3.97-7.44,5.35-11.4,3.02c-4.02-2.28-5.4-7.44-3.07-11.4
				l133.71-231.28c1.49-2.63,4.26-4.21,7.24-4.21c3.02,0,5.75,1.59,7.24,4.21l133.56,231.28c2.28,4.02,0.94,9.12-3.07,11.45
				c-1.34,0.74-2.78,1.09-4.16,1.09c-2.93,0-5.7-1.49-7.29-4.16l-71.19-123.35l-21.27,15.77c-1.49,1.09-3.22,1.64-5.01,1.64
				c-1.74,0-3.47-0.55-4.96-1.64l-23.85-17.65l-23.85,17.65c-2.97,2.18-6.99,2.18-9.97,0l-21.32-15.82L112.68,353.79z
				 M285.81,215.86L239.16,135l-46.7,80.81l17.9,13.24l23.85-17.65c2.93-2.18,6.99-2.18,9.92,0l23.85,17.65L285.81,215.86z"/>
		</g>
	</g>
</g>
</svg>
