<svg id="Capa_1" data-name="Capa 1" xmlns="http://www.w3.org/2000/svg" viewBox="0 0 1011.3 1011.3"><defs><style>.cls-1{fill:none;stroke:#6d9f4f;stroke-width:25px;}.cls-1,.cls-3{stroke-miterlimit:10;}.cls-2{opacity:0.1;}.cls-3{fill:#455860;stroke:#45575f;stroke-width:8.17px;}.cls-4{fill:#7c311b;}.cls-5{fill:#959b9d;}.cls-6{fill:#accdd4;}</style></defs><title>icono-menu-larefalosa</title><path id="_Trazado_" data-name="&lt;Trazado&gt;" class="cls-1" d="M886.73,187.18C793.59,94,669.75,42.74,538,42.74S282.46,94,189.31,187.18,44.87,404.16,44.87,535.89,96.17,791.46,189.31,884.6,406.3,1029,538,1029s255.57-51.3,348.71-144.44,144.44-217,144.44-348.71S979.88,280.32,886.73,187.18Z" transform="translate(-32.37 -30.24)"/><g class="cls-2"><polygon class="cls-3" points="496.57 92.75 430.08 255.73 452.27 255.73 420.74 337.7 442.93 337.7 411.4 417.77 580.11 417.77 548.01 337.62 573.11 337.62 539.84 255.31 563.01 255.31 496.57 92.75"/><polyline class="cls-3" points="482.27 419.19 482.27 460.44 511.07 460.44 511.07 419.57"/></g><g class="cls-2"><polygon class="cls-3" points="669.45 92.69 602.96 255.68 625.15 255.68 593.62 337.64 615.81 337.64 584.28 417.71 752.99 417.71 720.88 337.57 745.98 337.57 712.71 255.26 735.88 255.26 669.45 92.69"/><polyline class="cls-3" points="655.14 419.13 655.14 460.38 683.94 460.38 683.94 419.52"/></g><path id="_Trazado_compuesto_" data-name="&lt;Trazado compuesto&gt;" class="cls-4" d="M351.92,287.49A78.48,78.48,0,1,0,273.44,209,78.56,78.56,0,0,0,351.92,287.49Zm0-125.57A47.09,47.09,0,1,1,304.84,209,47.14,47.14,0,0,1,351.92,161.92Z" transform="translate(-32.37 -30.24)"/><polygon class="cls-5" points="192.7 266.79 126.21 429.77 148.4 429.77 116.87 511.74 139.06 511.74 107.53 591.81 276.24 591.81 244.13 511.66 269.23 511.66 235.96 429.35 259.13 429.35 192.7 266.79"/><polyline class="cls-5" points="178.39 589.23 178.39 630.48 207.19 630.48 207.19 589.61"/><polygon class="cls-5" points="362.94 266.73 296.44 429.71 318.64 429.71 287.1 511.68 309.3 511.68 277.76 591.75 446.48 591.75 414.37 511.61 439.47 511.61 406.2 429.3 429.37 429.3 362.94 266.73"/><line class="cls-5" x1="348.63" y1="593.17" x2="377.43" y2="593.56"/><polygon class="cls-5" points="537.46 270.53 470.97 433.51 493.16 433.51 461.63 515.48 483.82 515.48 452.29 595.55 621 595.55 588.9 515.4 614 515.4 580.73 433.09 603.9 433.09 537.46 270.53"/><polygon class="cls-3" points="454.97 375.28 388.48 538.26 410.67 538.26 379.14 620.23 401.33 620.23 369.8 700.3 538.51 700.3 506.4 620.15 531.5 620.15 498.23 537.85 521.4 537.85 454.97 375.28"/><polyline class="cls-3" points="440.66 701.72 440.66 742.97 469.46 742.97 469.46 702.1"/><polygon class="cls-3" points="627.84 375.22 561.35 538.21 583.54 538.21 552.01 620.17 574.2 620.17 542.67 700.24 711.38 700.24 679.28 620.1 704.38 620.1 671.1 537.79 694.27 537.79 627.84 375.22"/><polyline class="cls-3" points="613.54 701.66 613.54 742.91 642.34 742.91 642.34 702.05"/><polygon class="cls-3" points="800.5 375.27 734.01 538.26 756.2 538.26 724.67 620.23 746.86 620.23 715.33 700.29 884.04 700.29 851.93 620.15 877.03 620.15 843.76 537.84 866.93 537.84 800.5 375.27"/><polyline class="cls-3" points="786.19 701.71 786.19 742.96 814.99 742.96 814.99 702.1"/><path id="_Trazado_2" data-name="&lt;Trazado&gt;" class="cls-6" d="M477.5,894.06a15.7,15.7,0,0,0-15.69-15.7H336.24a15.7,15.7,0,0,0,0,31.4H461.81A15.7,15.7,0,0,0,477.5,894.06Z" transform="translate(-32.37 -30.24)"/><path id="_Trazado_3" data-name="&lt;Trazado&gt;" class="cls-6" d="M516.89,878.66c-7.44,0-13.46,7-13.46,15.7s6,15.7,13.46,15.7H730.46c7.43,0,13.46-7,13.46-15.7s-6-15.7-13.46-15.7Z" transform="translate(-32.37 -30.24)"/><path id="_Trazado_4" data-name="&lt;Trazado&gt;" class="cls-6" d="M428,812.38a15.7,15.7,0,0,0,0,31.39H677a15.7,15.7,0,1,0,0-31.39Z" transform="translate(-32.37 -30.24)"/></svg>