<?xml version="1.0" encoding="utf-8"?>
<!-- Generator: Adobe Illustrator 25.4.0, SVG Export Plug-In . SVG Version: 6.00 Build 0)  -->
<svg version="1.1" id="Capa_1" xmlns="http://www.w3.org/2000/svg" xmlns:xlink="http://www.w3.org/1999/xlink" x="0px" y="0px"
	 viewBox="0 0 1080 1080" style="enable-background:new 0 0 1080 1080;" xml:space="preserve">
<style type="text/css">
	.st0{fill:#7C321B;}
	.st1{fill:#45565E;}
	.st2{fill:#6CA04E;}
</style>
<path class="st0" d="M662.93,349.31c34.67,0,62.88-28.2,62.88-62.88c0-34.67-28.2-62.88-62.88-62.88
	c-34.67,0-62.88,28.2-62.88,62.88C600.05,321.1,628.26,349.31,662.93,349.31 M662.93,248.71c20.8,0,37.72,16.93,37.72,37.72
	c0,20.81-16.93,37.72-37.72,37.72c-20.8,0-37.72-16.91-37.72-37.72C625.21,265.63,642.13,248.71,662.93,248.71"/>
<path class="st1" d="M707.06,475.79c-24.13-21.35-56.36-31.15-88.28-26.85c15.45-10.14,34.56-13.09,52.35-8.09
	c5.4,1.84,11.26-1.06,13.09-6.45c1.83-5.4-1.06-11.26-6.45-13.09c-26.58-7.56-55.17-1.96-76.92,15.07
	c-2.09-19.56-11.85-37.49-27.13-49.86c-2.77-2.65-6.77-3.54-10.39-2.35c-3.62,1.21-6.3,4.32-6.92,8.09
	c-0.64,3.77,0.85,7.57,3.89,9.9c12.25,9.65,19.64,24.18,20.24,39.77c-5.7-8.92-13.56-16.24-22.84-21.32
	c-35.18-19.29-80.98-1.41-82.9-0.64c-5.14,2.21-7.61,8.13-5.53,13.32c2.08,5.21,7.93,7.81,13.17,5.85
	c0.39-0.15,38.59-15.08,65.34-0.44c7.02,3.99,12.8,9.85,16.69,16.91c-46.29-14.85-89.12,16.82-107.44,39.1
	c-2.35,2.85-2.98,6.74-1.69,10.19c1.31,3.45,4.34,5.95,7.98,6.55c3.64,0.62,7.32-0.77,9.67-3.62c1.94-2.38,46.45-55.2,96.95-27.38
	c-8.24,19.15-21.08,31.79-42.4,52.75c-12.03,11.83-27.01,26.55-44.78,46.19c-31.24,34.67-53.41,86.04-67.1,125.25h-14.45
	c1.78-30.22,4.24-118.7-22.19-180.32c-10.42-24.37-19.84-43.17-27.38-58.28c-13.41-26.73-21.35-42.83-23.08-63.63
	c56.53-9.9,81.8,54.4,82.9,57.28c2.08,5.21,7.94,7.83,13.19,5.85c5.26-1.96,7.99-7.78,6.13-13.07
	c-10.12-27.03-40.45-70.92-89.19-71.76c6.02-5.43,13.41-9.1,21.37-10.59c29.88-5.16,61.45,21.3,61.79,21.55
	c4.34,3.54,10.69,2.97,14.34-1.29c3.64-4.26,3.22-10.64-0.94-14.38c-1.58-1.36-39.15-33.11-78.66-26.23
	c-10.41,1.81-20.21,6.2-28.49,12.77c5.6-14.53,17.29-25.89,31.99-31.05c5.3-2.11,7.88-8.13,5.76-13.42
	c-2.11-5.3-8.13-7.88-13.42-5.76c-18.47,6.77-33.48,20.58-41.79,38.41c-15.08-23.14-40.32-37.69-67.9-39.15
	c-5.71,0-10.34,4.61-10.36,10.31c-0.02,5.7,4.59,10.32,10.31,10.34c18.47,1.02,35.59,10,46.92,24.62
	c-28.82-14.4-62.51-15.53-92.24-3.1c-3.44,1.42-5.85,4.58-6.32,8.28c-0.45,3.69,1.12,7.34,4.11,9.57c2.98,2.21,6.95,2.65,10.34,1.12
	v-0.02c18.69-7.39,39.18-8.85,58.74-4.21c-5.98,0.49-11.83,1.91-17.38,4.21c-34.57,14.48-44.76,58.64-45.18,60.53
	c-1.22,5.55,2.26,11.06,7.83,12.3c0.74,0.17,1.49,0.25,2.26,0.25c4.83,0,9.02-3.34,10.07-8.04c0.07-0.35,8.36-35.73,33.03-46.02
	c10.94-3.97,22.99-3.65,33.72,0.89c-24.55,12.05-59.37,40.09-66.45,103.65c-0.62,5.68,3.47,10.78,9.13,11.4
	c5.66,0.64,10.76-3.45,11.4-9.12c6.97-62.78,43.84-84.18,62.71-91.08c2.56,23.21,11.83,41.76,24.85,67.79
	c7.42,14.88,16.67,33.38,26.88,57.2c24.79,57.8,22.04,144.77,20.44,172.19H227.93c-0.94,0.8-2.21,1.32-3.8,1.32
	c-9.54,0,1.88-0.02-7.68-0.07c0.7,6.5,1.69,12.97,2.92,19.42c0-0.02-0.02-0.03-0.02-0.03H674.5v0.05h16.72
	c1.44-0.08,2.88-0.15,4.34-0.23c1.31-6.97,2.31-13.98,3.03-21.01c-6.94,0.05-13.88,0.23-20.81,0.3c0,0.08-0.02,0.17-0.02,0.25
	h-45.63c-0.37,0.07-0.75,0.1-1.17,0.1h-48.98c-0.42,0-0.8-0.03-1.17-0.1h-48.95c-0.37,0.07-0.77,0.1-1.19,0.1
	c-7.06,0-14.13-0.05-21.2-0.1h-4.09v-0.03c-7.11-0.05-14.21-0.1-21.32-0.13c0.02,0.05,0.02,0.12,0.03,0.17h-46.6
	c13.17-36.33,33.33-81.23,60.55-111.43c17.34-19.17,32.08-33.67,43.92-45.3c20.78-20.43,35.59-34.99,45.52-56.19
	c15.65,12.67,43.59,44.83,29.95,106.48c-1.06,5.48,2.45,10.81,7.89,12.02c5.46,1.21,10.89-2.15,12.25-7.56
	c13.84-62.41-10.04-100.21-29.36-119.57c11.6-0.82,23.09,2.78,32.16,10.05c20.04,17.71,16.44,53.88,16.39,54.23
	c-0.6,5.65,3.49,10.72,9.13,11.36c0.39,0.05,0.77,0.07,1.16,0.07c5.25-0.02,9.65-3.97,10.24-9.18c0.22-1.91,4.86-46.99-23.14-71.88
	c-4.41-3.89-9.38-7.09-14.76-9.48c19.86,2.04,38.63,10,53.89,22.87c4.27,3.47,10.51,2.98,14.19-1.11
	C711.14,485.93,710.97,479.67,707.06,475.79"/>
<path class="st1" d="M697.93,654.7H539.27C588.4,626.53,648.8,626.53,697.93,654.7 M518.51,668.88H718.7
	c7.88,6.35,15.13,13.42,21.68,21.13H496.82C503.37,682.3,510.63,675.23,518.51,668.88 M486.04,704.18h364.19
	c4.52,6.74,8.53,13.79,11.97,21.13H474.08C477.53,717.98,481.52,710.92,486.04,704.18"/>
<path class="st1" d="M797.02,619.39H638.35C687.49,591.22,747.88,591.22,797.02,619.39 M617.59,633.57h200.19
	c7.88,6.35,15.13,13.42,21.68,21.13H595.9C602.46,646.99,609.71,639.92,617.59,633.57 M585.13,668.88h286.8
	c4.51,6.74-13.17,13.79-9.72,21.13H573.16C576.62,682.67,580.6,675.61,585.13,668.88"/>
<path class="st2" d="M810.65,228.07c-74.42-74.42-173.38-115.41-278.62-115.41s-204.2,40.99-278.62,115.41
	c-74.42,74.42-115.4,173.36-115.4,278.6c0,105.26,40.97,204.2,115.4,278.62s173.38,115.41,278.62,115.41s204.2-40.99,278.62-115.41
	s115.4-173.36,115.4-278.62C926.04,401.43,885.07,302.49,810.65,228.07 M532.03,875.55c-203.39,0-368.88-165.47-368.88-368.88
	c0-203.39,165.49-368.86,368.88-368.86s368.88,165.47,368.88,368.86C900.91,710.08,735.42,875.55,532.03,875.55"/>
</svg>
