<svg id="Capa_1" data-name="Capa 1" xmlns="http://www.w3.org/2000/svg" viewBox="0 0 881.99 882"><defs><style>.cls-1{fill:#aeced5;}.cls-2{fill:#7c321b;}.cls-3{fill:#6da04f;}.cls-4{fill:#45565e;}</style></defs><title>icono-menu-puchacay</title><path class="cls-1" d="M572.94,333.46a13.87,13.87,0,0,0-13.86-13.86H448.24a13.86,13.86,0,0,0,0,27.72H559.08a13.86,13.86,0,0,0,13.86-13.86" transform="translate(-99.01 -87.69)"/><path class="cls-1" d="M359.88,267.6a13.86,13.86,0,1,0,0,27.71H579.74a13.86,13.86,0,0,0,0-27.71Z" transform="translate(-99.01 -87.69)"/><path class="cls-2" d="M690.61,371.54a70.37,70.37,0,1,0-70.38-70.36,70.44,70.44,0,0,0,70.38,70.36m0-112.59a42.22,42.22,0,1,1-42.22,42.23A42.28,42.28,0,0,1,690.61,259" transform="translate(-99.01 -87.69)"/><path class="cls-3" d="M851.84,216.86C768.55,133.57,657.8,87.69,540,87.69S311.46,133.57,228.16,216.86,99,410.9,99,528.7s45.86,228.55,129.15,311.83S422.2,969.7,540,969.7s228.55-45.87,311.84-129.17S981,646.5,981,528.7,935.14,300.15,851.84,216.86M540,941.55c-227.65,0-412.85-185.2-412.85-412.85S312.35,115.85,540,115.85,952.86,301.05,952.86,528.7,767.66,941.55,540,941.55" transform="translate(-99.01 -87.69)"/><path class="cls-4" d="M316.6,468.08a7.92,7.92,0,0,1,11-11.42c10.83,10.37,15.87,25,12.66,39.84a42,42,0,0,1-24.17,29.59l-18.6,25.13c.1,11.9-8.32,25.5-21.27,25.7l-21.44-1.54a7.88,7.88,0,0,1-6.33-4.5l-7.92-15.65a8,8,0,0,1-.65-5.37l12.23-52.29-6-14.54a7.81,7.81,0,0,1-.31-5.14L254,448.67l-17.32-16.73A7.93,7.93,0,0,1,243,418.36c4.22.48,8.38-.16,12.53-.82,8.3-1.33,15.77-2.53,23.83,2.59,33.34-16,69.15-18.56,104.85-3.78,32.69,13.55,65,41.65,94.91,87.35,36,11.16,66.68,8.18,97.94,5.54,29.79-2.53,57.12-4.86,82.74,4.68a81.19,81.19,0,0,1,31.52,21c63.72-17.77,84.14,5.83,94.19,39.76,3,10,4.82,20.49,6.72,31.07,4.82,27,9.7,54.3,31.92,63.17a7.91,7.91,0,0,1-2.73,15.25c-81.52,2-80.44-34.92-79.38-71,.53-18.13,1-36-13.89-44.24a7.93,7.93,0,0,1,7.63-13.9c23.41,12.94,22.74,35.59,22.07,58.58-.69,23.71-1.4,47.86,38.46,53.55-12-15.42-15.86-37.14-19.71-58.69-1.83-10.23-3.64-20.42-6.29-29.33-7.16-24.19-21.88-41.25-66.81-31C715.15,565,722.56,586,727.44,607c5.36,23.08,7.69,45.93,9.2,62.71l35.44,24.69a7.88,7.88,0,0,1,3.26,5l5.14,26.79L811,772.53a7.89,7.89,0,0,1,1.74,5v48.93a7.94,7.94,0,0,1-7.94,7.91l-35.25,0c-5.63,0-9.44-4.62-8.15-9.8L769.88,790,735.25,737.2c-10.8-5.34-19.68-10.15-27.73-16.44-8.73-6.83-16.24-15.21-23.7-27.52a7.9,7.9,0,1,1,13.51-8.18c6.38,10.5,12.68,17.56,19.92,23.23,7.44,5.82,16.12,10.39,27,15.69a8,8,0,0,1,3.16,2.77L785,784.15a7.89,7.89,0,0,1,1,6.61l-6.82,27.74h17.68V779.8l-30.49-46.29a8,8,0,0,1-1.18-2.86l-4.81-25.11-35.85-25a8,8,0,0,1-3.39-5.83c-2-22.46-4.43-44.9-9.78-66.85a92.3,92.3,0,0,1-4.2,14.92c-6.2,16.69-17.57,33-34.83,47.07l10.47,63.93a7.91,7.91,0,0,1-3.95,8.18l-85.72,54.8-1.56,21a7.91,7.91,0,0,1-6.5,7.24L542,834.15A7.93,7.93,0,0,1,533.14,823L554,774.56a8,8,0,0,1,2.71-3.36l68.56-52.71c-12-22.76-23.18-44.88-29.24-65.4-7-23.83-7.09-45.36,6.3-63a7.9,7.9,0,1,1,12.58,9.55c-9.75,12.86-9.35,29.76-3.68,49,6.13,20.78,18.43,44.26,31.16,68.38a8,8,0,0,1-2.16,10l-72.47,55.71-14.09,32.8,22.58-4.81,1.41-18.95a7.88,7.88,0,0,1,3.65-6.1l85.07-54.37L656,667.83a8,8,0,0,1,3-7.57c16.83-12.78,27.68-27.73,33.36-43a73.66,73.66,0,0,0,4.13-35.84,65,65,0,0,0-42.16-52.7c-22.19-8.25-47.91-6.07-75.93-3.69-33.51,2.85-66.75,6-106.8-7.12a7.87,7.87,0,0,1-4.21-3.26c-28.45-44.23-58.82-71.11-89.16-83.68-32.63-13.51-65.52-10.41-96,5.48a7.92,7.92,0,0,1-9-1.18c-3.67-3.35-8-3.18-12.84-2.49l7.81,7.55a7.91,7.91,0,0,1,2.36,8.06l-8.76,31.14,5.74,13.89a8,8,0,0,1,.61,5.28L256,550.67l4.77,9.43c2.28.24,10.62,1.5,13.43,1.13,5.61-.74,8-6.08,7.41-11.22a7.88,7.88,0,0,1,1.47-5.88l21.65-29.25a7.78,7.78,0,0,1,3.6-2.69,26.17,26.17,0,0,0,16.46-19C326.79,483.66,323.53,474.7,316.6,468.08Zm30.11,46.12a7.94,7.94,0,0,1,11.17-11.29C366,511,372.07,522.08,375.75,534A93.25,93.25,0,0,1,379.41,572a7.88,7.88,0,0,1-1.71,4,38,38,0,0,0-6.47,17.14c-.71,6.28,0,13.22,1.22,21.47a7.93,7.93,0,0,1-5.24,8.6l-61.54,25.49-27.56,85.47L280,758.32l18.5-12.82-4.51-15a7.85,7.85,0,0,1,.2-5.12l18.68-61.27a7.88,7.88,0,0,1,6-5.47v0l82.09-16a7.94,7.94,0,0,1,3,15.58l-77.43,15.12-16.74,54.94,5.48,18.28a7.94,7.94,0,0,1-3.1,8.78l-34.16,23.68a8,8,0,0,1-12.84-5.62l-3-39.46a7.85,7.85,0,0,1,.38-3l29.17-90.48a7.9,7.9,0,0,1,4.52-4.9l59.69-24.72a82.21,82.21,0,0,1-.46-19.35,52.67,52.67,0,0,1,8.36-23.08,77.62,77.62,0,0,0-3.22-29.62C357.68,529.14,353,520.41,346.71,514.2ZM575,629a7.91,7.91,0,1,1,2.48,15.63c-22.14,3.53-39.78,5.12-56.45,4.85-13.41-.2-22.64-1.51-36.3-4l15.75,149.65a8.07,8.07,0,0,1-.09,2.3l-8.82,46.17a7.93,7.93,0,0,1-8.13,6.42l-36.58.76A8,8,0,0,1,439.26,840l17.54-44.7L414.1,617.54a7.9,7.9,0,1,1,15.38-3.66l43.13,179.58a7.93,7.93,0,0,1-.13,5.28l-14.19,36,18.88-.39,7.41-38.76Q475,704.26,465.34,613a7.92,7.92,0,0,1,15.76-1.61L483,629c14.76,3,24.48,4.5,38.29,4.71C536.92,633.93,553.71,632.4,575,629Z" transform="translate(-99.01 -87.69)"/></svg>