<?xml version="1.0" encoding="utf-8"?>
<!-- Generator: Adobe Illustrator 24.2.3, SVG Export Plug-In . SVG Version: 6.00 Build 0)  -->
<svg version="1.1" id="Layer_1" xmlns="http://www.w3.org/2000/svg" xmlns:xlink="http://www.w3.org/1999/xlink" x="0px" y="0px"
	 viewBox="0 0 600 600" style="enable-background:new 0 0 600 600;" xml:space="preserve">
<style type="text/css">
	.st0{fill:#6DA04F;}
	.st1{fill:#AECED5;}
	.st2{fill:#45565E;}
	.st3{fill:#7C321B;}
	.st4{fill:none;stroke:#45565E;stroke-width:0.5;stroke-miterlimit:10;}
</style>
<g id="XMLID_186_">
	<path id="XMLID_250_" class="st0" d="M483.81,123.04C434.71,73.94,369.44,46.91,300,46.91s-134.71,27.04-183.81,76.14
		c-49.1,49.1-76.14,114.38-76.14,183.81s27.04,134.71,76.14,183.81c49.1,49.1,114.38,76.14,183.81,76.14s134.71-27.04,183.81-76.14
		c49.1-49.1,76.14-114.38,76.14-183.81S532.91,172.14,483.81,123.04z M300,550.21c-134.19,0-243.36-109.17-243.36-243.36
		S165.81,63.5,300,63.5s243.36,109.17,243.36,243.36S434.19,550.21,300,550.21z"/>
	<path id="XMLID_243_" class="st1" d="M394.31,249.93c-3.93,0-7.11,3.71-7.11,8.3c0,4.58,3.19,8.3,7.11,8.3H507.2
		c3.93,0,7.11-3.71,7.11-8.3c0-4.58-3.19-8.3-7.11-8.3H394.31z"/>
	<path id="XMLID_242_" class="st1" d="M223.08,248.65c0-4.58-3.71-8.3-8.3-8.3h-66.37c-4.58,0-8.3,3.71-8.3,8.3
		c0,4.58,3.71,8.3,8.3,8.3h66.37C219.36,256.95,223.08,253.23,223.08,248.65z"/>
	<path id="XMLID_241_" class="st1" d="M412.02,290.43c-3.93,0-7.11,3.71-7.11,8.3s3.19,8.3,7.11,8.3H524.9
		c3.93,0,7.11-3.71,7.11-8.3s-3.19-8.3-7.11-8.3H412.02z"/>
	<path id="XMLID_239_" class="st1" d="M76.92,279.6c-4.58,0-8.3,3.71-8.3,8.3s3.71,8.3,8.3,8.3h131.63c4.58,0,8.3-3.71,8.3-8.3
		s-3.71-8.3-8.3-8.3H76.92z"/>
	<path id="XMLID_219_" class="st3" d="M201.51,195.79c22.87,0,41.48-18.61,41.48-41.48s-18.61-41.48-41.48-41.48
		s-41.48,18.61-41.48,41.48S178.63,195.79,201.51,195.79z M201.51,129.42c13.72,0,24.89,11.16,24.89,24.89
		c0,13.72-11.16,24.89-24.89,24.89c-13.72,0-24.89-11.16-24.89-24.89C176.62,140.58,187.78,129.42,201.51,129.42z"/>
	<g id="XMLID_166_">
		<g id="XMLID_167_">
			<g id="XMLID_184_">
				<path id="XMLID_94_" class="st2" d="M241.37,328.08c0,13.68,4.19,24.76,12.53,33.05c5.34,5.34,11.83,9.04,18.37,11.58
					c-1.95-2.45-3.99-5.29-5.84-8.59c-6.69-12.08-12.58-32.85-2.75-63.21c5.84-17.87,17.92-32.75,31.85-44.83
					c-14.63-10.04-29.26-16.63-40.04-20.67c3.89,9.79,6.19,23.02,1.05,38.04c-1.05,3.1-2.5,6.44-4.04,10.04
					C247.56,294.88,241.42,309.01,241.37,328.08z M335.09,230.03l-14.73-13.08l-38.09,14.58c7.74,3.99,16.23,8.94,24.71,15.03
					c0.1,0.1,0.2,0.2,0.35,0.3C316.71,240.11,326.35,234.52,335.09,230.03z M361.1,363.48c7.94-8.54,11.43-20.07,10.38-34.3
					c-1.35-18.27-5.99-26.46-10.93-35.15c-2.55-4.49-5.19-9.14-7.29-15.08c-5.69-15.93-2.9-31.05,1.3-42.19
					c-24.16,10.68-65.8,33.6-77.19,68.6c-15.43,47.48,13.18,65.26,14.38,66c0.15,0.1,0.25,0.15,0.4,0.25
					c6.64,4.54,17.27,7.24,28.46,7.24C337.28,378.86,352.06,373.27,361.1,363.48z M385.81,328.13c1.35,18.07-3.54,33.7-14.18,45.13
					c-11.78,12.68-30.41,19.97-51.03,19.97c-1.6,0-3.2-0.05-4.79-0.15h-14.33v-0.45c-13.18-0.3-39.59-3.3-57.72-21.32
					c-11.13-11.08-16.78-25.61-16.73-43.24c0.05-22.07,7.09-38.39,12.28-50.28c1.5-3.49,2.8-6.44,3.64-8.99
					c7.89-23.02-8.29-40.74-8.44-40.94c-1.55-1.65-2.2-3.89-1.85-6.14c0.4-2.2,1.8-4.09,3.79-5.14c2.75-1.4,4.24-0.95,10.73,0.95
					c3.3,0.95,17.87,6.14,19.42,6.84c5.39-4.04,20.67-13.58,53.77-22.32c2.3-0.6,4.79-0.05,6.59,1.55l22.22,19.72
					c10.33-4.49,17.62-6.89,18.62-7.19c3-0.95,6.24,0.15,8.04,2.75c1.8,2.55,1.75,5.99-0.2,8.49c-0.15,0.2-17.32,23.07-8.89,46.78
					c1.65,4.74,3.89,8.64,6.24,12.78C378.27,296.18,384.21,306.62,385.81,328.13z"/>
				<path id="XMLID_90_" class="st2" d="M293.45,449.86c-8.19-10.29-25.26-15.68-49.48-15.68c-2.45,0-4.99,0.05-7.59,0.15
					c7.39,13.38,15.08,23.57,22.82,30.46c7.74,6.89,15.58,10.38,23.32,10.38c7.79,0,13.78-3.64,16.48-5.69
					C299.39,465.68,299.39,457.3,293.45,449.86z M379.37,457.9c-2.65-0.1-5.19-0.2-7.64-0.2c-24.16,0-41.29,5.44-49.43,15.68
					c-5.94,7.44-5.94,15.83-5.54,19.62c2.65,2.05,8.64,5.74,16.43,5.74C348.67,498.74,364.54,484.66,379.37,457.9z M397.05,447.96
					c1.15,2.05,1.25,4.54,0.2,6.64c-19.07,38.79-40.64,58.47-64.06,58.47c-6.89,0-12.73-1.8-17.32-3.94v40.94
					c0,3.94-3.25,7.14-7.19,7.14c-3.99,0-7.19-3.2-7.19-7.14v-65.26c-4.79,2.5-11.23,4.74-18.92,4.74h-0.05
					c-23.42,0-44.93-19.67-64.01-58.47c-1.05-2.1-1-4.64,0.15-6.69c1.2-2.05,3.3-3.4,5.64-3.64c6.94-0.6,13.53-0.95,19.67-0.95
					c26.56,0,45.83,5.89,57.52,17.52v-44.24h14.33v66.3c11.78-10.63,30.56-16.03,55.92-16.03c6.14,0,12.78,0.3,19.72,0.95
					C393.8,444.52,395.9,445.86,397.05,447.96z"/>
			</g>
			<g id="XMLID_177_">
				<path id="XMLID_89_" class="st4" d="M301.48,393.09v44.24c-11.68-11.63-30.96-17.52-57.52-17.52c-6.14,0-12.73,0.35-19.67,0.95
					c-2.35,0.25-4.44,1.6-5.64,3.64c-1.15,2.05-1.2,4.59-0.15,6.69c19.07,38.79,40.59,58.47,64.01,58.47h0.05
					c7.69,0,14.13-2.25,18.92-4.74v65.26c0,3.94,3.2,7.14,7.19,7.14c3.94,0,7.19-3.2,7.19-7.14v-40.94
					c4.59,2.15,10.43,3.94,17.32,3.94c23.42,0,44.98-19.67,64.06-58.47c1.05-2.1,0.95-4.59-0.2-6.64c-1.15-2.1-3.25-3.44-5.59-3.64
					c-6.94-0.65-13.58-0.95-19.72-0.95c-25.36,0-44.14,5.39-55.92,16.03v-66.3c1.6,0.1,3.2,0.15,4.79,0.15
					c20.62,0,39.24-7.29,51.03-19.97c10.63-11.43,15.53-27.06,14.18-45.13c-1.6-21.52-7.54-31.95-12.78-41.19
					c-2.35-4.14-4.59-8.04-6.24-12.78c-8.44-23.72,8.74-46.58,8.89-46.78c1.95-2.5,2-5.94,0.2-8.49c-1.8-2.6-5.04-3.69-8.04-2.75
					c-1,0.3-8.29,2.7-18.62,7.19L327,203.62c-1.8-1.6-4.29-2.15-6.59-1.55c-33.1,8.74-48.38,18.27-53.77,22.32
					c-1.55-0.7-16.13-5.89-19.42-6.84c-6.49-1.9-7.99-2.35-10.73-0.95c-2,1.05-3.4,2.95-3.79,5.14c-0.35,2.25,0.3,4.49,1.85,6.14
					c0.15,0.2,16.33,17.92,8.44,40.94c-0.85,2.55-2.15,5.49-3.64,8.99c-5.19,11.88-12.23,28.21-12.28,50.28
					c-0.05,17.62,5.59,32.15,16.73,43.24c18.12,18.02,44.54,21.02,57.72,21.32V393.09z"/>
				<path id="XMLID_88_" class="st4" d="M298.99,469.48c-2.7,2.05-8.69,5.69-16.48,5.69c-7.74,0-15.58-3.49-23.32-10.38
					c-7.74-6.89-15.43-17.08-22.82-30.46c2.6-0.1,5.14-0.15,7.59-0.15c24.21,0,41.29,5.39,49.48,15.68
					C299.39,457.3,299.39,465.68,298.99,469.48z"/>
				<path id="XMLID_87_" class="st4" d="M320.36,216.95l14.73,13.08c-8.74,4.49-18.37,10.09-27.76,16.83
					c-0.15-0.1-0.25-0.2-0.35-0.3c-8.49-6.09-16.98-11.03-24.71-15.03"/>
				<path id="XMLID_86_" class="st4" d="M253.9,361.14c-8.34-8.29-12.53-19.37-12.53-33.05c0.05-19.07,6.19-33.2,11.13-44.59
					c1.55-3.59,3-6.94,4.04-10.04c5.14-15.03,2.85-28.26-1.05-38.04c10.78,4.04,25.41,10.63,40.04,20.67
					c-13.93,12.08-26.01,26.96-31.85,44.83c-9.84,30.36-3.94,51.13,2.75,63.21c1.85,3.3,3.89,6.14,5.84,8.59
					C265.74,370.17,259.25,366.48,253.9,361.14z"/>
				<path id="XMLID_85_" class="st4" d="M292.15,371.62c-0.15-0.1-0.25-0.15-0.4-0.25c-1.2-0.75-29.81-18.52-14.38-66
					c11.38-35,53.02-57.92,77.19-68.6c-4.19,11.13-6.99,26.26-1.3,42.19c2.1,5.94,4.74,10.58,7.29,15.08
					c4.94,8.69,9.59,16.88,10.93,35.15c1.05,14.23-2.45,25.76-10.38,34.3c-9.04,9.79-23.82,15.38-40.49,15.38
					C309.42,378.86,298.79,376.16,292.15,371.62z"/>
				<path id="XMLID_84_" class="st4" d="M333.19,498.74c-7.79,0-13.78-3.69-16.43-5.74c-0.4-3.79-0.4-12.18,5.54-19.62
					c8.14-10.24,25.26-15.68,49.43-15.68c2.45,0,4.99,0.1,7.64,0.2C364.54,484.66,348.67,498.74,333.19,498.74z"/>
			</g>
		</g>
	</g>
</g>
</svg>
