<?xml version="1.0" encoding="utf-8"?>
<!-- Generator: Adobe Illustrator 22.0.1, SVG Export Plug-In . SVG Version: 6.00 Build 0)  -->
<svg version="1.1" id="PARCELAS_x5F_" xmlns="http://www.w3.org/2000/svg" xmlns:xlink="http://www.w3.org/1999/xlink" x="0px"
	 y="0px" viewBox="0 0 2012 1943.4" style="enable-background:new 0 0 2012 1943.4;" xml:space="preserve">
<path id="P-1" d="M1487.2,1741.8l-95.5-54.8l-64.4-32.7l-68.3,1.6l2.1,147.2l289.3,11l6.7-26.9L1487.2,1741.8z M1369.9,1752.8h-7
	v-16.7c-1.1,0.9-2.2,1.6-3.3,2.1c-1.1,0.5-2.4,1-4,1.5v-5.7c2.4-0.8,4.2-1.7,5.5-2.8c1.3-1.1,2.3-2.4,3.1-4h5.8L1369.9,1752.8
	L1369.9,1752.8z"/>
<path id="P-2" d="M1252.9,1654l-27.6,0.6l-242.9,15.8l-54.7,109.3l117.7,10.6l209.5,11.2L1252.9,1654z M1109.2,1741.6h-20.9
	c0.2-2.1,1-4,2.2-5.8s3.5-4,6.8-6.4c2-1.5,3.3-2.7,3.9-3.5s0.9-1.5,0.9-2.2c0-0.8-0.3-1.4-0.8-2c-0.6-0.5-1.3-0.8-2.1-0.8
	c-0.9,0-1.6,0.3-2.2,0.8c-0.6,0.6-0.9,1.5-1.1,3l-7-0.6c0.3-2,0.8-3.5,1.5-4.6s1.8-1.9,3.1-2.5c1.3-0.6,3.2-0.9,5.5-0.9
	c2.5,0,4.4,0.3,5.7,0.8c1.4,0.6,2.4,1.4,3.2,2.6s1.2,2.5,1.2,3.9c0,1.5-0.4,3-1.3,4.4s-2.5,2.9-4.9,4.6c-1.4,1-2.3,1.6-2.8,2
	s-1,0.9-1.7,1.5h10.9L1109.2,1741.6L1109.2,1741.6z"/>
<path id="P-3" d="M889.5,1510.3l-85.8,262.2l58,1.4l59.5,5.1l94.4-190.6L889.5,1510.3z M919.1,1666.2c-0.8,1.3-1.9,2.4-3.3,3.1
	c-1.4,0.7-3.3,1.1-5.7,1.1c-2.3,0-4.1-0.3-5.4-0.8c-1.3-0.5-2.4-1.3-3.2-2.3s-1.5-2.3-2-3.9l7-0.9c0.3,1.4,0.7,2.4,1.3,2.9
	s1.3,0.8,2.2,0.8s1.7-0.3,2.3-1s0.9-1.6,0.9-2.7c0-1.2-0.3-2.1-0.9-2.7c-0.6-0.6-1.4-1-2.4-1c-0.5,0-1.3,0.1-2.3,0.4l0.4-5
	c0.4,0.1,0.7,0.1,0.9,0.1c0.9,0,1.7-0.3,2.3-0.9s0.9-1.3,0.9-2.1c0-0.8-0.2-1.4-0.7-1.8c-0.5-0.5-1.1-0.7-1.9-0.7
	c-0.8,0-1.5,0.2-2,0.7s-0.9,1.4-1,2.6l-6.6-1.2c0.5-2.1,1.6-3.7,3.2-4.8c1.6-1.1,3.8-1.7,6.6-1.7c3.3,0,5.6,0.6,7.1,1.8
	c1.5,1.2,2.2,2.8,2.2,4.6c0,1.1-0.3,2.1-0.9,2.9c-0.6,0.9-1.5,1.6-2.7,2.3c1,0.2,1.7,0.5,2.2,0.8c0.8,0.5,1.5,1.2,1.9,2
	c0.5,0.8,0.7,1.8,0.7,3C920.3,1663.5,919.9,1664.9,919.1,1666.2z"/>
<path id="P-4" d="M833,1476.3l-39.4-29.8l-98.5,320.8l102.3,5.1l86.8-265.3L833,1476.3z M805.2,1622h-3.1v4.7H796v-3.7v-1v-5.4v-2.3
	v-5.6l-6.7,7.9h6.4v5.4h-12.4v-5.7l12.7-15.1h6.1v15.4h3.1L805.2,1622L805.2,1622z"/>
<path id="P-5" d="M732.3,1399.1l-18.4-15.9l-113.3,378.9l88.5,3.8l99.6-324.3L732.3,1399.1z M704.5,1595.7c-0.8,1.5-1.9,2.6-3.4,3.4
	s-3.4,1.2-5.7,1.2c-1.7,0-3.1-0.2-4.2-0.5c-1.2-0.3-2.2-0.8-3-1.4s-1.5-1.3-2-2.1s-0.9-1.8-1.3-2.9l7-0.8c0.2,1.1,0.6,2,1.2,2.6
	c0.6,0.6,1.4,0.9,2.2,0.9c1,0,1.8-0.4,2.4-1.1c0.6-0.7,0.9-1.8,0.9-3.3s-0.3-2.6-1-3.3c-0.6-0.7-1.5-1-2.5-1c-0.7,0-1.3,0.2-1.9,0.5
	c-0.5,0.2-1,0.7-1.5,1.3l-5.9-0.9l2.2-13.5h16.5v5.6h-11.2l-0.6,3.8c0.8-0.4,1.5-0.6,2.3-0.8c0.8-0.2,1.5-0.3,2.2-0.3
	c2.5,0,4.5,0.8,6.1,2.3s2.3,3.4,2.3,5.7C705.7,1592.6,705.3,1594.2,704.5,1595.7z"/>
<path id="P-6" d="M687.3,1350.5l-14.7-11.7l-19.5-12.9l-15.1-8.3L501.8,1759l92.5,3.8L709,1379.6L687.3,1350.5z M615.3,1571.6
	c-0.8,1.4-1.9,2.4-3.2,3.1c-1.4,0.7-3.1,1.1-5.2,1.1c-2.5,0-4.5-0.4-6-1.3s-2.7-2.2-3.6-4.1c-0.9-1.9-1.4-4.4-1.4-7.4
	c0-4.5,1-7.8,2.9-9.9s4.5-3.2,7.9-3.2c2,0,3.6,0.2,4.7,0.7c1.2,0.5,2.1,1.1,2.9,2c0.8,0.9,1.3,2,1.7,3.3l-6.9,0.9
	c-0.2-1-0.5-1.7-0.9-2.1s-1-0.6-1.6-0.6c-1.1,0-2,0.6-2.6,1.7c-0.5,0.8-0.8,2.6-1,5.3l0.2,6.5l0.1,0.3c0,0.2,0.1,0.4,0.1,0.5v0.3
	v-0.1c0.2,0.6,0.4,1.2,0.8,1.6c0.7,0.8,1.5,1.2,2.5,1.2c0.9,0,1.7-0.3,2.3-1s0.9-1.7,0.9-3.1s-0.3-2.5-1-3.2
	c-0.6-0.7-1.4-1.1-2.4-1.1s-1.8,0.4-2.4,1.1c-0.4,0.4-0.7,1-0.8,1.7l-0.1-4.9c0.7-0.7,1.5-1.2,2.2-1.6c0.9-0.4,1.9-0.6,3-0.6
	c2.2,0,4.1,0.8,5.7,2.4c1.5,1.6,2.3,3.6,2.3,6.1C616.5,1568.7,616.1,1570.2,615.3,1571.6z"/>
<path id="P-7-8" d="M613.4,1306.3l-27.5-6.9l-34.8-11.7l-14.2-4.6l-37.1-20.7l-40.8-10.7l-90.9,336.8l51.8,134.8l0-0.1l13.3,34.4
	l62.5,1.2l137-443.9L613.4,1306.3z M475.6,1492.1c-1.8,1.6-3.2,3.3-4.4,5.2c-1.4,2.3-2.6,4.8-3.4,7.5c-0.7,2.2-1.1,4.7-1.3,7.6h-6.9
	c0.5-4.1,1.4-7.5,2.6-10.3c1.2-2.8,3-5.7,5.6-8.9h-12.4v-5.9h20.3V1492.1z M487.9,1506h-10.1v-5.4h10.1V1506z M494.4,1511.9
	c-1.4-0.6-2.5-1.5-3.2-2.8c-0.7-1.2-1.1-2.6-1.1-4.1c0-1.5,0.3-2.7,1-3.7s1.7-1.8,3.2-2.4c-1.1-0.6-1.9-1.2-2.4-1.9
	c-0.7-1-1-2.1-1-3.4c0-2.1,1-3.8,3-5.1c1.5-1,3.6-1.5,6.1-1.5c0.3,0,0.5,0,0.8,0v4.3c-0.1,0-0.3,0-0.4,0c-0.8,0-1.5,0.3-2.1,0.8
	c-0.5,0.5-0.8,1.2-0.8,2.1c0,0.9,0.3,1.6,0.8,2.1c0.5,0.5,1.3,0.8,2.2,0.8c0.1,0,0.2,0,0.3,0v4.2c-0.1,0-0.3,0-0.4,0
	c-0.9,0-1.6,0.3-2.3,1c-0.6,0.7-1,1.6-1,2.8c0,1.1,0.3,2,1,2.7c0.7,0.7,1.4,1.1,2.3,1.1c0.1,0,0.2,0,0.4,0v4.3c-0.1,0-0.2,0-0.2,0
	C497.9,1512.8,495.8,1512.5,494.4,1511.9z M509.8,1508.6c-0.6,1.1-1.3,1.9-2.1,2.5c-0.8,0.6-1.9,1-3.1,1.3c-1.1,0.3-2.4,0.4-3.6,0.4
	v-4.3c0.6-0.1,1.2-0.4,1.8-1c0.7-0.7,1-1.6,1-2.7c0-1.1-0.3-2-1-2.7c-0.5-0.6-1.1-0.9-1.8-1v-4.2c0.6-0.1,1.1-0.3,1.5-0.7
	c0.5-0.5,0.8-1.2,0.8-2c0-0.9-0.3-1.6-0.8-2.1c-0.4-0.4-0.9-0.7-1.5-0.8v-4.3c2.9,0.1,5.1,0.7,6.5,1.9c1.6,1.3,2.4,2.9,2.4,4.8
	c0,1.1-0.3,2.2-1,3.2c-0.5,0.7-1.2,1.4-2.3,2.1c1.4,0.6,2.4,1.5,3,2.6c0.7,1.1,1,2.3,1,3.6C510.6,1506.3,510.3,1507.5,509.8,1508.6z
	"/>
<path id="P-9" d="M406.8,1257.1l-27-12.6l-120.2,44.6l42.2,88.7l4.8,15.2l10.3,56.7l47.7,129l88.3-327.3L406.8,1257.1z
	 M362.1,1367.2c-1.9,2.1-4.5,3.2-7.9,3.2c-2,0-3.6-0.2-4.7-0.7c-1.2-0.5-2.1-1.1-2.9-2s-1.4-2-1.8-3.3l6.9-0.9
	c0.2,1,0.5,1.7,0.9,2.1s1,0.6,1.6,0.6c1.1,0,2-0.6,2.6-1.7c0.5-0.8,0.8-2.6,1-5.3c-0.1,0.1-0.2,0.2-0.3,0.2v-5.6l0,0
	c0-0.2,0-0.4,0-0.6c0-1.4-0.3-2.4-1-3.2c-0.7-0.8-1.5-1.2-2.5-1.2c-0.9,0-1.7,0.3-2.3,1c-0.6,0.7-0.9,1.7-0.9,3.1s0.3,2.5,0.9,3.2
	s1.4,1.1,2.4,1.1s1.8-0.4,2.4-1.1c0.2-0.2,0.4-0.5,0.5-0.8v4.4c-0.6,0.5-1.2,0.9-1.8,1.2c-0.9,0.4-1.9,0.6-3,0.6
	c-2.2,0-4.1-0.8-5.7-2.4c-1.5-1.6-2.3-3.6-2.3-6c0-1.7,0.4-3.2,1.2-4.5s1.9-2.4,3.2-3.1c1.4-0.7,3.1-1.1,5.2-1.1
	c2.5,0,4.5,0.4,6,1.3s2.7,2.2,3.6,4.1s1.4,4.3,1.4,7.4C365,1361.7,364,1365.1,362.1,1367.2z"/>
<path id="P-10" d="M925.6,1325.1l-40.3-6.8h-71l-62.2-2.6l-32.8,16.9l-25.5,16.7l20.7,27.7l21.6,18.6l100.4,75.9l50.5,30.4
	l102.5-157.5L925.6,1325.1z M841.2,1400h-7v-16.7c-1.1,0.9-2.2,1.6-3.3,2.1s-2.4,1-4,1.5v-5.7c2.4-0.8,4.2-1.7,5.5-2.8
	c1.3-1.1,2.3-2.4,3.1-4h5.8L841.2,1400L841.2,1400z M850.7,1396.5c-0.6-0.9-1.1-2.2-1.4-3.8c-0.3-1.6-0.5-3.4-0.5-5.3
	c0-4.8,0.9-8.1,2.6-10c1.6-1.7,3.8-2.7,6.9-2.8v4.7c-0.8,0.2-1.4,0.7-1.8,1.7c-0.5,1.2-0.8,3.3-0.8,6.5s0.3,5.4,0.8,6.5
	c0.4,0.9,1,1.4,1.7,1.6v4.8c-1.7-0.1-3.2-0.4-4.3-1C852.6,1398.8,851.5,1397.8,850.7,1396.5z M866.9,1397.3
	c-1.5,2.1-4.2,3.2-7.9,3.2v-4.8c0.7,0,1.3-0.3,1.8-0.7c0.5-0.5,0.9-1.3,1.1-2.3c0.2-1.1,0.4-2.7,0.4-5c0-3.3-0.3-5.6-0.8-6.7
	c-0.6-1.1-1.4-1.7-2.5-1.7v-4.6c0.1,0,0.1,0,0.2,0c1.7,0,3.1,0.2,4.2,0.6c1.1,0.4,2,1,2.6,1.6c0.7,0.7,1.2,1.4,1.6,2.1
	c0.4,0.7,0.7,1.6,0.9,2.6c0.5,1.9,0.7,3.8,0.7,5.8C869.2,1391.9,868.5,1395.2,866.9,1397.3z"/>
<path id="P-11" d="M1108.5,1393.8l-105.6-45.5l-7.5-2.3L892,1504.9l126.8,78.6l129.3-166.8L1108.5,1393.8z M1006.6,1478.3h-7v-16.7
	c-1.1,0.9-2.2,1.6-3.3,2.1s-2.4,1-4,1.5v-5.7c2.4-0.8,4.2-1.7,5.5-2.8c1.3-1.1,2.3-2.4,3.1-4h5.8L1006.6,1478.3L1006.6,1478.3z
	 M1030,1478.3h-7v-16.7c-1.1,0.9-2.2,1.6-3.3,2.1s-2.4,1-4,1.5v-5.7c2.4-0.8,4.2-1.7,5.5-2.8c1.3-1.1,2.3-2.4,3.1-4h5.8v25.6H1030z"
	/>
<path id="P-12" d="M1220.9,1567.8l8.2-61.4l-3.7-21.9l-11.6-23.6l-30.4-23.9l-30-17.3L1022.1,1589l-36.7,75.2l228.5-14.8l-16.5-8.3
	l2.9-33.5L1220.9,1567.8z M1127.2,1575.2h-7v-16.7c-1.1,0.9-2.2,1.6-3.3,2.1c-1.1,0.5-2.4,1-4,1.5v-5.7c2.4-0.8,4.2-1.7,5.5-2.8
	c1.3-1.1,2.3-2.4,3.1-4h5.8L1127.2,1575.2L1127.2,1575.2z M1155.1,1575.2h-20.9c0.2-2.1,1-4,2.2-5.8s3.5-4,6.8-6.4
	c2-1.5,3.3-2.7,3.9-3.5s0.9-1.5,0.9-2.2c0-0.8-0.3-1.4-0.8-2c-0.6-0.5-1.3-0.8-2.1-0.8c-0.9,0-1.6,0.3-2.2,0.8
	c-0.6,0.6-0.9,1.5-1.1,3l-7-0.6c0.3-2,0.8-3.5,1.5-4.6s1.8-1.9,3.1-2.5c1.3-0.6,3.2-0.9,5.5-0.9c2.5,0,4.4,0.3,5.7,0.8
	c1.4,0.6,2.4,1.4,3.2,2.6s1.2,2.5,1.2,3.9c0,1.5-0.4,3-1.3,4.4s-2.5,2.9-4.9,4.6c-1.4,1-2.3,1.6-2.8,2s-1,0.9-1.7,1.5h10.9
	L1155.1,1575.2L1155.1,1575.2z"/>
<path id="P-13" d="M1515.3,1396l-27-15.1l-16.9,10.9l-29.7,14.4l-33.9,6.9l-42.2,0.2l-52.6-9.7l-26-41l-75.7,87.9l7.4,6.6l12.6,25.5
	l4,23.7l-8.5,63.4l-20.5,39.7l-2,23.6l312.2-232.6L1515.3,1396z M1302.4,1478.3h-7v-16.7c-1.1,0.9-2.2,1.6-3.3,2.1
	c-1.1,0.5-2.4,1-4,1.5v-5.7c2.4-0.8,4.2-1.7,5.5-2.8c1.3-1.1,2.3-2.4,3.1-4h5.8L1302.4,1478.3L1302.4,1478.3z M1329.3,1474.5
	c-0.8,1.3-1.9,2.4-3.3,3.1s-3.3,1.1-5.7,1.1c-2.3,0-4.1-0.3-5.4-0.8s-2.4-1.3-3.2-2.3c-0.8-1-1.5-2.3-2-3.9l7-0.9
	c0.3,1.4,0.7,2.4,1.3,2.9c0.6,0.5,1.3,0.8,2.2,0.8c0.9,0,1.7-0.3,2.3-1c0.6-0.7,0.9-1.6,0.9-2.7c0-1.2-0.3-2.1-0.9-2.7s-1.4-1-2.4-1
	c-0.5,0-1.3,0.1-2.3,0.4l0.4-5c0.4,0.1,0.7,0.1,0.9,0.1c0.9,0,1.7-0.3,2.3-0.9s0.9-1.3,0.9-2.1c0-0.8-0.2-1.4-0.7-1.8
	c-0.5-0.5-1.1-0.7-1.9-0.7s-1.5,0.2-2,0.7s-0.9,1.4-1,2.6l-6.6-1.2c0.5-2.1,1.6-3.7,3.2-4.8c1.6-1.1,3.8-1.7,6.6-1.7
	c3.3,0,5.6,0.6,7.1,1.8c1.5,1.2,2.2,2.8,2.2,4.6c0,1.1-0.3,2.1-0.9,2.9c-0.6,0.9-1.5,1.6-2.7,2.3c1,0.2,1.7,0.5,2.2,0.8
	c0.8,0.5,1.5,1.2,1.9,2c0.5,0.8,0.7,1.8,0.7,3C1330.4,1471.8,1330.1,1473.2,1329.3,1474.5z"/>
<path id="P-14" d="M1560,1375.2l-353.7,263.6l19.5,9.8l102.8-2.3l63.3,32.1l178-301.6L1560,1375.2z M1388.2,1578.8h-7v-16.7
	c-1.1,0.9-2.2,1.6-3.3,2.1c-1.1,0.5-2.4,1-4,1.5v-5.7c2.4-0.8,4.2-1.7,5.5-2.8c1.3-1.1,2.3-2.4,3.1-4h5.8L1388.2,1578.8
	L1388.2,1578.8z M1416.9,1574.1h-3.1v4.7h-6.1v-3.1v-1.5v-5.4v-2.1v-5.8l-6.7,7.9h6.2v5.4H1395v-5.7l12.7-15.1h6.1v15.4h3.1
	L1416.9,1574.1L1416.9,1574.1z"/>
<path id="P-15" d="M1611,1408l-35.4-29l-178.4,302.2l90.3,51.8l148.1-289L1611,1408z M1509.8,1582.8h-7v-16.7
	c-1.1,0.9-2.2,1.6-3.3,2.1c-1.1,0.5-2.4,1-4,1.5v-5.7c2.4-0.8,4.2-1.7,5.5-2.8c1.3-1.1,2.3-2.4,3.1-4h5.8L1509.8,1582.8
	L1509.8,1582.8z M1536.8,1578.6c-0.8,1.5-1.9,2.6-3.4,3.4s-3.4,1.2-5.7,1.2c-1.7,0-3.1-0.2-4.2-0.5c-1.2-0.3-2.2-0.8-3-1.4
	s-1.5-1.3-2-2.1s-0.9-1.8-1.3-2.9l7-0.8c0.2,1.1,0.6,2,1.2,2.6s1.4,0.9,2.2,0.9c1,0,1.8-0.4,2.4-1.1s0.9-1.8,0.9-3.3s-0.3-2.6-1-3.3
	c-0.6-0.7-1.5-1-2.5-1c-0.7,0-1.3,0.2-1.9,0.5c-0.5,0.2-1,0.7-1.5,1.3l-5.9-0.9l2.2-13.5h16.5v5.6h-11.2l-0.6,3.8
	c0.8-0.4,1.5-0.6,2.3-0.8c0.8-0.2,1.5-0.3,2.2-0.3c2.5,0,4.5,0.8,6.1,2.3s2.3,3.4,2.3,5.7C1538,1575.6,1537.6,1577.2,1536.8,1578.6z
	"/>
<path id="P-16" d="M1676.3,1473.3l-31.9-16.4l-4.9-7.2l-146.8,286.5l81.1,52.8l155.2-310.6L1676.3,1473.3z M1603.2,1632.3h-7v-16.7
	c-1.1,0.9-2.2,1.6-3.3,2.1c-1.1,0.5-2.4,1-4,1.5v-5.7c2.4-0.8,4.2-1.7,5.5-2.8c1.3-1.1,2.3-2.4,3.1-4h5.8L1603.2,1632.3
	L1603.2,1632.3z M1630.3,1628.6c-0.8,1.4-1.9,2.4-3.2,3.1c-1.4,0.7-3.1,1.1-5.2,1.1c-2.5,0-4.5-0.4-6-1.3s-2.7-2.2-3.6-4.1
	s-1.4-4.4-1.4-7.4c0-4.5,1-7.8,2.9-9.9s4.5-3.2,7.9-3.2c2,0,3.6,0.2,4.7,0.7c1.2,0.5,2.1,1.1,2.9,2s1.3,2,1.7,3.3l-6.9,0.9
	c-0.2-1-0.5-1.7-0.9-2.1s-1-0.6-1.6-0.6c-1.1,0-2,0.6-2.6,1.7c-0.5,0.8-0.8,2.6-1,5.3l0.2,6.1l0,0c0,1.3,0.4,2.3,1,3
	c0.7,0.8,1.5,1.2,2.5,1.2c0.9,0,1.7-0.3,2.3-1c0.6-0.7,0.9-1.7,0.9-3.1s-0.3-2.5-1-3.2c-0.6-0.7-1.4-1.1-2.4-1.1s-1.8,0.4-2.4,1.1
	c-0.5,0.5-0.7,1.2-0.9,1.9l-0.1-5.1c0.8-0.7,1.5-1.3,2.3-1.6c0.9-0.4,1.9-0.6,3-0.6c2.2,0,4.1,0.8,5.7,2.4c1.5,1.6,2.3,3.6,2.3,6.1
	C1631.4,1625.7,1631.1,1627.2,1630.3,1628.6z"/>
<path id="P-17" d="M1735.4,1478.9l-156.6,313.5l75.7,54l180.2-360.9L1735.4,1478.9z M1702.2,1658h-7v-16.7c-1.1,0.9-2.2,1.6-3.3,2.1
	c-1.1,0.5-2.4,1-4,1.5v-5.7c2.4-0.8,4.2-1.7,5.5-2.8c1.3-1.1,2.3-2.4,3.1-4h5.8L1702.2,1658L1702.2,1658z M1730.2,1637.6
	c-1.8,1.6-3.2,3.3-4.4,5.2c-1.4,2.3-2.6,4.8-3.4,7.5c-0.7,2.2-1.1,4.7-1.3,7.6h-6.9c0.5-4.1,1.4-7.5,2.6-10.3s3-5.7,5.6-8.9H1710
	v-5.9h20.3L1730.2,1637.6L1730.2,1637.6z"/>
<path id="P-18" d="M1840.5,1487.2l-180.9,362.2l62.6,30.1l18.5,15l173.6-353.3L1840.5,1487.2z M1795,1690.3h-7v-16.7
	c-1.1,0.9-2.2,1.6-3.3,2.1c-1.1,0.5-2.4,1-4,1.5v-5.7c2.4-0.8,4.2-1.7,5.5-2.8c1.3-1.1,2.3-2.4,3.1-4h5.8L1795,1690.3L1795,1690.3z
	 M1803.7,1687c-0.7-1.2-1.1-2.6-1.1-4.1s0.3-2.7,1-3.7s1.7-1.8,3.2-2.4c-1.1-0.6-1.9-1.2-2.4-1.9c-0.7-1-1-2.1-1-3.4
	c0-2.1,1-3.8,3-5.1c1.5-1,3.6-1.5,6.1-1.5v4.3c-0.7,0.1-1.3,0.3-1.7,0.8c-0.5,0.5-0.8,1.2-0.8,2.1s0.3,1.6,0.8,2.1
	c0.4,0.4,1,0.7,1.7,0.8v4.2c-0.7,0.1-1.4,0.4-1.9,1c-0.6,0.7-1,1.6-1,2.8c0,1.1,0.3,2,1,2.7c0.6,0.6,1.2,0.9,1.9,1v4.3
	c-2.4,0-4.2-0.4-5.5-0.9C1805.5,1689.1,1804.4,1688.2,1803.7,1687z M1822.2,1686.4c-0.6,1.1-1.3,1.9-2.1,2.5c-0.8,0.6-1.9,1-3.1,1.3
	s-2.6,0.4-4,0.4h-0.1v-4.3l0,0c0.8,0,1.6-0.4,2.2-1.1c0.7-0.7,1-1.6,1-2.7s-0.3-2-1-2.7c-0.6-0.7-1.4-1-2.2-1.1v-4.1c0,0,0,0,0.1,0
	c0.8,0,1.5-0.3,2-0.8s0.8-1.2,0.8-2c0-0.9-0.3-1.6-0.8-2.1s-1.2-0.8-2-0.8v-4.2c3.1,0.1,5.5,0.7,7,1.9c1.6,1.3,2.4,2.9,2.4,4.8
	c0,1.1-0.3,2.2-1,3.2c-0.5,0.7-1.2,1.4-2.3,2.1c1.4,0.6,2.4,1.5,3,2.6c0.7,1.1,1,2.3,1,3.6
	C1823.1,1684.2,1822.8,1685.3,1822.2,1686.4z"/>
<path id="P-19-20" d="M1929.7,1457.2l-135.5-77.2l-68.7-49.4l-58.8-50.7l-106.6-98.3l-59.1,19.6l-34.6,9.8l-95.8,196.2l36.5-0.2
	l32.6-6.6l28.7-13.9l19.6-12.6l32.4,18.1l1.1,4.4l36.9-27.5l17.5,2.8l36.5,29.8l36.1,50.8l29.5,15.2l55.8,5.3l106.6,7l76.4,55.8
	l27.1-67.4L1929.7,1457.2z M1533.6,1319.2h-7v-16.7c-1.1,0.9-2.2,1.6-3.3,2.1c-1.1,0.5-2.4,1-4,1.5v-5.7c2.4-0.8,4.2-1.7,5.5-2.8
	c1.3-1.1,2.3-2.4,3.1-4h5.8V1319.2z M1558.8,1316.5c-1.9,2.1-4.5,3.2-7.9,3.2c-2,0-3.6-0.2-4.7-0.7c-1.2-0.5-2.1-1.1-2.9-2
	c-0.8-0.9-1.4-2-1.8-3.3l6.9-0.9c0.2,1,0.5,1.7,0.9,2.1c0.4,0.4,1,0.6,1.6,0.6c1.1,0,2-0.6,2.6-1.7c0.5-0.8,0.8-2.6,1-5.3
	c-0.8,0.9-1.7,1.5-2.6,1.9c-0.9,0.4-1.9,0.6-3,0.6c-2.2,0-4.1-0.8-5.7-2.4c-1.5-1.6-2.3-3.6-2.3-6c0-1.7,0.4-3.2,1.2-4.5
	s1.9-2.4,3.2-3.1c1.4-0.7,3.1-1.1,5.2-1.1c2.5,0,4.5,0.4,6,1.3c1.5,0.9,2.7,2.2,3.6,4.1c0.4,0.9,0.7,1.8,0.9,2.9h-6.9
	c-0.1-1.2-0.4-2.1-1-2.8c-0.7-0.8-1.5-1.2-2.5-1.2c-0.9,0-1.7,0.3-2.3,1c-0.6,0.7-0.9,1.7-0.9,3.1c0,1.4,0.3,2.5,0.9,3.2
	c0.6,0.7,1.4,1.1,2.4,1.1c1,0,1.8-0.4,2.4-1.1c0.7-0.7,1-1.7,1-3.1c0,0,0-0.1,0-0.1h6.9c0.2,1.3,0.4,2.7,0.4,4.2
	C1561.6,1311,1560.7,1314.4,1558.8,1316.5z M1574,1312.7h-10.1v-5.4h10.1V1312.7z M1596.6,1319.2h-20.9c0.2-2.1,1-4,2.2-5.8
	c1.2-1.8,3.5-4,6.8-6.4c2-1.5,3.3-2.7,3.9-3.5c0.6-0.8,0.9-1.5,0.9-2.2c0-0.8-0.3-1.4-0.8-2c-0.6-0.5-1.3-0.8-2.1-0.8
	c-0.9,0-1.6,0.3-2.2,0.8c-0.6,0.6-0.9,1.5-1.1,3l-7-0.6c0.3-2,0.8-3.5,1.5-4.6c0.7-1.1,1.8-1.9,3.1-2.5c1.3-0.6,3.2-0.9,5.5-0.9
	c2.5,0,4.4,0.3,5.7,0.8c1.4,0.6,2.4,1.4,3.2,2.6s1.2,2.5,1.2,3.9c0,1.5-0.4,3-1.3,4.4c-0.9,1.4-2.5,2.9-4.9,4.6
	c-1.4,1-2.3,1.6-2.8,2c-0.5,0.4-1,0.9-1.7,1.5h10.9V1319.2z M1617.7,1316.5c-1.5,2.1-4.2,3.2-7.9,3.2c-2.1,0-3.8-0.3-5.1-1
	s-2.4-1.7-3.2-3c-0.6-0.9-1.1-2.2-1.4-3.8c-0.3-1.6-0.5-3.4-0.5-5.3c0-4.8,0.9-8.1,2.6-10c1.7-1.9,4.3-2.9,7.8-2.9
	c1.7,0,3.1,0.2,4.2,0.6c1.1,0.4,2,1,2.6,1.6c0.7,0.7,1.2,1.4,1.6,2.1c0.4,0.7,0.7,1.6,0.9,2.6c0.4,1.7,0.6,3.5,0.7,5.3h-6.9
	c0-2.9-0.3-4.8-0.8-5.9c-0.6-1.1-1.4-1.7-2.5-1.7c-1.2,0-2,0.6-2.5,1.8c-0.5,1.2-0.8,3.3-0.8,6.5c0,3.2,0.3,5.4,0.8,6.5
	c0.6,1.2,1.4,1.8,2.5,1.8c0.7,0,1.3-0.2,1.8-0.7c0.5-0.5,0.9-1.3,1.1-2.3c0.2-1.1,0.4-2.7,0.4-5c0-0.2,0-0.4,0-0.6h6.9
	c0,0.1,0,0.2,0,0.3C1620,1311,1619.2,1314.3,1617.7,1316.5z"/>
<path id="P-21" d="M1419.5,1200.8l-64.6-4l-16-7.6l-23.5-15.7l-24.3-12.6l-14.1-11l-32.3,148.6l45,57.2l26.9,42.4l47.5,8.7
	l95.9-196.3L1419.5,1200.8z M1330.5,1284.9h-20.9c0.2-2.1,1-4,2.2-5.8s3.5-4,6.8-6.4c2-1.5,3.3-2.7,3.9-3.5s0.9-1.5,0.9-2.2
	c0-0.8-0.3-1.4-0.8-2c-0.6-0.5-1.3-0.8-2.1-0.8c-0.9,0-1.6,0.3-2.2,0.8c-0.6,0.6-0.9,1.5-1.1,3l-7-0.6c0.3-2,0.8-3.5,1.5-4.6
	s1.8-1.9,3.1-2.5c1.3-0.6,3.2-0.9,5.5-0.9c2.5,0,4.4,0.3,5.7,0.8c1.4,0.6,2.4,1.4,3.2,2.6s1.2,2.5,1.2,3.9c0,1.5-0.4,3-1.3,4.4
	s-2.5,2.9-4.9,4.6c-1.4,1-2.3,1.6-2.8,2s-1,0.9-1.7,1.5h10.9L1330.5,1284.9L1330.5,1284.9z M1349.3,1284.9h-7v-16.7
	c-1.1,0.9-2.2,1.6-3.3,2.1c-1.1,0.5-2.4,1-4,1.5v-5.7c2.4-0.8,4.2-1.7,5.5-2.8c1.3-1.1,2.3-2.4,3.1-4h5.8L1349.3,1284.9
	L1349.3,1284.9z"/>
<path id="P-22" d="M1238.3,1300l19.2-88.2l-160-33.4l1.4,204.7l12.3,5.3l42.9,24.7l32.6,18.8l19.9,14.7l76.9-89.2L1238.3,1300z
	 M1174.2,1317.1h-20.9c0.2-2.1,1-4,2.2-5.8s3.5-4,6.8-6.4c2-1.5,3.3-2.7,3.9-3.5s0.9-1.5,0.9-2.2c0-0.8-0.3-1.4-0.8-2
	c-0.6-0.5-1.3-0.8-2.1-0.8c-0.9,0-1.6,0.3-2.2,0.8c-0.6,0.6-0.9,1.5-1.1,3l-7-0.6c0.3-2,0.8-3.5,1.5-4.6s1.8-1.9,3.1-2.5
	c1.3-0.6,3.2-0.9,5.5-0.9c2.5,0,4.4,0.3,5.7,0.8c1.4,0.6,2.4,1.4,3.2,2.6s1.2,2.5,1.2,3.9c0,1.5-0.4,3-1.3,4.4s-2.5,2.9-4.9,4.6
	c-1.4,1-2.3,1.6-2.8,2s-1,0.9-1.7,1.5h10.9L1174.2,1317.1L1174.2,1317.1z M1197.6,1317.1h-20.9c0.2-2.1,1-4,2.2-5.8s3.5-4,6.8-6.4
	c2-1.5,3.3-2.7,3.9-3.5s0.9-1.5,0.9-2.2c0-0.8-0.3-1.4-0.8-2c-0.6-0.5-1.3-0.8-2.1-0.8c-0.9,0-1.6,0.3-2.2,0.8
	c-0.6,0.6-0.9,1.5-1.1,3l-7-0.6c0.3-2,0.8-3.5,1.5-4.6s1.8-1.9,3.1-2.5c1.3-0.6,3.2-0.9,5.5-0.9c2.5,0,4.4,0.3,5.7,0.8
	c1.4,0.6,2.4,1.4,3.2,2.6s1.2,2.5,1.2,3.9c0,1.5-0.4,3-1.3,4.4s-2.5,2.9-4.9,4.6c-1.4,1-2.3,1.6-2.8,2s-1,0.9-1.7,1.5h10.9
	L1197.6,1317.1L1197.6,1317.1z"/>
<path id="P-23" d="M1091.5,1237.3l-24.5-0.6l-82.4,19.6l-46.5-1.1l-34.8-0.8l-40.3-8.2l-42.7,4l-56.7-1.5l-45,15.5l-41.4,6.1
	l-70.3,13.9l-13.5,10.9l22.1,5.5l22.2,10l18.6,10.2l20,13.2l13.5,10.7l26.6-17.4l34.5-17.7l135.1,2.7l41.1,7l78,23.4l87.9,37.8
	L1091.5,1237.3z M850.8,1289h-20.9c0.2-2.1,1-4,2.2-5.8s3.5-4,6.8-6.4c2-1.5,3.3-2.7,3.9-3.5c0.6-0.8,0.9-1.5,0.9-2.2
	c0-0.8-0.3-1.4-0.8-2c-0.6-0.5-1.3-0.8-2.1-0.8c-0.9,0-1.6,0.3-2.2,0.8c-0.6,0.6-0.9,1.5-1.1,3l-7-0.6c0.3-2,0.8-3.5,1.5-4.6
	s1.8-1.9,3.1-2.5s3.2-0.9,5.5-0.9c2.5,0,4.4,0.3,5.7,0.8c1.4,0.6,2.4,1.4,3.2,2.6s1.2,2.5,1.2,3.9c0,1.5-0.4,3-1.3,4.4
	c-0.9,1.4-2.5,2.9-4.9,4.6c-1.4,1-2.3,1.6-2.8,2s-1,0.9-1.7,1.5h10.9v5.7H850.8z M873.1,1285.3c-0.8,1.3-1.9,2.4-3.3,3.1
	c-1.4,0.7-3.3,1.1-5.7,1.1c-2.3,0-4.1-0.3-5.4-0.8c-1.3-0.5-2.4-1.3-3.2-2.3s-1.5-2.3-2-3.9l7-0.9c0.3,1.4,0.7,2.4,1.3,2.9
	s1.3,0.8,2.2,0.8s1.7-0.3,2.3-1s0.9-1.6,0.9-2.7c0-1.2-0.3-2.1-0.9-2.7c-0.6-0.6-1.4-1-2.4-1c-0.5,0-1.3,0.1-2.3,0.4l0.4-5
	c0.4,0.1,0.7,0.1,0.9,0.1c0.9,0,1.7-0.3,2.3-0.9s0.9-1.3,0.9-2.1c0-0.8-0.2-1.4-0.7-1.8c-0.5-0.5-1.1-0.7-1.9-0.7
	c-0.8,0-1.5,0.2-2,0.7s-0.9,1.4-1,2.6l-6.6-1.2c0.5-2.1,1.6-3.7,3.2-4.8c1.6-1.1,3.8-1.7,6.6-1.7c3.3,0,5.6,0.6,7.1,1.8
	c1.5,1.2,2.2,2.8,2.2,4.6c0,1.1-0.3,2.1-0.9,2.9c-0.6,0.9-1.5,1.6-2.7,2.3c1,0.2,1.7,0.5,2.2,0.8c0.8,0.5,1.5,1.2,1.9,2
	c0.5,0.8,0.7,1.8,0.7,3C874.2,1282.5,873.9,1283.9,873.1,1285.3z"/>
<path id="P-24" d="M1259.4,1129.8l-8.7-27.6l-2.4-23.9l2.2-51.8l-200.2-30.8l46.6,176.4l161.8,33.8l13.2-60.5L1259.4,1129.8z
	 M1170.2,1115.2h-20.9c0.2-2.1,1-4,2.2-5.8s3.5-4,6.8-6.4c2-1.5,3.3-2.7,3.9-3.5s0.9-1.5,0.9-2.2c0-0.8-0.3-1.4-0.8-2
	c-0.6-0.5-1.3-0.8-2.1-0.8c-0.9,0-1.6,0.3-2.2,0.8c-0.6,0.6-0.9,1.5-1.1,3l-7-0.6c0.3-2,0.8-3.5,1.5-4.6s1.8-1.9,3.1-2.5
	c1.3-0.6,3.2-0.9,5.5-0.9c2.5,0,4.4,0.3,5.7,0.8c1.4,0.6,2.4,1.4,3.2,2.6s1.2,2.5,1.2,3.9c0,1.5-0.4,3-1.3,4.4s-2.5,2.9-4.9,4.6
	c-1.4,1-2.3,1.6-2.8,2s-1,0.9-1.7,1.5h10.9L1170.2,1115.2L1170.2,1115.2z M1194.4,1110.5h-3.1v4.7h-6.1v-4.7v-5.4v-2.7v-5.2
	l-6.7,7.9h6.1v5.4h-12.1v-5.7l12.7-15.1h6.1v15.4h3.1V1110.5z"/>
<path id="P-25" d="M1044.3,996.7l-74.6,43.6l-13.2,4.5l-12.6,3.3l-19.7,10.7l16.7,190.5l43,1l82.4-19.6l25.1,0.6v-56.2L1044.3,996.7
	z M1001.9,1146.3H981c0.2-2.1,1-4,2.2-5.8s3.5-4,6.8-6.4c2-1.5,3.3-2.7,3.9-3.5c0.6-0.8,0.9-1.5,0.9-2.2c0-0.8-0.3-1.4-0.8-2
	c-0.6-0.5-1.3-0.8-2.1-0.8c-0.9,0-1.6,0.3-2.2,0.8c-0.6,0.6-0.9,1.5-1.1,3l-7-0.6c0.3-2,0.8-3.5,1.5-4.6s1.8-1.9,3.1-2.5
	s3.2-0.9,5.5-0.9c2.5,0,4.4,0.3,5.7,0.8c1.4,0.6,2.4,1.4,3.2,2.6s1.2,2.5,1.2,3.9c0,1.5-0.4,3-1.3,4.4c-0.9,1.4-2.5,2.9-4.9,4.6
	c-1.4,1-2.3,1.6-2.8,2s-1,0.9-1.7,1.5h10.9v5.7H1001.9z M1024.2,1142.1c-0.8,1.5-1.9,2.6-3.4,3.4s-3.4,1.2-5.7,1.2
	c-1.7,0-3.1-0.2-4.2-0.5c-1.2-0.3-2.2-0.8-3-1.4s-1.5-1.3-2-2.1s-0.9-1.8-1.3-2.9l7-0.8c0.2,1.1,0.6,2,1.2,2.6
	c0.6,0.6,1.4,0.9,2.2,0.9c1,0,1.8-0.4,2.4-1.1c0.6-0.7,0.9-1.8,0.9-3.3s-0.3-2.6-1-3.3c-0.6-0.7-1.5-1-2.5-1c-0.7,0-1.3,0.2-1.9,0.5
	c-0.5,0.2-1,0.7-1.5,1.3l-5.9-0.9l2.2-13.5h16.5v5.6H1013l-0.6,3.8c0.8-0.4,1.5-0.6,2.3-0.8c0.8-0.2,1.5-0.3,2.2-0.3
	c2.5,0,4.5,0.8,6.1,2.3s2.3,3.4,2.3,5.7C1025.4,1139,1025,1140.6,1024.2,1142.1z"/>
<path id="P-26" d="M918.5,1062.8l-24.2,19.1l-9,5.3l-24.7,9.7l-48.9,0.2l-63.5,8.9l-16.5,9.1l-13.4,10.1l-9.6,3l-14.6,1.9
	l25.9,127.3l42.6-14.6l57.5,1.5l43.2-4.1l40.7,8.3l30.9,0.7L918.5,1062.8z M824.9,1183.8H804c0.2-2.1,1-4,2.2-5.8s3.5-4,6.8-6.4
	c2-1.5,3.3-2.7,3.9-3.5c0.6-0.8,0.9-1.5,0.9-2.2c0-0.8-0.3-1.4-0.8-2c-0.6-0.5-1.3-0.8-2.1-0.8c-0.9,0-1.6,0.3-2.2,0.8
	c-0.6,0.6-0.9,1.5-1.1,3l-7-0.6c0.3-2,0.8-3.5,1.5-4.6s1.8-1.9,3.1-2.5s3.2-0.9,5.5-0.9c2.5,0,4.4,0.3,5.7,0.8
	c1.4,0.6,2.4,1.4,3.2,2.6s1.2,2.5,1.2,3.9c0,1.5-0.4,3-1.3,4.4c-0.9,1.4-2.5,2.9-4.9,4.6c-1.4,1-2.3,1.6-2.8,2s-1,0.9-1.7,1.5H825
	L824.9,1183.8L824.9,1183.8z M847.4,1180.1c-0.8,1.4-1.9,2.4-3.2,3.1c-1.4,0.7-3.1,1.1-5.2,1.1c-2.5,0-4.5-0.4-6-1.3
	s-2.7-2.2-3.6-4.1c-0.9-1.9-1.4-4.4-1.4-7.4c0-4.5,1-7.8,2.9-9.9s4.5-3.2,7.9-3.2c2,0,3.6,0.2,4.7,0.7c1.2,0.5,2.1,1.1,2.9,2
	c0.8,0.9,1.3,2,1.7,3.3l-6.9,0.9c-0.2-1-0.5-1.7-0.9-2.1s-1-0.6-1.6-0.6c-1.1,0-2,0.6-2.6,1.7c-0.5,0.8-0.8,2.6-1,5.3
	c0.7-0.7,1.4-1.2,2.1-1.6v3.9c-0.3,0.2-0.6,0.4-0.9,0.7c-0.7,0.7-1,1.7-1,3.1s0.3,2.4,1,3.2c0.7,0.8,1.5,1.2,2.5,1.2
	c0.9,0,1.7-0.3,2.3-1s0.9-1.7,0.9-3.1s-0.3-2.5-1-3.2c-0.6-0.7-1.4-1.1-2.4-1.1c-0.5,0-0.9,0.1-1.4,0.3v-3.8c0.1,0,0.2-0.1,0.3-0.1
	c0.9-0.4,1.9-0.6,3-0.6c2.2,0,4.1,0.8,5.7,2.4c1.5,1.6,2.3,3.6,2.3,6.1C848.6,1177.2,848.2,1178.7,847.4,1180.1z"/>
<path id="P-27" d="M688.2,1130.4h-40.6l-24.5-32.3l-9.5-14.5l-7-5.3h-4l-39.7,87.1l-14.4,11.5l-40.5,12.6l-35.1,4l-38.2,20.8
	l-40.1,15.1l-9.7,10.9l22.9,10.7l49.4-5.9l45,11.7l37.2,20.8l46.7,15.6l18-14.6l71.9-14.2l38.2-5.7L688.2,1130.4z M603.3,1220.4
	h-20.9c0.2-2.1,1-4,2.2-5.8s3.5-4,6.8-6.4c2-1.5,3.3-2.7,3.9-3.5c0.6-0.8,0.9-1.5,0.9-2.2c0-0.8-0.3-1.4-0.8-2
	c-0.6-0.5-1.3-0.8-2.1-0.8c-0.9,0-1.6,0.3-2.2,0.8c-0.6,0.6-0.9,1.5-1.1,3l-7-0.6c0.3-2,0.8-3.5,1.5-4.6s1.8-1.9,3.1-2.5
	s3.2-0.9,5.5-0.9c2.5,0,4.4,0.3,5.7,0.8c1.4,0.6,2.4,1.4,3.2,2.6s1.2,2.5,1.2,3.9c0,1.5-0.4,3-1.3,4.4c-0.9,1.4-2.5,2.9-4.9,4.6
	c-1.4,1-2.3,1.6-2.8,2s-1,0.9-1.7,1.5h10.9v5.7H603.3z M626.7,1200.1c-1.8,1.6-3.2,3.3-4.4,5.2c-1.4,2.3-2.6,4.8-3.4,7.5
	c-0.7,2.2-1.1,4.7-1.3,7.6h-6.9c0.5-4.1,1.4-7.5,2.6-10.3c1.2-2.8,3-5.7,5.6-8.9h-12.4v-5.9h20.3L626.7,1200.1L626.7,1200.1z"/>
<path id="P-28" d="M267.2,984.8l-93.6,36.2l83.7,262.6l118.6-44L267.2,984.8z M268.7,1149.4h-20.9c0.2-2.1,1-4,2.2-5.8
	s3.5-4,6.8-6.4c2-1.5,3.3-2.7,3.9-3.5s0.9-1.5,0.9-2.2c0-0.8-0.3-1.4-0.8-2c-0.6-0.5-1.3-0.8-2.1-0.8c-0.9,0-1.6,0.3-2.2,0.8
	c-0.6,0.6-0.9,1.5-1.1,3l-7-0.6c0.3-2,0.8-3.5,1.5-4.6s1.8-1.9,3.1-2.5s3.2-0.9,5.5-0.9c2.5,0,4.4,0.3,5.7,0.8
	c1.4,0.6,2.4,1.4,3.2,2.6s1.2,2.5,1.2,3.9c0,1.5-0.4,3-1.3,4.4s-2.5,2.9-4.9,4.6c-1.4,1-2.3,1.6-2.8,2s-1,0.9-1.7,1.5h10.9v5.7
	H268.7z M272.8,1146.1c-0.7-1.2-1.1-2.6-1.1-4.1s0.3-2.7,1-3.7s1.7-1.8,3.2-2.4c-1.1-0.6-1.9-1.2-2.4-1.9c-0.7-1-1-2.1-1-3.4
	c0-2.1,1-3.8,3-5.1c1.5-1,3.6-1.5,6.1-1.5h0.1v4.3c-0.7,0-1.3,0.3-1.8,0.8s-0.8,1.2-0.8,2.1s0.3,1.6,0.8,2.1s1.1,0.7,1.8,0.8v4.2
	c-0.8,0.1-1.4,0.4-2,1c-0.6,0.7-1,1.6-1,2.8c0,1.1,0.3,2,1,2.7c0.6,0.6,1.2,0.9,2,1v4.3c-2.4,0-4.3-0.3-5.6-0.9
	C274.6,1148.2,273.5,1147.3,272.8,1146.1z M289.2,1148.1c-0.8,0.6-1.9,1-3.1,1.3s-2.6,0.4-4,0.4c-0.1,0-0.1,0-0.2,0v-4.3h0.1
	c0.8,0,1.6-0.4,2.2-1.1c0.7-0.7,1-1.6,1-2.7s-0.3-2-1-2.7s-1.4-1.1-2.3-1.1v-4.1h0.1c0.8,0,1.5-0.3,2-0.8s0.8-1.2,0.8-2
	c0-0.9-0.3-1.6-0.8-2.1s-1.2-0.8-2.1-0.8v-4.2c3.2,0,5.5,0.7,7.1,1.9c1.6,1.3,2.4,2.9,2.4,4.8c0,1.1-0.3,2.2-1,3.2
	c-0.5,0.7-1.2,1.4-2.3,2.1c1.4,0.6,2.4,1.5,3,2.6c0.7,1.1,1,2.3,1,3.6c0,1.3-0.3,2.4-0.9,3.5S290,1147.5,289.2,1148.1z"/>
<path id="P-29" d="M387.2,938.4l-114.4,44.2l108,253.1l10.3-11.5l41.1-15.5l38.9-21.1l21.6-2.5L387.2,938.4z M387.7,1100.3h-20.9
	c0.2-2.1,1-4,2.2-5.8s3.5-4,6.8-6.4c2-1.5,3.3-2.7,3.9-3.5s0.9-1.5,0.9-2.2c0-0.8-0.3-1.4-0.8-2c-0.6-0.5-1.3-0.8-2.1-0.8
	c-0.9,0-1.6,0.3-2.2,0.8c-0.6,0.6-0.9,1.5-1.1,3l-7-0.6c0.3-2,0.8-3.5,1.5-4.6s1.8-1.9,3.1-2.5c1.3-0.6,3.2-0.9,5.5-0.9
	c2.5,0,4.4,0.3,5.7,0.8c1.4,0.6,2.4,1.4,3.2,2.6s1.2,2.5,1.2,3.9c0,1.5-0.4,3-1.3,4.4s-2.5,2.9-4.9,4.6c-1.4,1-2.3,1.6-2.8,2
	s-1,0.9-1.7,1.5h10.9v5.7H387.7z M391.6,1078.9c0.8-1.4,1.9-2.4,3.2-3.1c1.4-0.7,3.1-1.1,5.2-1.1c0.1,0,0.2,0,0.4,0v4.3
	c-0.1,0-0.1,0-0.2,0c-0.9,0-1.7,0.3-2.3,1c-0.6,0.7-0.9,1.7-0.9,3.1s0.3,2.5,0.9,3.2s1.4,1.1,2.4,1.1c0,0,0,0,0.1,0v4.1
	c-0.6,0.2-1.3,0.2-2,0.2c-2.2,0-4.1-0.8-5.7-2.4c-1.5-1.6-2.3-3.6-2.3-6C390.4,1081.8,390.8,1080.3,391.6,1078.9z M395.6,1100
	c-1.2-0.5-2.1-1.1-2.9-2s-1.4-2-1.8-3.3l6.9-0.9c0.2,1,0.5,1.7,0.9,2.1s1,0.6,1.6,0.6l0,0v4.3h-0.1
	C398.3,1100.7,396.7,1100.4,395.6,1100z M408.2,1097.5c-1.8,2-4.3,3-7.5,3.1v-4.3c0.9-0.1,1.7-0.6,2.3-1.6c0.5-0.8,0.8-2.6,1-5.3
	c-0.8,0.9-1.7,1.5-2.6,1.9c-0.2,0.1-0.5,0.2-0.7,0.3v-4c0.8-0.1,1.5-0.4,2.1-1c0.7-0.7,1-1.7,1-3.1s-0.3-2.4-1-3.2
	c-0.6-0.6-1.2-1-2-1.1v-4.4c2.2,0.1,4,0.5,5.3,1.3c1.5,0.9,2.7,2.2,3.6,4.1s1.4,4.3,1.4,7.4C411.1,1092.1,410.1,1095.4,408.2,1097.5
	z"/>
<path id="P-31" d="M661.9,889.4L539,954.1l63.5,118.2h6.1l9.5,7.1l9.9,15.2l22.5,29.8h39.8l17.1-2.2l8.1-2.5l12.9-9.7l17.9-9.8
	l42-5.6L661.9,889.4z M656.5,1031.4c-0.8,1.3-1.9,2.4-3.3,3.1c-1.4,0.7-3.3,1.1-5.7,1.1c-2.3,0-4.1-0.3-5.4-0.8
	c-1.3-0.5-2.4-1.3-3.2-2.3s-1.5-2.3-2-3.9l7-0.9c0.3,1.4,0.7,2.4,1.3,2.9s1.3,0.8,2.2,0.8s1.7-0.3,2.3-1s0.9-1.6,0.9-2.7
	c0-1.2-0.3-2.1-0.9-2.7c-0.6-0.6-1.4-1-2.4-1c-0.5,0-1.3,0.1-2.3,0.4l0.4-5c0.4,0.1,0.7,0.1,0.9,0.1c0.9,0,1.7-0.3,2.3-0.9
	s0.9-1.3,0.9-2.1s-0.2-1.4-0.7-1.8c-0.5-0.5-1.1-0.7-1.9-0.7c-0.8,0-1.5,0.2-2,0.7s-0.9,1.4-1,2.6l-6.6-1.2c0.5-2.1,1.6-3.7,3.2-4.8
	c1.6-1.1,3.8-1.7,6.6-1.7c3.3,0,5.6,0.6,7.1,1.8s2.2,2.8,2.2,4.6c0,1.1-0.3,2.1-0.9,2.9c-0.6,0.9-1.5,1.6-2.7,2.3
	c1,0.2,1.7,0.5,2.2,0.8c0.8,0.5,1.5,1.2,1.9,2c0.5,0.8,0.7,1.8,0.7,3C657.7,1028.7,657.3,1030.1,656.5,1031.4z M676.3,1035.1h-7
	v-16.7c-1.1,0.9-2.2,1.6-3.3,2.1s-2.4,1-4,1.5v-5.7c2.4-0.8,4.2-1.7,5.5-2.8s2.3-2.4,3.1-4h5.8L676.3,1035.1L676.3,1035.1z"/>
<path id="P-32" d="M762.5,828.2l-95.3,58.2l127.6,207.2l16.5-2.6l48.2-0.2l23.2-9.1l8.3-4.9l26-20.5L762.5,828.2z M780.5,980.4
	c-0.8,1.3-1.9,2.4-3.3,3.1c-1.4,0.7-3.3,1.1-5.7,1.1c-2.3,0-4.1-0.3-5.4-0.8c-1.3-0.5-2.4-1.3-3.2-2.3s-1.5-2.3-2-3.9l7-0.9
	c0.3,1.4,0.7,2.4,1.3,2.9s1.3,0.8,2.2,0.8s1.7-0.3,2.3-1s0.9-1.6,0.9-2.7c0-1.2-0.3-2.1-0.9-2.7c-0.6-0.6-1.4-1-2.4-1
	c-0.5,0-1.3,0.1-2.3,0.4l0.4-5c0.4,0.1,0.7,0.1,0.9,0.1c0.9,0,1.7-0.3,2.3-0.9s0.9-1.3,0.9-2.1s-0.2-1.4-0.7-1.8
	c-0.5-0.5-1.1-0.7-1.9-0.7c-0.8,0-1.5,0.2-2,0.7s-0.9,1.4-1,2.6l-6.6-1.2c0.5-2.1,1.6-3.7,3.2-4.8c1.6-1.1,3.8-1.7,6.6-1.7
	c3.3,0,5.6,0.6,7.1,1.8s2.2,2.8,2.2,4.6c0,1.1-0.3,2.1-0.9,2.9c-0.6,0.9-1.5,1.6-2.7,2.3c1,0.2,1.7,0.5,2.2,0.8
	c0.8,0.5,1.5,1.2,1.9,2c0.5,0.8,0.7,1.8,0.7,3C781.6,977.7,781.3,979.1,780.5,980.4z M804.9,984.2H784c0.2-2.1,1-4,2.2-5.8
	s3.5-4,6.8-6.4c2-1.5,3.3-2.7,3.9-3.5c0.6-0.8,0.9-1.5,0.9-2.2c0-0.8-0.3-1.4-0.8-2c-0.6-0.5-1.3-0.8-2.1-0.8
	c-0.9,0-1.6,0.3-2.2,0.8c-0.6,0.6-0.9,1.5-1.1,3l-7-0.6c0.3-2,0.8-3.5,1.5-4.6s1.8-1.9,3.1-2.5s3.2-0.9,5.5-0.9
	c2.5,0,4.4,0.3,5.7,0.8c1.4,0.6,2.4,1.4,3.2,2.6s1.2,2.5,1.2,3.9c0,1.5-0.4,3-1.3,4.4c-0.9,1.4-2.5,2.9-4.9,4.6
	c-1.4,1-2.3,1.6-2.8,2s-1,0.9-1.7,1.5H805L804.9,984.2L804.9,984.2z"/>
<path id="P-33" d="M998.6,936.6l-15.9-25.9l-12.3-18.1l-30.7-37l-47.1-65.9l-37.4-10.6l-37,18.8L777.8,827l-8.8,0.1l153,226
	l17.8-9.7V1030l62-69.8L998.6,936.6z M896.2,923.2c-0.8,1.3-1.9,2.4-3.3,3.1c-1.4,0.7-3.3,1.1-5.7,1.1c-2.3,0-4.1-0.3-5.4-0.8
	c-1.3-0.5-2.4-1.3-3.2-2.3s-1.5-2.3-2-3.9l7-0.9c0.3,1.4,0.7,2.4,1.3,2.9s1.3,0.8,2.2,0.8s1.7-0.3,2.3-1s0.9-1.6,0.9-2.7
	c0-1.2-0.3-2.1-0.9-2.7c-0.6-0.6-1.4-1-2.4-1c-0.5,0-1.3,0.1-2.3,0.4l0.4-5c0.4,0.1,0.7,0.1,0.9,0.1c0.9,0,1.7-0.3,2.3-0.9
	s0.9-1.3,0.9-2.1s-0.2-1.4-0.7-1.8c-0.5-0.5-1.1-0.7-1.9-0.7c-0.8,0-1.5,0.2-2,0.7s-0.9,1.4-1,2.6l-6.6-1.2c0.5-2.1,1.6-3.7,3.2-4.8
	c1.6-1.1,3.8-1.7,6.6-1.7c3.3,0,5.6,0.6,7.1,1.8s2.2,2.8,2.2,4.6c0,1.1-0.3,2.1-0.9,2.9c-0.6,0.9-1.5,1.6-2.7,2.3
	c1,0.2,1.7,0.5,2.2,0.8c0.8,0.5,1.5,1.2,1.9,2c0.5,0.8,0.7,1.8,0.7,3C897.4,920.5,897,921.9,896.2,923.2z M919.6,923.2
	c-0.8,1.3-1.9,2.4-3.3,3.1c-1.4,0.7-3.3,1.1-5.7,1.1c-2.3,0-4.1-0.3-5.4-0.8c-1.3-0.5-2.4-1.3-3.2-2.3s-1.5-2.3-2-3.9l7-0.9
	c0.3,1.4,0.7,2.4,1.3,2.9s1.3,0.8,2.2,0.8s1.7-0.3,2.3-1s0.9-1.6,0.9-2.7c0-1.2-0.3-2.1-0.9-2.7c-0.6-0.6-1.4-1-2.4-1
	c-0.5,0-1.3,0.1-2.3,0.4l0.4-5c0.4,0.1,0.7,0.1,0.9,0.1c0.9,0,1.7-0.3,2.3-0.9s0.9-1.3,0.9-2.1s-0.2-1.4-0.7-1.8
	c-0.5-0.5-1.1-0.7-1.9-0.7c-0.8,0-1.5,0.2-2,0.7s-0.9,1.4-1,2.6l-6.6-1.2c0.5-2.1,1.6-3.7,3.2-4.8c1.6-1.1,3.8-1.7,6.6-1.7
	c3.3,0,5.6,0.6,7.1,1.8s2.2,2.8,2.2,4.6c0,1.1-0.3,2.1-0.9,2.9c-0.6,0.9-1.5,1.6-2.7,2.3c1,0.2,1.7,0.5,2.2,0.8
	c0.8,0.5,1.5,1.2,1.9,2c0.5,0.8,0.7,1.8,0.7,3C920.7,920.5,920.3,921.9,919.6,923.2z"/>
<path id="P-34" d="M1287.9,903.8l-20.8,7.6l-46.5,24.5l-33.4,10.9l-12.9-22.1l-9.3-17.4l-14.5-40l-3.7-16.5l2.7-43.3l-18.8-11.2
	l-42.8,46.2l-49.9-22.3l-32-23.2l-5.3,23.2l28.4,50.9l23,61.8l0.3,28.5l-2.9,28.1l202.4,31.1l10-20.5l27.7-29.1l0.9-25.7l13-22.8
	l3.6-9.6L1287.9,903.8z M1113.6,935.2c-0.8,1.3-1.9,2.4-3.3,3.1c-1.4,0.7-3.3,1.1-5.7,1.1c-2.3,0-4.1-0.3-5.4-0.8s-2.4-1.3-3.2-2.3
	c-0.8-1-1.5-2.3-2-3.9l7-0.9c0.3,1.4,0.7,2.4,1.3,2.9c0.6,0.5,1.3,0.8,2.2,0.8c0.9,0,1.7-0.3,2.3-1c0.6-0.7,0.9-1.6,0.9-2.7
	c0-1.2-0.3-2.1-0.9-2.7c-0.6-0.6-1.4-1-2.4-1c-0.5,0-1.3,0.1-2.3,0.4l0.4-5c0.4,0.1,0.7,0.1,0.9,0.1c0.9,0,1.7-0.3,2.3-0.9
	s0.9-1.3,0.9-2.1s-0.2-1.4-0.7-1.8c-0.5-0.5-1.1-0.7-1.9-0.7s-1.5,0.2-2,0.7s-0.9,1.4-1,2.6l-6.6-1.2c0.5-2.1,1.6-3.7,3.2-4.8
	s3.8-1.7,6.6-1.7c3.3,0,5.6,0.6,7.1,1.8s2.2,2.8,2.2,4.6c0,1.1-0.3,2.1-0.9,2.9c-0.6,0.9-1.5,1.6-2.7,2.3c1,0.2,1.7,0.5,2.2,0.8
	c0.8,0.5,1.5,1.2,1.9,2c0.5,0.8,0.7,1.8,0.7,3C1114.7,932.5,1114.3,933.9,1113.6,935.2z M1138.7,934.3h-3.1v4.7h-6.1v-4.7h-0.5v-5.4
	h0.5V921l-6.7,7.9h6.1v5.4h-12.1v-5.7l12.7-15.1h6.1v15.4h3.1V934.3z"/>
<path id="P-35" d="M1307.6,927.6l-11.1,19.5l-0.9,26.5l-28.7,30.1l-10.3,21.1l-2.3,53.4l2.3,22.9l8.2,25.9l12.5,15.6l17.1,13.4
	l24.1,12.5l23.4,15.6l14.6,6.9l16.3,1.2l68.7-211L1307.6,927.6z M1344.6,1057.1c-0.8,1.3-1.9,2.4-3.3,3.1s-3.3,1.1-5.7,1.1
	c-2.3,0-4.1-0.3-5.4-0.8s-2.4-1.3-3.2-2.3c-0.8-1-1.5-2.3-2-3.9l7-0.9c0.3,1.4,0.7,2.4,1.3,2.9c0.6,0.5,1.3,0.8,2.2,0.8
	c0.9,0,1.7-0.3,2.3-1c0.6-0.7,0.9-1.6,0.9-2.7c0-1.2-0.3-2.1-0.9-2.7s-1.4-1-2.4-1c-0.5,0-1.3,0.1-2.3,0.4l0.4-5
	c0.4,0.1,0.7,0.1,0.9,0.1c0.9,0,1.7-0.3,2.3-0.9s0.9-1.3,0.9-2.1c0-0.8-0.2-1.4-0.7-1.8c-0.5-0.5-1.1-0.7-1.9-0.7s-1.5,0.2-2,0.7
	s-0.9,1.4-1,2.6l-6.6-1.2c0.5-2.1,1.6-3.7,3.2-4.8c1.6-1.1,3.8-1.7,6.6-1.7c3.3,0,5.6,0.6,7.1,1.8c1.5,1.2,2.2,2.8,2.2,4.6
	c0,1.1-0.3,2.1-0.9,2.9c-0.6,0.9-1.5,1.6-2.7,2.3c1,0.2,1.7,0.5,2.2,0.8c0.8,0.5,1.5,1.2,1.9,2c0.5,0.8,0.7,1.8,0.7,3
	C1345.8,1054.3,1345.4,1055.7,1344.6,1057.1z M1368,1056.7c-0.8,1.5-1.9,2.6-3.4,3.4s-3.4,1.2-5.7,1.2c-1.7,0-3.1-0.2-4.2-0.5
	c-1.2-0.3-2.2-0.8-3-1.4s-1.5-1.3-2-2.1s-0.9-1.8-1.3-2.9l7-0.8c0.2,1.1,0.6,2,1.2,2.6s1.4,0.9,2.2,0.9c1,0,1.8-0.4,2.4-1.1
	s0.9-1.8,0.9-3.3s-0.3-2.6-1-3.3c-0.6-0.7-1.5-1-2.5-1c-0.7,0-1.3,0.2-1.9,0.5c-0.5,0.2-1,0.7-1.5,1.3l-5.9-0.9l2.2-13.5h16.5v5.6
	h-11.2l-0.6,3.8c0.8-0.4,1.5-0.6,2.3-0.8c0.8-0.2,1.5-0.3,2.2-0.3c2.5,0,4.5,0.8,6.1,2.3s2.3,3.4,2.3,5.7
	C1369.2,1053.6,1368.8,1055.2,1368,1056.7z"/>
<path id="P-36" d="M1447.1,983.2l-68.2,209.3l41.5,2.3l28.3,8.4l15.3,2.2l37.9-10.7l56.3-18.9l39.3-142.7L1447.1,983.2z
	 M1508.1,1088.9c1.2,0.5,2.1,1.1,2.9,2s1.3,2,1.7,3.3l-6.9,0.9c-0.2-1-0.5-1.7-0.9-2.1s-1-0.6-1.6-0.6c-0.7,0-1.3,0.2-1.8,0.7v-4.8
	c0.6-0.1,1.2-0.1,1.9-0.1C1505.4,1088.2,1507,1088.4,1508.1,1088.9z M1488.6,1109.9c-0.8,1.3-1.9,2.4-3.3,3.1s-3.3,1.1-5.7,1.1
	c-2.3,0-4.1-0.3-5.4-0.8s-2.4-1.3-3.2-2.3c-0.8-1-1.5-2.3-2-3.9l7-0.9c0.3,1.4,0.7,2.4,1.3,2.9c0.6,0.5,1.3,0.8,2.2,0.8
	c0.9,0,1.7-0.3,2.3-1c0.6-0.7,0.9-1.6,0.9-2.7c0-1.2-0.3-2.1-0.9-2.7s-1.4-1-2.4-1c-0.5,0-1.3,0.1-2.3,0.4l0.4-5
	c0.4,0.1,0.7,0.1,0.9,0.1c0.9,0,1.7-0.3,2.3-0.9s0.9-1.3,0.9-2.1c0-0.8-0.2-1.4-0.7-1.8c-0.5-0.5-1.1-0.7-1.9-0.7s-1.5,0.2-2,0.7
	s-0.9,1.4-1,2.6l-6.6-1.2c0.5-2.1,1.6-3.7,3.2-4.8c1.6-1.1,3.8-1.7,6.6-1.7c3.3,0,5.6,0.6,7.1,1.8c1.5,1.2,2.2,2.8,2.2,4.6
	c0,1.1-0.3,2.1-0.9,2.9c-0.6,0.9-1.5,1.6-2.7,2.3c1,0.2,1.7,0.5,2.2,0.8c0.8,0.5,1.5,1.2,1.9,2c0.5,0.8,0.7,1.8,0.7,3
	C1489.8,1107.2,1489.4,1108.6,1488.6,1109.9z M1494,1108.7c-0.9-1.9-1.4-4.4-1.4-7.4c0-4.5,1-7.8,2.9-9.9c1.5-1.6,3.4-2.6,5.8-3v5
	c-0.2,0.2-0.4,0.5-0.6,0.8c-0.5,0.8-0.8,2.6-1,5.3c0.5-0.5,1-1,1.6-1.3v3.9c-0.1,0.1-0.2,0.2-0.4,0.3c-0.7,0.7-1,1.7-1,3.1
	s0.3,2.4,1,3.2c0.1,0.1,0.2,0.2,0.3,0.3v5c-1.4-0.2-2.7-0.6-3.7-1.1C1496.1,1112,1494.9,1110.6,1494,1108.7z M1512.1,1110
	c-0.8,1.4-1.9,2.4-3.2,3.1c-1.4,0.7-3.1,1.1-5.2,1.1c-0.8,0-1.5-0.1-2.1-0.1v-4.8c0.6,0.4,1.2,0.6,1.9,0.6c0.9,0,1.7-0.3,2.3-1
	c0.6-0.7,0.9-1.7,0.9-3.1s-0.3-2.5-1-3.2c-0.6-0.7-1.4-1.1-2.4-1.1c-0.7,0-1.3,0.2-1.8,0.5v-3.9c0.2-0.1,0.5-0.3,0.7-0.4
	c0.9-0.4,1.9-0.6,3-0.6c2.2,0,4.1,0.8,5.7,2.4c1.5,1.6,2.3,3.6,2.3,6.1C1513.3,1107.1,1512.9,1108.6,1512.1,1110z"/>
<path id="P-37" d="M1635.3,835.6l-28.1-1.1l-21.6-9.7l-32-25.5l-15.7-22l-13.5-22.9l-2.3-13.6l-73.2,236.7l150.3,49.9l53.6-192.1
	L1635.3,835.6z M1546.7,911.8c-0.8,1.3-1.9,2.4-3.3,3.1c-1.4,0.7-3.3,1.1-5.7,1.1c-2.3,0-4.1-0.3-5.4-0.8s-2.4-1.3-3.2-2.3
	c-0.8-1-1.5-2.3-2-3.9l7-0.9c0.3,1.4,0.7,2.4,1.3,2.9c0.6,0.5,1.3,0.8,2.2,0.8c0.9,0,1.7-0.3,2.3-1c0.6-0.7,0.9-1.6,0.9-2.7
	c0-1.2-0.3-2.1-0.9-2.7c-0.6-0.6-1.4-1-2.4-1c-0.5,0-1.3,0.1-2.3,0.4l0.4-5c0.4,0.1,0.7,0.1,0.9,0.1c0.9,0,1.7-0.3,2.3-0.9
	s0.9-1.3,0.9-2.1s-0.2-1.4-0.7-1.8c-0.5-0.5-1.1-0.7-1.9-0.7s-1.5,0.2-2,0.7s-0.9,1.4-1,2.6l-6.6-1.2c0.5-2.1,1.6-3.7,3.2-4.8
	s3.8-1.7,6.6-1.7c3.3,0,5.6,0.6,7.1,1.8s2.2,2.8,2.2,4.6c0,1.1-0.3,2.1-0.9,2.9c-0.6,0.9-1.5,1.6-2.7,2.3c1,0.2,1.7,0.5,2.2,0.8
	c0.8,0.5,1.5,1.2,1.9,2c0.5,0.8,0.7,1.8,0.7,3C1547.8,909.1,1547.5,910.5,1546.7,911.8z M1571.1,895.2c-1.8,1.6-3.2,3.3-4.4,5.2
	c-1.4,2.3-2.6,4.8-3.4,7.5c-0.7,2.2-1.1,4.7-1.3,7.6h-6.9c0.5-4.1,1.4-7.5,2.6-10.3s3-5.7,5.6-8.9h-12.4v-5.9h20.3L1571.1,895.2
	L1571.1,895.2z"/>
<path id="P-38" d="M1514.3,695.7l-7.7-13.2l-9.4-7.6l-33.4-13.5l-23.4,0.3l-35.2,7.8l-95.1,252.7l133.2,53.3l76.6-247.7
	L1514.3,695.7z M1425.7,823.3c-0.8,1.3-1.9,2.4-3.3,3.1c-1.4,0.7-3.3,1.1-5.7,1.1c-2.3,0-4.1-0.3-5.4-0.8s-2.4-1.3-3.2-2.3
	c-0.8-1-1.5-2.3-2-3.9l7-0.9c0.3,1.4,0.7,2.4,1.3,2.9c0.6,0.5,1.3,0.8,2.2,0.8c0.9,0,1.7-0.3,2.3-1c0.6-0.7,0.9-1.6,0.9-2.7
	c0-1.2-0.3-2.1-0.9-2.7c-0.6-0.6-1.4-1-2.4-1c-0.5,0-1.3,0.1-2.3,0.4l0.4-5c0.4,0.1,0.7,0.1,0.9,0.1c0.9,0,1.7-0.3,2.3-0.9
	s0.9-1.3,0.9-2.1s-0.2-1.4-0.7-1.8c-0.5-0.5-1.1-0.7-1.9-0.7s-1.5,0.2-2,0.7s-0.9,1.4-1,2.6l-6.6-1.2c0.5-2.1,1.6-3.7,3.2-4.8
	s3.8-1.7,6.6-1.7c3.3,0,5.6,0.6,7.1,1.8s2.2,2.8,2.2,4.6c0,1.1-0.3,2.1-0.9,2.9c-0.6,0.9-1.5,1.6-2.7,2.3c1,0.2,1.7,0.5,2.2,0.8
	c0.8,0.5,1.5,1.2,1.9,2c0.5,0.8,0.7,1.8,0.7,3C1426.8,820.6,1426.5,822,1425.7,823.3z M1430.8,823.8c-0.7-1.2-1.1-2.6-1.1-4.1
	s0.3-2.7,1-3.7s1.7-1.8,3.2-2.4c-1.1-0.6-1.9-1.2-2.4-1.9c-0.7-1-1-2.1-1-3.4c0-2.1,1-3.8,3-5.1c1.5-1,3.6-1.5,6.1-1.5
	c0.1,0,0.2,0,0.3,0v4.2l0,0c-0.8,0-1.5,0.3-2.1,0.8c-0.5,0.5-0.8,1.2-0.8,2.1c0,0.9,0.3,1.6,0.8,2.1s1.2,0.8,2,0.8v4.1l0,0
	c-0.9,0-1.6,0.3-2.3,1c-0.6,0.7-1,1.6-1,2.8c0,1.1,0.3,2,1,2.7c0.6,0.7,1.4,1,2.2,1v4.3c-2.6,0-4.5-0.3-5.9-0.9
	C1432.6,826,1431.5,825,1430.8,823.8z M1449.3,823.3c-0.6,1.1-1.3,1.9-2.1,2.5c-0.8,0.6-1.9,1-3.1,1.3s-2.6,0.4-4,0.4h-0.1v-4.3l0,0
	c0.8,0,1.6-0.4,2.2-1.1c0.7-0.7,1-1.6,1-2.7c0-1.1-0.3-2-1-2.7c-0.6-0.7-1.4-1-2.2-1.1v-4.1c0,0,0,0,0.1,0c0.8,0,1.5-0.3,2-0.8
	s0.8-1.2,0.8-2c0-0.9-0.3-1.6-0.8-2.1s-1.2-0.8-2-0.8v-4.2c3.1,0.1,5.5,0.7,7,1.9c1.6,1.3,2.4,2.9,2.4,4.8c0,1.1-0.3,2.2-1,3.2
	c-0.5,0.7-1.2,1.4-2.3,2.1c1.4,0.6,2.4,1.5,3,2.6c0.7,1.1,1,2.3,1,3.6C1450.2,821,1449.9,822.2,1449.3,823.3z"/>
<path id="P-39" d="M1384.6,669.8l-18.2-5.3l-16.2-12.6l-13.1-18.5l-16.5-36l-140.3,325.5l9.7,16.7l28.3-9.2l46.4-24.4l23.6-8.6
	l21.1,10l89.3-237.4h-14.1L1384.6,669.8L1384.6,669.8z M1303.3,774.7c-0.8,1.3-1.9,2.4-3.3,3.1c-1.4,0.7-3.3,1.1-5.7,1.1
	c-2.3,0-4.1-0.3-5.4-0.8s-2.4-1.3-3.2-2.3c-0.8-1-1.5-2.3-2-3.9l7-0.9c0.3,1.4,0.7,2.4,1.3,2.9c0.6,0.5,1.3,0.8,2.2,0.8
	c0.9,0,1.7-0.3,2.3-1c0.6-0.7,0.9-1.6,0.9-2.7c0-1.2-0.3-2.1-0.9-2.7c-0.6-0.6-1.4-1-2.4-1c-0.5,0-1.3,0.1-2.3,0.4l0.4-5
	c0.4,0.1,0.7,0.1,0.9,0.1c0.9,0,1.7-0.3,2.3-0.9s0.9-1.3,0.9-2.1s-0.2-1.4-0.7-1.8c-0.5-0.5-1.1-0.7-1.9-0.7s-1.5,0.2-2,0.7
	s-0.9,1.4-1,2.6l-6.6-1.2c0.5-2.1,1.6-3.7,3.2-4.8s3.8-1.7,6.6-1.7c3.3,0,5.6,0.6,7.1,1.8s2.2,2.8,2.2,4.6c0,1.1-0.3,2.1-0.9,2.9
	c-0.6,0.9-1.5,1.6-2.7,2.3c1,0.2,1.7,0.5,2.2,0.8c0.8,0.5,1.5,1.2,1.9,2c0.5,0.8,0.7,1.8,0.7,3
	C1304.5,772,1304.1,773.4,1303.3,774.7z M1324.9,775.8c-1.9,2.1-4.5,3.2-7.9,3.2c-2,0-3.6-0.2-4.7-0.7c-1.2-0.5-2.1-1.1-2.9-2
	s-1.4-2-1.8-3.3l6.9-0.9c0.2,1,0.5,1.7,0.9,2.1c0.4,0.4,1,0.6,1.6,0.6c1.1,0,2-0.6,2.6-1.7c0.5-0.8,0.8-2.6,1-5.3
	c-0.8,0.9-1.7,1.5-2.6,1.9l0,0v-3.9c0.5-0.2,1-0.5,1.3-0.9c0.7-0.7,1-1.7,1-3.1c0-1.4-0.3-2.4-1-3.2s-1.5-1.2-2.5-1.2
	c-0.9,0-1.7,0.3-2.3,1c-0.6,0.7-0.9,1.7-0.9,3.1c0,1.4,0.3,2.5,0.9,3.2s1.4,1.1,2.4,1.1c0.3,0,0.6,0,0.9-0.1v3.9
	c-0.8,0.3-1.8,0.5-2.8,0.5c-2.2,0-4.1-0.8-5.7-2.4c-1.5-1.6-2.3-3.6-2.3-6c0-1.7,0.4-3.2,1.2-4.5s1.9-2.4,3.2-3.1
	c1.4-0.7,3.1-1.1,5.2-1.1c2.5,0,4.5,0.4,6,1.3c1.5,0.9,2.7,2.2,3.6,4.1c0.9,1.9,1.4,4.3,1.4,7.4
	C1327.7,770.4,1326.8,773.7,1324.9,775.8z"/>
<path id="P-40" d="M1306.7,567.1l-176.4,4.3l2.8,219.5l22.6,13.4l-2.8,46.1l3.4,15.3l14.2,39.2l6.1,11.4L1317.2,590L1306.7,567.1z
	 M1202.5,667.9c1.7-1.9,4.3-2.9,7.8-2.9c1.7,0,3.1,0.2,4.2,0.6c1.1,0.4,2,1,2.6,1.6c0.7,0.7,1.2,1.4,1.6,2.1
	c0.4,0.7,0.7,1.6,0.9,2.6c0.5,1.9,0.7,3.8,0.7,5.8c0,0.8,0,1.6-0.1,2.4h-6.9c0-0.6,0-1.3,0-2.1c0-3.3-0.3-5.6-0.8-6.7
	c-0.6-1.1-1.4-1.7-2.5-1.7c-1.2,0-2,0.6-2.5,1.8s-0.8,3.3-0.8,6.5c0,0.8,0,1.6,0.1,2.3h-6.9c-0.1-0.7-0.1-1.5-0.1-2.3
	C1199.9,673.1,1200.8,669.8,1202.5,667.9z M1188.5,665h6.1v15.2h-6.1v-7.6l-6.5,7.6h-6.2v-0.1L1188.5,665z M1197.7,685.8h-3.1v4.7
	h-6.1v-4.7h-12.7v-5.4h6h6.7h6.1h3.1V685.8z M1210.1,690.9c-2.1,0-3.8-0.3-5.1-1s-2.4-1.7-3.2-3c-0.6-0.9-1.1-2.2-1.4-3.8
	c-0.2-0.9-0.3-1.8-0.4-2.8h6.9c0.1,1.8,0.4,3.2,0.8,4c0.6,1.2,1.4,1.8,2.5,1.8c0.7,0,1.3-0.2,1.8-0.7s0.9-1.3,1.1-2.3
	c0.2-0.7,0.2-1.6,0.3-2.7h6.9c-0.3,3.2-1,5.7-2.2,7.3C1216.5,689.9,1213.9,690.9,1210.1,690.9z"/>
<path id="P-41" d="M1041,815.1l45.4,20.3l40.7-44l-2.8-219.9l-185,1.4l-0.1,25.5l-50-0.7l8.4,188.4l47.1,65.9l30.7,37l12.5,18.4
	l16.7,27.2l3.7,27.6l-62.3,70.2v9l9-2.3l12.4-4.3l76.2-44.5l3-29.1l-0.3-27.1l-22.4-60.4l-29.2-52.5l7.8-34.4L1041,815.1z
	 M1006.3,689c2.4-0.8,4.2-1.7,5.5-2.8s2.3-2.4,3.1-4h5.8v25.5h-7V691c-1.1,0.9-2.2,1.6-3.3,2.1s-2.4,1-4,1.5L1006.3,689L1006.3,689z
	 M999.5,707.8h-6.1v-2.2v-2.5v-5.4v-0.3v-7.6l-6.7,7.9h6.4v5.4h-12.4v-5.7l12.7-15.1h6.1v15.4h3.1v5.4h-3.1V707.8z"/>
<path id="P-42" d="M883.1,597.5l-132.7-1.9l0.5,2.3l4.7,35.6l-8.7,39.5L697,693.2l-6.3,20.1l2.2,8.5l19.4,22.8l14.1,19.9l13.8,27.3
	l13.1,21.5l11,7.9l11.5-0.2l39.3-28.3l39.5-20.1l36.7,10.4L883.1,597.5z M803.4,717.6h-3.1v4.7h-6.1v-2.1v-2.6v-5.4v-0.9v-7
	l-6.7,7.9h6.4v5.4h-12.3v-5.7l12.7-15.1h6.1v15.4h3.1v5.4L803.4,717.6L803.4,717.6z M826,722.3h-20.9c0.2-2.1,1-4,2.2-5.8
	s3.5-4,6.8-6.4c2-1.5,3.3-2.7,3.9-3.5c0.6-0.8,0.9-1.5,0.9-2.2c0-0.8-0.3-1.4-0.8-2c-0.6-0.5-1.3-0.8-2.1-0.8
	c-0.9,0-1.6,0.3-2.2,0.8c-0.6,0.6-0.9,1.5-1.1,3l-7-0.6c0.3-2,0.8-3.5,1.5-4.6s1.8-1.9,3.1-2.5s3.2-0.9,5.5-0.9
	c2.5,0,4.4,0.3,5.7,0.8c1.4,0.6,2.4,1.4,3.2,2.6s1.2,2.5,1.2,3.9c0,1.5-0.4,3-1.3,4.4c-0.9,1.4-2.5,2.9-4.9,4.6
	c-1.4,1-2.3,1.6-2.8,2s-1,0.9-1.7,1.5H826V722.3z"/>
<path id="P-43" d="M748.8,817.4L735,794.7l-13.7-27.1l-13.7-19.4l-20.1-23.6l-1.8-6.7l-110.1,67.9l-89.1,34.3l15.7,70.5l33.9,58.2
	l125.4-66L758,824L748.8,817.4z M623,839.4h-3.1v4.7h-6.1V841h0.2v-8.9h-0.2v-6l-6.7,7.9h6.5v5.4h-12.5v-5.7l12.7-15.1h6.1V834h3.1
	V839.4z M644.5,840.3c-0.8,1.3-1.9,2.4-3.3,3.1c-1.4,0.7-3.3,1.1-5.7,1.1c-2.3,0-4.1-0.3-5.4-0.8c-1.3-0.5-2.4-1.3-3.2-2.3
	s-1.5-2.3-2-3.9l7-0.9c0.3,1.4,0.7,2.4,1.3,2.9s1.3,0.8,2.2,0.8s1.7-0.3,2.3-1s0.9-1.6,0.9-2.7c0-1.2-0.3-2.1-0.9-2.7
	c-0.6-0.6-1.4-1-2.4-1c-0.5,0-1.3,0.1-2.3,0.4l0.4-5c0.4,0.1,0.7,0.1,0.9,0.1c0.9,0,1.7-0.3,2.3-0.9s0.9-1.3,0.9-2.1
	s-0.2-1.4-0.7-1.8c-0.5-0.5-1.1-0.7-1.9-0.7c-0.8,0-1.5,0.2-2,0.7s-0.9,1.4-1,2.6l-6.6-1.2c0.5-2.1,1.6-3.7,3.2-4.8
	c1.6-1.1,3.8-1.7,6.6-1.7c3.3,0,5.6,0.6,7.1,1.8s2.2,2.8,2.2,4.6c0,1.1-0.3,2.1-0.9,2.9c-0.6,0.9-1.5,1.6-2.7,2.3
	c1,0.2,1.7,0.5,2.2,0.8c0.8,0.5,1.5,1.2,1.9,2c0.5,0.8,0.7,1.8,0.7,3C645.6,837.6,645.3,839,644.5,840.3z"/>
<path id="P-44" d="M480.4,820.5l-34.6-13.4l-9.9-14.1L136.7,915.6l35,99.6l324.2-125.4L480.4,820.5z M313.5,908.6h-3.1v4.7h-6.1
	v-2.8v-1.9v-5.4v-1.6v-6.3l-6.7,7.9h6.4v5.4h-12.3v-5.7l12.7-15.1h6.1v15.4h3.1v5.4L313.5,908.6L313.5,908.6z M336.9,908.6h-3.1v4.7
	h-6.1v-2.4v-2.3v-5.4V902v-6.7l-6.7,7.9h6.4v5.4H315v-5.7l12.7-15.1h6.1v15.4h3.1L336.9,908.6L336.9,908.6z"/>
<path id="P-45" d="M367.7,693.7l-273.5,101L134.8,910l297.6-122.1L367.7,693.7z M253.4,809.8h-3.1v4.7h-6.1v-3v-1.7v-5.4v-1.8v-6.1
	l-6.7,7.9h6.4v5.4h-12.3V804l12.7-15.1h6.1v15.4h3.1L253.4,809.8L253.4,809.8z M274.9,810.3c-0.8,1.5-1.9,2.6-3.4,3.4
	s-3.4,1.2-5.7,1.2c-1.7,0-3.1-0.2-4.2-0.5c-1.2-0.3-2.2-0.8-3-1.4c-0.8-0.6-1.5-1.3-2-2.1s-0.9-1.8-1.3-2.9l7-0.8
	c0.2,1.1,0.6,2,1.2,2.6s1.4,0.9,2.2,0.9c1,0,1.8-0.4,2.4-1.1c0.6-0.7,0.9-1.8,0.9-3.3s-0.3-2.6-1-3.3c-0.6-0.7-1.5-1-2.5-1
	c-0.7,0-1.3,0.2-1.9,0.5c-0.5,0.2-1,0.7-1.5,1.3l-5.9-0.9l2.2-13.5h16.5v5.6h-11.2l-0.6,3.8c0.8-0.4,1.5-0.6,2.3-0.8
	s1.5-0.3,2.2-0.3c2.5,0,4.5,0.8,6.1,2.3s2.3,3.4,2.3,5.7C276.1,807.2,275.7,808.8,274.9,810.3z"/>
<path id="P-46" d="M285.2,573.4L44.2,658l48,130.9l272-100.4L285.2,573.4z M206.6,682h-3.1v4.7h-6.1v-2.4V682v-5.4v-1.2v-6.7
	l-6.7,7.9h6.4v5.4h-12.3v-5.7l12.7-15.1h6.1v15.4h3.1L206.6,682L206.6,682z M228.3,682.9c-0.8,1.4-1.9,2.4-3.2,3.1c-1.3,0.7-3,1-5,1
	v-4.4c0.7-0.1,1.4-0.4,1.9-1c0.6-0.7,0.9-1.7,0.9-3.1c0-1.4-0.3-2.5-1-3.2c-0.6-0.7-1.4-1.1-2.4-1.1s-1.8,0.4-2.4,1.1
	c-0.7,0.7-1,1.7-1,3.1c0,1.4,0.3,2.4,1,3.2s1.5,1.2,2.5,1.2h0.1v4.3c-2.5,0-4.4-0.4-5.9-1.3c-1.5-0.9-2.7-2.2-3.6-4.1
	c-0.9-1.9-1.4-4.4-1.4-7.4c0-4.5,1-7.8,2.9-9.9c1.9-2.1,4.5-3.2,7.9-3.2c2,0,3.6,0.2,4.7,0.7c1.2,0.5,2.1,1.1,2.9,2
	c0.8,0.9,1.3,2,1.7,3.3l-6.9,0.9c-0.2-1-0.5-1.7-0.9-2.1c-0.4-0.4-1-0.6-1.6-0.6c-1.1,0-2,0.6-2.6,1.7c-0.5,0.8-0.8,2.6-1,5.3
	c0.8-0.8,1.7-1.5,2.6-1.9c0.9-0.4,1.9-0.6,3-0.6c2.2,0,4.1,0.8,5.7,2.4c1.5,1.6,2.3,3.6,2.3,6.1C229.4,680.1,229,681.6,228.3,682.9z
	"/>
<path id="P-47" d="M394.7,528.5L291,571.3l158.8,230.9l33.3,12.9l86.7-33.3L394.7,528.5z M424.8,682h-3.1v4.7h-6.1v-3.2V682v-5.4v-2
	v-5.9l-6.7,7.9h6.4v5.4H403v-5.7l12.7-15.1h6.1v15.4h3.1v5.4L424.8,682L424.8,682z M447.4,666.3c-1.8,1.6-3.2,3.3-4.4,5.2
	c-1.4,2.3-2.6,4.8-3.4,7.5c-0.7,2.2-1.1,4.7-1.3,7.6h-6.9c0.5-4.1,1.4-7.5,2.6-10.3s3-5.7,5.6-8.9h-12.4v-5.9h20.3v4.8L447.4,666.3
	L447.4,666.3z"/>
<path id="P-48" d="M544.2,477.5l-15,17l-128.5,32.2l174.4,252.5L685,711.3l6.2-19.8L544.2,477.5z M559,638.3h-3.1v4.7h-6.1v-4.7
	h-0.2v-5.4h0.2V625l-6.7,7.9h6.2v5.4h-12.1v-5.7l12.7-15.1h6.1v15.4h3.1v5.4L559,638.3L559,638.3z M562.3,639.7
	c-0.7-1.2-1.1-2.6-1.1-4.1s0.3-2.7,1-3.7s1.7-1.8,3.2-2.4c-1.1-0.6-1.9-1.2-2.4-1.9c-0.7-1-1-2.1-1-3.4c0-2.1,1-3.8,3-5.1
	c1.5-1,3.6-1.5,6.1-1.5c0.1,0,0.2,0,0.2,0v4.2c-0.8,0-1.5,0.3-2,0.8s-0.8,1.2-0.8,2.1c0,0.9,0.3,1.6,0.8,2.1s1.1,0.7,1.9,0.8v4.1
	c-0.8,0-1.5,0.4-2.2,1c-0.6,0.7-1,1.6-1,2.8c0,1.1,0.3,2,1,2.7c0.6,0.6,1.3,1,2.1,1v4.3c-2.5,0-4.4-0.3-5.8-0.9
	C564.1,641.8,563,640.9,562.3,639.7z M580.8,639.2c-0.6,1.1-1.3,1.9-2.1,2.5s-1.9,1-3.1,1.3c-1.2,0.3-2.6,0.4-4,0.4v-4.3
	c0.8,0,1.5-0.4,2.1-1.1c0.7-0.7,1-1.6,1-2.7c0-1.1-0.3-2-1-2.7c-0.6-0.6-1.3-1-2.1-1v-4.1c0.7,0,1.4-0.3,1.8-0.8
	c0.5-0.5,0.8-1.2,0.8-2c0-0.9-0.3-1.6-0.8-2.1s-1.1-0.7-1.8-0.8v-4.2c3.1,0.1,5.3,0.7,6.8,1.9c1.6,1.3,2.4,2.9,2.4,4.8
	c0,1.1-0.3,2.2-1,3.2c-0.5,0.7-1.2,1.4-2.3,2.1c1.4,0.6,2.4,1.5,3,2.6c0.7,1.1,1,2.3,1,3.6C581.7,636.9,581.4,638.1,580.8,639.2z"/>
<path id="P-49" d="M745,599l-7.2-24.8l-8.7-21.5l-17.8-54L601.2,356L587,371.7L558.7,440l-10.9,32.2l147.9,215.1l46-18.7l7.8-35.4
	L745,599z M648.1,523.2H645v4.7h-6.1V525v-1.8v-5.4v-1.6v-6.3l-6.7,7.9h6.4v5.4h-12.3v-5.7l12.7-15.1h6.1v15.4h3.1v5.4L648.1,523.2
	L648.1,523.2z M667.8,525.1c-1.9,2.1-4.5,3.2-7.9,3.2c-2,0-3.6-0.2-4.7-0.7c-1.2-0.5-2.1-1.1-2.9-2c-0.8-0.9-1.4-2-1.8-3.3l6.9-0.9
	c0.2,1,0.5,1.7,0.9,2.1c0.4,0.4,1,0.6,1.6,0.6c1.1,0,2-0.6,2.6-1.7c0.5-0.8,0.8-2.6,1-5.3c-0.8,0.9-1.7,1.5-2.6,1.9
	c-0.2,0.1-0.4,0.1-0.6,0.2v-4c0.7-0.1,1.4-0.4,1.9-1c0.7-0.7,1-1.7,1-3.1s-0.3-2.4-1-3.2c-0.7-0.8-1.5-1.2-2.5-1.2
	c-0.9,0-1.7,0.3-2.3,1s-0.9,1.7-0.9,3.1c0,1.4,0.3,2.5,0.9,3.2c0.6,0.7,1.4,1.1,2.4,1.1c0.1,0,0.1,0,0.2,0v4
	c-0.7,0.2-1.4,0.3-2.2,0.3c-2.2,0-4.1-0.8-5.7-2.4c-1.5-1.6-2.3-3.6-2.3-6c0-1.7,0.4-3.2,1.2-4.5s1.9-2.4,3.2-3.1
	c1.4-0.7,3.1-1.1,5.2-1.1c2.5,0,4.5,0.4,6,1.3s2.7,2.2,3.6,4.1c0.9,1.9,1.4,4.3,1.4,7.4C670.6,519.7,669.7,523,667.8,525.1z"/>
<path id="P-50" d="M929.3,389.4l-8.7,16l-15.9,18.2l-13.9,11.3l-17.5,11.6l-16.7,6.9l-18.1,2.7l-37.3,1l-20.6-4.6l-50.5-20
	l-19.4,13.3l6.3,50.8l17.8,54l8.8,21.6l5.5,17.4l184.3,2.7l4.2-225.9L929.3,389.4z M840.9,523.7c-0.8,1.5-1.9,2.6-3.4,3.4
	s-3.4,1.2-5.7,1.2c-1.7,0-3.1-0.2-4.2-0.5c-1.2-0.3-2.2-0.8-3-1.4c-0.8-0.6-1.5-1.3-2-2.1s-0.9-1.8-1.3-2.9l7-0.8
	c0.2,1.1,0.6,2,1.2,2.6c0.6,0.6,1.4,0.9,2.2,0.9c1,0,1.8-0.4,2.4-1.1c0.6-0.7,0.9-1.8,0.9-3.3s-0.3-2.6-1-3.3c-0.6-0.7-1.5-1-2.5-1
	c-0.7,0-1.3,0.2-1.9,0.5c-0.5,0.2-1,0.7-1.5,1.3l-5.9-0.9l2.2-13.5h16.5v5.6h-11.2l-0.6,3.8c0.8-0.4,1.5-0.6,2.3-0.8
	c0.8-0.2,1.5-0.3,2.2-0.3c2.5,0,4.5,0.8,6.1,2.3s2.3,3.4,2.3,5.7C842.1,520.6,841.7,522.2,840.9,523.7z M863.1,525.1
	c-1.5,2.1-4.1,3.1-7.8,3.2v-4.8c0.6,0,1.2-0.3,1.6-0.7c0.5-0.5,0.9-1.3,1.1-2.3c0.2-1.1,0.4-2.7,0.4-5c0-3.3-0.3-5.6-0.8-6.7
	c-0.6-1.1-1.4-1.7-2.5-1.7c-1.2,0-2,0.6-2.5,1.8c-0.5,1.2-0.8,3.3-0.8,6.5s0.3,5.4,0.8,6.5s1.3,1.7,2.3,1.7v4.8c-2,0-3.7-0.3-5-1
	s-2.4-1.7-3.2-3c-0.6-0.9-1.1-2.2-1.4-3.8c-0.3-1.6-0.5-3.4-0.5-5.3c0-4.8,0.9-8.1,2.6-10c1.7-1.9,4.3-2.9,7.8-2.9
	c1.7,0,3.1,0.2,4.2,0.6c1.1,0.4,2,1,2.6,1.6c0.7,0.7,1.2,1.4,1.6,2.1c0.4,0.7,0.7,1.6,0.9,2.6c0.5,1.9,0.7,3.8,0.7,5.8
	C865.4,519.7,864.6,523,863.1,525.1z"/>
<path id="P-51" d="M988,291l-34.2,23.6l-10.1,33.7l-4.4,218.5l135,0.4l6.3-134.8L988,291z M1005,482c-0.8,1.5-1.9,2.6-3.4,3.4
	s-3.4,1.2-5.7,1.2c-1.7,0-3.1-0.2-4.2-0.5c-1.2-0.3-2.2-0.8-3-1.4s-1.5-1.3-2-2.1s-0.9-1.8-1.3-2.9l7-0.8c0.2,1.1,0.6,2,1.2,2.6
	c0.6,0.6,1.4,0.9,2.2,0.9c1,0,1.8-0.4,2.4-1.1c0.6-0.7,0.9-1.8,0.9-3.3s-0.3-2.6-1-3.3c-0.6-0.7-1.5-1-2.5-1c-0.7,0-1.3,0.2-1.9,0.5
	c-0.5,0.2-1,0.7-1.5,1.3l-5.9-0.9l2.2-13.5h16.5v5.6h-11.2l-0.6,3.8c0.8-0.4,1.5-0.6,2.3-0.8c0.8-0.2,1.5-0.3,2.2-0.3
	c2.5,0,4.5,0.8,6.1,2.3s2.3,3.4,2.3,5.7C1006.2,478.9,1005.8,480.5,1005,482z M1024.8,486.2h-7v-16.7c-1.1,0.9-2.2,1.6-3.3,2.1
	s-2.4,1-4,1.5v-5.7c2.4-0.8,4.2-1.7,5.5-2.8c1.3-1.1,2.3-2.4,3.1-4h5.8L1024.8,486.2L1024.8,486.2z"/>
<path id="P-52" d="M1265.6,448.8l-4.5-33.3l-40.7-92.8l-111.5,137.9l-16.3-14.2l-6.2-7.2l-6,127.9l224-6L1265.6,448.8z
	 M1184.4,494.5c-0.8,1.5-1.9,2.6-3.4,3.4s-3.4,1.2-5.7,1.2c-1.7,0-3.1-0.2-4.2-0.5c-1.2-0.3-2.2-0.8-3-1.4s-1.5-1.3-2-2.1
	s-0.9-1.8-1.3-2.9l7-0.8c0.2,1.1,0.6,2,1.2,2.6s1.4,0.9,2.2,0.9c1,0,1.8-0.4,2.4-1.1s0.9-1.8,0.9-3.3s-0.3-2.6-1-3.3
	c-0.6-0.7-1.5-1-2.5-1c-0.7,0-1.3,0.2-1.9,0.5c-0.5,0.2-1,0.7-1.5,1.3l-5.9-0.9l2.2-13.5h16.5v5.6h-11.2l-0.6,3.8
	c0.8-0.4,1.5-0.6,2.3-0.8c0.8-0.2,1.5-0.3,2.2-0.3c2.5,0,4.5,0.8,6.1,2.3s2.3,3.4,2.3,5.7C1185.6,491.5,1185.2,493,1184.4,494.5z
	 M1208.8,498.7h-20.9c0.2-2.1,1-4,2.2-5.8s3.5-4,6.8-6.4c2-1.5,3.3-2.7,3.9-3.5s0.9-1.5,0.9-2.2c0-0.8-0.3-1.4-0.8-2
	c-0.6-0.5-1.3-0.8-2.1-0.8c-0.9,0-1.6,0.3-2.2,0.8c-0.6,0.6-0.9,1.5-1.1,3l-7-0.6c0.3-2,0.8-3.5,1.5-4.6s1.8-1.9,3.1-2.5
	c1.3-0.6,3.2-0.9,5.5-0.9c2.5,0,4.4,0.3,5.7,0.8c1.4,0.6,2.4,1.4,3.2,2.6s1.2,2.5,1.2,3.9c0,1.5-0.4,3-1.3,4.4s-2.5,2.9-4.9,4.6
	c-1.4,1-2.3,1.6-2.8,2s-1,0.9-1.7,1.5h10.9L1208.8,498.7L1208.8,498.7z"/>
<path id="P-53" d="M742.6,232.9L605.5,351.7l104.1,135l-5.4-43.9l25-17.2l53.1,21l19.5,4.3l36.2-1l17.1-2.6l12.5-5.2L742.6,232.9z
	 M724,361.5c-0.8,1.5-1.9,2.6-3.4,3.4s-3.4,1.2-5.7,1.2c-1.7,0-3.1-0.2-4.2-0.5c-1.2-0.3-2.2-0.8-3-1.4s-1.5-1.3-2-2.1
	s-0.9-1.8-1.3-2.9l7-0.8c0.2,1.1,0.6,2,1.2,2.6c0.6,0.6,1.4,0.9,2.2,0.9c1,0,1.8-0.4,2.4-1.1c0.6-0.7,0.9-1.8,0.9-3.3
	s-0.3-2.6-1-3.3c-0.6-0.7-1.5-1-2.5-1c-0.7,0-1.3,0.2-1.9,0.5c-0.5,0.2-1,0.7-1.5,1.3l-5.9-0.9l2.2-13.5H724v5.6h-11.2l-0.6,3.8
	c0.8-0.4,1.5-0.6,2.3-0.8c0.8-0.2,1.5-0.3,2.2-0.3c2.5,0,4.5,0.8,6.1,2.3s2.3,3.4,2.3,5.7C725.2,358.5,724.8,360,724,361.5z
	 M747.3,362c-0.8,1.3-1.9,2.4-3.3,3.1c-1.4,0.7-3.3,1.1-5.7,1.1c-2.3,0-4.1-0.3-5.4-0.8c-1.3-0.5-2.4-1.3-3.2-2.3s-1.5-2.3-2-3.9
	l7-0.9c0.3,1.4,0.7,2.4,1.3,2.9s1.3,0.8,2.2,0.8s1.7-0.3,2.3-1s0.9-1.6,0.9-2.7c0-1.2-0.3-2.1-0.9-2.7c-0.6-0.6-1.4-1-2.4-1
	c-0.5,0-1.3,0.1-2.3,0.4l0.4-5c0.4,0.1,0.7,0.1,0.9,0.1c0.9,0,1.7-0.3,2.3-0.9s0.9-1.3,0.9-2.1c0-0.8-0.2-1.4-0.7-1.8
	c-0.5-0.5-1.1-0.7-1.9-0.7c-0.8,0-1.5,0.2-2,0.7s-0.9,1.4-1,2.6l-6.6-1.2c0.5-2.1,1.6-3.7,3.2-4.8c1.6-1.1,3.8-1.7,6.6-1.7
	c3.3,0,5.6,0.6,7.1,1.8c1.5,1.2,2.2,2.8,2.2,4.6c0,1.1-0.3,2.1-0.9,2.9c-0.6,0.9-1.5,1.6-2.7,2.3c1,0.2,1.7,0.5,2.2,0.8
	c0.8,0.5,1.5,1.2,1.9,2c0.5,0.8,0.7,1.8,0.7,3C748.5,359.2,748.1,360.6,747.3,362z"/>
<path id="P-54" d="M859.1,137.2L747.2,229l125.6,210.5l14.4-9.5l13.3-10.8l15.1-17.3l8.2-15l14.2-40.1l4.7-13.2l5.4-20.6
	L859.1,137.2z M852.2,283.6c-0.8,1.5-1.9,2.6-3.4,3.4s-3.4,1.2-5.7,1.2c-1.7,0-3.1-0.2-4.2-0.5c-1.2-0.3-2.2-0.8-3-1.4
	s-1.5-1.3-2-2.1s-0.9-1.8-1.3-2.9l7-0.8c0.2,1.1,0.6,2,1.2,2.6c0.6,0.6,1.4,0.9,2.2,0.9c1,0,1.8-0.4,2.4-1.1
	c0.6-0.7,0.9-1.8,0.9-3.3s-0.3-2.6-1-3.3c-0.6-0.7-1.5-1-2.5-1c-0.7,0-1.3,0.2-1.9,0.5c-0.5,0.2-1,0.7-1.5,1.3l-5.9-0.9l2.2-13.5
	h16.5v5.6H841l-0.6,3.8c0.8-0.4,1.5-0.6,2.3-0.8c0.8-0.2,1.5-0.3,2.2-0.3c2.5,0,4.5,0.8,6.1,2.3s2.3,3.4,2.3,5.7
	C853.4,280.5,853,282.1,852.2,283.6z M877.4,283.1h-3.1v4.7h-6.1v-2.4l0,0v-8.9l0,0v-6.7l-6.7,7.9h6.4v5.4h-12.4v-5.7l12.7-15.1h6.1
	v15.4h3.1V283.1z"/>
<path id="P-55" d="M1100.2,102.8l-162,7.2l-33.9,3.9l-40.2,19.9l88.3,174.5l34.7-24l150-114.2L1100.2,102.8z M992.4,196.4
	c-0.8,1.5-1.9,2.6-3.4,3.4s-3.4,1.2-5.7,1.2c-1.7,0-3.1-0.2-4.2-0.5c-1.2-0.3-2.2-0.8-3-1.4c-0.8-0.6-1.5-1.3-2-2.1
	s-0.9-1.8-1.3-2.9l7-0.8c0.2,1.1,0.6,2,1.2,2.6c0.6,0.6,1.4,0.9,2.2,0.9c1,0,1.8-0.4,2.4-1.1c0.6-0.7,0.9-1.8,0.9-3.3
	s-0.3-2.6-1-3.3c-0.6-0.7-1.5-1-2.5-1c-0.7,0-1.3,0.2-1.9,0.5c-0.5,0.2-1,0.7-1.5,1.3l-5.9-0.9l2.2-13.5h16.5v5.6h-11.2l-0.6,3.8
	c0.8-0.4,1.5-0.6,2.3-0.8s1.5-0.3,2.2-0.3c2.5,0,4.5,0.8,6.1,2.3s2.3,3.4,2.3,5.7C993.6,193.3,993.2,194.9,992.4,196.4z
	 M1015.8,196.4c-0.8,1.5-1.9,2.6-3.4,3.4s-3.4,1.2-5.7,1.2c-1.7,0-3.1-0.2-4.2-0.5c-1.2-0.3-2.2-0.8-3-1.4c-0.8-0.6-1.5-1.3-2-2.1
	s-0.9-1.8-1.3-2.9l7-0.8c0.2,1.1,0.6,2,1.2,2.6c0.6,0.6,1.4,0.9,2.2,0.9c1,0,1.8-0.4,2.4-1.1c0.6-0.7,0.9-1.8,0.9-3.3
	s-0.3-2.6-1-3.3c-0.6-0.7-1.5-1-2.5-1c-0.7,0-1.3,0.2-1.9,0.5c-0.5,0.2-1,0.7-1.5,1.3l-6-0.9l2.2-13.5h16.5v5.6h-11.2l-0.6,3.8
	c0.8-0.4,1.5-0.6,2.3-0.8s1.5-0.3,2.2-0.3c2.5,0,4.5,0.8,6.1,2.3s2.3,3.4,2.3,5.7C1017,193.3,1016.6,194.9,1015.8,196.4z"/>
<path id="P-56" d="M1140,175.5l-147.2,112l93.3,142.3l10.7,12.4l11.4,10l34.4-41.1l74.9-94.3L1140,175.5z M1113.9,318.4
	c-0.8,1.5-1.9,2.6-3.4,3.4s-3.4,1.2-5.7,1.2c-1.7,0-3.1-0.2-4.2-0.5c-1.2-0.3-2.2-0.8-3-1.4s-1.5-1.3-2-2.1s-0.9-1.8-1.3-2.9l7-0.8
	c0.2,1.1,0.6,2,1.2,2.6s1.4,0.9,2.2,0.9c1,0,1.8-0.4,2.4-1.1s0.9-1.8,0.9-3.3s-0.3-2.6-1-3.3c-0.6-0.7-1.5-1-2.5-1
	c-0.7,0-1.3,0.2-1.9,0.5c-0.5,0.2-1,0.7-1.5,1.3l-5.9-0.9l2.2-13.5h16.5v5.6h-11.2l-0.6,3.8c0.8-0.4,1.5-0.6,2.3-0.8
	c0.8-0.2,1.5-0.3,2.2-0.3c2.5,0,4.5,0.8,6.1,2.3s2.3,3.4,2.3,5.7C1115.1,315.3,1114.7,316.9,1113.9,318.4z M1137.4,318.8
	c-0.8,1.4-1.9,2.4-3.2,3.1c-1.4,0.7-3.1,1.1-5.2,1.1c-2.5,0-4.5-0.4-6-1.3s-2.7-2.2-3.6-4.1s-1.4-4.4-1.4-7.4c0-4.5,1-7.8,2.9-9.9
	s4.5-3.2,7.9-3.2c2,0,3.6,0.2,4.7,0.7c1.2,0.5,2.1,1.1,2.9,2s1.3,2,1.7,3.3l-6.9,0.9c-0.2-1-0.5-1.7-0.9-2.1s-1-0.6-1.6-0.6
	c-1.1,0-2,0.6-2.6,1.7c-0.5,0.8-0.8,2.6-1,5.3c0.8-0.8,1.7-1.5,2.6-1.9c0.3-0.2,0.7-0.3,1.1-0.4v4.1c-0.9,0-1.7,0.4-2.4,1.1
	c-0.7,0.7-1,1.7-1,3.1s0.3,2.4,1,3.2c0.7,0.8,1.5,1.2,2.5,1.2c0.9,0,1.7-0.3,2.3-1c0.6-0.7,0.9-1.7,0.9-3.1s-0.3-2.5-1-3.2
	c-0.6-0.7-1.3-1-2.1-1.1V306c0.5-0.1,1.1-0.2,1.7-0.2c2.2,0,4.1,0.8,5.7,2.4c1.5,1.6,2.3,3.6,2.3,6.1
	C1138.6,315.9,1138.2,317.4,1137.4,318.8z"/>
<path id="P-57" d="M1217,37.6l-43.4,32.3l-67.5,31.2l117.8,214.6l40.2,91.6l72-160.5L1217,37.6z M1231.7,214.4
	c-0.8,1.5-1.9,2.6-3.4,3.4s-3.4,1.2-5.7,1.2c-1.7,0-3.1-0.2-4.2-0.5c-1.2-0.3-2.2-0.8-3-1.4c-0.8-0.6-1.5-1.3-2-2.1
	s-0.9-1.8-1.3-2.9l7-0.8c0.2,1.1,0.6,2,1.2,2.6s1.4,0.9,2.2,0.9c1,0,1.8-0.4,2.4-1.1c0.6-0.7,0.9-1.8,0.9-3.3s-0.3-2.6-1-3.3
	c-0.6-0.7-1.5-1-2.5-1c-0.7,0-1.3,0.2-1.9,0.5c-0.5,0.2-1,0.7-1.5,1.3l-5.9-0.9l2.2-13.5h16.5v5.6h-11.2l-0.6,3.8
	c0.8-0.4,1.5-0.6,2.3-0.8s1.5-0.3,2.2-0.3c2.5,0,4.5,0.8,6.1,2.3s2.3,3.4,2.3,5.7C1232.9,211.4,1232.5,212.9,1231.7,214.4z
	 M1256.2,198.3c-1.8,1.6-3.2,3.3-4.4,5.2c-1.4,2.3-2.6,4.8-3.4,7.5c-0.7,2.2-1.1,4.7-1.3,7.6h-6.9c0.5-4.1,1.4-7.5,2.6-10.3
	s3-5.7,5.6-8.9H1236v-5.9h20.3L1256.2,198.3L1256.2,198.3z"/>
<path id="P-58" d="M1339.6,253.6l-72.5,161.6l4.3,32.2l40,115.5l28.2,61.7l89.7-200.6L1339.6,253.6z M1344.6,440.2
	c-0.8,1.5-1.9,2.6-3.4,3.4s-3.4,1.2-5.7,1.2c-1.7,0-3.1-0.2-4.2-0.5c-1.2-0.3-2.2-0.8-3-1.4s-1.5-1.3-2-2.1s-0.9-1.8-1.3-2.9l7-0.8
	c0.2,1.1,0.6,2,1.2,2.6s1.4,0.9,2.2,0.9c1,0,1.8-0.4,2.4-1.1s0.9-1.8,0.9-3.3s-0.3-2.6-1-3.3c-0.6-0.7-1.5-1-2.5-1
	c-0.7,0-1.3,0.2-1.9,0.5c-0.5,0.2-1,0.7-1.5,1.3l-5.9-0.9l2.2-13.5h16.5v5.6h-11.2l-0.6,3.8c0.8-0.4,1.5-0.6,2.3-0.8
	c0.8-0.2,1.5-0.3,2.2-0.3c2.5,0,4.5,0.8,6.1,2.3s2.3,3.4,2.3,5.7C1345.8,437.1,1345.4,438.7,1344.6,440.2z M1366.1,443
	c-0.8,0.6-1.9,1-3.1,1.3c-1.1,0.3-2.4,0.4-3.7,0.4v-4.3c0.6-0.1,1.2-0.4,1.8-1c0.7-0.7,1-1.6,1-2.7s-0.3-2-1-2.7s-1.4-1.1-2.3-1.1
	s-1.6,0.3-2.3,1c-0.6,0.7-1,1.6-1,2.8c0,1.1,0.3,2,1,2.7s1.4,1.1,2.3,1.1h0.1v4.3c-2.7,0-4.7-0.3-6.1-0.9s-2.5-1.5-3.2-2.8
	c-0.7-1.2-1.1-2.6-1.1-4.1s0.3-2.7,1-3.7s1.7-1.8,3.2-2.4c-1.1-0.6-1.9-1.2-2.4-1.9c-0.7-1-1-2.1-1-3.4c0-2.1,1-3.8,3-5.1
	c1.5-1,3.6-1.5,6.1-1.5c0.1,0,0.2,0,0.3,0v4.2c-0.8,0-1.5,0.3-2.1,0.8c-0.5,0.5-0.8,1.2-0.8,2.1s0.3,1.6,0.8,2.1s1.3,0.8,2.2,0.8
	c0.8,0,1.5-0.3,2-0.8s0.8-1.2,0.8-2c0-0.9-0.3-1.6-0.8-2.1s-1-0.7-1.7-0.8V419c3,0.1,5.3,0.7,6.7,1.9c1.6,1.3,2.4,2.9,2.4,4.8
	c0,1.1-0.3,2.2-1,3.2c-0.5,0.7-1.2,1.4-2.3,2.1c1.4,0.6,2.4,1.5,3,2.6c0.7,1.1,1,2.3,1,3.6c0,1.3-0.3,2.4-0.9,3.5
	S1367,442.4,1366.1,443z"/>
<path id="P-59" d="M1479.1,519.8l-46.2-89l-89.8,200.8l11.5,16.2l14.6,11.4l16.3,4.7h17.2l37-8.2l25.1-0.3l15.6,5.2l19.9,9.2
	l10.9,8.8l8.8,15.1l4,22.8l54-146.5L1479.1,519.8z M1451.5,587.5c-0.8,1.5-1.9,2.6-3.4,3.4s-3.4,1.2-5.7,1.2c-1.7,0-3.1-0.2-4.2-0.5
	c-1.2-0.3-2.2-0.8-3-1.4c-0.8-0.6-1.5-1.3-2-2.1s-0.9-1.8-1.3-2.9l7-0.8c0.2,1.1,0.6,2,1.2,2.6s1.4,0.9,2.2,0.9c1,0,1.8-0.4,2.4-1.1
	c0.6-0.7,0.9-1.8,0.9-3.3s-0.3-2.6-1-3.3c-0.6-0.7-1.5-1-2.5-1c-0.7,0-1.3,0.2-1.9,0.5c-0.5,0.2-1,0.7-1.5,1.3l-5.9-0.9l2.2-13.5
	h16.5v5.6h-11.2l-0.6,3.8c0.8-0.4,1.5-0.6,2.3-0.8s1.5-0.3,2.2-0.3c2.5,0,4.5,0.8,6.1,2.3s2.3,3.4,2.3,5.7
	C1452.7,584.4,1452.3,586,1451.5,587.5z M1473,588.9c-1.9,2.1-4.5,3.2-7.9,3.2c-2,0-3.6-0.2-4.7-0.7c-1.2-0.5-2.1-1.1-2.9-2
	s-1.4-2-1.8-3.3l6.9-0.9c0.2,1,0.5,1.7,0.9,2.1c0.4,0.4,1,0.6,1.6,0.6c1.1,0,2-0.6,2.6-1.7c0.5-0.8,0.8-2.6,1-5.3
	c-0.8,0.9-1.7,1.5-2.6,1.9s-1.9,0.6-3,0.6c-2.2,0-4.1-0.8-5.7-2.4c-1.5-1.6-2.3-3.6-2.3-6c0-1.7,0.4-3.2,1.2-4.5s1.9-2.4,3.2-3.1
	c1.4-0.7,3.1-1.1,5.2-1.1c0.1,0,0.1,0,0.2,0v4.3c-0.9,0-1.7,0.4-2.3,1c-0.6,0.7-0.9,1.7-0.9,3.1c0,1.4,0.3,2.5,0.9,3.2
	s1.4,1.1,2.4,1.1s1.8-0.4,2.4-1.1c0.7-0.7,1-1.7,1-3.1c0-1.4-0.3-2.4-1-3.2c-0.6-0.7-1.3-1-2.2-1.1v-4.3c2.3,0.1,4.1,0.5,5.5,1.3
	c1.5,0.9,2.7,2.2,3.6,4.1c0.9,1.9,1.4,4.3,1.4,7.4C1475.9,583.5,1474.9,586.8,1473,588.9z"/>
<path id="P-60" d="M1628.5,595.5l-45.1-22.8L1526,728.2l4.1,24.1L1543,774l15,21.1l30.7,24.5l19.9,8.9l26.7,1.1l19.3-0.5l63.2-195.3
	L1628.5,595.5z M1612.5,708.6c-0.8,1.4-1.9,2.4-3.2,3.1c-1.4,0.7-3.1,1.1-5.2,1.1c-0.1,0-0.2,0-0.4,0v-4.3c0.1,0,0.1,0,0.2,0
	c0.9,0,1.7-0.3,2.3-1c0.6-0.7,0.9-1.7,0.9-3.1c0-1.4-0.3-2.5-1-3.2c-0.6-0.7-1.4-1.1-2.4-1.1s-1.8,0.4-2.4,1.1c-0.7,0.7-1,1.7-1,3.1
	c0,1.4,0.3,2.4,1,3.2c0.6,0.6,1.2,1,2,1.1v4.4c-2.2-0.1-4-0.5-5.3-1.3c-1.5-0.9-2.7-2.2-3.6-4.1c-0.9-1.9-1.4-4.4-1.4-7.4
	c0-4.5,1-7.8,2.9-9.9c1.9-2.1,4.5-3.2,7.9-3.2c2,0,3.6,0.2,4.7,0.7c1.2,0.5,2.1,1.1,2.9,2s1.3,2,1.7,3.3l-6.9,0.9
	c-0.2-1-0.5-1.7-0.9-2.1c-0.4-0.4-1-0.6-1.6-0.6c-1.1,0-2,0.6-2.6,1.7c-0.5,0.8-0.8,2.6-1,5.3c0.8-0.8,1.7-1.5,2.6-1.9
	s1.9-0.6,3-0.6c2.2,0,4.1,0.8,5.7,2.4c1.5,1.6,2.3,3.6,2.3,6.1C1613.7,705.7,1613.3,707.2,1612.5,708.6z M1634.5,709.6
	c-1.5,2.1-4.2,3.2-7.9,3.2c-2.1,0-3.8-0.3-5.1-1s-2.4-1.7-3.2-3c-0.6-0.9-1.1-2.2-1.4-3.8s-0.5-3.4-0.5-5.3c0-4.8,0.9-8.1,2.6-10
	c1.6-1.8,4.1-2.7,7.3-2.8v4.7c-1,0.1-1.7,0.6-2.2,1.7c-0.5,1.2-0.8,3.3-0.8,6.5s0.3,5.4,0.8,6.5c0.6,1.2,1.4,1.8,2.5,1.8
	c0.7,0,1.3-0.2,1.8-0.7s0.9-1.3,1.1-2.3c0.2-1.1,0.4-2.7,0.4-5c0-3.3-0.3-5.6-0.8-6.7c-0.6-1.1-1.4-1.7-2.5-1.7v-4.6
	c0.1,0,0.1,0,0.2,0c1.7,0,3.1,0.2,4.2,0.6c1.1,0.4,2,1,2.6,1.6c0.7,0.7,1.2,1.4,1.6,2.1c0.4,0.7,0.7,1.6,0.9,2.6
	c0.5,1.9,0.7,3.8,0.7,5.8C1636.8,704.2,1636.1,707.5,1634.5,709.6z"/>
<path id="P-30" d="M532.4,954.3l-34.3-58.8l-105.2,40.7L499,1184.4l7.9-0.8l38.9-12.1l12.4-9.9l39.3-86.2L532.4,954.3z
	 M504.8,1048.7c-0.8,1.3-1.9,2.4-3.3,3.1s-3.3,1.1-5.7,1.1c-2.3,0-4.1-0.3-5.4-0.8s-2.4-1.3-3.2-2.3s-1.5-2.3-2-3.9l7-0.9
	c0.3,1.4,0.7,2.4,1.3,2.9s1.3,0.8,2.2,0.8c0.9,0,1.7-0.3,2.3-1s0.9-1.6,0.9-2.7c0-1.2-0.3-2.1-0.9-2.7s-1.4-1-2.4-1
	c-0.5,0-1.3,0.1-2.3,0.4l0.4-5c0.4,0.1,0.7,0.1,0.9,0.1c0.9,0,1.7-0.3,2.3-0.9s0.9-1.3,0.9-2.1c0-0.8-0.2-1.4-0.7-1.8
	c-0.5-0.5-1.1-0.7-1.9-0.7s-1.5,0.2-2,0.7s-0.9,1.4-1,2.6l-6.6-1.2c0.5-2.1,1.6-3.7,3.2-4.8c1.6-1.1,3.8-1.7,6.6-1.7
	c3.3,0,5.6,0.6,7.1,1.8c1.5,1.2,2.2,2.8,2.2,4.6c0,1.1-0.3,2.1-0.9,2.9c-0.6,0.9-1.5,1.6-2.7,2.3c1,0.2,1.7,0.5,2.2,0.8
	c0.8,0.5,1.5,1.2,1.9,2c0.5,0.8,0.7,1.8,0.7,3C506,1046,505.6,1047.4,504.8,1048.7z M510.8,1049c-0.6-0.9-1.1-2.2-1.4-3.8
	c-0.3-1.6-0.5-3.4-0.5-5.3c0-4.8,0.9-8.1,2.6-10c1.6-1.8,4.2-2.8,7.5-2.9v4.6c-1.2,0-2,0.6-2.5,1.8c-0.5,1.2-0.8,3.3-0.8,6.5
	s0.3,5.4,0.8,6.5c0.6,1.2,1.4,1.8,2.5,1.8v4.8c-2.1,0-3.7-0.3-5-1S511.6,1050.3,510.8,1049z M527,1049.8c-1.5,2.1-4.2,3.2-7.9,3.2
	v-4.8c0.7,0,1.2-0.2,1.7-0.7s0.9-1.3,1.1-2.3c0.2-1.1,0.4-2.7,0.4-5c0-3.3-0.3-5.6-0.8-6.7c-0.5-1.3-1.3-1.9-2.4-1.9v-4.6
	c0.1,0,0.1,0,0.2,0c1.7,0,3.1,0.2,4.2,0.6c1.1,0.4,2,1,2.6,1.6c0.7,0.7,1.2,1.4,1.6,2.1c0.4,0.7,0.7,1.6,0.9,2.6
	c0.5,1.9,0.7,3.8,0.7,5.8C529.3,1044.3,528.5,1047.7,527,1049.8z"/>
</svg>
