<?xml version="1.0" encoding="utf-8"?>
<!-- Generator: Adobe Illustrator 23.0.4, SVG Export Plug-In . SVG Version: 6.00 Build 0)  -->
<svg version="1.1" id="plano" xmlns="http://www.w3.org/2000/svg" xmlns:xlink="http://www.w3.org/1999/xlink" x="0px" y="0px"
	 viewBox="0 0 595 842" style="enable-background:new 0 0 595 842;" xml:space="preserve">
<polygon id="_x31_" points="555.55,786.58 528.38,799.2 504.84,743.14 534.8,733.94 "/>
<polygon id="_x32_" points="528.38,799.2 501.84,810.55 478.09,752.34 504.84,743.14 "/>
<polygon id="_x33_" points="475.31,822.1 451.77,765.61 478.09,752.34 501.84,810.55 "/>
<polygon id="_x34_" points="404.91,789.15 425.03,842 475.31,822.1 451.77,765.61 "/>
<polygon id="_x35_" points="533.51,730.09 486.83,745.19 471.47,703.85 516.82,683.87 "/>
<polygon id="_x36_" points="501.63,641.93 457.78,666.76 471.47,703.85 516.82,683.87 "/>
<polygon id="_x37_" points="443.94,629.91 488.58,605.98 501.63,641.93 457.78,666.76 "/>
<polygon id="_x38_" points="475.74,570.46 430.97,594.75 443.94,629.91 488.58,605.98 "/>
<polygon id="_x39_" points="462.69,534.51 417.49,558.11 430.97,594.75 475.74,570.46 "/>
<polygon id="_x31_0" points="449.85,499.21 405.03,523.82 417.49,558.11 462.69,534.51 "/>
<polygon id="_x31_1" points="437.01,463.47 392.3,488.74 405.03,523.82 449.85,499.21 "/>
<polygon id="_x31_2" points="424.38,428.38 380.4,455.7 392.3,488.74 437.01,463.47 "/>
<polygon id="_x31_3" points="411.33,392.43 367.35,419.02 380.4,455.7 424.38,428.38 "/>
<polygon id="_x31_4" points="398.28,356.49 354.41,383.33 367.35,419.02 411.33,392.43 "/>
<polygon id="_x31_5" points="387.58,327.17 344.38,355.37 354.41,383.33 398.28,356.49 "/>
<polygon id="_x31_6" points="374.1,290.15 331.35,319.26 344.38,355.37 387.58,327.17 "/>
<polygon id="_x31_7" points="361.05,253.78 318.77,284.03 331.35,319.26 374.1,290.15 "/>
<polygon id="_x31_8" points="347.78,216.76 304.84,245.65 318.77,284.03 361.05,253.78 "/>
<polygon id="_x31_9" points="334.51,180.6 291.85,209.44 304.84,245.65 347.78,216.76 "/>
<polygon id="_x32_0" points="321.25,144.01 278.32,171.69 291.85,209.44 334.51,180.6 "/>
<polygon id="_x32_1" points="308.19,107.84 265.55,136.14 278.32,171.69 321.25,144.01 "/>
<polygon id="_x32_2" points="295.14,71.47 252.52,100.22 265.55,136.14 308.19,107.84 "/>
<polygon id="_x32_3" points="281.87,35.31 239.78,64.37 252.52,100.22 295.14,71.47 "/>
<polygon id="_x32_4" points="269.25,0 224.53,32.1 236.94,66.33 281.87,35.31 "/>
<polygon id="_x32_5" points="199.92,49.86 217.9,99.29 243.83,85.52 224.53,32.1 "/>
<polygon id="_x32_6" points="237.37,153.42 217.9,99.29 243.83,85.52 263.87,142.19 "/>
<polygon id="_x32_7" points="283.82,196.88 256.63,206.92 237.37,153.42 263.87,142.19 "/>
<polygon id="_x32_8" points="303,250.37 275.88,260.41 256.63,206.92 283.82,196.88 "/>
<polygon id="_x32_9" points="295.36,313.9 275.88,260.41 303,250.37 322.29,303.86 "/>
<polygon id="_x33_0" points="314.61,367.18 295.36,313.9 322.29,303.86 341.36,357.34 "/>
<polygon id="_x33_1" points="333.87,420.47 314.61,367.18 341.36,357.34 360.57,410.64 "/>
<polygon id="_x33_2" points="353.13,474.17 333.87,420.47 360.57,410.64 379.87,464.04 "/>
<polygon id="_x33_3" points="372.6,527.88 353.13,474.17 379.87,464.04 398.97,517.3 "/>
<polygon id="_x33_4" points="392.07,580.95 372.6,527.88 398.97,517.3 418.51,570.93 "/>
<polygon id="_x33_5" points="411.97,634.01 392.07,580.95 418.51,570.93 438.38,624.22 "/>
<polygon id="_x33_6" points="434.01,694.36 411.97,634.01 438.38,624.22 460.42,683.87 "/>
<polygon id="_x33_7" points="457.67,758.25 434.01,694.36 460.42,683.87 483.55,746.24 475.31,749.26 "/>
<polygon id="_x33_8" points="432.14,771.14 410.09,711.69 436.75,701.76 457.67,758.25 "/>
<polygon id="_x33_9" points="413.15,637.24 386.51,647.73 410.09,711.69 436.75,701.76 "/>
<polygon id="_x34_0" points="393.13,583.77 366.7,594.27 386.51,647.73 413.15,637.24 "/>
<polygon id="_x34_1" points="373.6,530.9 347.07,541.21 366.7,594.27 393.13,583.77 "/>
<polygon id="_x34_2" points="354.19,477.1 327.82,487.48 347.07,541.21 373.6,530.9 "/>
<polygon id="_x34_3" points="335.03,423.69 308.51,433.95 327.82,487.48 354.19,477.1 "/>
<polygon id="_x34_4" points="315.72,370.24 289.35,381.07 308.51,433.95 335.03,423.69 "/>
<polygon id="_x34_5" points="296.49,317.05 269.85,327.25 289.35,381.07 315.72,370.24 "/>
<polygon id="_x34_6" points="277.1,263.57 250.76,274.33 269.85,327.25 296.49,317.05 "/>
<polygon id="_x34_7" points="257.8,210.17 231.57,220.81 250.76,274.33 277.1,263.57 "/>
<polygon id="_x34_8" points="212.32,167.65 231.57,220.81 257.8,210.17 238.39,156.25 "/>
<polygon id="_x34_9" points="219.32,103.24 192.88,113.88 212.32,167.65 238.39,156.25 "/>
<polygon id="_x35_0" points="173.17,69.11 199.92,49.86 219.32,103.24 189.78,115.12 "/>
<polygon id="_x35_1" points="150.07,85.59 169.75,140.8 195.44,130.61 173.17,69.11 "/>
<polygon id="_x35_2" points="189.22,194.51 214.87,184.89 195.44,130.61 169.75,140.8 "/>
<polygon id="_x35_3" points="207.62,246.29 189.22,194.51 214.87,184.89 234.25,238.41 "/>
<polygon id="_x35_4" points="227.1,300.42 207.62,246.29 234.25,238.41 253.58,292.09 "/>
<polygon id="_x35_5" points="246.57,354.77 227.1,300.42 253.58,292.09 272.87,345.58 "/>
<polygon id="_x35_6" points="265.4,406.98 246.57,354.77 272.87,345.58 292.21,399.18 "/>
<polygon id="_x35_7" points="284.66,460.69 265.4,406.98 292.21,399.18 311.52,452.59 "/>
<polygon id="_x35_8" points="303.7,513.97 284.66,460.69 311.52,452.59 330.91,506.12 "/>
<polygon id="_x35_9" points="322.96,567.47 303.7,513.97 330.91,506.12 350.25,559.48 "/>
<polygon id="_x36_0" points="403.63,785.51 322.96,567.47 350.25,559.48 429.09,772.67 "/>
</svg>
