<?xml version="1.0" encoding="utf-8"?>
<!-- Generator: Adobe Illustrator 23.0.4, SVG Export Plug-In . SVG Version: 6.00 Build 0)  -->
<svg version="1.1" id="Capa_2" xmlns="http://www.w3.org/2000/svg" xmlns:xlink="http://www.w3.org/1999/xlink" x="0px" y="0px"
	 viewBox="0 0 819.84 737.85" style="enable-background:new 0 0 819.84 737.85;" xml:space="preserve">
<polygon points="320.36,42.11 357.73,15.65 368.64,44.59 330.45,71.38 "/>
<polygon points="341.19,100.81 379.89,75.18 368.64,44.59 330.45,71.38 "/>
<polygon points="352.39,131.1 390.64,105.94 379.89,75.18 341.19,100.81 "/>
<polygon points="401.55,136.37 390.64,105.94 352.39,131.1 363.02,161 "/>
<polygon points="374.39,192.61 412.96,167.12 401.55,136.37 363.02,161 "/>
<polygon points="385.35,223.35 424.04,197.22 412.96,167.12 374.39,192.61 "/>
<polygon points="396.92,255.43 435.28,228.47 424.04,197.22 385.35,223.35 "/>
<polygon points="407.5,284.86 446.36,258.9 435.28,228.47 396.92,255.43 "/>
<polygon points="418.75,315.62 457.44,290.32 446.36,258.9 407.5,284.86 "/>
<polygon points="426.69,338.93 466.54,314.79 457.44,290.32 418.75,315.62 "/>
<polygon points="437.57,368.87 477.29,345.05 466.54,314.79 426.69,338.93 "/>
<polygon points="448.68,399.78 488.53,375.31 477.29,345.05 437.57,368.87 "/>
<polygon points="458.69,427.28 498.95,404.75 488.53,375.31 448.68,399.78 "/>
<polygon points="469.43,456.93 510.19,434.68 498.95,404.75 458.69,427.28 "/>
<polygon points="479.82,485.71 520.61,464.59 510.19,434.68 469.43,456.93 "/>
<polygon points="491.28,516.35 531.64,494.67 520.61,464.59 479.82,485.71 "/>
<polygon points="502.27,546.08 542.25,524.65 531.64,494.67 491.28,516.35 "/>
<polygon points="513.81,577.09 553.06,554.84 542.25,524.65 502.27,546.08 "/>
<polygon points="525.26,608.13 565.81,590.29 553.06,554.84 513.81,577.09 "/>
<polygon points="537.95,642.7 580.32,628.73 565.81,590.29 525.26,608.13 "/>
<polygon points="581.29,632.43 598.52,676.54 575.82,687.13 556.03,640.34 "/>
<polygon points="553.47,696.33 575.82,687.13 556.03,640.34 533.1,647.56 "/>
<polygon points="530.89,706.22 553.47,696.33 533.1,647.56 511.22,658.96 "/>
<polygon points="488.75,722.87 530.89,706.22 511.22,658.96 472.11,678.4 "/>
<polygon points="403.03,491.9 426,485.21 492.28,664.95 470.94,675.36 "/>
<polygon points="516.29,652.37 531.77,644.63 537.99,642.67 518.55,589.92 496.63,598.79 "/>
<polygon points="476.36,613.49 499.07,604.88 516.29,652.37 494.63,663.77 "/>
<polygon points="477.72,548.14 500.06,539.88 518.55,589.92 496.63,598.79 "/>
<polygon points="456.43,559.63 478.77,550.94 499.07,604.88 476.36,613.49 "/>
<polygon points="461.19,503.52 483.39,495.21 500.06,539.88 477.72,548.14 "/>
<polygon points="439.82,514.73 462.17,506.11 478.77,550.94 456.43,559.63 "/>
<polygon points="423.32,470.18 445.64,461.45 461.19,503.52 462.17,506.11 439.82,514.73 "/>
<polygon points="444.7,458.92 467.07,450.34 483.39,495.21 461.19,503.52 "/>
<polygon points="386.97,447.25 409.67,440.69 426,485.21 403.03,491.9 "/>
<polygon points="370.72,402.33 393.42,395.77 409.67,440.69 386.97,447.25 "/>
<polygon points="354.47,357.41 377.17,350.85 393.42,395.77 370.72,402.33 "/>
<polygon points="338.97,313.51 360.92,305.93 377.17,350.85 354.47,357.41 "/>
<polygon points="321.96,267.57 344.67,261.01 360.92,305.93 338.97,313.51 "/>
<polygon points="306.16,222.33 328.29,215.76 344.67,261.01 321.96,267.57 "/>
<polygon points="290.59,178.81 312.3,170.79 328.29,215.76 306.16,222.33 "/>
<polygon points="274.44,133.6 295.86,124.98 312.3,170.79 290.59,178.81 "/>
<polygon points="257.8,87.25 277.1,73.25 295.86,124.98 274.44,133.6 "/>
<polygon points="429.44,416.36 445.64,461.45 423.32,470.18 406.97,424.93 "/>
<polygon points="428.48,413.68 450.74,405.4 467.07,450.34 444.7,458.92 "/>
<polygon points="390.95,380.05 413.17,371.36 429.44,416.36 406.97,424.93 "/>
<polygon points="412.21,368.74 434.54,360.46 450.74,405.4 428.48,413.68 "/>
<polygon points="374.93,335.65 396.85,326.53 413.17,371.36 390.95,380.05 "/>
<polygon points="395.92,323.99 418.75,315.62 434.54,360.46 412.21,368.74 "/>
<polygon points="358.52,290.33 374.93,335.65 396.85,326.53 380.72,281.62 "/>
<polygon points="379.85,279.19 395.92,323.99 418.75,315.62 402.41,270.72 "/>
<polygon points="342.44,245.86 358.52,290.33 380.72,281.62 364.49,236.84 "/>
<polygon points="363.53,234.16 379.85,279.19 402.41,270.72 386.17,225.65 "/>
<polygon points="326.26,200.9 342.44,245.86 364.49,236.84 348.27,191.8 "/>
<polygon points="347.34,189.21 363.53,234.16 386.17,225.65 370.15,180.72 "/>
<polygon points="310.09,156.21 326.26,200.9 348.27,191.8 331.97,146.88 "/>
<polygon points="331.05,144.3 347.34,189.21 370.15,180.72 353.67,134.55 "/>
<polygon points="293.71,110.98 310.09,156.21 331.97,146.88 315.87,102.09 "/>
<polygon points="314.65,98.72 331.05,144.3 353.67,134.55 336.29,87.39 "/>
<polygon points="277.1,73.25 291.13,112 315.87,102.09 299.63,57.17 "/>
<polygon points="299.63,57.17 314.65,98.72 336.29,87.39 320.36,42.11 "/>
</svg>
