<?xml version="1.0" encoding="utf-8"?>
<!-- Generator: Adobe Illustrator 22.1.0, SVG Export Plug-In . SVG Version: 6.00 Build 0)  -->
<svg version="1.1" id="p-x" xmlns="http://www.w3.org/2000/svg" xmlns:xlink="http://www.w3.org/1999/xlink" x="0px" y="0px"
	 viewBox="0 0 1684 351.4" style="enable-background:new 0 0 1684 351.4;" xml:space="preserve">
<polygon id="p-xc" points="45.3,70.9 125.7,67.4 135.9,130.1 143.1,140.5 138,170.9 18,175.8 "/>
<polygon id="p-xx" points="146.6,122.6 604.5,102.3 605.8,45 137.1,65.7 "/>
<polygon id="p-xxx" points="17.9,177.4 137.9,172.5 129.5,228.8 15.7,233.5 "/>
<polygon id="p-xxxx" points="15.5,234.6 129.4,229.9 121.6,287.2 9.5,291.2 "/>
<polygon id="p-xxxxx" points="9.4,292.4 121.4,288.4 113.5,345.5 1.2,349.8 "/>
<path id="p-65" d="M720,40.2l-112.5,5l-1.3,56.8l5.5-4.9l110.9-4.6L720,40.2z M662.1,73.5c-0.2,0.4-0.5,0.8-0.8,1
	c-0.3,0.3-0.7,0.4-1,0.5c-0.5,0.1-1.2,0.2-2.1,0.2l-1.3,0.1l0.2,3.8l-2.1,0.1l-0.3-7.2h2.1l0.1,1.5l1.1-0.1c0.8,0,1.4-0.1,1.6-0.2
	c0.3-0.1,0.5-0.3,0.6-0.5c0.1-0.2,0.2-0.5,0.2-0.8c0-0.4-0.1-0.7-0.4-0.9c-0.2-0.2-0.5-0.4-0.8-0.4c-0.2,0-0.7,0-1.5,0l-1,0l0.1,1.1
	h-2.1l-0.1-2.8l3.3-0.2c1.3-0.1,2.1,0,2.5,0c0.6,0.1,1.1,0.4,1.5,0.9c0.4,0.5,0.6,1.1,0.7,2C662.4,72.6,662.3,73.1,662.1,73.5z
	 M664,76.2l-0.1-2l3.8-0.2l0.1,2L664,76.2z M674.5,77.7c-0.6,0.7-1.4,1-2.3,1.1c-1,0-1.9-0.3-2.6-1.1c-0.7-0.8-1.1-2.1-1.2-3.9
	c-0.1-1.9,0.2-3.2,0.8-4.1c0.7-0.9,1.5-1.3,2.6-1.4c0.8,0,1.4,0.2,2,0.6c0.5,0.4,0.9,1,1.1,1.8l-1.9,0.3c-0.1-0.4-0.2-0.7-0.4-0.8
	c-0.2-0.2-0.5-0.3-0.8-0.2c-0.4,0-0.8,0.2-1,0.6c-0.3,0.4-0.4,1.2-0.4,2.3c0.5-0.6,1.1-0.9,1.8-0.9c0.8,0,1.5,0.2,2.1,0.8
	c0.5,0.5,0.8,1.1,0.9,1.9h-1.9c-0.1-0.4-0.2-0.6-0.4-0.8c-0.3-0.3-0.6-0.4-1-0.4c-0.4,0-0.7,0.2-0.9,0.5c-0.2,0.3-0.4,0.7-0.3,1.3
	c0,0.6,0.2,1.1,0.5,1.5c0.3,0.3,0.7,0.5,1,0.5c0.4,0,0.7-0.2,0.9-0.5c0.2-0.3,0.3-0.8,0.3-1.4c0-0.1,0-0.3,0-0.4h1.9
	c0,0.1,0,0.2,0,0.3C675.4,76.2,675.1,77,674.5,77.7z M682.7,76.9c-0.6,0.9-1.5,1.4-2.7,1.5c-0.9,0-1.7-0.2-2.3-0.7
	c-0.6-0.5-1-1.1-1.2-2l1.9-0.3c0.1,0.4,0.3,0.8,0.5,1c0.3,0.2,0.6,0.4,1,0.3c0.4,0,0.7-0.2,1-0.5c0.3-0.3,0.4-0.9,0.4-1.5
	c0-0.6-0.2-1.1-0.5-1.4c-0.3-0.3-0.7-0.4-1.1-0.4c-0.6,0-1.1,0.3-1.5,0.8l-1.6-0.2l0.8-5.4l5.2-0.2l0.1,1.8L679,70l-0.2,1.7
	c0.4-0.2,0.9-0.4,1.3-0.4c0.9,0,1.6,0.2,2.2,0.8c0.6,0.6,1,1.4,1,2.4C683.4,75.4,683.2,76.2,682.7,76.9z"/>
<path id="p-66" d="M835.1,35.2l-113.4,5.2l2.5,51.8l113.4-5.1L835.1,35.2z M776.3,69.4c-0.3,0.3-0.7,0.4-1,0.5
	c-0.5,0.1-1.2,0.2-2.1,0.2l-1.3,0.1L772,74l-2,0.1L769.5,64l3.3-0.2c1.2-0.1,2.1,0,2.4,0c0.6,0.1,1.1,0.4,1.5,0.9
	c0.4,0.5,0.6,1.1,0.7,1.8h-2.1c-0.1-0.3-0.1-0.5-0.3-0.7c-0.2-0.2-0.5-0.4-0.8-0.4c-0.2,0-0.7,0-1.5,0l-1,0l0.1,2.9l1.1-0.1
	c0.8,0,1.3-0.1,1.6-0.2c0.3-0.1,0.5-0.3,0.6-0.5c0.1-0.2,0.2-0.5,0.2-0.8c0,0,0,0,0,0h2.1c0,0.6-0.1,1.1-0.3,1.5
	C776.9,68.8,776.6,69.1,776.3,69.4z M779,71l-0.1-1.9l3.8-0.2l0.1,1.9L779,71z M789.4,72.5c-0.6,0.7-1.3,1-2.3,1
	c-1,0-1.9-0.3-2.6-1.1c-0.7-0.8-1.1-2-1.2-3.9c-0.1-1.9,0.2-3.2,0.8-4.1c0.6-0.8,1.5-1.3,2.6-1.4c0.8,0,1.4,0.1,1.9,0.6
	c0.5,0.4,0.9,1,1,1.8l-1.9,0.3c-0.1-0.4-0.2-0.7-0.4-0.8c-0.2-0.2-0.5-0.3-0.8-0.2c-0.4,0-0.7,0.2-1,0.6c-0.3,0.4-0.4,1.2-0.4,2.3
	c0.5-0.6,1-0.9,1.8-0.9c0.8,0,1.5,0.2,2.1,0.8c0.5,0.5,0.8,1.1,0.9,1.9h-1.9c-0.1-0.4-0.2-0.7-0.4-0.8c-0.3-0.3-0.6-0.4-1-0.4
	c-0.4,0-0.7,0.2-0.9,0.5c-0.2,0.3-0.4,0.7-0.3,1.3c0,0.6,0.2,1.1,0.5,1.4c0.3,0.3,0.6,0.5,1,0.5c0.4,0,0.7-0.2,0.9-0.5
	c0.2-0.3,0.3-0.8,0.3-1.4c0-0.1,0-0.2,0-0.4h1.9c0,0.1,0,0.2,0,0.2C790.3,71,790,71.8,789.4,72.5z M795,73.1c-1,0-1.9-0.3-2.6-1.1
	c-0.7-0.8-1.1-2-1.2-3.9c-0.1-1.9,0.2-3.2,0.8-4c0.6-0.8,1.5-1.3,2.6-1.4c0.8,0,1.4,0.1,1.9,0.6c0.5,0.4,0.9,1,1,1.8l-1.9,0.3
	c-0.1-0.4-0.2-0.7-0.4-0.8c-0.2-0.2-0.5-0.3-0.8-0.2c-0.4,0-0.7,0.2-1,0.6c-0.3,0.4-0.4,1.2-0.4,2.3c0.5-0.6,1-0.9,1.8-0.9
	c0.8,0,1.5,0.2,2.1,0.8c0.6,0.6,0.9,1.4,1,2.3c0,0,0,0,0,0h-1.9c0-0.6-0.2-1-0.4-1.3c-0.3-0.3-0.6-0.4-1-0.4c-0.4,0-0.7,0.2-0.9,0.5
	c-0.2,0.3-0.4,0.7-0.3,1.3c0,0.6,0.2,1.1,0.5,1.4c0.3,0.3,0.6,0.5,1,0.5c0.4,0,0.7-0.2,0.9-0.5c0.2-0.3,0.3-0.7,0.3-1.3h1.9
	c0,0.9-0.3,1.7-0.8,2.3C796.7,72.7,795.9,73.1,795,73.1z"/>
<path id="p-67" d="M951.4,30l-114.6,4.9l2.5,52.4l114.5-5.1L951.4,30z M892,64.4c-0.3,0.3-0.7,0.4-1,0.5c-0.5,0.1-1.2,0.2-2.1,0.2
	l-1.3,0.1l0.2,3.8l-2.1,0.1l-0.5-10.2l3.3-0.2c1.3-0.1,2.1,0,2.5,0c0.6,0.1,1.1,0.4,1.5,0.9c0.4,0.5,0.6,1.1,0.7,2c0,0,0,0,0,0h-2.1
	c0-0.3-0.1-0.6-0.4-0.8c-0.2-0.2-0.5-0.4-0.8-0.4c-0.2,0-0.7,0-1.5,0l-1,0l0.1,2.9l1.1-0.1c0.8,0,1.4-0.1,1.6-0.2
	c0.3-0.1,0.5-0.3,0.6-0.5c0.1-0.2,0.2-0.4,0.2-0.7h2.1c0,0.5-0.1,1-0.3,1.3C892.6,63.8,892.3,64.1,892,64.4z M894.7,66l-0.1-2
	l3.8-0.2l0.1,2L894.7,66z M905.3,67.5c-0.6,0.7-1.4,1-2.3,1.1c-1,0-1.9-0.3-2.6-1.1c-0.5-0.5-0.8-1.3-1-2.4h2.1
	c0,0.6,0.2,1.1,0.5,1.4c0.3,0.3,0.6,0.5,1,0.5c0.4,0,0.7-0.2,0.9-0.5c0.2-0.3,0.3-0.8,0.3-1.4c0-0.7-0.2-1.1-0.5-1.4
	c-0.3-0.3-0.6-0.4-1-0.4c-0.4,0-0.7,0.2-0.9,0.5c-0.2,0.3-0.3,0.7-0.3,1.2h-2.2c-0.1-0.4-0.1-0.8-0.1-1.3c-0.1-1.9,0.2-3.2,0.8-4.1
	s1.5-1.3,2.6-1.4c0.8,0,1.4,0.2,2,0.6c0.5,0.4,0.9,1,1.1,1.8l-1.9,0.3c-0.1-0.4-0.2-0.7-0.4-0.8c-0.2-0.2-0.5-0.3-0.8-0.2
	c-0.4,0-0.8,0.2-1,0.6c-0.3,0.4-0.4,1.2-0.4,2.3c0.5-0.6,1.1-0.9,1.8-0.9c0.8,0,1.5,0.2,2.1,0.8c0.6,0.6,0.9,1.4,1,2.4
	C906.1,65.9,905.8,66.8,905.3,67.5z M912,61.6c-0.5,1-0.9,2.1-1.2,3.3c-0.2,1.2-0.3,2.2-0.3,3.1l-1.9,0.1c0-1.4,0.2-2.9,0.7-4.4
	c0.5-1.5,1.2-2.8,2-4l-4.4,0.2l-0.1-1.8l6.7-0.3l0.1,1.4C913.1,59.7,912.6,60.6,912,61.6z"/>
<path id="p-68" d="M1066.6,25l-113.4,5.1l2.5,51.7l113.5-5.1L1066.6,25z M1007.7,59.2c-0.3,0.3-0.7,0.4-1,0.5
	c-0.5,0.1-1.2,0.2-2.1,0.2l-1.3,0.1l0.2,3.8l-2,0.1l-0.5-10.1l3.3-0.2c1.2-0.1,2.1,0,2.4,0c0.6,0.1,1.1,0.4,1.5,0.9
	c0.4,0.5,0.6,1.1,0.7,1.9c0,0,0,0.1,0,0.1h-2.1c0-0.4-0.1-0.7-0.4-0.9c-0.2-0.2-0.5-0.4-0.8-0.4c-0.2,0-0.7,0-1.5,0l-1,0l0.1,2.9
	l1.1-0.1c0.8,0,1.3-0.1,1.6-0.2c0.3-0.1,0.5-0.3,0.6-0.5c0.1-0.2,0.2-0.4,0.2-0.6h2.1c0,0.5-0.1,0.9-0.2,1.2
	C1008.3,58.6,1008.1,59,1007.7,59.2z M1010.4,60.8l-0.1-1.9l3.8-0.2l0.1,1.9L1010.4,60.8z M1018.6,63.3c-1,0-1.9-0.3-2.6-1.1
	c-0.7-0.8-1.1-2-1.2-3.9c-0.1-1.9,0.2-3.2,0.8-4c0.6-0.9,1.5-1.3,2.6-1.4c0.8,0,1.4,0.1,1.9,0.6c0.5,0.4,0.9,1,1,1.8l-1.9,0.3
	c-0.1-0.4-0.2-0.7-0.4-0.8c-0.2-0.2-0.5-0.3-0.8-0.2c-0.4,0-0.7,0.2-1,0.6c-0.3,0.4-0.4,1.2-0.4,2.3c0.5-0.6,1-0.9,1.8-0.9
	c0.8,0,1.5,0.2,2.1,0.8c0.6,0.6,0.9,1.4,1,2.3c0,0.1,0,0.1,0,0.2h-1.9c0,0,0-0.1,0-0.1c0-0.7-0.2-1.1-0.5-1.4
	c-0.3-0.3-0.6-0.4-1-0.4c-0.4,0-0.7,0.2-0.9,0.5c-0.2,0.3-0.4,0.7-0.3,1.3c0,0.6,0.2,1.1,0.5,1.4c0.3,0.3,0.6,0.5,1,0.5
	c0.4,0,0.7-0.2,0.9-0.5c0.2-0.2,0.3-0.6,0.3-1.1h1.9c0,0.8-0.3,1.5-0.8,2.1C1020.3,62.9,1019.5,63.3,1018.6,63.3z M1026.3,63
	c-0.9,0-1.7-0.2-2.3-0.6c-0.7-0.5-1.1-1.3-1.2-2.3c0-0.5,0.1-1.1,0.3-1.5c0.2-0.5,0.7-0.8,1.2-1.1c-0.5-0.2-0.9-0.5-1.1-0.8
	c-0.2-0.4-0.4-0.8-0.4-1.2c0-0.8,0.2-1.4,0.7-1.9c0.5-0.5,1.2-0.8,2.2-0.8c1,0,1.7,0.2,2.3,0.6c0.6,0.5,0.8,1.1,0.9,1.8h-1.9
	c0-0.3-0.1-0.5-0.3-0.6c-0.2-0.2-0.5-0.3-0.9-0.3c-0.4,0-0.7,0.1-0.9,0.4c-0.2,0.2-0.3,0.5-0.3,0.9c0,0.4,0.1,0.7,0.4,0.9
	c0.2,0.2,0.5,0.3,0.9,0.3c0.4,0,0.7-0.1,0.9-0.4c0.2-0.2,0.3-0.5,0.3-0.9h1.8c0,0.4-0.1,0.7-0.3,1c-0.2,0.4-0.6,0.7-1,0.9
	c0.6,0.2,1,0.5,1.3,0.9c0.3,0.4,0.5,0.9,0.5,1.5h-1.9c0-0.5-0.2-0.8-0.5-1.1c-0.3-0.3-0.6-0.4-1-0.4c-0.5,0-0.8,0.2-1,0.5
	c-0.2,0.3-0.3,0.7-0.3,1.1c0,0.5,0.2,0.9,0.5,1.2c0.3,0.3,0.6,0.4,1,0.4c0.4,0,0.7-0.2,1-0.5c0.2-0.3,0.3-0.6,0.3-1.1h1.9
	c0,0.8-0.3,1.5-0.8,2.1C1028,62.6,1027.3,62.9,1026.3,63z"/>
<path id="p-69" d="M1182.3,20l-113.4,5l2.5,51.7l113.6-5.1L1182.3,20z M1124.4,52.9c-0.2,0.4-0.5,0.8-0.8,1c-0.3,0.3-0.7,0.4-1,0.5
	c-0.5,0.1-1.2,0.2-2.1,0.2l-1.3,0.1l0.2,3.8l-2,0.1l-0.5-10.1l3.3-0.2c1.2-0.1,2.1,0,2.4,0c0.6,0.1,1.1,0.4,1.5,0.9
	c0.4,0.4,0.6,1,0.7,1.7h-2.2c-0.1-0.2-0.1-0.4-0.3-0.5c-0.2-0.2-0.5-0.4-0.8-0.4c-0.2,0-0.7,0-1.5,0l-1,0l0.1,2.9l1.1-0.1
	c0.8,0,1.3-0.1,1.6-0.2c0.3-0.1,0.5-0.3,0.6-0.5c0.1-0.2,0.2-0.5,0.2-0.8c0-0.1,0-0.1,0-0.1h2.1c0,0,0,0,0,0
	C1124.7,52,1124.6,52.5,1124.4,52.9z M1126.3,55.6l-0.1-1.9l3.8-0.2l0.1,1.9L1126.3,55.6z M1136.7,57c-0.6,0.7-1.3,1-2.3,1
	c-1,0-1.9-0.3-2.6-1.1c-0.7-0.8-1.1-2-1.2-3.9c-0.1-1.9,0.2-3.2,0.8-4c0.6-0.9,1.5-1.3,2.6-1.4c0.8,0,1.4,0.1,1.9,0.6
	c0.5,0.4,0.9,1,1,1.8l-1.9,0.3c-0.1-0.4-0.2-0.7-0.4-0.8c-0.2-0.2-0.5-0.3-0.8-0.2c-0.4,0-0.7,0.2-1,0.6c-0.3,0.4-0.4,1.2-0.4,2.3
	c0.5-0.6,1-0.9,1.8-0.9c0.8,0,1.5,0.2,2.1,0.8c0.6,0.5,0.9,1.2,0.9,2.1h-1.9c-0.1-0.5-0.2-0.8-0.4-1.1c-0.3-0.3-0.6-0.4-1-0.4
	c-0.4,0-0.7,0.2-0.9,0.5c-0.2,0.3-0.4,0.7-0.3,1.3c0,0.6,0.2,1.1,0.5,1.4c0.3,0.3,0.6,0.5,1,0.5c0.4,0,0.7-0.2,0.9-0.5
	c0.2-0.3,0.3-0.8,0.3-1.4c0,0,0-0.1,0-0.1h1.9c0,0,0,0,0,0C1137.6,55.5,1137.3,56.4,1136.7,57z M1144.3,56.4
	c-0.6,0.8-1.5,1.3-2.6,1.4c-0.8,0-1.4-0.1-1.9-0.5c-0.5-0.4-0.8-1-1-1.8l1.9-0.3c0.1,0.4,0.2,0.7,0.4,0.8c0.2,0.2,0.5,0.3,0.8,0.2
	c0.4,0,0.7-0.2,1-0.6c0.3-0.4,0.4-1.2,0.4-2.3c-0.5,0.6-1.1,0.9-1.8,0.9c-0.8,0-1.5-0.2-2.1-0.8c-0.6-0.6-0.9-1.4-1-2.4
	c0-1,0.2-1.9,0.8-2.5c0.6-0.7,1.3-1,2.3-1c1,0,1.9,0.3,2.6,1.1c0.4,0.5,0.8,1.2,1,2.2h-2.1c-0.1-0.5-0.2-0.9-0.5-1.2
	c-0.3-0.3-0.6-0.5-1-0.5c-0.4,0-0.7,0.2-0.9,0.5s-0.3,0.8-0.3,1.4c0,0.7,0.2,1.1,0.5,1.4c0.3,0.3,0.6,0.4,1,0.4
	c0.4,0,0.7-0.2,0.9-0.5c0.2-0.3,0.3-0.7,0.3-1.3c0,0,0,0,0-0.1h2.1c0.1,0.4,0.1,0.9,0.2,1.5C1145.2,54.2,1145,55.5,1144.3,56.4z"/>
<path id="p-70" d="M1298.2,14.9l-113.6,5l2.7,51.7l113.4-5.1L1298.2,14.9z M1239.3,48.9c-0.3,0.3-0.7,0.4-1,0.5
	c-0.5,0.1-1.2,0.2-2.1,0.2l-1.3,0.1l0.2,3.8l-2,0.1l-0.5-10.1l3.3-0.2c1.2-0.1,2.1,0,2.4,0c0.6,0.1,1.1,0.4,1.5,0.9
	c0.4,0.5,0.6,1.1,0.7,1.9c0,0,0,0,0,0h-2.1c0-0.3-0.1-0.6-0.4-0.8c-0.2-0.2-0.5-0.4-0.8-0.4c-0.2,0-0.7,0-1.5,0l-1,0l0.1,2.9
	l1.1-0.1c0.8,0,1.3-0.1,1.6-0.2c0.3-0.1,0.5-0.3,0.6-0.5c0.1-0.2,0.2-0.4,0.2-0.7h2.1c0,0.5-0.1,0.9-0.3,1.3
	C1239.9,48.3,1239.7,48.6,1239.3,48.9z M1242,50.5l-0.1-1.9l3.8-0.2l0.1,1.9L1242,50.5z M1251.3,46.5c-0.5,1-0.9,2.1-1.1,3.3
	c-0.2,1.1-0.3,2.2-0.3,3.1l-1.9,0.1c0-1.4,0.2-2.8,0.7-4.3c0.5-1.5,1.1-2.8,2-4l-4.4,0.2l-0.1-1.8l6.6-0.3l0.1,1.4
	C1252.4,44.7,1251.8,45.5,1251.3,46.5z M1257.8,52.6c-1,0-1.8-0.3-2.4-1c-0.6-0.7-1-2.1-1.1-4c-0.1-1.9,0.2-3.3,0.8-4.2
	c0.5-0.7,1.3-1.1,2.2-1.1c1,0,1.8,0.3,2.3,0.9c0.7,0.8,1.1,2.2,1.2,4.1c0,0.2,0,0.4,0,0.6h-2c0-0.2,0-0.3,0-0.5
	c-0.1-1.2-0.2-2-0.3-2.4c-0.1-0.4-0.3-0.7-0.5-0.9c-0.2-0.1-0.4-0.2-0.6-0.2c-0.2,0-0.4,0.1-0.6,0.3c-0.2,0.2-0.3,0.4-0.4,0.8
	c-0.1,0.5-0.1,1.4-0.1,2.5c0.1,1.2,0.2,2,0.3,2.4c0.1,0.4,0.3,0.7,0.5,0.9c0.2,0.1,0.4,0.2,0.6,0.2c0.2,0,0.4-0.1,0.6-0.3
	c0.2-0.2,0.3-0.4,0.4-0.8c0.1-0.4,0.1-1,0.1-1.8h2c0,1.5-0.3,2.6-0.8,3.4C1259.5,52.2,1258.8,52.6,1257.8,52.6z"/>
<path id="p-71" d="M1414,9.9l-113.6,4.9l2.5,51.6l113.6-5.1L1414,9.9z M1356.2,44c-0.3,0.3-0.7,0.4-1,0.5c-0.5,0.1-1.2,0.2-2.1,0.2
	l-1.3,0.1l0.2,3.8l-2,0.1l-0.5-10.1l3.3-0.2c1.2-0.1,2.1,0,2.4,0c0.6,0.1,1.1,0.4,1.5,0.9c0.4,0.5,0.6,1.1,0.7,1.9
	c0,0.2,0,0.3,0,0.4h-2.1c0-0.1,0-0.2,0-0.3c0-0.4-0.1-0.7-0.4-0.9c-0.2-0.2-0.5-0.4-0.8-0.4c-0.2,0-0.7,0-1.5,0l-1,0l0.1,2.9
	l1.1-0.1c0.8,0,1.3-0.1,1.6-0.2c0.3-0.1,0.5-0.3,0.6-0.5c0-0.1,0.1-0.2,0.1-0.3h2.2c0,0.3-0.1,0.6-0.2,0.9
	C1356.8,43.4,1356.5,43.7,1356.2,44z M1358.9,45.6l-0.1-1.9l3.8-0.2l0.1,1.9L1358.9,45.6z M1368.2,41.6c-0.5,1-0.9,2.1-1.1,3.3
	c-0.2,1.1-0.3,2.2-0.3,3.1l-1.9,0.1c0-1.4,0.2-2.8,0.7-4.3c0.5-1.5,1.1-2.8,2-4l-4.4,0.2l-0.1-1.8l6.6-0.3l0.1,1.4
	C1369.2,39.8,1368.7,40.6,1368.2,41.6z M1374.4,47.6l-0.3-7.3c-0.7,0.7-1.5,1.2-2.4,1.6l-0.1-1.8c0.5-0.2,1-0.5,1.6-1
	c0.6-0.5,1-1,1.1-1.7l1.6-0.1l0.5,10.1L1374.4,47.6z"/>
<path id="p-72" d="M1529.9,4.7l-113.6,5.1l2.5,51.4l113.6-5.1L1529.9,4.7z M1471,38.7c-0.3,0.3-0.7,0.4-1,0.5
	c-0.5,0.1-1.2,0.2-2.1,0.3l-1.3,0.1l0.2,3.8l-2,0.1l-0.5-10.1l3.3-0.2c1.2-0.1,2.1-0.1,2.4,0c0.6,0.1,1.1,0.4,1.5,0.9
	c0.4,0.5,0.6,1.1,0.7,1.9c0,0.1,0,0.1,0,0.2h-2.1c0,0,0,0,0,0c0-0.4-0.1-0.7-0.4-0.9c-0.2-0.2-0.5-0.4-0.8-0.4c-0.2,0-0.7,0-1.5,0
	l-1,0.1l0.1,2.9l1.1-0.1c0.8,0,1.3-0.1,1.6-0.2c0.3-0.1,0.5-0.3,0.6-0.5c0.1-0.2,0.1-0.3,0.2-0.5h2.1c0,0.4-0.1,0.9-0.2,1.2
	C1471.6,38,1471.4,38.4,1471,38.7z M1473.8,40.3l-0.1-1.9l3.8-0.2l0.1,1.9L1473.8,40.3z M1483,36.2c-0.5,1-0.9,2.1-1.1,3.3
	c-0.2,1.1-0.3,2.2-0.3,3.1l-1.9,0.1c0-1.4,0.2-2.8,0.6-4.3c0.5-1.5,1.1-2.8,2-4l-4.4,0.2l-0.1-1.8l6.6-0.3l0.1,1.4
	C1484.1,34.4,1483.5,35.2,1483,36.2z M1486,42.3c0-0.7,0.2-1.3,0.6-2c0.3-0.6,1-1.5,2.1-2.5c0.8-0.9,1.3-1.4,1.5-1.7
	c0.2-0.4,0.4-0.8,0.3-1.2c0-0.4-0.2-0.8-0.4-1c-0.2-0.2-0.6-0.3-1-0.3c-0.4,0-0.7,0.2-0.9,0.4c-0.2,0.3-0.3,0.7-0.4,1.2l-1.9-0.1
	c0.1-1.1,0.4-1.9,1-2.3c0.6-0.5,1.3-0.8,2.2-0.8c1-0.1,1.8,0.2,2.4,0.7s0.9,1.2,1,2c0,0.5,0,0.9-0.2,1.3c-0.1,0.4-0.4,0.9-0.7,1.3
	c-0.2,0.3-0.6,0.8-1.2,1.4c-0.6,0.6-0.9,1-1.1,1.2c-0.2,0.2-0.3,0.4-0.4,0.6l3.8-0.2l0.1,1.8L1486,42.3z"/>
<path id="p-13" d="M1643.4-0.4l-111.1,5l2.5,51.4l22.5-1l0.2,4.6l93.7-4.3L1643.4-0.4z M1588.2,33.5c-0.3,0.3-0.7,0.4-1,0.5
	c-0.5,0.1-1.2,0.2-2.1,0.2l-1.3,0.1l0.2,3.8l-2,0.1l-0.5-10.1l3.3-0.2c1.2-0.1,2.1,0,2.4,0c0.6,0.1,1.1,0.4,1.5,0.9
	c0.4,0.5,0.6,1.1,0.7,1.9h-2.1c0-0.3-0.1-0.6-0.3-0.8c-0.2-0.2-0.5-0.4-0.8-0.4c-0.2,0-0.7,0-1.5,0l-1,0l0.1,2.9l1.1-0.1
	c0.8,0,1.3-0.1,1.6-0.2c0.3-0.1,0.5-0.3,0.6-0.5c0.1-0.2,0.2-0.4,0.2-0.7h2.1c0,0.5-0.1,1-0.3,1.4
	C1588.8,32.9,1588.6,33.2,1588.2,33.5z M1590.9,35.1l-0.1-1.9l3.8-0.2l0.1,1.9L1590.9,35.1z M1598.6,37.4l-0.3-7.3
	c-0.7,0.7-1.5,1.2-2.4,1.6l-0.1-1.8c0.5-0.2,1-0.5,1.6-1c0.6-0.5,1-1,1.1-1.7l1.6-0.1l0.5,10.1L1598.6,37.4z M1609.1,36.2
	c-0.6,0.7-1.4,1-2.4,1c-0.9,0-1.7-0.2-2.3-0.7c-0.6-0.5-1-1.2-1.1-2l1.9-0.3c0.1,0.5,0.3,0.8,0.5,1.1c0.3,0.2,0.6,0.4,1,0.3
	c0.4,0,0.7-0.2,1-0.5c0.3-0.3,0.4-0.7,0.4-1.2c0-0.5-0.2-0.9-0.4-1.1c-0.3-0.3-0.6-0.4-1-0.4c-0.2,0-0.5,0.1-0.9,0.2l0.1-1.6
	c0.5,0,0.9-0.1,1.2-0.4s0.4-0.6,0.4-1c0-0.3-0.1-0.6-0.3-0.8s-0.5-0.3-0.8-0.3c-0.3,0-0.6,0.1-0.8,0.4c-0.2,0.2-0.4,0.6-0.4,1
	l-1.8-0.2c0.1-0.6,0.3-1.1,0.5-1.5c0.2-0.4,0.6-0.7,1-0.9c0.4-0.2,0.9-0.4,1.5-0.4c1,0,1.7,0.2,2.3,0.8c0.5,0.5,0.8,1,0.8,1.6
	c0,0.9-0.4,1.6-1.4,2.2c0.6,0.1,1.1,0.4,1.4,0.8c0.4,0.4,0.6,0.9,0.6,1.5C1610,34.8,1609.7,35.5,1609.1,36.2z"/>
<path id="p-14" d="M1651.2,56.4l-93.7,4.3l0.2,4.4l-13.4,0.7l-4.2,7.9l2.4,48.2l116.8-5.2L1651.2,56.4z M1593.8,92.7
	c-0.3,0.3-0.7,0.4-1,0.5c-0.5,0.1-1.2,0.2-2.1,0.2l-1.3,0.1l0.2,3.8l-2,0.1l-0.5-10.1l3.3-0.2c1.2-0.1,2.1,0,2.4,0
	c0.6,0.1,1.1,0.4,1.5,0.9c0.4,0.5,0.6,1.1,0.7,1.9c0,0.1,0,0.2,0,0.3h-2.1c0-0.1,0-0.1,0-0.2c0-0.4-0.1-0.7-0.4-0.9
	c-0.2-0.2-0.5-0.4-0.8-0.4c-0.2,0-0.7,0-1.5,0l-1,0l0.1,2.9l1.1-0.1c0.8,0,1.3-0.1,1.6-0.2c0.3-0.1,0.5-0.3,0.6-0.5
	c0.1-0.1,0.1-0.3,0.2-0.4h2.1c0,0.4-0.1,0.8-0.2,1.1C1594.4,92.1,1594.2,92.5,1593.8,92.7z M1596.5,94.4l-0.1-1.9l3.8-0.2l0.1,1.9
	L1596.5,94.4z M1604.2,96.7l-0.3-7.3c-0.7,0.7-1.5,1.2-2.4,1.6l-0.1-1.8c0.5-0.2,1-0.5,1.6-1c0.6-0.5,1-1,1.1-1.7l1.6-0.1l0.5,10.1
	L1604.2,96.7z M1614.7,96.2l-1.9,0.1l-0.1-2l-4.1,0.2l-0.1-1.7l4.1-6.6l1.6-0.1l0.3,5.5h-1.9l-0.1-2.5l-2.2,3.6l2.3-0.1l0-0.7h1.9
	l0,0.7l1.3-0.1l0.1,1.7l-1.3,0.1L1614.7,96.2z"/>
<path id="p-15" d="M1659.5,117.8l-116.8,5.2l2.8,57.9l121.9-5.4L1659.5,117.8z M1600.2,152c-0.2,0.4-0.5,0.8-0.8,1
	c-0.3,0.3-0.7,0.4-1,0.5c-0.5,0.1-1.2,0.2-2.1,0.2l-1.3,0.1l0.2,3.8l-2,0.1l-0.5-10.1l3.3-0.2c1.2-0.1,2.1,0,2.4,0
	c0.6,0.1,1.1,0.4,1.5,0.9c0.3,0.4,0.5,0.8,0.6,1.4h-2.2c0-0.1-0.1-0.2-0.2-0.2c-0.2-0.2-0.5-0.4-0.8-0.4c-0.2,0-0.7,0-1.5,0l-1,0
	l0.1,2.9l1.1-0.1c0.8,0,1.3-0.1,1.6-0.2c0.3-0.1,0.5-0.3,0.6-0.5c0.1-0.2,0.2-0.5,0.2-0.8c0-0.2,0-0.3-0.1-0.4h2.2
	c0,0.1,0,0.2,0,0.3C1600.4,151,1600.4,151.5,1600.2,152z M1602.1,154.6l-0.1-1.9l3.8-0.2l0.1,1.9L1602.1,154.6z M1609.7,157
	l-0.3-7.3c-0.7,0.7-1.5,1.2-2.4,1.6l-0.1-1.8c0.5-0.2,1-0.5,1.6-1c0.6-0.5,1-1,1.1-1.7l1.6-0.1l0.5,10.1L1609.7,157z M1620.6,155.3
	c-0.6,0.9-1.5,1.4-2.7,1.5c-0.9,0-1.7-0.2-2.3-0.6c-0.6-0.5-1-1.1-1.1-2l1.9-0.3c0.1,0.4,0.3,0.8,0.5,1c0.3,0.2,0.6,0.4,1,0.3
	c0.4,0,0.7-0.2,1-0.5c0.3-0.3,0.4-0.8,0.3-1.5c0-0.6-0.2-1.1-0.5-1.4c-0.3-0.3-0.7-0.4-1.1-0.4c-0.6,0-1,0.3-1.5,0.8l-1.6-0.2
	l0.7-5.3l5.1-0.2l0.1,1.8l-3.7,0.2l-0.2,1.7c0.4-0.2,0.9-0.4,1.3-0.4c0.9,0,1.6,0.2,2.2,0.8c0.6,0.6,1,1.4,1,2.4
	C1621.2,153.9,1621,154.6,1620.6,155.3z"/>
<path id="p-16" d="M1667.6,176.8l-121.9,5.4l2.7,55.6l126.8-5.6L1667.6,176.8z M1604.7,210.8c-0.3,0.3-0.7,0.4-1,0.5
	c-0.5,0.1-1.2,0.2-2.1,0.2l-1.3,0.1l0.2,3.8l-2,0.1l-0.5-10.1l3.3-0.2c1.2-0.1,2.1,0,2.4,0c0.6,0.1,1.1,0.4,1.5,0.9
	c0.4,0.5,0.6,1.1,0.7,1.8h-2.1c-0.1-0.3-0.1-0.5-0.3-0.7c-0.2-0.2-0.5-0.4-0.8-0.4c-0.2,0-0.7,0-1.5,0l-1,0l0.1,2.9l1.1-0.1
	c0.8,0,1.3-0.1,1.6-0.2c0.3-0.1,0.5-0.3,0.6-0.5c0.1-0.2,0.2-0.5,0.2-0.8c0,0,0,0,0,0h2.1c0,0.6-0.1,1.1-0.3,1.5
	C1605.3,210.2,1605.1,210.5,1604.7,210.8z M1607.4,212.4l-0.1-1.9l3.8-0.2l0.1,1.9L1607.4,212.4z M1615.1,214.7l-0.3-7.3
	c-0.7,0.7-1.5,1.2-2.4,1.6l-0.1-1.8c0.5-0.2,1-0.5,1.6-1c0.6-0.5,1-1,1.1-1.7l1.6-0.1l0.5,10.1L1615.1,214.7z M1625.7,213.5
	c-0.6,0.7-1.3,1-2.3,1c-1,0-1.9-0.3-2.6-1.1c-0.7-0.8-1.1-2-1.2-3.9c-0.1-1.9,0.2-3.2,0.8-4c0.6-0.8,1.5-1.3,2.6-1.4
	c0.8,0,1.4,0.1,1.9,0.6c0.5,0.4,0.9,1,1,1.8l-1.9,0.3c-0.1-0.4-0.2-0.7-0.4-0.8c-0.2-0.2-0.5-0.3-0.8-0.2c-0.4,0-0.7,0.2-1,0.6
	c-0.3,0.4-0.4,1.2-0.4,2.3c0.5-0.6,1-0.9,1.8-0.9c0.8,0,1.5,0.2,2.1,0.8c0.5,0.5,0.8,1.1,0.9,1.8h-1.9c-0.1-0.3-0.2-0.6-0.4-0.8
	c-0.3-0.3-0.6-0.4-1-0.4c-0.4,0-0.7,0.2-0.9,0.5c-0.2,0.3-0.4,0.7-0.3,1.3c0,0.6,0.2,1.1,0.5,1.4c0.3,0.3,0.6,0.5,1,0.5
	c0.4,0,0.7-0.2,0.9-0.5c0.2-0.3,0.3-0.8,0.3-1.4c0-0.1,0-0.3,0-0.4h1.9c0,0.1,0,0.2,0,0.3C1626.6,212,1626.3,212.8,1625.7,213.5z"/>
<path id="p-17" d="M1675.2,233.2l-126.8,5.6l1.4,28l-4.5,0.2l1.2,25.2l136.1-5L1675.2,233.2z M1610.1,266.5c-0.3,0.3-0.7,0.4-1,0.5
	c-0.5,0.1-1.2,0.2-2.1,0.2l-1.3,0.1l0.2,3.8l-2,0.1l-0.5-10.1l3.3-0.2c1.2-0.1,2.1,0,2.4,0c0.6,0.1,1.1,0.4,1.5,0.9
	c0.4,0.5,0.6,1.1,0.7,1.9h-2.1c0-0.3-0.1-0.5-0.3-0.7c-0.2-0.2-0.5-0.4-0.8-0.4c-0.2,0-0.7,0-1.5,0l-1,0l0.1,2.9l1.1-0.1
	c0.8,0,1.3-0.1,1.6-0.2c0.3-0.1,0.5-0.3,0.6-0.5c0.1-0.2,0.2-0.5,0.2-0.8h2.1c0,0.5-0.1,1-0.3,1.4
	C1610.7,265.9,1610.4,266.3,1610.1,266.5z M1612.8,268.1l-0.1-1.9l3.8-0.2l0.1,1.9L1612.8,268.1z M1620.4,270.5l-0.3-7.3
	c-0.7,0.7-1.5,1.2-2.4,1.6l-0.1-1.8c0.5-0.2,1-0.5,1.6-1c0.6-0.5,1-1,1.1-1.7l1.6-0.1l0.5,10.1L1620.4,270.5z M1629.9,263.8
	c-0.5,1-0.9,2.1-1.1,3.3c-0.2,1.1-0.3,2.2-0.3,3.1l-1.9,0.1c0-1.4,0.2-2.8,0.7-4.3c0.5-1.5,1.1-2.8,2-4l-4.4,0.2l-0.1-1.8l6.6-0.3
	l0.1,1.4C1631,262,1630.5,262.8,1629.9,263.8z"/>
<path id="p-18" d="M1543.3,267.6l-4.5,0.2l-4-81.9l-9.4-8.6l-40.7,1.8l5.6,115.6l54.2-2L1543.3,267.6z M1511.1,236.9
	c-0.3,0.3-0.7,0.4-1,0.5c-0.5,0.1-1.2,0.2-2.1,0.2l-1.3,0.1l0.2,3.8l-2,0.1l-0.5-10.1l3.3-0.2c1.2-0.1,2.1,0,2.4,0
	c0.6,0.1,1.1,0.4,1.5,0.9c0.4,0.5,0.6,1.1,0.7,1.9c0,0,0,0.1,0,0.1h-2.1c0-0.4-0.1-0.7-0.4-0.9c-0.2-0.2-0.5-0.4-0.8-0.4
	c-0.2,0-0.7,0-1.5,0l-1,0l0.1,2.9l1.1-0.1c0.8,0,1.3-0.1,1.6-0.2c0.3-0.1,0.5-0.3,0.6-0.5c0.1-0.2,0.2-0.4,0.2-0.6h2.1
	c0,0.5-0.1,0.9-0.2,1.2C1511.7,236.3,1511.4,236.6,1511.1,236.9z M1513.8,238.5l-0.1-1.9l3.8-0.2l0.1,1.9L1513.8,238.5z
	 M1521.5,240.8l-0.3-7.3c-0.7,0.7-1.5,1.2-2.4,1.6l-0.1-1.8c0.5-0.2,1-0.5,1.6-1c0.6-0.5,1-1,1.1-1.7l1.6-0.1l0.5,10.1L1521.5,240.8
	z M1529.6,240.6c-0.9,0-1.7-0.2-2.3-0.6c-0.7-0.5-1.1-1.3-1.2-2.3c0-0.5,0.1-1.1,0.3-1.5c0.2-0.5,0.7-0.8,1.2-1.1
	c-0.5-0.2-0.9-0.5-1.1-0.8c-0.2-0.4-0.4-0.8-0.4-1.2c0-0.8,0.2-1.4,0.7-1.9c0.5-0.5,1.2-0.8,2.2-0.8c1,0,1.7,0.2,2.3,0.6
	c0.6,0.5,0.8,1.1,0.9,1.8c0,0.1,0,0.3,0,0.4h-1.8c0-0.1,0-0.1,0-0.2c0-0.4-0.1-0.6-0.4-0.9c-0.2-0.2-0.5-0.3-0.9-0.3
	c-0.4,0-0.7,0.1-0.9,0.4c-0.2,0.2-0.3,0.5-0.3,0.9c0,0.4,0.1,0.7,0.4,0.9c0.2,0.2,0.5,0.3,0.9,0.3c0.4,0,0.7-0.1,0.9-0.4
	c0.1-0.1,0.2-0.3,0.2-0.5h1.8c-0.1,0.2-0.1,0.4-0.3,0.6c-0.2,0.4-0.6,0.7-1,0.9c0.6,0.2,1,0.5,1.3,0.9c0.3,0.4,0.5,0.9,0.5,1.5
	c0,0.2,0,0.4,0,0.6h-2c0-0.2,0.1-0.4,0.1-0.6c0-0.5-0.2-0.8-0.5-1.1c-0.3-0.3-0.6-0.4-1-0.4c-0.5,0-0.8,0.2-1,0.5
	c-0.2,0.3-0.3,0.7-0.3,1.1c0,0.5,0.2,0.9,0.5,1.2c0.3,0.3,0.6,0.4,1,0.4c0.4,0,0.7-0.2,1-0.5c0.1-0.1,0.2-0.3,0.2-0.4h2
	c-0.1,0.6-0.3,1.1-0.7,1.5C1531.4,240.3,1530.6,240.6,1529.6,240.6z"/>
<path id="p-19" d="M1483.6,179.2l-53.6,2.4l5.8,115.2l53.5-2L1483.6,179.2z M1456.1,239.3c-0.3,0.3-0.7,0.4-1,0.5
	c-0.5,0.1-1.2,0.2-2.1,0.2l-1.3,0.1l0.2,3.8l-2,0.1l-0.5-10.1l3.3-0.2c1.2-0.1,2.1,0,2.4,0c0.6,0.1,1.1,0.4,1.5,0.9
	c0.4,0.5,0.6,1.1,0.7,1.9c0,0.1,0,0.2,0,0.3h-2.1c0-0.1,0-0.1,0-0.2c0-0.4-0.1-0.7-0.4-0.9c-0.2-0.2-0.5-0.4-0.8-0.4
	c-0.2,0-0.7,0-1.5,0l-1,0l0.1,2.9l1.1-0.1c0.8,0,1.3-0.1,1.6-0.2c0.3-0.1,0.5-0.3,0.6-0.5c0.1-0.1,0.1-0.3,0.2-0.4h2.1
	c0,0.4-0.1,0.8-0.2,1.1C1456.7,238.7,1456.4,239.1,1456.1,239.3z M1458.8,241l-0.1-1.9l3.8-0.2l0.1,1.9L1458.8,241z M1466.4,243.3
	l-0.3-7.3c-0.7,0.7-1.5,1.2-2.4,1.6l-0.1-1.8c0.5-0.2,1-0.5,1.6-1c0.6-0.5,1-1,1.1-1.7l1.6-0.1l0.5,10.1L1466.4,243.3z
	 M1476.8,241.8c-0.6,0.8-1.5,1.3-2.6,1.4c-0.8,0-1.4-0.1-1.9-0.5c-0.5-0.4-0.8-1-1-1.8l1.9-0.3c0.1,0.4,0.2,0.7,0.4,0.8
	c0.2,0.2,0.5,0.3,0.8,0.2c0.4,0,0.7-0.2,1-0.6c0.3-0.4,0.4-1.2,0.4-2.3c-0.5,0.6-1.1,0.9-1.8,0.9c-0.8,0-1.5-0.2-2.1-0.8
	c-0.6-0.6-0.9-1.4-1-2.4c0-1,0.2-1.9,0.8-2.5c0.6-0.7,1.3-1,2.3-1c1,0,1.9,0.3,2.6,1.1c0.6,0.7,1,1.7,1.1,3.1h-2.2
	c0-0.2,0.1-0.4,0.1-0.7c0-0.6-0.2-1.1-0.5-1.4c-0.3-0.3-0.6-0.5-1-0.5c-0.4,0-0.6,0.2-0.9,0.5c-0.2,0.3-0.3,0.8-0.3,1.4
	c0,0.7,0.2,1.1,0.5,1.4c0.3,0.3,0.6,0.4,1,0.4c0.4,0,0.7-0.2,0.9-0.5c0.1-0.1,0.1-0.3,0.2-0.4h2.3c0,0.2,0,0.3,0,0.5
	C1477.7,239.6,1477.4,240.9,1476.8,241.8z"/>
<path id="p-20" d="M1428.9,181.6l-53.7,2.4l5.6,114.9l53.8-2L1428.9,181.6z M1401.3,241.5c-0.3,0.3-0.7,0.4-1,0.5
	c-0.5,0.1-1.2,0.2-2.1,0.2l-1.3,0.1l0.2,3.8l-2,0.1l-0.5-10.1l3.3-0.2c1.2-0.1,2.1,0,2.4,0c0.6,0.1,1.1,0.4,1.5,0.9
	c0.4,0.5,0.6,1.1,0.7,1.9c0,0.2,0,0.3,0,0.5h-2.1c0-0.1,0-0.3,0-0.4c0-0.4-0.1-0.7-0.4-0.9c-0.2-0.2-0.5-0.4-0.8-0.4
	c-0.2,0-0.7,0-1.5,0l-1,0l0.1,2.9l1.1-0.1c0.8,0,1.3-0.1,1.6-0.2c0.3-0.1,0.5-0.3,0.6-0.5c0-0.1,0.1-0.1,0.1-0.2h2.2
	c0,0.3-0.1,0.6-0.2,0.8C1401.9,240.9,1401.7,241.3,1401.3,241.5z M1404.1,243.1l-0.1-1.9l3.8-0.2l0.1,1.9L1404.1,243.1z
	 M1408.4,245.6c0-0.7,0.2-1.3,0.6-2c0.3-0.6,1-1.5,2.1-2.5c0.8-0.9,1.3-1.4,1.5-1.7c0.2-0.4,0.4-0.8,0.3-1.2c0-0.4-0.2-0.8-0.4-1
	c-0.2-0.2-0.6-0.3-1-0.3c-0.4,0-0.7,0.2-0.9,0.4c-0.2,0.3-0.3,0.7-0.4,1.2l-1.9-0.1c0.1-1.1,0.4-1.9,1-2.3c0.6-0.5,1.3-0.8,2.2-0.8
	c1,0,1.8,0.2,2.4,0.7c0.6,0.5,0.9,1.2,0.9,2c0,0.5,0,0.9-0.2,1.3c-0.1,0.4-0.4,0.9-0.7,1.3c-0.2,0.3-0.6,0.8-1.2,1.3
	c-0.6,0.6-1,1-1.1,1.2c-0.2,0.2-0.3,0.4-0.4,0.6l3.8-0.2l0.1,1.8L1408.4,245.6z M1422.1,244.1c-0.5,0.7-1.3,1.1-2.2,1.1
	c-1,0-1.8-0.3-2.4-1c-0.6-0.7-1-2.1-1.1-4c-0.1-1.9,0.2-3.3,0.8-4.2c0.5-0.7,1.3-1.1,2.2-1.1c1,0,1.8,0.3,2.3,0.9
	c0.6,0.7,1,1.9,1.1,3.5h-2c-0.1-0.8-0.1-1.4-0.3-1.8c-0.1-0.4-0.3-0.7-0.5-0.9c-0.2-0.1-0.4-0.2-0.6-0.2c-0.2,0-0.4,0.1-0.6,0.3
	c-0.2,0.2-0.3,0.4-0.4,0.8c-0.1,0.5-0.1,1.4-0.1,2.5c0.1,1.2,0.2,2,0.3,2.4c0.1,0.4,0.3,0.7,0.5,0.9c0.2,0.1,0.4,0.2,0.6,0.2
	c0.2,0,0.4-0.1,0.6-0.3c0.2-0.2,0.3-0.4,0.4-0.8c0.1-0.5,0.1-1.3,0.1-2.5c0-0.2,0-0.3,0-0.4h2c0,0.1,0,0.2,0,0.3
	C1422.9,241.9,1422.7,243.3,1422.1,244.1z"/>
<path id="p-21" d="M1374.1,184l-53.8,2.4l5.5,114.5l53.9-2L1374.1,184z M1347.3,243.7c-0.3,0.3-0.7,0.4-1,0.5
	c-0.5,0.1-1.2,0.2-2.1,0.2l-1.3,0.1l0.2,3.8l-2,0.1l-0.5-10.1l3.3-0.2c1.2-0.1,2.1,0,2.4,0c0.6,0.1,1.1,0.4,1.5,0.9
	c0.4,0.5,0.6,1.1,0.7,1.9c0,0.3,0,0.5,0,0.8h-2.2c0.1-0.2,0.1-0.4,0.1-0.6c0-0.4-0.1-0.7-0.4-0.9c-0.2-0.2-0.5-0.4-0.8-0.4
	c-0.2,0-0.7,0-1.5,0l-1,0l0.1,2.9l1.1-0.1c0.8,0,1.3-0.1,1.6-0.2c0.2-0.1,0.4-0.3,0.6-0.5h2.3c0,0.2-0.1,0.4-0.2,0.6
	C1347.9,243.1,1347.6,243.5,1347.3,243.7z M1350,245.3l-0.1-1.9l3.8-0.2l0.1,1.9L1350,245.3z M1354.4,247.8c0-0.7,0.2-1.3,0.6-2
	c0.3-0.6,1-1.5,2.1-2.5c0.8-0.9,1.3-1.4,1.5-1.7c0.2-0.4,0.4-0.8,0.3-1.2c0-0.4-0.2-0.8-0.4-1c-0.2-0.2-0.6-0.3-1-0.3
	c-0.4,0-0.7,0.2-0.9,0.4c-0.2,0.3-0.3,0.7-0.4,1.2l-1.9-0.1c0.1-1.1,0.4-1.9,1-2.3c0.6-0.5,1.3-0.8,2.2-0.8c1,0,1.8,0.2,2.4,0.7
	c0.6,0.5,0.9,1.2,0.9,2c0,0.5,0,0.9-0.2,1.3c-0.1,0.4-0.4,0.9-0.7,1.3c-0.2,0.3-0.6,0.8-1.2,1.3c-0.6,0.6-1,1-1.1,1.2
	c-0.2,0.2-0.3,0.4-0.4,0.6l3.8-0.2l0.1,1.8L1354.4,247.8z M1365.5,247.3l-0.3-7.3c-0.7,0.7-1.5,1.2-2.4,1.6l-0.1-1.8
	c0.5-0.2,1-0.5,1.6-1c0.6-0.5,1-1,1.1-1.7l1.6-0.1l0.5,10.1L1365.5,247.3z"/>
<path id="p-22" d="M1319.2,186.4l-54.1,2.4l5.5,114.1l54.1-2L1319.2,186.4z M1291.4,246c-0.3,0.3-0.7,0.4-1,0.5
	c-0.5,0.1-1.2,0.2-2.1,0.2l-1.3,0.1l0.2,3.8l-2,0.1l-0.5-10.1l3.3-0.2c1.2-0.1,2.1,0,2.4,0c0.6,0.1,1.1,0.4,1.5,0.9
	c0.4,0.5,0.6,1.1,0.7,1.9c0,0.3,0,0.6,0,0.9h-2.2c0.1-0.2,0.2-0.5,0.2-0.7c0-0.4-0.1-0.7-0.4-0.9c-0.2-0.2-0.5-0.4-0.8-0.4
	c-0.2,0-0.7,0-1.5,0l-1,0l0.1,2.9l1.1-0.1c0.8,0,1.3-0.1,1.6-0.2c0.2-0.1,0.4-0.2,0.5-0.4h2.3c0,0.2-0.1,0.4-0.2,0.5
	C1292,245.4,1291.8,245.8,1291.4,246z M1294.2,247.7l-0.1-1.9l3.8-0.2l0.1,1.9L1294.2,247.7z M1298.5,250.1c0-0.7,0.2-1.3,0.6-2
	c0.3-0.6,1-1.5,2.1-2.5c0.8-0.9,1.3-1.4,1.5-1.7c0.2-0.4,0.4-0.8,0.3-1.2c0-0.4-0.2-0.8-0.4-1c-0.2-0.2-0.6-0.3-1-0.3
	c-0.4,0-0.7,0.2-0.9,0.4c-0.2,0.3-0.3,0.7-0.4,1.2l-1.9-0.1c0.1-1.1,0.4-1.9,1-2.3c0.6-0.5,1.3-0.8,2.2-0.8c1,0,1.8,0.2,2.4,0.7
	c0.6,0.5,0.9,1.2,0.9,2c0,0.5,0,0.9-0.2,1.3c-0.1,0.4-0.4,0.9-0.7,1.3c-0.2,0.3-0.6,0.8-1.2,1.3c-0.6,0.6-1,1-1.1,1.2
	c-0.2,0.2-0.3,0.4-0.4,0.6l3.8-0.2l0.1,1.8L1298.5,250.1z M1306.4,249.8c0-0.7,0.2-1.3,0.6-2c0.3-0.6,1-1.5,2.1-2.5
	c0.8-0.9,1.3-1.4,1.5-1.7c0.2-0.4,0.4-0.8,0.3-1.2c0-0.4-0.2-0.8-0.4-1c-0.2-0.2-0.6-0.3-1-0.3c-0.4,0-0.7,0.2-0.9,0.4
	c-0.2,0.3-0.3,0.7-0.4,1.2l-1.9-0.1c0.1-1.1,0.4-1.9,1-2.3c0.6-0.5,1.3-0.8,2.2-0.8c1,0,1.8,0.2,2.4,0.7c0.6,0.5,0.9,1.2,0.9,2
	c0,0.5,0,0.9-0.2,1.3c-0.1,0.4-0.4,0.9-0.7,1.3c-0.2,0.3-0.6,0.8-1.2,1.3s-1,1-1.1,1.2c-0.2,0.2-0.3,0.4-0.4,0.6l3.8-0.2l0.1,1.8
	L1306.4,249.8z"/>
<path id="p-23" d="M1264.1,188.8l-54.2,2.4l5.5,113.7l54.2-2L1264.1,188.8z M1236.1,248.4c-0.3,0.3-0.7,0.4-1,0.5
	c-0.5,0.1-1.2,0.2-2.1,0.2l-1.3,0.1l0.2,3.8l-2,0.1l-0.5-10.1l3.3-0.2c1.2-0.1,2.1,0,2.4,0c0.6,0.1,1.1,0.4,1.5,0.9
	c0.4,0.5,0.6,1.1,0.7,1.9c0,0.1,0,0.1,0,0.2h-2.1c0,0,0,0,0,0c0-0.4-0.1-0.7-0.4-0.9c-0.2-0.2-0.5-0.4-0.8-0.4c-0.2,0-0.7,0-1.5,0
	l-1,0l0.1,2.9l1.1-0.1c0.8,0,1.3-0.1,1.6-0.2c0.3-0.1,0.5-0.3,0.6-0.5c0.1-0.2,0.1-0.4,0.2-0.5h2.1c0,0.5-0.1,0.9-0.2,1.2
	C1236.7,247.8,1236.5,248.1,1236.1,248.4z M1238.8,250l-0.1-1.9l3.8-0.2l0.1,1.9L1238.8,250z M1243.2,252.5c0-0.7,0.2-1.3,0.6-2
	c0.3-0.6,1-1.5,2.1-2.5c0.8-0.9,1.3-1.4,1.5-1.7c0.2-0.4,0.4-0.8,0.3-1.2c0-0.4-0.2-0.8-0.4-1c-0.2-0.2-0.6-0.3-1-0.3
	c-0.4,0-0.7,0.2-0.9,0.4c-0.2,0.3-0.3,0.7-0.4,1.2l-1.9-0.1c0.1-1.1,0.4-1.9,1-2.3c0.6-0.5,1.3-0.8,2.2-0.8c1,0,1.8,0.2,2.4,0.7
	c0.6,0.5,0.9,1.2,0.9,2c0,0.5,0,0.9-0.2,1.3c-0.1,0.4-0.4,0.9-0.7,1.3c-0.2,0.3-0.6,0.8-1.2,1.3c-0.6,0.6-1,1-1.1,1.2
	c-0.2,0.2-0.3,0.4-0.4,0.6l3.8-0.2l0.1,1.8L1243.2,252.5z M1257,251.1c-0.6,0.7-1.4,1-2.4,1c-0.9,0-1.7-0.2-2.3-0.7
	c-0.6-0.5-1-1.2-1.1-2l1.9-0.3c0.1,0.5,0.3,0.8,0.5,1.1c0.3,0.2,0.6,0.4,1,0.3c0.4,0,0.7-0.2,1-0.5c0.3-0.3,0.4-0.7,0.4-1.2
	c0-0.5-0.2-0.9-0.4-1.1c-0.3-0.3-0.6-0.4-1-0.4c-0.2,0-0.5,0.1-0.9,0.2l0.1-1.6c0.5,0,0.9-0.1,1.2-0.4c0.3-0.3,0.4-0.6,0.4-1
	c0-0.3-0.1-0.6-0.3-0.8c-0.2-0.2-0.5-0.3-0.8-0.3c-0.3,0-0.6,0.1-0.8,0.4c-0.2,0.2-0.4,0.6-0.4,1l-1.8-0.2c0.1-0.6,0.3-1.1,0.5-1.5
	c0.2-0.4,0.6-0.7,1-0.9c0.4-0.2,0.9-0.4,1.5-0.4c0.9,0,1.7,0.2,2.3,0.8c0.5,0.5,0.8,1,0.8,1.6c0,0.9-0.4,1.6-1.4,2.2
	c0.6,0.1,1.1,0.4,1.4,0.8c0.4,0.4,0.6,0.9,0.6,1.5C1257.9,249.6,1257.6,250.4,1257,251.1z"/>
<path id="p-24" d="M1208.8,191.3l-54.5,2.4l5.6,113.4l54.4-2.1L1208.8,191.3z M1180.5,250.5c-0.3,0.3-0.7,0.4-1,0.5
	c-0.5,0.1-1.2,0.2-2.1,0.2l-1.3,0.1l0.2,3.8l-2,0.1l-0.5-10.1l3.3-0.2c1.2-0.1,2.1,0,2.4,0c0.6,0.1,1.1,0.4,1.5,0.9
	c0.4,0.5,0.6,1.1,0.7,1.9h-2.1c0-0.3-0.1-0.5-0.3-0.7c-0.2-0.2-0.5-0.4-0.8-0.4c-0.2,0-0.7,0-1.5,0l-1,0l0.1,2.9l1.1-0.1
	c0.8,0,1.3-0.1,1.6-0.2c0.3-0.1,0.5-0.3,0.6-0.5c0.1-0.2,0.2-0.5,0.2-0.7h2.1c0,0.5-0.1,1-0.3,1.4
	C1181.1,249.9,1180.9,250.3,1180.5,250.5z M1183.2,252.2l-0.1-1.9l3.8-0.2l0.1,1.9L1183.2,252.2z M1187.6,254.7c0-0.7,0.2-1.3,0.6-2
	c0.3-0.6,1-1.5,2.1-2.5c0.8-0.9,1.3-1.4,1.5-1.7c0.2-0.4,0.4-0.8,0.3-1.2c0-0.4-0.2-0.8-0.4-1c-0.2-0.2-0.6-0.3-1-0.3
	c-0.4,0-0.7,0.2-0.9,0.4c-0.2,0.3-0.3,0.7-0.4,1.2l-1.9-0.1c0.1-1.1,0.4-1.9,1-2.3c0.6-0.5,1.3-0.8,2.2-0.8c1,0,1.8,0.2,2.4,0.7
	c0.6,0.5,0.9,1.2,0.9,2c0,0.5,0,0.9-0.2,1.3c-0.1,0.4-0.4,0.9-0.7,1.3c-0.2,0.3-0.6,0.8-1.2,1.3c-0.6,0.6-1,1-1.1,1.2
	c-0.2,0.2-0.3,0.4-0.4,0.6l3.8-0.2l0.1,1.8L1187.6,254.7z M1201.4,254l-1.9,0.1l-0.1-2l-4.1,0.2l-0.1-1.7l4.1-6.6l1.6-0.1l0.2,5.3
	h-1.9l-0.1-2.3l-2.2,3.6l2.3-0.1l0-1h1.9l0,0.9l1.3-0.1l0.1,1.7l-1.3,0.1L1201.4,254z"/>
<path id="p-25" d="M1153.2,193.7l-54.5,2.4l5.5,113l54.6-2L1153.2,193.7z M1125.1,252.9c-0.3,0.3-0.7,0.4-1,0.5
	c-0.5,0.1-1.2,0.2-2.1,0.2l-1.3,0.1l0.2,3.8l-2,0.1l-0.5-10.1l3.3-0.2c1.2-0.1,2.1,0,2.4,0c0.6,0.1,1.1,0.4,1.5,0.9
	c0.4,0.5,0.6,1.1,0.7,1.9c0,0,0,0.1,0,0.1h-2.1c0-0.4-0.1-0.6-0.4-0.9c-0.2-0.2-0.5-0.4-0.8-0.4c-0.2,0-0.7,0-1.5,0l-1,0l0.1,2.9
	l1.1-0.1c0.8,0,1.3-0.1,1.6-0.2c0.3-0.1,0.5-0.3,0.6-0.5c0.1-0.2,0.2-0.4,0.2-0.6h2.1c0,0.5-0.1,0.9-0.2,1.3
	C1125.7,252.3,1125.4,252.6,1125.1,252.9z M1127.8,254.5l-0.1-1.9l3.8-0.2l0.1,1.9L1127.8,254.5z M1132.2,257c0-0.7,0.2-1.3,0.6-2
	c0.3-0.6,1-1.5,2.1-2.5c0.8-0.9,1.3-1.4,1.5-1.7c0.2-0.4,0.4-0.8,0.3-1.2c0-0.4-0.2-0.8-0.4-1c-0.2-0.2-0.6-0.3-1-0.3
	c-0.4,0-0.7,0.2-0.9,0.4c-0.2,0.3-0.3,0.7-0.4,1.2l-1.9-0.1c0.1-1.1,0.4-1.9,1-2.3c0.6-0.5,1.3-0.8,2.2-0.8c1,0,1.8,0.2,2.4,0.7
	c0.6,0.5,0.9,1.2,0.9,2c0,0.5,0,0.9-0.2,1.3c-0.1,0.4-0.4,0.9-0.7,1.3c-0.2,0.3-0.6,0.8-1.2,1.3c-0.6,0.6-1,1-1.1,1.2
	c-0.2,0.2-0.3,0.4-0.4,0.6l3.8-0.2l0.1,1.8L1132.2,257z M1146.3,255.2c-0.6,0.9-1.5,1.4-2.7,1.5c-0.9,0-1.7-0.2-2.3-0.6
	c-0.6-0.5-1-1.1-1.1-2l1.9-0.3c0.1,0.4,0.3,0.8,0.5,1c0.3,0.2,0.6,0.4,1,0.3c0.4,0,0.7-0.2,1-0.5c0.3-0.3,0.4-0.8,0.4-1.5
	c0-0.6-0.2-1.1-0.5-1.4c-0.3-0.3-0.7-0.4-1.1-0.4c-0.6,0-1,0.3-1.5,0.8l-1.6-0.2l0.7-5.3l5.1-0.2l0.1,1.8l-3.7,0.2l-0.2,1.7
	c0.4-0.2,0.9-0.4,1.3-0.4c0.9,0,1.6,0.2,2.2,0.8c0.6,0.6,1,1.4,1,2.4C1147,253.7,1146.7,254.5,1146.3,255.2z"/>
<path id="p-26" d="M1097.5,196.2l-54.8,2.4l5.5,112.6l54.8-2L1097.5,196.2z M1065.3,255.1c-0.3,0.3-0.7,0.4-1,0.5
	c-0.5,0.1-1.2,0.2-2.1,0.2l-1.3,0.1l0.2,3.8l-2,0.1l-0.5-10.1l3.3-0.2c1.2-0.1,2.1,0,2.4,0c0.6,0.1,1.1,0.4,1.5,0.9
	c0.4,0.5,0.6,1.1,0.7,1.9c0,0.1,0,0.1,0,0.2h-2.1c0,0,0,0,0,0c0-0.4-0.1-0.7-0.4-0.9c-0.2-0.2-0.5-0.4-0.8-0.4c-0.2,0-0.7,0-1.5,0
	l-1,0l0.1,2.9l1.1-0.1c0.8,0,1.3-0.1,1.6-0.2c0.3-0.1,0.5-0.3,0.6-0.5c0.1-0.2,0.1-0.4,0.2-0.5h2.1c0,0.5-0.1,0.9-0.2,1.2
	C1065.9,254.5,1065.6,254.8,1065.3,255.1z M1068,256.7l-0.1-1.9l3.8-0.2l0.1,1.9L1068,256.7z M1072.4,259.2c0-0.7,0.2-1.3,0.6-2
	c0.3-0.6,1-1.5,2.1-2.5c0.8-0.9,1.3-1.4,1.5-1.7c0.2-0.4,0.4-0.8,0.3-1.2c0-0.4-0.2-0.8-0.4-1c-0.2-0.2-0.6-0.3-1-0.3
	c-0.4,0-0.7,0.2-0.9,0.4c-0.2,0.3-0.3,0.7-0.4,1.2l-1.9-0.1c0.1-1.1,0.4-1.9,1-2.3c0.6-0.5,1.3-0.8,2.2-0.8c1,0,1.8,0.2,2.4,0.7
	c0.6,0.5,0.9,1.2,0.9,2c0,0.5,0,0.9-0.2,1.3c-0.1,0.4-0.4,0.9-0.7,1.3c-0.2,0.3-0.6,0.8-1.2,1.3c-0.6,0.6-1,1-1.1,1.2
	c-0.2,0.2-0.3,0.4-0.4,0.6l3.8-0.2l0.1,1.8L1072.4,259.2z M1086.3,257.8c-0.6,0.7-1.3,1-2.3,1c-1,0-1.9-0.3-2.6-1.1
	c-0.7-0.8-1.1-2-1.2-3.9c-0.1-1.9,0.2-3.2,0.8-4c0.6-0.8,1.5-1.3,2.6-1.4c0.8,0,1.4,0.1,1.9,0.6c0.5,0.4,0.9,1,1,1.8l-1.9,0.3
	c-0.1-0.4-0.2-0.7-0.4-0.8c-0.2-0.2-0.5-0.3-0.8-0.2c-0.4,0-0.7,0.2-1,0.6c-0.3,0.4-0.4,1.2-0.4,2.3c0.5-0.6,1-0.9,1.8-0.9
	c0.8,0,1.5,0.2,2.1,0.8c0.6,0.5,0.9,1.3,0.9,2.1h-1.9c-0.1-0.5-0.2-0.9-0.4-1.1c-0.3-0.3-0.6-0.4-1-0.4c-0.4,0-0.7,0.2-0.9,0.5
	c-0.2,0.3-0.4,0.7-0.3,1.3c0,0.6,0.2,1.1,0.5,1.4c0.3,0.3,0.6,0.5,1,0.5c0.4,0,0.7-0.2,0.9-0.5c0.2-0.3,0.3-0.8,0.3-1.4
	c0,0,0-0.1,0-0.1h1.9C1087.2,256.3,1086.9,257.1,1086.3,257.8z"/>
<path id="p-27" d="M1041.6,198.6l-54.9,2.4l5.5,112.2l54.9-2L1041.6,198.6z M1013.4,257.4c-0.3,0.3-0.7,0.4-1,0.5
	c-0.5,0.1-1.2,0.2-2.1,0.2l-1.3,0.1l0.2,3.8l-2,0.1l-0.5-10.1l3.3-0.2c1.2-0.1,2.1,0,2.4,0c0.6,0.1,1.1,0.4,1.5,0.9
	c0.4,0.5,0.6,1.1,0.7,1.9h-2.1c0-0.3-0.1-0.6-0.3-0.8c-0.2-0.2-0.5-0.4-0.8-0.4c-0.2,0-0.7,0-1.5,0l-1,0l0.1,2.9l1.1-0.1
	c0.8,0,1.3-0.1,1.6-0.2c0.3-0.1,0.5-0.3,0.6-0.5c0.1-0.2,0.2-0.4,0.2-0.7h2.1c0,0.5-0.1,1-0.3,1.4
	C1014,256.8,1013.7,257.1,1013.4,257.4z M1016.1,259l-0.1-1.9l3.8-0.2l0.1,1.9L1016.1,259z M1020.5,261.5c0-0.7,0.2-1.3,0.6-2
	c0.3-0.6,1-1.5,2.1-2.5c0.8-0.9,1.3-1.4,1.5-1.7c0.2-0.4,0.4-0.8,0.3-1.2c0-0.4-0.2-0.8-0.4-1c-0.2-0.2-0.6-0.3-1-0.3
	c-0.4,0-0.7,0.2-0.9,0.4c-0.2,0.3-0.3,0.7-0.4,1.2l-1.9-0.1c0.1-1.1,0.4-1.9,1-2.3c0.6-0.5,1.3-0.8,2.2-0.8c1,0,1.8,0.2,2.4,0.7
	c0.6,0.5,0.9,1.2,0.9,2c0,0.5,0,0.9-0.2,1.3c-0.1,0.4-0.4,0.9-0.7,1.3c-0.2,0.3-0.6,0.8-1.2,1.3c-0.6,0.6-1,1-1.1,1.2
	c-0.2,0.2-0.3,0.4-0.4,0.6l3.8-0.2l0.1,1.8L1020.5,261.5z M1033.3,254.6c-0.5,1-0.9,2.1-1.1,3.3c-0.2,1.1-0.3,2.2-0.3,3.1l-1.9,0.1
	c0-1.4,0.2-2.8,0.7-4.3c0.5-1.5,1.1-2.8,2-4l-4.4,0.2l-0.1-1.8l6.6-0.3l0.1,1.4C1034.3,252.8,1033.8,253.6,1033.3,254.6z"/>
<path id="p-28" d="M985.6,201.1l-55.2,2.4l5.5,111.9l55.2-2.1L985.6,201.1z M957.2,259.7c-0.3,0.3-0.7,0.4-1,0.5
	c-0.5,0.1-1.2,0.2-2.1,0.2l-1.3,0.1l0.2,3.8l-2,0.1l-0.5-10.1l3.3-0.2c1.2-0.1,2.1,0,2.4,0c0.6,0.1,1.1,0.4,1.5,0.9
	c0.4,0.5,0.6,1.1,0.7,1.9c0,0.1,0,0.1,0,0.2h-2.1c0,0,0,0,0,0c0-0.4-0.1-0.7-0.4-0.9c-0.2-0.2-0.5-0.4-0.8-0.4c-0.2,0-0.7,0-1.5,0
	l-1,0l0.1,2.9l1.1-0.1c0.8,0,1.3-0.1,1.6-0.2c0.3-0.1,0.5-0.3,0.6-0.5c0.1-0.2,0.1-0.4,0.2-0.5h2.1c0,0.5-0.1,0.9-0.2,1.2
	C957.8,259.1,957.6,259.5,957.2,259.7z M959.9,261.3l-0.1-1.9l3.8-0.2l0.1,1.9L959.9,261.3z M964.3,263.8c0-0.7,0.2-1.3,0.6-2
	c0.3-0.6,1-1.5,2.1-2.5c0.8-0.9,1.3-1.4,1.5-1.7c0.2-0.4,0.4-0.8,0.3-1.2c0-0.4-0.2-0.8-0.4-1c-0.2-0.2-0.6-0.3-1-0.3
	c-0.4,0-0.7,0.2-0.9,0.4c-0.2,0.3-0.3,0.7-0.4,1.2l-1.9-0.1c0.1-1.1,0.4-1.9,1-2.3c0.6-0.5,1.3-0.8,2.2-0.8c1,0,1.8,0.2,2.4,0.7
	c0.6,0.5,0.9,1.2,0.9,2c0,0.5,0,0.9-0.2,1.3c-0.1,0.4-0.4,0.9-0.7,1.3c-0.2,0.3-0.6,0.8-1.2,1.3c-0.6,0.6-1,1-1.1,1.2
	c-0.2,0.2-0.3,0.4-0.4,0.6l3.8-0.2l0.1,1.8L964.3,263.8z M975.8,263.5c-0.9,0-1.7-0.2-2.3-0.6c-0.7-0.5-1.1-1.3-1.2-2.3
	c0-0.5,0.1-1.1,0.3-1.5c0.2-0.5,0.7-0.8,1.2-1.1c-0.5-0.2-0.9-0.5-1.1-0.8c-0.2-0.4-0.4-0.8-0.4-1.2c0-0.8,0.2-1.4,0.7-1.9
	c0.5-0.5,1.2-0.8,2.2-0.8c1,0,1.7,0.2,2.3,0.6c0.5,0.4,0.8,0.9,0.8,1.5h-1.9c-0.1-0.1-0.1-0.3-0.3-0.4c-0.2-0.2-0.5-0.3-0.9-0.3
	c-0.4,0-0.7,0.1-0.9,0.4c-0.2,0.2-0.3,0.5-0.3,0.9c0,0.4,0.1,0.7,0.4,0.9c0.2,0.2,0.5,0.3,0.9,0.3c0.4,0,0.7-0.1,0.9-0.4
	c0.2-0.2,0.3-0.5,0.3-0.9c0-0.1,0-0.2-0.1-0.3h1.9c0,0,0,0,0,0.1c0,0.5-0.1,0.9-0.3,1.3c-0.2,0.4-0.6,0.7-1,0.9
	c0.6,0.2,1,0.5,1.3,0.9s0.5,0.9,0.5,1.5c0,0.1,0,0.2,0,0.3h-1.9c0-0.1,0-0.2,0-0.3c0-0.5-0.2-0.8-0.5-1.1c-0.3-0.3-0.6-0.4-1-0.4
	c-0.5,0-0.8,0.2-1,0.5c-0.2,0.3-0.3,0.7-0.3,1.1c0,0.5,0.2,0.9,0.5,1.2c0.3,0.3,0.6,0.4,1,0.4c0.4,0,0.7-0.2,1-0.5
	c0.2-0.2,0.2-0.4,0.3-0.7h1.9c-0.1,0.7-0.3,1.3-0.8,1.8C977.5,263.1,976.8,263.4,975.8,263.5z"/>
<path id="p-29" d="M929.3,203.6l-55.4,2.4l5.5,111.5l55.4-2L929.3,203.6z M900.9,262c-0.3,0.3-0.7,0.4-1,0.5
	c-0.5,0.1-1.2,0.2-2.1,0.2l-1.3,0.1l0.2,3.8l-2,0.1l-0.5-10.1l3.3-0.2c1.2-0.1,2.1,0,2.4,0c0.6,0.1,1.1,0.4,1.5,0.9
	c0.4,0.5,0.6,1.1,0.7,1.9c0,0.1,0,0.1,0,0.2h-2.1c0,0,0,0,0,0c0-0.4-0.1-0.7-0.4-0.9c-0.2-0.2-0.5-0.4-0.8-0.4c-0.2,0-0.7,0-1.5,0
	l-1,0l0.1,2.9l1.1-0.1c0.8,0,1.3-0.1,1.6-0.2c0.3-0.1,0.5-0.3,0.6-0.5c0.1-0.2,0.1-0.4,0.2-0.5h2.1c0,0.5-0.1,0.9-0.2,1.2
	C901.5,261.4,901.2,261.8,900.9,262z M903.6,263.7l-0.1-1.9l3.8-0.2l0.1,1.9L903.6,263.7z M908,266.2c0-0.7,0.2-1.3,0.6-2
	c0.3-0.6,1-1.5,2.1-2.5c0.8-0.9,1.3-1.4,1.5-1.7c0.2-0.4,0.4-0.8,0.3-1.2c0-0.4-0.2-0.8-0.4-1c-0.2-0.2-0.6-0.3-1-0.3
	c-0.4,0-0.7,0.2-0.9,0.4c-0.2,0.3-0.3,0.7-0.4,1.2l-1.9-0.1c0.1-1.1,0.4-1.9,1-2.3s1.3-0.8,2.2-0.8c1,0,1.8,0.2,2.4,0.7
	c0.6,0.5,0.9,1.2,0.9,2c0,0.5,0,0.9-0.2,1.3c-0.1,0.4-0.4,0.9-0.7,1.3c-0.2,0.3-0.6,0.8-1.2,1.3c-0.6,0.6-1,1-1.1,1.2
	c-0.2,0.2-0.3,0.4-0.4,0.6l3.8-0.2l0.1,1.8L908,266.2z M921.6,264.5c-0.6,0.8-1.5,1.3-2.6,1.3c-0.8,0-1.4-0.1-1.9-0.5
	c-0.5-0.4-0.8-1-1-1.8l1.9-0.3c0.1,0.4,0.2,0.7,0.4,0.8c0.2,0.2,0.5,0.3,0.8,0.2c0.4,0,0.7-0.2,1-0.6c0.3-0.4,0.4-1.2,0.4-2.3
	c-0.5,0.6-1.1,0.9-1.8,0.9c-0.8,0-1.5-0.2-2.1-0.8c-0.6-0.6-0.9-1.4-1-2.4c0-1,0.2-1.9,0.8-2.5c0.6-0.7,1.3-1,2.3-1
	c1,0,1.9,0.3,2.6,1.1c0.4,0.4,0.6,0.9,0.8,1.6h-2.1c-0.1-0.2-0.2-0.5-0.4-0.6c-0.3-0.3-0.6-0.5-1-0.5c-0.4,0-0.6,0.2-0.9,0.5
	c-0.2,0.3-0.3,0.8-0.3,1.4c0,0.7,0.2,1.1,0.5,1.4c0.3,0.3,0.6,0.4,1,0.4c0.4,0,0.7-0.2,0.9-0.5c0.2-0.3,0.3-0.7,0.3-1.3
	c0-0.2-0.1-0.4-0.1-0.6h2.1c0.1,0.6,0.3,1.2,0.3,2C922.5,262.3,922.3,263.6,921.6,264.5z"/>
<path id="p-30" d="M872.8,206l-55.5,2.4l5.5,111.2l55.5-2.1L872.8,206z M844.3,264.2c-0.3,0.3-0.7,0.4-1,0.5
	c-0.5,0.1-1.2,0.2-2.1,0.2l-1.3,0.1l0.2,3.8l-2,0.1l-0.5-10.1l3.3-0.2c1.2-0.1,2.1,0,2.4,0c0.6,0.1,1.1,0.4,1.5,0.9
	c0.4,0.5,0.6,1.1,0.7,1.9c0,0.1,0,0.3,0,0.4h-2.1c0-0.1,0-0.2,0-0.3c0-0.4-0.1-0.7-0.4-0.9c-0.2-0.2-0.5-0.4-0.8-0.4
	c-0.2,0-0.7,0-1.5,0l-1,0l0.1,2.9l1.1-0.1c0.8,0,1.3-0.1,1.6-0.2c0.3-0.1,0.5-0.3,0.6-0.5c0.1-0.1,0.1-0.2,0.1-0.3h2.1
	c0,0.4-0.1,0.7-0.2,1C844.9,263.6,844.6,264,844.3,264.2z M847,265.8l-0.1-1.9l3.8-0.2l0.1,1.9L847,265.8z M857.3,267.3
	c-0.6,0.7-1.4,1-2.4,1c-0.9,0-1.7-0.2-2.3-0.7c-0.6-0.5-1-1.2-1.1-2l1.9-0.3c0.1,0.5,0.3,0.8,0.5,1.1c0.3,0.2,0.6,0.4,1,0.3
	c0.4,0,0.7-0.2,1-0.5s0.4-0.7,0.4-1.2c0-0.5-0.2-0.9-0.4-1.1c-0.3-0.3-0.6-0.4-1-0.4c-0.2,0-0.5,0.1-0.9,0.2l0.1-1.6
	c0.5,0,0.9-0.1,1.2-0.4c0.3-0.3,0.4-0.6,0.4-1c0-0.3-0.1-0.6-0.3-0.8c-0.2-0.2-0.5-0.3-0.8-0.3c-0.3,0-0.6,0.1-0.8,0.4
	c-0.2,0.2-0.3,0.6-0.4,1l-1.8-0.2c0.1-0.6,0.3-1.1,0.5-1.5c0.2-0.4,0.6-0.7,1-0.9c0.4-0.2,0.9-0.4,1.5-0.4c1,0,1.7,0.2,2.3,0.8
	c0.5,0.5,0.8,1,0.8,1.6c0,0.9-0.4,1.6-1.4,2.2c0.6,0.1,1.1,0.4,1.4,0.8c0.4,0.4,0.6,0.9,0.6,1.5
	C858.2,265.9,857.9,266.6,857.3,267.3z M865,266.8c-0.5,0.7-1.3,1.1-2.2,1.1c-1,0-1.8-0.3-2.4-1c-0.6-0.7-1-2.1-1.1-4
	c-0.1-1.9,0.2-3.3,0.8-4.2c0.5-0.7,1.3-1.1,2.2-1.1c1,0,1.8,0.3,2.3,0.9c0.7,0.8,1.1,2.2,1.2,4.1c0,0.1,0,0.3,0,0.4h-2
	c0-0.1,0-0.2,0-0.3c-0.1-1.2-0.2-2-0.3-2.4c-0.1-0.4-0.3-0.7-0.5-0.9c-0.2-0.1-0.4-0.2-0.6-0.2c-0.2,0-0.4,0.1-0.6,0.3
	c-0.2,0.2-0.3,0.4-0.4,0.8c-0.1,0.5-0.1,1.4-0.1,2.5c0.1,1.2,0.2,2,0.3,2.4c0.1,0.4,0.3,0.7,0.5,0.9c0.2,0.1,0.4,0.2,0.6,0.2
	c0.2,0,0.4-0.1,0.6-0.3c0.2-0.2,0.3-0.4,0.4-0.8c0.1-0.4,0.1-1.1,0.1-2h2C865.8,264.9,865.5,266.1,865,266.8z"/>
<path id="p-31" d="M816.2,208.5l-55.6,2.4l5.4,110.7l55.8-2L816.2,208.5z M789.2,265.5c-0.2,0.4-0.5,0.8-0.8,1
	c-0.3,0.3-0.7,0.4-1,0.5c-0.5,0.1-1.2,0.2-2.1,0.2l-1.3,0.1l0.2,3.8l-2,0.1l-0.5-10.1l3.3-0.2c1.2-0.1,2.1,0,2.4,0
	c0.6,0.1,1.1,0.4,1.5,0.9c0.4,0.4,0.6,1,0.7,1.7h-2.1c-0.1-0.2-0.1-0.4-0.3-0.5c-0.2-0.2-0.5-0.4-0.8-0.4c-0.2,0-0.7,0-1.5,0l-1,0
	l0.1,2.9l1.1-0.1c0.8,0,1.3-0.1,1.6-0.2c0.3-0.1,0.5-0.3,0.6-0.5c0.1-0.2,0.2-0.5,0.2-0.8c0,0,0-0.1,0-0.1h2.1
	C789.5,264.6,789.4,265.1,789.2,265.5z M791.1,268.2l-0.1-1.9l3.8-0.2l0.1,1.9L791.1,268.2z M801.3,269.6c-0.6,0.7-1.4,1-2.4,1
	c-0.9,0-1.7-0.2-2.3-0.7c-0.6-0.5-1-1.2-1.1-2l1.9-0.3c0.1,0.5,0.3,0.8,0.5,1.1c0.3,0.2,0.6,0.4,1,0.3c0.4,0,0.7-0.2,1-0.5
	c0.3-0.3,0.4-0.7,0.4-1.2c0-0.5-0.2-0.9-0.4-1.1c-0.3-0.3-0.6-0.4-1-0.4c-0.2,0-0.5,0.1-0.9,0.2l0.1-1.6c0.5,0,0.9-0.1,1.2-0.4
	c0.3-0.3,0.4-0.6,0.4-1c0-0.3-0.1-0.6-0.3-0.8c-0.2-0.2-0.5-0.3-0.8-0.3c-0.3,0-0.6,0.1-0.8,0.4s-0.3,0.6-0.4,1l-1.8-0.2
	c0.1-0.6,0.3-1.1,0.5-1.5c0.2-0.4,0.6-0.7,1-0.9c0.4-0.2,0.9-0.4,1.5-0.4c1,0,1.7,0.2,2.3,0.8c0.5,0.5,0.8,1,0.8,1.6
	c0,0.9-0.4,1.6-1.4,2.2c0.6,0.1,1.1,0.4,1.4,0.8c0.4,0.4,0.6,0.9,0.6,1.5C802.2,268.2,802,269,801.3,269.6z M806.6,270.2l-0.3-7.3
	c-0.7,0.7-1.5,1.2-2.4,1.6l-0.1-1.8c0.5-0.2,1-0.5,1.6-1c0.6-0.5,1-1,1.1-1.7l1.6-0.1l0.5,10.1L806.6,270.2z"/>
<path id="p-32" d="M759.4,211l-55.9,2.5l5.4,110.4l55.9-2.1L759.4,211z M730.6,268.9c-0.3,0.3-0.7,0.4-1,0.5
	c-0.5,0.1-1.2,0.2-2.1,0.2l-1.3,0.1l0.2,3.8l-2,0.1l-0.5-10.1l3.3-0.2c1.2-0.1,2.1,0,2.4,0c0.6,0.1,1.1,0.4,1.5,0.9
	c0.4,0.5,0.6,1.1,0.7,1.9h-2.1c0-0.3-0.1-0.6-0.3-0.8c-0.2-0.2-0.5-0.4-0.8-0.4c-0.2,0-0.7,0-1.5,0l-1,0l0.1,2.9l1.1-0.1
	c0.8,0,1.3-0.1,1.6-0.2c0.3-0.1,0.5-0.3,0.6-0.5c0.1-0.2,0.2-0.4,0.2-0.7h2.1c0,0.5-0.1,1-0.3,1.4
	C731.2,268.3,730.9,268.6,730.6,268.9z M733.3,270.5l-0.1-1.9l3.8-0.2l0.1,1.9L733.3,270.5z M743.6,272c-0.6,0.7-1.4,1-2.4,1.1
	c-0.9,0-1.7-0.2-2.3-0.7c-0.6-0.5-1-1.2-1.1-2l1.9-0.3c0.1,0.5,0.3,0.8,0.5,1.1c0.3,0.2,0.6,0.4,1,0.3c0.4,0,0.7-0.2,1-0.5
	c0.3-0.3,0.4-0.7,0.4-1.2c0-0.5-0.2-0.9-0.4-1.1c-0.3-0.3-0.6-0.4-1-0.4c-0.2,0-0.5,0.1-0.9,0.2l0.1-1.6c0.5,0,0.9-0.1,1.2-0.4
	c0.3-0.3,0.4-0.6,0.4-1c0-0.3-0.1-0.6-0.3-0.8s-0.5-0.3-0.8-0.3c-0.3,0-0.6,0.1-0.8,0.4c-0.2,0.2-0.3,0.6-0.4,1l-1.8-0.2
	c0.1-0.6,0.3-1.1,0.5-1.5c0.2-0.4,0.6-0.7,1-0.9s0.9-0.4,1.5-0.4c0.9,0,1.7,0.2,2.3,0.8c0.5,0.5,0.8,1,0.8,1.6
	c0,0.9-0.4,1.6-1.4,2.2c0.6,0.1,1.1,0.4,1.4,0.8c0.4,0.4,0.6,0.9,0.6,1.5C744.5,270.5,744.2,271.3,743.6,272z M745.5,272.6
	c0-0.7,0.2-1.3,0.6-2c0.3-0.6,1-1.5,2.1-2.5c0.8-0.9,1.3-1.4,1.5-1.7c0.2-0.4,0.4-0.8,0.3-1.2c0-0.4-0.2-0.8-0.4-1
	c-0.2-0.2-0.6-0.3-1-0.3c-0.4,0-0.7,0.2-0.9,0.4c-0.2,0.3-0.3,0.7-0.4,1.2l-1.9-0.1c0.1-1.1,0.4-1.9,1-2.3c0.6-0.5,1.3-0.8,2.2-0.8
	c1,0,1.8,0.2,2.4,0.7c0.6,0.5,0.9,1.2,0.9,2c0,0.5,0,0.9-0.2,1.3c-0.1,0.4-0.4,0.9-0.7,1.3c-0.2,0.3-0.6,0.8-1.2,1.3
	c-0.6,0.6-1,1-1.1,1.2c-0.2,0.2-0.3,0.4-0.4,0.6l3.8-0.2l0.1,1.8L745.5,272.6z"/>
<path id="p-33" d="M702.3,213.5l-56.1,2.5l5.4,110l56.1-2L702.3,213.5z M673.4,271.2c-0.3,0.3-0.7,0.4-1,0.5
	c-0.5,0.1-1.2,0.2-2.1,0.2l-1.3,0.1l0.2,3.8l-2,0.1l-0.5-10.1l3.3-0.2c1.2-0.1,2.1,0,2.4,0c0.6,0.1,1.1,0.4,1.5,0.9
	c0.4,0.5,0.6,1.1,0.7,1.9c0,0.1,0,0.2,0,0.3h-2.1c0-0.1,0-0.1,0-0.2c0-0.4-0.1-0.7-0.4-0.9c-0.2-0.2-0.5-0.4-0.8-0.4
	c-0.2,0-0.7,0-1.5,0l-1,0l0.1,2.9l1.1-0.1c0.8,0,1.3-0.1,1.6-0.2c0.3-0.1,0.5-0.3,0.6-0.5c0.1-0.1,0.1-0.2,0.2-0.4h2.1
	c0,0.4-0.1,0.7-0.2,1C674,270.6,673.7,271,673.4,271.2z M676.1,272.8l-0.1-1.9l3.8-0.2l0.1,1.9L676.1,272.8z M686.4,274.3
	c-0.6,0.7-1.4,1-2.4,1c-0.9,0-1.7-0.2-2.3-0.7c-0.6-0.5-1-1.2-1.1-2l1.9-0.3c0.1,0.5,0.3,0.8,0.5,1.1c0.3,0.2,0.6,0.4,1,0.3
	c0.4,0,0.7-0.2,1-0.5c0.3-0.3,0.4-0.7,0.4-1.2c0-0.5-0.2-0.9-0.4-1.1c-0.3-0.3-0.6-0.4-1-0.4c-0.2,0-0.5,0.1-0.9,0.2l0.1-1.6
	c0.5,0,0.9-0.1,1.2-0.4c0.3-0.3,0.4-0.6,0.4-1c0-0.3-0.1-0.6-0.3-0.8c-0.2-0.2-0.5-0.3-0.8-0.3c-0.3,0-0.6,0.1-0.8,0.4
	s-0.4,0.6-0.4,1l-1.8-0.2c0.1-0.6,0.3-1.1,0.5-1.5c0.2-0.4,0.6-0.7,1-0.9c0.4-0.2,0.9-0.4,1.5-0.4c1,0,1.7,0.2,2.3,0.8
	c0.5,0.5,0.8,1,0.8,1.6c0,0.9-0.4,1.6-1.4,2.2c0.6,0.1,1.1,0.4,1.4,0.8c0.4,0.4,0.6,0.9,0.6,1.5C687.3,272.9,687,273.6,686.4,274.3z
	 M694.2,273.9c-0.6,0.7-1.4,1-2.4,1c-0.9,0-1.7-0.2-2.3-0.7c-0.6-0.5-1-1.2-1.1-2l1.9-0.3c0.1,0.5,0.3,0.8,0.5,1.1
	c0.3,0.2,0.6,0.4,1,0.3c0.4,0,0.7-0.2,1-0.5c0.3-0.3,0.4-0.7,0.4-1.2c0-0.5-0.2-0.9-0.4-1.1c-0.3-0.3-0.6-0.4-1-0.4
	c-0.2,0-0.5,0.1-0.9,0.2l0.1-1.6c0.5,0,0.9-0.1,1.2-0.4c0.3-0.3,0.4-0.6,0.4-1c0-0.3-0.1-0.6-0.3-0.8c-0.2-0.2-0.5-0.3-0.8-0.3
	c-0.3,0-0.6,0.1-0.8,0.4c-0.2,0.2-0.3,0.6-0.4,1l-1.8-0.2c0.1-0.6,0.3-1.1,0.5-1.5c0.2-0.4,0.6-0.7,1-0.9c0.4-0.2,0.9-0.4,1.5-0.4
	c1,0,1.7,0.2,2.3,0.8c0.5,0.5,0.8,1,0.8,1.6c0,0.9-0.4,1.6-1.4,2.2c0.6,0.1,1.1,0.4,1.4,0.8c0.4,0.4,0.6,0.9,0.6,1.5
	C695.1,272.5,694.8,273.3,694.2,273.9z"/>
<path id="p-34" d="M645.1,216l-56.4,2.4l5.4,109.7l56.4-2.1L645.1,216z M616.7,272.5c-0.2,0.4-0.5,0.8-0.8,1c-0.3,0.3-0.7,0.4-1,0.5
	c-0.5,0.1-1.2,0.2-2.1,0.2l-1.3,0.1l0.2,3.8l-2,0.1l-0.5-10.1l3.3-0.2c1.2-0.1,2.1,0,2.4,0c0.6,0.1,1.1,0.4,1.5,0.9
	c0.4,0.4,0.6,1,0.7,1.7h-2.1c-0.1-0.2-0.1-0.4-0.3-0.5c-0.2-0.2-0.5-0.4-0.8-0.4c-0.2,0-0.7,0-1.5,0l-1,0l0.1,2.9l1.1-0.1
	c0.8,0,1.3-0.1,1.6-0.2c0.3-0.1,0.5-0.3,0.6-0.5c0.1-0.2,0.2-0.5,0.2-0.8c0,0,0-0.1,0-0.1h2.1C617,271.5,616.9,272.1,616.7,272.5z
	 M618.6,275.2l-0.1-1.9l3.8-0.2l0.1,1.9L618.6,275.2z M628.9,276.6c-0.6,0.7-1.4,1-2.4,1c-0.9,0-1.7-0.2-2.3-0.7
	c-0.6-0.5-1-1.2-1.1-2l1.9-0.3c0.1,0.5,0.3,0.8,0.5,1.1c0.3,0.2,0.6,0.4,1,0.3c0.4,0,0.7-0.2,1-0.5c0.3-0.3,0.4-0.7,0.4-1.2
	c0-0.5-0.2-0.9-0.4-1.1c-0.3-0.3-0.6-0.4-1-0.4c-0.2,0-0.5,0.1-0.9,0.2l0.1-1.6c0.5,0,0.9-0.1,1.2-0.4c0.3-0.3,0.4-0.6,0.4-1
	c0-0.3-0.1-0.6-0.3-0.8c-0.2-0.2-0.5-0.3-0.8-0.3c-0.3,0-0.6,0.1-0.8,0.4c-0.2,0.2-0.4,0.6-0.4,1l-1.8-0.2c0.1-0.6,0.3-1.1,0.5-1.5
	c0.2-0.4,0.6-0.7,1-0.9c0.4-0.2,0.9-0.4,1.5-0.4c1,0,1.7,0.2,2.3,0.8c0.5,0.5,0.8,1,0.8,1.6c0,0.9-0.4,1.6-1.4,2.2
	c0.6,0.1,1.1,0.4,1.4,0.8c0.4,0.4,0.6,0.9,0.6,1.5C629.8,275.2,629.5,276,628.9,276.6z M636.8,277l-1.9,0.1l-0.1-2l-4.1,0.2
	l-0.1-1.7l4.1-6.6l1.6-0.1l0.2,5.1h-1.9l-0.1-2l-2.2,3.6l2.3-0.1l-0.1-1.2h1.9l0.1,1.1l1.3-0.1l0.1,1.7l-1.3,0.1L636.8,277z"/>
<path id="p-35" d="M587.6,218.5l-56.7,2.7l5.6,109.1l56.5-2.1L587.6,218.5z M554.4,275.9c-0.3,0.3-0.7,0.4-1,0.5
	c-0.5,0.1-1.2,0.2-2.1,0.2l-1.3,0.1l0.2,3.8l-2,0.1l-0.5-10.1l3.3-0.2c1.2-0.1,2.1,0,2.4,0c0.6,0.1,1.1,0.4,1.5,0.9
	c0.4,0.5,0.6,1.1,0.7,1.9h-2.1c0-0.3-0.1-0.6-0.3-0.8c-0.2-0.2-0.5-0.4-0.8-0.4c-0.2,0-0.7,0-1.5,0l-1,0l0.1,2.9l1.1-0.1
	c0.8,0,1.3-0.1,1.6-0.2c0.3-0.1,0.5-0.3,0.6-0.5c0.1-0.2,0.2-0.4,0.2-0.7h2.1c0,0.5-0.1,1-0.3,1.4
	C555,275.3,554.7,275.6,554.4,275.9z M557.1,277.5l-0.1-1.9l3.8-0.2l0.1,1.9L557.1,277.5z M567.4,278.9c-0.6,0.7-1.4,1-2.4,1
	c-0.9,0-1.7-0.2-2.3-0.7c-0.6-0.5-1-1.2-1.1-2l1.9-0.3c0.1,0.5,0.3,0.8,0.5,1.1c0.3,0.2,0.6,0.4,1,0.3c0.4,0,0.7-0.2,1-0.5
	c0.3-0.3,0.4-0.7,0.4-1.2c0-0.5-0.2-0.9-0.4-1.1c-0.3-0.3-0.6-0.4-1-0.4c-0.2,0-0.5,0.1-0.9,0.2l0.1-1.6c0.5,0,0.9-0.1,1.2-0.4
	c0.3-0.3,0.4-0.6,0.4-1c0-0.3-0.1-0.6-0.3-0.8c-0.2-0.2-0.5-0.3-0.8-0.3c-0.3,0-0.6,0.1-0.8,0.4c-0.2,0.2-0.4,0.6-0.4,1l-1.8-0.2
	c0.1-0.6,0.3-1.1,0.5-1.5c0.2-0.4,0.6-0.7,1-0.9c0.4-0.2,0.9-0.4,1.5-0.4c1,0,1.7,0.2,2.3,0.8c0.5,0.5,0.8,1,0.8,1.6
	c0,0.9-0.4,1.6-1.4,2.2c0.6,0.1,1.1,0.4,1.4,0.8c0.4,0.4,0.6,0.9,0.6,1.5C568.3,277.5,568,278.3,567.4,278.9z M575.6,278.2
	c-0.6,0.9-1.5,1.4-2.7,1.5c-0.9,0-1.7-0.2-2.3-0.6c-0.6-0.5-1-1.1-1.1-2l1.9-0.3c0.1,0.4,0.3,0.8,0.5,1c0.3,0.2,0.6,0.4,1,0.3
	c0.4,0,0.7-0.2,1-0.5c0.3-0.3,0.4-0.8,0.4-1.5c0-0.6-0.2-1.1-0.5-1.4c-0.3-0.3-0.7-0.4-1.1-0.4c-0.6,0-1,0.3-1.5,0.8l-1.6-0.2
	l0.7-5.3l5.1-0.2l0.1,1.8l-3.7,0.2l-0.2,1.7c0.4-0.2,0.9-0.4,1.3-0.4c0.9,0,1.6,0.2,2.2,0.8c0.6,0.6,1,1.4,1,2.4
	C576.3,276.7,576.1,277.5,575.6,278.2z"/>
<path id="p-36" d="M529.8,221.2l-56.5,2.5l5.3,108.7l56.8-2L529.8,221.2z M496.6,278.3c-0.3,0.3-0.7,0.4-1,0.5
	c-0.5,0.1-1.2,0.2-2.1,0.2l-1.3,0.1l0.2,3.8l-2,0.1l-0.5-10.1l3.3-0.2c1.2-0.1,2.1,0,2.4,0c0.6,0.1,1.1,0.4,1.5,0.9
	c0.4,0.5,0.6,1.1,0.7,1.9c0,0.1,0,0.1,0,0.2h-2.1c0,0,0,0,0,0c0-0.4-0.1-0.7-0.4-0.9s-0.5-0.4-0.8-0.4c-0.2,0-0.7,0-1.5,0l-1,0
	l0.1,2.9l1.1-0.1c0.8,0,1.3-0.1,1.6-0.2c0.3-0.1,0.5-0.3,0.6-0.5c0.1-0.2,0.1-0.4,0.2-0.5h2.1c0,0.5-0.1,0.9-0.2,1.2
	C497.2,277.7,496.9,278.1,496.6,278.3z M499.3,280l-0.1-1.9l3.8-0.2l0.1,1.9L499.3,280z M509.6,281.4c-0.6,0.7-1.4,1-2.4,1
	c-0.9,0-1.7-0.2-2.3-0.7c-0.6-0.5-1-1.2-1.1-2l1.9-0.3c0.1,0.5,0.3,0.8,0.5,1.1c0.3,0.2,0.6,0.3,1,0.3c0.4,0,0.7-0.2,1-0.5
	c0.3-0.3,0.4-0.7,0.4-1.2c0-0.5-0.2-0.9-0.4-1.1c-0.3-0.3-0.6-0.4-1-0.4c-0.2,0-0.5,0.1-0.9,0.2l0.1-1.6c0.5,0,0.9-0.1,1.2-0.4
	c0.3-0.3,0.4-0.6,0.4-1c0-0.3-0.1-0.6-0.3-0.8s-0.5-0.3-0.8-0.3c-0.3,0-0.6,0.1-0.8,0.4c-0.2,0.2-0.4,0.6-0.4,1l-1.8-0.2
	c0.1-0.6,0.3-1.1,0.5-1.5c0.2-0.4,0.6-0.7,1-0.9c0.4-0.2,0.9-0.4,1.5-0.4c1,0,1.7,0.2,2.3,0.8c0.5,0.5,0.8,1,0.8,1.6
	c0,0.9-0.4,1.6-1.4,2.2c0.6,0.1,1.1,0.4,1.4,0.8c0.4,0.4,0.6,0.9,0.6,1.5C510.5,280,510.2,280.8,509.6,281.4z M515.3,282.1
	c-1,0-1.9-0.3-2.6-1.1c-0.7-0.8-1.1-2-1.2-3.8c-0.1-1.9,0.2-3.2,0.8-4.1c0.6-0.8,1.5-1.3,2.6-1.3c0.8,0,1.4,0.1,1.9,0.6
	c0.5,0.4,0.9,1,1,1.8l-1.9,0.3c-0.1-0.4-0.2-0.7-0.4-0.8c-0.2-0.2-0.5-0.3-0.8-0.2c-0.4,0-0.7,0.2-1,0.6c-0.3,0.4-0.4,1.2-0.4,2.3
	c0.5-0.6,1-0.9,1.8-0.9c0.8,0,1.5,0.2,2.1,0.8c0.6,0.6,0.9,1.4,1,2.3c0,0.1,0,0.2,0,0.3h-1.9c0-0.1,0-0.1,0-0.2
	c0-0.7-0.2-1.1-0.5-1.4c-0.3-0.3-0.6-0.4-1-0.4c-0.4,0-0.7,0.2-0.9,0.5c-0.2,0.3-0.4,0.7-0.3,1.3c0,0.6,0.2,1.1,0.5,1.4
	c0.3,0.3,0.6,0.5,1,0.5c0.4,0,0.7-0.2,0.9-0.5c0.2-0.2,0.2-0.6,0.3-1h1.9c0,0.8-0.3,1.5-0.8,2C517,281.7,516.3,282,515.3,282.1z"/>
<path id="p-37" d="M472.1,223.7l-56.9,2.5l5.2,108.3l56.9-2.1L472.1,223.7z M438.8,280.7c-0.3,0.3-0.7,0.4-1,0.5
	c-0.5,0.1-1.2,0.2-2.1,0.2l-1.3,0.1l0.2,3.8l-2,0.1l-0.5-10.1l3.3-0.2c1.2-0.1,2.1,0,2.4,0c0.6,0.1,1.1,0.4,1.5,0.9
	c0.4,0.5,0.6,1.1,0.7,1.9h-2.1c0-0.3-0.1-0.6-0.3-0.8c-0.2-0.2-0.5-0.4-0.8-0.4c-0.2,0-0.7,0-1.5,0l-1,0l0.1,2.9l1.1-0.1
	c0.8,0,1.3-0.1,1.6-0.2c0.3-0.1,0.5-0.3,0.6-0.5c0.1-0.2,0.2-0.4,0.2-0.7h2.1c0,0.5-0.1,1-0.3,1.4
	C439.4,280.1,439.2,280.4,438.8,280.7z M441.5,282.3l-0.1-1.9l3.8-0.2l0.1,1.9L441.5,282.3z M451.8,283.7c-0.6,0.7-1.4,1-2.4,1.1
	c-0.9,0-1.7-0.2-2.3-0.7c-0.6-0.5-1-1.2-1.1-2l1.9-0.3c0.1,0.5,0.3,0.8,0.5,1.1c0.3,0.2,0.6,0.3,1,0.3c0.4,0,0.7-0.2,1-0.5
	c0.3-0.3,0.4-0.7,0.4-1.2c0-0.5-0.2-0.9-0.4-1.1c-0.3-0.3-0.6-0.4-1-0.4c-0.2,0-0.5,0.1-0.9,0.2l0.1-1.6c0.5,0,0.9-0.1,1.2-0.4
	c0.3-0.3,0.4-0.6,0.4-1c0-0.3-0.1-0.6-0.3-0.8c-0.2-0.2-0.5-0.3-0.8-0.3c-0.3,0-0.6,0.1-0.8,0.4c-0.2,0.2-0.3,0.6-0.4,1l-1.8-0.2
	c0.1-0.6,0.3-1.1,0.5-1.5c0.2-0.4,0.6-0.7,1-0.9c0.4-0.2,0.9-0.4,1.5-0.4c1,0,1.7,0.2,2.3,0.8c0.5,0.5,0.8,1,0.8,1.6
	c0,0.9-0.4,1.6-1.4,2.2c0.6,0.1,1.1,0.4,1.4,0.8c0.4,0.4,0.6,0.9,0.6,1.5C452.7,282.3,452.4,283.1,451.8,283.7z M458.7,277.9
	c-0.5,1-0.9,2.1-1.1,3.3c-0.2,1.1-0.3,2.2-0.3,3.1l-1.9,0.1c0-1.4,0.2-2.8,0.7-4.3c0.5-1.5,1.1-2.8,2-4l-4.4,0.2l-0.1-1.8l6.6-0.3
	l0.1,1.4C459.7,276.1,459.2,276.9,458.7,277.9z"/>
<path id="p-38" d="M414.1,226.3l-57.2,2.6l5.4,107.9l57.1-2.1L414.1,226.3z M381.4,282c-0.2,0.4-0.5,0.8-0.8,1
	c-0.3,0.3-0.7,0.4-1,0.5c-0.5,0.1-1.2,0.2-2.1,0.2l-1.3,0.1l0.2,3.8l-2,0.1l-0.5-10.1l3.3-0.2c1.2-0.1,2.1,0,2.4,0
	c0.6,0.1,1.1,0.4,1.5,0.9c0.3,0.4,0.5,0.9,0.6,1.4h-2.2c-0.1-0.1-0.1-0.2-0.2-0.3c-0.2-0.2-0.5-0.4-0.8-0.4c-0.2,0-0.7,0-1.5,0l-1,0
	l0.1,2.9l1.1-0.1c0.8,0,1.3-0.1,1.6-0.2c0.3-0.1,0.5-0.3,0.6-0.5c0.1-0.2,0.2-0.5,0.2-0.8c0-0.1,0-0.3-0.1-0.4h2.2
	c0,0.1,0,0.2,0,0.3C381.7,281,381.6,281.5,381.4,282z M383.3,284.6l-0.1-1.9l3.8-0.2l0.1,1.9L383.3,284.6z M393.6,286.1
	c-0.6,0.7-1.4,1-2.4,1c-0.9,0-1.7-0.2-2.3-0.7c-0.6-0.5-1-1.2-1.1-2l1.9-0.3c0.1,0.5,0.3,0.8,0.5,1.1c0.3,0.2,0.6,0.4,1,0.3
	c0.4,0,0.7-0.2,1-0.5c0.3-0.3,0.4-0.7,0.4-1.2c0-0.5-0.2-0.9-0.4-1.1c-0.3-0.3-0.6-0.4-1-0.4c-0.2,0-0.5,0.1-0.9,0.2l0.1-1.6
	c0.5,0,0.9-0.1,1.2-0.4c0.3-0.3,0.4-0.6,0.4-1c0-0.3-0.1-0.6-0.3-0.8s-0.5-0.3-0.8-0.3c-0.3,0-0.6,0.1-0.8,0.4
	c-0.2,0.2-0.3,0.6-0.4,1l-1.8-0.2c0.1-0.6,0.3-1.1,0.5-1.5c0.2-0.4,0.6-0.7,1-0.9c0.4-0.2,0.9-0.4,1.5-0.4c1,0,1.7,0.2,2.3,0.8
	c0.5,0.5,0.8,1,0.8,1.6c0,0.9-0.4,1.6-1.4,2.2c0.6,0.1,1.1,0.4,1.4,0.8c0.4,0.4,0.6,0.9,0.6,1.5
	C394.5,284.7,394.2,285.4,393.6,286.1z M399.1,286.8c-0.9,0-1.7-0.2-2.3-0.6c-0.7-0.5-1.1-1.3-1.2-2.3c0-0.5,0.1-1.1,0.3-1.5
	c0.2-0.5,0.7-0.8,1.2-1.1c-0.5-0.2-0.9-0.5-1.1-0.8c-0.2-0.4-0.4-0.8-0.4-1.2c0-0.8,0.2-1.4,0.7-1.9c0.5-0.5,1.2-0.8,2.2-0.8
	c1,0,1.7,0.2,2.3,0.6c0.6,0.5,0.8,1.1,0.9,1.8h-1.9c0-0.3-0.1-0.5-0.3-0.6c-0.2-0.2-0.5-0.3-0.9-0.3c-0.4,0-0.7,0.1-0.9,0.4
	c-0.2,0.2-0.3,0.5-0.3,0.9c0,0.4,0.1,0.7,0.4,0.9c0.2,0.2,0.5,0.3,0.9,0.3c0.4,0,0.7-0.1,0.9-0.4c0.2-0.2,0.3-0.5,0.3-0.9h1.8
	c0,0.4-0.1,0.7-0.3,1c-0.2,0.4-0.6,0.7-1,0.9c0.6,0.2,1,0.5,1.3,0.9c0.3,0.4,0.5,0.9,0.5,1.5h-1.9c0-0.5-0.2-0.8-0.5-1.1
	c-0.3-0.3-0.6-0.4-1-0.4c-0.5,0-0.8,0.2-1,0.5c-0.2,0.3-0.3,0.7-0.3,1.1c0,0.5,0.2,0.9,0.5,1.2c0.3,0.3,0.6,0.4,1,0.4
	c0.4,0,0.7-0.2,1-0.5c0.2-0.3,0.3-0.6,0.3-1.1h1.9c0,0.8-0.3,1.5-0.8,2.1C400.9,286.4,400.1,286.7,399.1,286.8z"/>
<path id="p-39" d="M355.7,228.9l-57.3,2.6l5.3,107.4l57.4-2.1L355.7,228.9z M323,284.3c-0.2,0.4-0.5,0.8-0.8,1s-0.7,0.4-1,0.5
	c-0.5,0.1-1.2,0.2-2.1,0.2l-1.3,0.1l0.2,3.8l-2,0.1l-0.5-10.1l3.3-0.2c1.2-0.1,2.1,0,2.4,0c0.6,0.1,1.1,0.4,1.5,0.9
	c0.3,0.3,0.4,0.7,0.6,1.1h-2.4c-0.2-0.2-0.5-0.3-0.8-0.4c-0.2,0-0.7,0-1.5,0l-1,0l0.1,2.9l1.1-0.1c0.8,0,1.3-0.1,1.6-0.2
	c0.3-0.1,0.5-0.3,0.6-0.5c0.1-0.2,0.2-0.5,0.2-0.8c0-0.3-0.1-0.5-0.2-0.7h2.3c0,0.2,0.1,0.4,0.1,0.6
	C323.3,283.3,323.2,283.9,323,284.3z M324.9,287l-0.1-1.9l3.8-0.2l0.1,1.9L324.9,287z M335.2,288.4c-0.6,0.7-1.4,1-2.4,1
	c-0.9,0-1.7-0.2-2.3-0.7c-0.6-0.5-1-1.2-1.1-2l1.9-0.3c0.1,0.5,0.3,0.8,0.5,1.1c0.3,0.2,0.6,0.4,1,0.3c0.4,0,0.7-0.2,1-0.5
	c0.3-0.3,0.4-0.7,0.4-1.2c0-0.5-0.2-0.9-0.4-1.1c-0.3-0.3-0.6-0.4-1-0.4c-0.2,0-0.5,0.1-0.9,0.2l0.1-1.6c0.5,0,0.9-0.1,1.2-0.4
	c0.3-0.3,0.4-0.6,0.4-1c0-0.3-0.1-0.6-0.3-0.8c-0.2-0.2-0.5-0.3-0.8-0.3c-0.3,0-0.6,0.1-0.8,0.4c-0.2,0.2-0.4,0.6-0.4,1l-1.8-0.2
	c0.1-0.6,0.3-1.1,0.5-1.5c0.2-0.4,0.6-0.7,1-0.9c0.4-0.2,0.9-0.4,1.5-0.4c1,0,1.7,0.2,2.3,0.8c0.5,0.5,0.8,1,0.8,1.6
	c0,0.9-0.4,1.6-1.4,2.2c0.6,0.1,1.1,0.4,1.4,0.8c0.4,0.4,0.6,0.9,0.6,1.5C336.1,287,335.8,287.8,335.2,288.4z M342.9,287.8
	c-0.6,0.8-1.5,1.3-2.6,1.4c-0.8,0-1.4-0.1-1.9-0.5c-0.5-0.4-0.8-1-1-1.8l1.9-0.3c0.1,0.4,0.2,0.7,0.4,0.8c0.2,0.2,0.5,0.3,0.8,0.2
	c0.4,0,0.7-0.2,1-0.6c0.3-0.4,0.4-1.2,0.4-2.3c-0.5,0.6-1.1,0.9-1.8,0.9c-0.8,0-1.5-0.2-2.1-0.8c-0.6-0.6-0.9-1.4-1-2.4
	c0-1,0.2-1.9,0.8-2.5c0.6-0.7,1.3-1,2.3-1c1,0,1.9,0.3,2.6,1.1c0.4,0.5,0.7,1.2,0.9,2.1h-2.1c-0.1-0.4-0.2-0.8-0.4-1
	c-0.3-0.3-0.6-0.5-1-0.5c-0.4,0-0.6,0.2-0.9,0.5c-0.2,0.3-0.3,0.8-0.3,1.4c0,0.7,0.2,1.1,0.5,1.4c0.3,0.3,0.6,0.4,1,0.4
	c0.4,0,0.7-0.2,0.9-0.5c0.2-0.3,0.3-0.7,0.3-1.3c0-0.1,0-0.1,0-0.2h2.1c0.1,0.5,0.2,1,0.2,1.6C343.9,285.6,343.6,286.9,342.9,287.8z
	"/>
<path id="p-40" d="M297.2,231.5l-57.5,2.6l5.2,107l57.6-2.1L297.2,231.5z M264.4,286.8c-0.2,0.4-0.5,0.8-0.8,1
	c-0.3,0.3-0.7,0.4-1,0.5c-0.5,0.1-1.2,0.2-2.1,0.2l-1.3,0.1l0.2,3.8l-2,0.1l-0.5-10.1l3.3-0.2c1.2-0.1,2.1,0,2.4,0
	c0.6,0.1,1.1,0.4,1.5,0.9c0.4,0.4,0.6,1,0.7,1.7h-2.1c-0.1-0.2-0.1-0.4-0.3-0.6c-0.2-0.2-0.5-0.4-0.8-0.4c-0.2,0-0.7,0-1.5,0l-1,0
	l0.1,2.9l1.1-0.1c0.8,0,1.3-0.1,1.6-0.2c0.3-0.1,0.5-0.3,0.6-0.5c0.1-0.2,0.2-0.5,0.2-0.8c0,0,0-0.1,0-0.1h2.1
	C264.7,285.8,264.6,286.3,264.4,286.8z M266.3,289.4l-0.1-1.9l3.8-0.2l0.1,1.9L266.3,289.4z M276.6,291.6l-1.9,0.1l-0.1-2l-4.1,0.2
	l-0.1-1.7l4.1-6.6l1.6-0.1l0.3,5.4h-1.9l-0.1-2.3l-2.2,3.6l2.3-0.1l0-0.9h1.9l0,0.8l1.3-0.1l0.1,1.7l-1.3,0.1L276.6,291.6z
	 M284.3,290.4c-0.5,0.7-1.3,1.1-2.2,1.1c-1,0-1.8-0.3-2.4-1c-0.6-0.7-1-2.1-1.1-4c-0.1-1.9,0.2-3.3,0.8-4.2c0.5-0.7,1.3-1.1,2.2-1.1
	c1,0,1.8,0.3,2.3,0.9c0.7,0.8,1,2.1,1.2,3.9h-2c-0.1-1-0.1-1.7-0.3-2.1c-0.1-0.4-0.3-0.7-0.5-0.9c-0.2-0.1-0.4-0.2-0.6-0.2
	c-0.2,0-0.4,0.1-0.6,0.3c-0.2,0.2-0.3,0.4-0.4,0.8c-0.1,0.5-0.1,1.4-0.1,2.5s0.2,2,0.3,2.4c0.1,0.4,0.3,0.7,0.5,0.9
	c0.2,0.1,0.4,0.2,0.6,0.2c0.2,0,0.4-0.1,0.6-0.3c0.2-0.2,0.3-0.4,0.4-0.8c0.1-0.5,0.1-1.3,0.1-2.5c0,0,0-0.1,0-0.1h2
	C285.2,288.2,284.9,289.6,284.3,290.4z"/>
<path id="p-41" d="M238.6,234.2l-57.8,2.6l5.2,106.5l57.8-2.1C244.4,339.5,238.6,234.2,238.6,234.2z M205.6,290.1
	c-0.3,0.3-0.7,0.4-1,0.5c-0.5,0.1-1.2,0.2-2.1,0.2l-1.3,0.1l0.2,3.8l-2,0.1l-0.5-10.1l3.3-0.2c1.2-0.1,2.1,0,2.4,0
	c0.6,0.1,1.1,0.4,1.5,0.9c0.4,0.5,0.6,1.1,0.7,1.9c0,0.2,0,0.3,0,0.4h-2.1c0-0.1,0-0.2,0-0.3c0-0.4-0.1-0.7-0.4-0.9
	c-0.2-0.2-0.5-0.4-0.8-0.4c-0.2,0-0.7,0-1.5,0l-1,0l0.1,2.9l1.1-0.1c0.8,0,1.3-0.1,1.6-0.2c0.3-0.1,0.5-0.3,0.6-0.5
	c0.1-0.1,0.1-0.2,0.1-0.3h2.1c0,0.3-0.1,0.7-0.2,0.9C206.2,289.5,205.9,289.9,205.6,290.1z M208.3,291.8l-0.1-1.9l3.8-0.2l0.1,1.9
	L208.3,291.8z M218.6,294l-1.9,0.1l-0.1-2l-4.1,0.2l-0.1-1.7l4.1-6.6l1.6-0.1l0.2,5.3h-1.9l-0.1-2.3l-2.2,3.6l2.3-0.1l0-1h1.9l0,0.9
	l1.3-0.1l0.1,1.7l-1.3,0.1L218.6,294z M223.8,293.7l-0.3-7.3c-0.7,0.7-1.5,1.2-2.4,1.6l-0.1-1.8c0.5-0.2,1-0.5,1.6-1
	c0.6-0.5,1-1,1.1-1.7l1.6-0.1l0.5,10.1L223.8,293.7z"/>
<path id="p-42" d="M179.5,236.8l-31,1.4l-10.3,9.3l-9.8,69.5l-9-0.4l-4.1,29.4l69.5-2.6L179.5,236.8z M145.3,294.6
	c-0.3,0.3-0.7,0.4-1,0.5c-0.5,0.1-1.2,0.2-2.1,0.2l-1.3,0.1l0.2,3.8l-2,0.1l-0.5-10.1l3.3-0.2c1.2-0.1,2.1,0,2.4,0
	c0.6,0.1,1.1,0.4,1.5,0.9c0.4,0.5,0.6,1.1,0.7,1.9h-2.1c0-0.3-0.1-0.6-0.3-0.8c-0.2-0.2-0.5-0.4-0.8-0.4c-0.2,0-0.7,0-1.5,0l-1,0
	l0.1,2.9l1.1-0.1c0.8,0,1.3-0.1,1.6-0.2c0.3-0.1,0.5-0.3,0.6-0.5c0.1-0.2,0.2-0.4,0.2-0.7h2.1c0,0.5-0.1,1-0.3,1.4
	C145.9,294,145.6,294.4,145.3,294.6z M148,296.2l-0.1-1.9l3.8-0.2l0.1,1.9L148,296.2z M158.3,298.5l-1.9,0.1l-0.1-2l-4.1,0.2
	l-0.1-1.7l4.1-6.6l1.6-0.1l0.3,5.8h-1.9l-0.1-2.7l-2.2,3.6l2.3-0.1l0-0.5h1.9l0,0.4l1.3-0.1l0.1,1.7l-1.3,0.1L158.3,298.5z
	 M160.3,298.4c0-0.7,0.2-1.3,0.6-2c0.3-0.6,1-1.5,2.1-2.5c0.8-0.9,1.3-1.4,1.5-1.7c0.2-0.4,0.4-0.8,0.3-1.2c0-0.4-0.2-0.8-0.4-1
	c-0.2-0.2-0.6-0.3-1-0.3c-0.4,0-0.7,0.2-0.9,0.4c-0.2,0.3-0.3,0.7-0.4,1.2l-1.9-0.1c0.1-1.1,0.4-1.9,1-2.3c0.6-0.5,1.3-0.8,2.2-0.8
	c1,0,1.8,0.2,2.4,0.7c0.6,0.5,0.9,1.2,0.9,2c0,0.5,0,0.9-0.2,1.3c-0.1,0.4-0.4,0.9-0.7,1.3c-0.2,0.3-0.6,0.8-1.2,1.3
	c-0.6,0.6-1,1-1.1,1.2c-0.2,0.2-0.3,0.4-0.4,0.6l3.8-0.2l0.1,1.8L160.3,298.4z"/>
<path id="p-64" d="M280.4,126.1l-114.1,5.1l-11.8,9.1l-5.8,37.8l133.9-7.3L280.4,126.1z M207.6,150.8c-0.3,0.3-0.7,0.4-1,0.5
	c-0.5,0.1-1.2,0.2-2.1,0.2l-1.3,0.1l0.2,3.8l-2.1,0.1l-0.5-10.2l3.3-0.2c1.3-0.1,2.1,0,2.5,0c0.6,0.1,1.1,0.4,1.5,0.9
	c0.4,0.5,0.6,1.1,0.7,2c0,0.2,0,0.4,0,0.6h-2.1c0-0.1,0.1-0.3,0-0.4c0-0.4-0.1-0.7-0.4-0.9c-0.2-0.2-0.5-0.4-0.8-0.4
	c-0.2,0-0.7,0-1.5,0l-1,0l0.1,2.9l1.1-0.1c0.8,0,1.4-0.1,1.6-0.2c0.3-0.1,0.5-0.3,0.6-0.5c0,0,0-0.1,0.1-0.1h2.2
	c0,0.3-0.1,0.6-0.2,0.8C208.2,150.1,207.9,150.5,207.6,150.8z M210.3,152.4l-0.1-2l3.8-0.2l0.1,2L210.3,152.4z M220.9,153.9
	c-0.6,0.7-1.4,1-2.3,1.1c-1,0-1.9-0.3-2.6-1.1c-0.7-0.8-1.1-2.1-1.2-3.9c-0.1-1.9,0.2-3.2,0.8-4.1c0.7-0.9,1.5-1.3,2.6-1.4
	c0.8,0,1.4,0.2,2,0.6c0.5,0.4,0.9,1,1.1,1.8l-1.9,0.3c-0.1-0.4-0.2-0.7-0.4-0.8c-0.2-0.2-0.5-0.3-0.8-0.2c-0.4,0-0.8,0.2-1,0.6
	c-0.3,0.4-0.4,1.2-0.4,2.3c0.5-0.6,1.1-0.9,1.8-0.9c0.8,0,1.5,0.2,2.1,0.8c0.3,0.3,0.5,0.6,0.7,1h-2.2c-0.3-0.2-0.5-0.4-0.9-0.3
	c-0.4,0-0.7,0.2-0.9,0.5c-0.2,0.3-0.4,0.7-0.3,1.3c0,0.6,0.2,1.1,0.5,1.5c0.3,0.3,0.7,0.5,1,0.5c0.4,0,0.7-0.2,0.9-0.5
	c0.2-0.3,0.3-0.8,0.3-1.4c0-0.6-0.1-1-0.4-1.3h2c0.1,0.4,0.2,0.8,0.2,1.2C221.7,152.3,221.5,153.2,220.9,153.9z M228.7,154.3
	l-1.9,0.1l-0.1-2.1l-4.2,0.2l-0.1-1.7l4.1-6.7l1.6-0.1l0.3,5.9h-1.9l-0.1-2.8l-2.2,3.6l2.3-0.1l0-0.5h1.9l0,0.4l1.3-0.1l0.1,1.7
	l-1.3,0.1L228.7,154.3z"/>
<path id="p-43" d="M282.6,172.3l-133.9,7.3l-6,39.4l7.8,8.6l134.5-6L282.6,172.3z M204.7,206.4c-0.3,0.3-0.7,0.4-1,0.5
	c-0.5,0.1-1.2,0.2-2.1,0.2l-1.3,0.1l0.2,3.8l-2.1,0.1l-0.5-10.2l3.3-0.2c1.3-0.1,2.1,0,2.5,0c0.6,0.1,1.1,0.4,1.5,0.9
	c0.4,0.5,0.6,1.1,0.7,2c0,0.2,0,0.3,0,0.4h-2.1c0-0.1,0-0.2,0-0.3c0-0.4-0.1-0.7-0.4-0.9c-0.2-0.2-0.5-0.4-0.8-0.4
	c-0.2,0-0.7,0-1.5,0l-1,0l0.1,2.9l1.1-0.1c0.8,0,1.4-0.1,1.6-0.2c0.3-0.1,0.5-0.3,0.6-0.5c0.1-0.1,0.1-0.2,0.1-0.3h2.2
	c0,0.3-0.1,0.7-0.2,0.9C205.3,205.8,205,206.1,204.7,206.4z M207.4,208l-0.1-2l3.8-0.2l0.1,2L207.4,208z M217.8,210.3l-1.9,0.1
	l-0.1-2.1l-4.2,0.2l-0.1-1.7l4.1-6.7l1.6-0.1l0.3,5.4h-1.9l-0.1-2.3l-2.2,3.6l2.3-0.1l0-1h1.9l0,0.9l1.3-0.1l0.1,1.7l-1.3,0.1
	L217.8,210.3z M225.7,209.1c-0.6,0.7-1.4,1-2.4,1.1c-0.9,0-1.7-0.2-2.3-0.7c-0.6-0.5-1-1.2-1.2-2l1.9-0.3c0.1,0.5,0.3,0.8,0.5,1.1
	c0.3,0.2,0.6,0.4,1,0.3c0.4,0,0.7-0.2,1-0.5c0.3-0.3,0.4-0.7,0.4-1.3c0-0.5-0.2-0.9-0.5-1.2c-0.3-0.3-0.6-0.4-1-0.4
	c-0.3,0-0.5,0.1-0.9,0.2l0.1-1.6c0.5,0,0.9-0.1,1.2-0.4c0.3-0.3,0.4-0.6,0.4-1c0-0.3-0.1-0.6-0.3-0.8c-0.2-0.2-0.5-0.3-0.8-0.3
	c-0.3,0-0.6,0.1-0.8,0.4c-0.2,0.2-0.4,0.6-0.4,1l-1.8-0.2c0.1-0.6,0.3-1.1,0.5-1.5c0.2-0.4,0.6-0.7,1-0.9c0.4-0.2,0.9-0.4,1.5-0.4
	c1,0,1.7,0.2,2.4,0.8c0.5,0.5,0.8,1,0.8,1.7c0,0.9-0.4,1.6-1.4,2.2c0.6,0.1,1.1,0.4,1.4,0.8c0.4,0.4,0.6,0.9,0.6,1.6
	C226.6,207.7,226.4,208.5,225.7,209.1z"/>
<path id="p-44" d="M405.8,166.9l-121.9,5.3l2.4,49.4l123.4-5L405.8,166.9z M338.5,200.2c-0.3,0.3-0.7,0.4-1,0.5
	c-0.5,0.1-1.2,0.2-2.1,0.2l-1.3,0.1l0.2,3.8l-2.1,0.1l-0.5-10.2l3.3-0.2c1.3-0.1,2.1,0,2.5,0c0.6,0.1,1.1,0.4,1.5,0.9
	c0.4,0.5,0.6,1.1,0.7,2c0,0.2,0,0.4,0,0.6h-2.2c0-0.2,0.1-0.3,0.1-0.5c0-0.4-0.1-0.7-0.4-0.9c-0.2-0.2-0.5-0.4-0.8-0.4
	c-0.2,0-0.7,0-1.5,0l-1,0l0.1,2.9l1.1-0.1c0.8,0,1.4-0.1,1.6-0.2c0.3-0.1,0.5-0.3,0.6-0.5c0,0,0-0.1,0-0.1h2.2
	c0,0.3-0.1,0.5-0.2,0.8C339.1,199.5,338.8,199.9,338.5,200.2z M341.2,201.8l-0.1-2l3.8-0.2l0.1,2L341.2,201.8z M351.6,204l-1.9,0.1
	l-0.1-2.1l-4.2,0.2l-0.1-1.7l4.1-6.7l1.6-0.1l0.3,5.6h-1.9l-0.1-2.5l-2.2,3.6l2.3-0.1l0-0.8h1.9l0,0.7l1.3-0.1l0.1,1.7l-1.3,0.1
	L351.6,204z M359.5,203.7l-1.9,0.1l-0.1-2.1l-4.2,0.2l-0.1-1.7l4.1-6.7l1.6-0.1l0.3,5.9h-1.9l-0.1-2.8l-2.2,3.6l2.3-0.1l0-0.4h1.9
	l0,0.3l1.3-0.1l0.1,1.7l-1.3,0.1L359.5,203.7z"/>
<path id="p-63" d="M403.6,120.6l-122,5.4l2.2,44.7l121.9-5.3L403.6,120.6z M336,144.8c-0.3,0.3-0.7,0.4-1,0.5
	c-0.5,0.1-1.2,0.2-2.1,0.2l-1.3,0.1l0.2,3.8l-2.1,0.1l-0.5-10.2l3.3-0.2c1.3-0.1,2.1,0,2.5,0c0.6,0.1,1.1,0.4,1.5,0.9
	c0.4,0.5,0.6,1.1,0.7,2c0,0.1,0,0.1,0,0.2h-2.1c0,0,0,0,0,0c0-0.4-0.1-0.7-0.4-0.9c-0.2-0.2-0.5-0.4-0.8-0.4c-0.2,0-0.7,0-1.5,0
	l-1,0l0.1,2.9l1.1-0.1c0.8,0,1.4-0.1,1.6-0.2c0.3-0.1,0.5-0.3,0.6-0.5c0.1-0.2,0.2-0.4,0.2-0.6h2.1c0,0.5-0.1,0.9-0.2,1.2
	C336.6,144.2,336.3,144.5,336,144.8z M338.7,146.4l-0.1-2l3.8-0.2l0.1,2L338.7,146.4z M349.3,147.9c-0.6,0.7-1.4,1-2.3,1.1
	c-1,0-1.9-0.3-2.6-1.1c-0.7-0.8-1.1-2.1-1.2-3.9c-0.1-1.9,0.2-3.2,0.8-4.1c0.7-0.9,1.5-1.3,2.6-1.4c0.8,0,1.4,0.2,2,0.6
	c0.5,0.4,0.9,1,1.1,1.8l-1.9,0.3c-0.1-0.4-0.2-0.7-0.4-0.8c-0.2-0.2-0.5-0.3-0.8-0.2c-0.4,0-0.8,0.2-1,0.6c-0.3,0.4-0.4,1.2-0.4,2.3
	c0.5-0.6,1.1-0.9,1.8-0.9c0.8,0,1.5,0.2,2.1,0.8c0.5,0.4,0.7,1,0.9,1.6h-2c-0.1-0.2-0.2-0.4-0.3-0.6c-0.3-0.3-0.6-0.4-1-0.4
	c-0.4,0-0.7,0.2-0.9,0.5c-0.2,0.3-0.4,0.7-0.3,1.3c0,0.6,0.2,1.1,0.5,1.5c0.3,0.3,0.7,0.5,1,0.5c0.4,0,0.7-0.2,0.9-0.5
	c0.2-0.3,0.3-0.8,0.3-1.4c0-0.2,0-0.4-0.1-0.6h1.9c0,0.2,0.1,0.3,0.1,0.5C350.1,146.4,349.8,147.2,349.3,147.9z M357,147.5
	c-0.6,0.7-1.4,1-2.4,1.1c-0.9,0-1.7-0.2-2.3-0.7c-0.6-0.5-1-1.2-1.2-2l1.9-0.3c0.1,0.5,0.3,0.8,0.5,1.1c0.3,0.2,0.6,0.4,1,0.3
	c0.4,0,0.7-0.2,1-0.5c0.3-0.3,0.4-0.7,0.4-1.3c0-0.5-0.2-0.9-0.5-1.2c-0.3-0.3-0.6-0.4-1-0.4c-0.3,0-0.5,0.1-0.9,0.2l0.1-1.6
	c0.5,0,0.9-0.1,1.2-0.4c0.3-0.3,0.4-0.6,0.4-1c0-0.3-0.1-0.6-0.3-0.8c-0.2-0.2-0.5-0.3-0.8-0.3c-0.3,0-0.6,0.1-0.8,0.4
	c-0.2,0.2-0.4,0.6-0.4,1L351,141c0.1-0.6,0.3-1.1,0.5-1.5c0.2-0.4,0.6-0.7,1-0.9c0.4-0.2,0.9-0.4,1.5-0.4c1,0,1.7,0.2,2.4,0.8
	c0.5,0.5,0.8,1,0.8,1.7c0,0.9-0.4,1.6-1.4,2.2c0.6,0.1,1.1,0.4,1.4,0.8c0.4,0.4,0.6,0.9,0.6,1.6C357.9,146.1,357.6,146.9,357,147.5z
	"/>
<path id="p-62" d="M526.8,115.1l-121.9,5.4l2.2,44.8l122.1-5.5L526.8,115.1z M463.3,139.3c-0.3,0.3-0.7,0.4-1,0.5
	c-0.5,0.1-1.2,0.2-2.1,0.2l-1.3,0.1l0.2,3.8l-2.1,0.1l-0.5-10.2l3.3-0.2c1.3-0.1,2.1,0,2.5,0c0.6,0.1,1.1,0.4,1.5,0.9
	c0.4,0.5,0.6,1.1,0.7,2h-2.1c0-0.3-0.1-0.6-0.3-0.8c-0.2-0.2-0.5-0.4-0.8-0.4c-0.2,0-0.7,0-1.5,0l-1,0l0.1,2.9l1.1-0.1
	c0.8,0,1.4-0.1,1.6-0.2c0.3-0.1,0.5-0.3,0.6-0.5c0.1-0.2,0.2-0.4,0.2-0.7h2.1c0,0.5-0.1,1-0.3,1.4
	C463.9,138.6,463.6,139,463.3,139.3z M466,140.9l-0.1-2l3.8-0.2l0.1,2L466,140.9z M476.6,142.3c-0.6,0.7-1.4,1-2.3,1.1
	c-1,0-1.9-0.3-2.6-1.1c-0.7-0.8-1.1-2.1-1.2-3.9c-0.1-1.9,0.2-3.2,0.8-4.1c0.7-0.9,1.5-1.3,2.6-1.4c0.8,0,1.4,0.2,2,0.6
	c0.5,0.4,0.9,1,1.1,1.8l-1.9,0.3c-0.1-0.4-0.2-0.7-0.4-0.8c-0.2-0.2-0.5-0.3-0.8-0.2c-0.4,0-0.8,0.2-1,0.6c-0.3,0.4-0.4,1.2-0.4,2.3
	c0.5-0.6,1.1-0.9,1.8-0.9c0.8,0,1.5,0.2,2.1,0.8c0.4,0.4,0.7,1,0.9,1.6h-2c-0.1-0.2-0.2-0.4-0.3-0.6c-0.3-0.3-0.6-0.4-1-0.4
	c-0.4,0-0.7,0.2-0.9,0.5c-0.2,0.3-0.4,0.7-0.3,1.3c0,0.6,0.2,1.1,0.5,1.5c0.3,0.3,0.7,0.5,1,0.5c0.4,0,0.7-0.2,0.9-0.5
	c0.2-0.3,0.3-0.8,0.3-1.4c0-0.3,0-0.5-0.1-0.7h1.9c0,0.2,0.1,0.4,0.1,0.6C477.4,140.8,477.2,141.7,476.6,142.3z M478.4,143
	c0-0.7,0.2-1.4,0.6-2c0.3-0.6,1-1.5,2.1-2.5c0.8-0.9,1.4-1.4,1.5-1.7c0.3-0.4,0.4-0.8,0.3-1.2c0-0.4-0.2-0.8-0.4-1
	c-0.2-0.2-0.6-0.3-1-0.3c-0.4,0-0.7,0.2-1,0.4c-0.2,0.3-0.4,0.7-0.4,1.2l-2-0.1c0.1-1.1,0.4-1.9,1-2.4c0.6-0.5,1.3-0.8,2.3-0.8
	c1,0,1.8,0.2,2.4,0.7c0.6,0.5,0.9,1.2,1,2c0,0.5,0,0.9-0.2,1.3c-0.1,0.4-0.4,0.9-0.7,1.3c-0.2,0.3-0.6,0.8-1.2,1.4
	c-0.6,0.6-1,1-1.1,1.2c-0.2,0.2-0.3,0.4-0.4,0.6l3.9-0.2l0.1,1.8L478.4,143z"/>
<path id="p-45" d="M529.1,161.4L407,166.9l3.9,49.7l120.5-5.8L529.1,161.4z M461.6,194.6c-0.3,0.3-0.7,0.4-1,0.5
	c-0.5,0.1-1.2,0.2-2.1,0.2l-1.3,0.1l0.2,3.8l-2.1,0.1l-0.5-10.2l3.3-0.2c1.3-0.1,2.1,0,2.5,0c0.6,0.1,1.1,0.4,1.5,0.9
	c0.4,0.5,0.6,1.1,0.7,2h-2.1c0-0.3-0.1-0.6-0.3-0.8c-0.2-0.2-0.5-0.4-0.8-0.4c-0.2,0-0.7,0-1.5,0l-1,0l0.1,2.9l1.1-0.1
	c0.8,0,1.4-0.1,1.6-0.2c0.3-0.1,0.5-0.3,0.6-0.5c0.1-0.2,0.2-0.4,0.2-0.7h2.1c0,0.5-0.1,1-0.3,1.4
	C462.2,194,461.9,194.4,461.6,194.6z M464.3,196.3l-0.1-2l3.8-0.2l0.1,2L464.3,196.3z M474.7,198.5l-1.9,0.1l-0.1-2.1l-4.2,0.2
	l-0.1-1.7l4.1-6.7l1.6-0.1l0.3,6h-1.9l-0.1-2.9l-2.2,3.6l2.3-0.1l0-0.4h1.9l0,0.3l1.3-0.1l0.1,1.7l-1.3,0.1L474.7,198.5z M483,196.9
	c-0.6,0.9-1.5,1.4-2.7,1.5c-0.9,0-1.7-0.2-2.3-0.7c-0.6-0.5-1-1.1-1.2-2l1.9-0.3c0.1,0.4,0.3,0.8,0.5,1c0.3,0.2,0.6,0.4,1,0.3
	c0.4,0,0.7-0.2,1-0.5c0.3-0.3,0.4-0.9,0.4-1.5c0-0.6-0.2-1.1-0.5-1.4c-0.3-0.3-0.7-0.4-1.1-0.4c-0.6,0-1.1,0.3-1.5,0.8l-1.6-0.2
	l0.8-5.4l5.2-0.2l0.1,1.8l-3.7,0.2l-0.2,1.7c0.4-0.2,0.9-0.4,1.3-0.4c0.9,0,1.6,0.2,2.2,0.8c0.6,0.6,1,1.4,1,2.4
	C483.7,195.5,483.5,196.3,483,196.9z"/>
<path id="p-61" d="M649.8,105.2l-35.4,1.5l-5.5,4.8l-81,3.6l2.3,44.8l121.9-5.3L649.8,105.2z M587.5,133.8c-0.3,0.3-0.7,0.4-1,0.5
	c-0.5,0.1-1.2,0.2-2.1,0.2l-1.3,0.1l0.2,3.8l-2.1,0.1l-0.5-10.2l3.3-0.2c1.3-0.1,2.1,0,2.5,0c0.6,0.1,1.1,0.4,1.5,0.9
	c0.4,0.5,0.6,1.1,0.7,2c0,0.1,0,0.2,0,0.4h-2.1c0-0.1,0-0.2,0-0.2c0-0.4-0.1-0.7-0.4-0.9c-0.2-0.2-0.5-0.4-0.8-0.4
	c-0.2,0-0.7,0-1.5,0l-1,0l0.1,2.9l1.1-0.1c0.8,0,1.4-0.1,1.6-0.2c0.3-0.1,0.5-0.3,0.6-0.5c0.1-0.1,0.1-0.2,0.1-0.3h2.1
	c0,0.4-0.1,0.7-0.2,1C588.1,133.2,587.8,133.6,587.5,133.8z M590.2,135.5l-0.1-2l3.8-0.2l0.1,2L590.2,135.5z M598.4,138
	c-1,0-1.9-0.3-2.6-1.1c-0.7-0.8-1.1-2.1-1.2-3.9c-0.1-1.9,0.2-3.2,0.8-4.1c0.7-0.9,1.5-1.3,2.6-1.4c0.8,0,1.4,0.2,2,0.6
	c0.5,0.4,0.9,1,1.1,1.8l-1.9,0.3c-0.1-0.4-0.2-0.7-0.4-0.8c-0.2-0.2-0.5-0.3-0.8-0.2c-0.4,0-0.8,0.2-1,0.6c-0.3,0.4-0.4,1.2-0.4,2.3
	c0.5-0.6,1.1-0.9,1.8-0.9c0.8,0,1.5,0.2,2.1,0.8c0.6,0.6,0.9,1.4,1,2.4c0,0.2,0,0.4,0,0.6h-1.9c0-0.2,0-0.3,0-0.5
	c0-0.7-0.2-1.1-0.5-1.4c-0.3-0.3-0.6-0.4-1-0.4c-0.4,0-0.7,0.2-0.9,0.5c-0.2,0.3-0.4,0.7-0.3,1.3c0,0.6,0.2,1.1,0.5,1.5
	c0.3,0.3,0.7,0.5,1,0.5c0.4,0,0.7-0.2,0.9-0.5c0.1-0.2,0.2-0.4,0.3-0.7h1.9c-0.1,0.7-0.3,1.3-0.8,1.8
	C600.2,137.6,599.4,137.9,598.4,138z M605.9,137.5l-0.3-7.4c-0.7,0.7-1.5,1.2-2.5,1.6l-0.1-1.8c0.5-0.2,1-0.5,1.6-1
	c0.6-0.5,1-1.1,1.2-1.7l1.6-0.1l0.5,10.2L605.9,137.5z"/>
<path id="p-46" d="M652.2,156l-121.9,5.3l2.4,49.4l121.7-5.4L652.2,156z M589.7,188.2c-0.2,0.4-0.5,0.8-0.8,1
	c-0.3,0.3-0.7,0.4-1,0.5c-0.5,0.1-1.2,0.2-2.1,0.2l-1.3,0.1l0.2,3.8l-2.1,0.1l-0.5-10.2l3.3-0.2c1.3-0.1,2.1,0,2.5,0
	c0.6,0.1,1.1,0.4,1.5,0.9c0.3,0.3,0.5,0.7,0.6,1.2h-2.4c0,0,0,0,0,0c-0.2-0.2-0.5-0.4-0.8-0.4c-0.2,0-0.7,0-1.5,0l-1,0l0.1,2.9
	l1.1-0.1c0.8,0,1.4-0.1,1.6-0.2c0.3-0.1,0.5-0.3,0.6-0.5c0.1-0.2,0.2-0.5,0.2-0.8c0-0.3-0.1-0.5-0.2-0.7h2.3c0,0.2,0.1,0.4,0.1,0.5
	C590,187.2,589.9,187.8,589.7,188.2z M591.7,190.9l-0.1-2l3.8-0.2l0.1,2L591.7,190.9z M602.1,193.1l-1.9,0.1l-0.1-2.1l-4.2,0.2
	l-0.1-1.7l4.1-6.7l1.6-0.1l0.3,5.7H600l-0.1-2.6l-2.2,3.6l2.3-0.1l0-0.6h1.9l0,0.5l1.3-0.1l0.1,1.7l-1.3,0.1L602.1,193.1z
	 M607.8,193c-1,0-1.9-0.3-2.6-1.1c-0.7-0.8-1.1-2.1-1.2-3.9c-0.1-1.9,0.2-3.2,0.8-4.1c0.7-0.9,1.5-1.3,2.6-1.4c0.8,0,1.4,0.2,2,0.6
	c0.5,0.4,0.9,1,1.1,1.8l-1.9,0.3c-0.1-0.4-0.2-0.7-0.4-0.8c-0.2-0.2-0.5-0.3-0.8-0.2c-0.4,0-0.8,0.2-1,0.6c-0.3,0.4-0.4,1.2-0.4,2.3
	c0.5-0.6,1.1-0.9,1.8-0.9c0.8,0,1.5,0.2,2.1,0.8c0.6,0.6,0.9,1.4,1,2.4c0,0,0,0,0,0H609c0-0.6-0.2-1.1-0.4-1.4
	c-0.3-0.3-0.6-0.4-1-0.4c-0.4,0-0.7,0.2-0.9,0.5c-0.2,0.3-0.4,0.7-0.3,1.3c0,0.6,0.2,1.1,0.5,1.5c0.3,0.3,0.7,0.5,1,0.5
	c0.4,0,0.7-0.2,0.9-0.5c0.2-0.3,0.3-0.7,0.3-1.3h1.9c0,0.9-0.3,1.7-0.8,2.3C609.5,192.6,608.8,193,607.8,193z"/>
<path id="p-47" d="M775.4,150.5L653.5,156l2.1,49.3c3.4-0.1,122.2-5.4,122.2-5.4L775.4,150.5z M712.2,183.7c-0.3,0.3-0.7,0.4-1,0.5
	c-0.5,0.1-1.2,0.2-2.1,0.2l-1.3,0.1l0.2,3.8l-2.1,0.1l-0.5-10.2l3.3-0.2c1.3-0.1,2.1,0,2.5,0c0.6,0.1,1.1,0.4,1.5,0.9
	c0.4,0.5,0.6,1.1,0.7,2c0,0.3,0,0.6-0.1,0.9H711c0.1-0.2,0.2-0.5,0.2-0.8c0-0.4-0.1-0.7-0.4-0.9c-0.2-0.2-0.5-0.4-0.8-0.4
	c-0.2,0-0.7,0-1.5,0l-1,0l0.1,2.9l1.1-0.1c0.8,0,1.4-0.1,1.6-0.2c0.2-0.1,0.3-0.2,0.4-0.3h2.4c0,0.2-0.1,0.3-0.1,0.5
	C712.8,183.1,712.5,183.4,712.2,183.7z M715,185.3l-0.1-2l3.8-0.2l0.1,2L715,185.3z M725.4,187.6l-1.9,0.1l-0.1-2.1l-4.2,0.2
	l-0.1-1.7l4.1-6.7l1.6-0.1l0.3,6h-1.9l-0.1-2.9l-2.2,3.6l2.3-0.1l0-0.4h1.9l0,0.3l1.3-0.1l0.1,1.7l-1.3,0.1L725.4,187.6z
	 M732.3,180.9c-0.5,1-0.9,2.1-1.2,3.3c-0.2,1.2-0.3,2.2-0.3,3.1l-1.9,0.1c0-1.4,0.2-2.9,0.7-4.4c0.5-1.5,1.2-2.8,2-4l-4.4,0.2
	l-0.1-1.8l6.7-0.3l0.1,1.4C733.3,179.1,732.8,179.9,732.3,180.9z"/>
<path id="p-60" d="M773.1,99.6l-122.1,5.5l2.4,49.4l121.9-5.5L773.1,99.6z M709.6,128.3c-0.3,0.3-0.7,0.4-1,0.5
	c-0.5,0.1-1.2,0.2-2.1,0.2l-1.3,0.1l0.2,3.8l-2.1,0.1l-0.5-10.2l3.3-0.2c1.3-0.1,2.1,0,2.5,0c0.6,0.1,1.1,0.4,1.5,0.9
	c0.4,0.5,0.6,1.1,0.7,2h-2.1c0-0.3-0.1-0.6-0.3-0.8c-0.2-0.2-0.5-0.4-0.8-0.4c-0.2,0-0.7,0-1.5,0l-1,0l0.1,2.9l1.1-0.1
	c0.8,0,1.4-0.1,1.6-0.2c0.3-0.1,0.5-0.3,0.6-0.5c0.1-0.2,0.2-0.4,0.2-0.7h2.1c0,0.5-0.1,1-0.3,1.4
	C710.2,127.7,709.9,128.1,709.6,128.3z M712.3,129.9l-0.1-2l3.8-0.2l0.1,2L712.3,129.9z M720.6,132.5c-1,0-1.9-0.3-2.6-1.1
	c-0.7-0.8-1.1-2.1-1.2-3.9c-0.1-1.9,0.2-3.2,0.8-4.1c0.7-0.9,1.5-1.3,2.6-1.4c0.8,0,1.4,0.2,2,0.6c0.5,0.4,0.9,1,1.1,1.8l-1.9,0.3
	c-0.1-0.4-0.2-0.7-0.4-0.8c-0.2-0.2-0.5-0.3-0.8-0.2c-0.4,0-0.8,0.2-1,0.6c-0.3,0.4-0.4,1.2-0.4,2.3c0.5-0.6,1.1-0.9,1.8-0.9
	c0.8,0,1.5,0.2,2.1,0.8c0.6,0.6,0.9,1.4,1,2.4c0,0,0,0,0,0h-1.9c0-0.6-0.2-1.1-0.4-1.3c-0.3-0.3-0.6-0.4-1-0.4
	c-0.4,0-0.7,0.2-0.9,0.5c-0.2,0.3-0.4,0.7-0.3,1.3c0,0.6,0.2,1.1,0.5,1.5c0.3,0.3,0.7,0.5,1,0.5c0.4,0,0.7-0.2,0.9-0.5
	c0.2-0.3,0.3-0.7,0.3-1.3h1.9c0,0.9-0.3,1.7-0.8,2.3C722.3,132.1,721.5,132.4,720.6,132.5z M728.3,132.1c-1,0-1.8-0.3-2.5-1
	c-0.6-0.7-1-2.1-1.1-4c-0.1-1.9,0.2-3.3,0.8-4.2c0.5-0.7,1.3-1.1,2.3-1.2c1,0,1.8,0.3,2.4,0.9c0.7,0.8,1.1,2.2,1.2,4.1
	c0,0.8,0,1.4-0.1,2h-2c0-0.5,0-1.1,0-1.9c-0.1-1.2-0.2-2-0.3-2.5c-0.1-0.4-0.3-0.7-0.5-0.9c-0.2-0.1-0.4-0.2-0.6-0.2
	c-0.2,0-0.4,0.1-0.6,0.3c-0.2,0.2-0.3,0.4-0.4,0.8c-0.1,0.5-0.1,1.4-0.1,2.6c0.1,1.2,0.2,2,0.3,2.5c0.1,0.4,0.3,0.7,0.5,0.9
	c0.2,0.1,0.4,0.2,0.6,0.2c0.2,0,0.4-0.1,0.6-0.3c0.2-0.2,0.3-0.4,0.4-0.8c0-0.1,0-0.3,0.1-0.4h2c-0.1,0.8-0.4,1.5-0.7,2
	C730,131.7,729.2,132.1,728.3,132.1z"/>
<path id="p-48" d="M898.5,145l-121.9,5.5l2.4,49.3l122-5.4L898.5,145z M836.2,177.3c-0.2,0.4-0.5,0.8-0.8,1c-0.3,0.3-0.7,0.4-1,0.5
	c-0.5,0.1-1.2,0.2-2.1,0.2l-1.3,0.1l0.2,3.8l-2.1,0.1l-0.5-10.2l3.3-0.2c1.3-0.1,2.1,0,2.5,0c0.6,0.1,1.1,0.4,1.5,0.9
	c0.4,0.4,0.6,1,0.7,1.7h-2.2c-0.1-0.2-0.1-0.4-0.3-0.6c-0.2-0.2-0.5-0.4-0.8-0.4c-0.2,0-0.7,0-1.5,0l-1,0l0.1,2.9l1.1-0.1
	c0.8,0,1.4-0.1,1.6-0.2c0.3-0.1,0.5-0.3,0.6-0.5c0.1-0.2,0.2-0.5,0.2-0.8c0,0,0-0.1,0-0.1h2.1C836.5,176.3,836.4,176.8,836.2,177.3z
	 M838.1,180l-0.1-2l3.8-0.2l0.1,2L838.1,180z M848.5,182.2l-1.9,0.1l-0.1-2.1l-4.2,0.2l-0.1-1.7l4.1-6.7l1.6-0.1l0.3,5.4h-1.9
	l-0.1-2.3l-2.2,3.6l2.3-0.1l0-1h1.9l0,0.9l1.3-0.1l0.1,1.7l-1.3,0.1L848.5,182.2z M854.1,182.1c-0.9,0-1.7-0.2-2.4-0.6
	c-0.8-0.5-1.2-1.3-1.2-2.3c0-0.6,0.1-1.1,0.3-1.5c0.3-0.5,0.7-0.9,1.2-1.1c-0.5-0.2-0.9-0.5-1.1-0.8c-0.2-0.4-0.4-0.8-0.4-1.2
	c0-0.8,0.2-1.4,0.7-1.9c0.5-0.5,1.3-0.8,2.2-0.8c1,0,1.7,0.2,2.3,0.6c0.6,0.5,0.9,1.1,0.9,1.8c0,0.1,0,0.1,0,0.2h-1.8
	c0-0.3-0.1-0.6-0.4-0.8c-0.2-0.2-0.5-0.3-0.9-0.3c-0.4,0-0.7,0.1-0.9,0.4c-0.2,0.2-0.3,0.5-0.3,0.9c0,0.4,0.1,0.7,0.4,0.9
	c0.2,0.2,0.5,0.3,0.9,0.3c0.4,0,0.7-0.1,0.9-0.4c0.2-0.2,0.3-0.4,0.3-0.7h1.8c0,0.3-0.1,0.6-0.3,0.9c-0.2,0.4-0.6,0.7-1,0.9
	c0.6,0.2,1,0.5,1.3,0.9c0.3,0.4,0.5,0.9,0.5,1.5c0,0.1,0,0.1,0,0.2h-1.9c0-0.1,0-0.1,0-0.2c0-0.5-0.2-0.9-0.5-1.1
	c-0.3-0.3-0.6-0.4-1-0.4c-0.5,0-0.8,0.2-1,0.5c-0.2,0.3-0.3,0.7-0.3,1.1c0,0.5,0.2,0.9,0.5,1.2c0.3,0.3,0.6,0.4,1.1,0.4
	c0.4,0,0.7-0.2,1-0.5c0.2-0.2,0.3-0.5,0.3-0.9h2c0,0.8-0.3,1.4-0.8,1.9C855.9,181.7,855.1,182.1,854.1,182.1z"/>
<path id="p-59" d="M896.8,94.2l-122.5,5.4l2.2,49.4l121.9-5.5L896.8,94.2z M832.9,122.9c-0.3,0.3-0.7,0.4-1,0.5
	c-0.5,0.1-1.2,0.2-2.1,0.2l-1.3,0.1l0.2,3.8l-2.1,0.1l-0.5-10.2l3.3-0.2c1.3-0.1,2.1,0,2.5,0c0.6,0.1,1.1,0.4,1.5,0.9
	c0.4,0.5,0.6,1.1,0.7,2c0,0.2,0,0.3,0,0.5h-2.1c0-0.1,0-0.2,0-0.4c0-0.4-0.1-0.7-0.4-0.9c-0.2-0.2-0.5-0.4-0.8-0.4
	c-0.2,0-0.7,0-1.5,0l-1,0l0.1,2.9l1.1-0.1c0.8,0,1.4-0.1,1.6-0.2c0.3-0.1,0.5-0.3,0.6-0.5c0-0.1,0.1-0.2,0.1-0.2h2.2
	c0,0.3-0.1,0.6-0.2,0.9C833.5,122.3,833.2,122.7,832.9,122.9z M835.6,124.6l-0.1-2l3.8-0.2l0.1,2L835.6,124.6z M846.4,125.6
	c-0.6,0.9-1.5,1.4-2.7,1.5c-0.9,0-1.7-0.2-2.3-0.7c-0.6-0.5-1-1.1-1.2-2l1.9-0.3c0.1,0.4,0.3,0.8,0.5,1c0.3,0.2,0.6,0.4,1,0.3
	c0.4,0,0.7-0.2,1-0.5c0.3-0.3,0.4-0.9,0.4-1.5c0-0.6-0.2-1.1-0.5-1.4c-0.3-0.3-0.7-0.4-1.1-0.4c-0.6,0-1.1,0.3-1.5,0.8l-1.6-0.2
	l0.8-5.4l5.2-0.2l0.1,1.8l-3.7,0.2l-0.2,1.7c0.4-0.2,0.9-0.4,1.3-0.4c0.9,0,1.6,0.2,2.3,0.8c0.6,0.6,1,1.4,1,2.4
	C847.1,124.2,846.9,124.9,846.4,125.6z M853.8,125.4c-0.7,0.9-1.5,1.3-2.6,1.4c-0.8,0-1.5-0.1-2-0.5c-0.5-0.4-0.9-1-1-1.9l1.9-0.3
	c0.1,0.4,0.2,0.7,0.4,0.8c0.2,0.2,0.5,0.3,0.8,0.2c0.4,0,0.7-0.2,1-0.6c0.3-0.4,0.4-1.2,0.4-2.3c-0.5,0.6-1.1,0.9-1.8,0.9
	c-0.8,0-1.5-0.2-2.1-0.8c-0.6-0.6-0.9-1.4-1-2.4c0-1,0.2-1.9,0.8-2.5c0.6-0.7,1.4-1,2.3-1.1c1,0,1.9,0.3,2.6,1.1
	c0.5,0.5,0.8,1.2,1,2.2h-2.1c-0.1-0.5-0.2-0.9-0.5-1.2c-0.3-0.3-0.6-0.5-1-0.5c-0.4,0-0.7,0.2-0.9,0.5c-0.2,0.3-0.3,0.8-0.3,1.4
	c0,0.7,0.2,1.1,0.5,1.4c0.3,0.3,0.6,0.4,1,0.4c0.4,0,0.7-0.2,0.9-0.5c0.2-0.3,0.4-0.7,0.3-1.3c0,0,0,0,0-0.1h2.1
	c0.1,0.5,0.1,1,0.2,1.5C854.7,123.2,854.5,124.5,853.8,125.4z"/>
<path id="p-58" d="M1019.3,88.7l-121.2,5.4l1.7,49.3l122.1-5.3L1019.3,88.7z M956,117.4c-0.3,0.3-0.7,0.4-1,0.5
	c-0.5,0.1-1.2,0.2-2.1,0.2l-1.3,0.1l0.2,3.8l-2.1,0.1l-0.5-10.2l3.3-0.2c1.3-0.1,2.1,0,2.5,0c0.6,0.1,1.1,0.4,1.5,0.9
	c0.4,0.5,0.6,1.1,0.7,1.9H955c0-0.3-0.1-0.5-0.3-0.7c-0.2-0.2-0.5-0.4-0.8-0.4c-0.2,0-0.7,0-1.5,0l-1,0l0.1,2.9l1.1-0.1
	c0.8,0,1.4-0.1,1.6-0.2c0.3-0.1,0.5-0.3,0.6-0.5c0.1-0.2,0.2-0.5,0.2-0.8h2.1c0,0.5-0.1,1-0.3,1.4
	C956.6,116.8,956.4,117.1,956,117.4z M958.8,119l-0.1-2l3.8-0.2l0.1,2L958.8,119z M969.6,120.1c-0.6,0.9-1.5,1.4-2.7,1.5
	c-0.9,0-1.7-0.2-2.3-0.7c-0.6-0.5-1-1.1-1.2-2l1.9-0.3c0.1,0.4,0.3,0.8,0.5,1c0.3,0.2,0.6,0.4,1,0.3c0.4,0,0.7-0.2,1-0.5
	c0.3-0.3,0.4-0.9,0.4-1.5c0-0.6-0.2-1.1-0.5-1.4c-0.3-0.3-0.7-0.4-1.1-0.4c-0.6,0-1.1,0.3-1.5,0.8l-1.6-0.2l0.8-5.4l5.2-0.2l0.1,1.8
	l-3.7,0.2l-0.2,1.7c0.4-0.2,0.9-0.4,1.3-0.4c0.9,0,1.6,0.2,2.2,0.8c0.6,0.6,1,1.4,1,2.4C970.2,118.6,970,119.4,969.6,120.1z
	 M974.8,121.2c-0.9,0-1.7-0.2-2.4-0.6c-0.8-0.5-1.2-1.3-1.2-2.3c0-0.6,0.1-1.1,0.3-1.5c0.3-0.5,0.7-0.9,1.2-1.1
	c-0.5-0.2-0.9-0.5-1.1-0.8c-0.2-0.4-0.4-0.8-0.4-1.2c0-0.8,0.2-1.4,0.7-1.9c0.5-0.5,1.3-0.8,2.2-0.8c1,0,1.7,0.2,2.3,0.6
	c0.6,0.5,0.9,1.1,0.9,1.8c0,0.1,0,0.2,0,0.2h-1.8c0,0,0,0,0,0c0-0.4-0.1-0.7-0.4-0.9c-0.2-0.2-0.5-0.3-0.9-0.3
	c-0.4,0-0.7,0.1-0.9,0.4c-0.2,0.2-0.3,0.5-0.3,0.9c0,0.4,0.1,0.7,0.4,0.9c0.2,0.2,0.5,0.3,0.9,0.3c0.4,0,0.7-0.1,0.9-0.4
	c0.2-0.2,0.2-0.4,0.3-0.7h1.8c0,0.3-0.1,0.6-0.3,0.8c-0.2,0.4-0.6,0.7-1,0.9c0.6,0.2,1,0.5,1.3,0.9c0.3,0.4,0.5,0.9,0.5,1.5
	c0,0.2,0,0.3,0,0.4h-2c0-0.1,0-0.3,0-0.4c0-0.5-0.2-0.9-0.5-1.1c-0.3-0.3-0.6-0.4-1-0.4c-0.5,0-0.8,0.2-1,0.5
	c-0.2,0.3-0.3,0.7-0.3,1.1c0,0.5,0.2,0.9,0.5,1.2c0.3,0.3,0.6,0.4,1.1,0.4c0.4,0,0.7-0.2,1-0.5c0.1-0.2,0.2-0.4,0.3-0.6h2
	c-0.1,0.6-0.3,1.2-0.8,1.7C976.6,120.8,975.8,121.1,974.8,121.2z"/>
<path id="p-49" d="M1021.8,139.6l-122.1,5.3l2.5,49.4l121.9-5.4L1021.8,139.6z M959.3,171.7c-0.2,0.4-0.5,0.8-0.8,1
	c-0.3,0.3-0.7,0.4-1,0.5c-0.5,0.1-1.2,0.2-2.1,0.2l-1.3,0.1l0.2,3.8l-2.1,0.1l-0.5-10.2l3.3-0.2c1.3-0.1,2.1,0,2.5,0
	c0.6,0.1,1.1,0.4,1.5,0.9c0.3,0.4,0.5,0.9,0.6,1.5h-2.2c-0.1-0.1-0.1-0.2-0.2-0.3c-0.2-0.2-0.5-0.4-0.9-0.4c-0.2,0-0.7,0-1.5,0l-1,0
	l0.1,2.9l1.1-0.1c0.8,0,1.4-0.1,1.6-0.2c0.3-0.1,0.5-0.3,0.6-0.5c0.1-0.2,0.2-0.5,0.2-0.8c0-0.1,0-0.3-0.1-0.4h2.2
	c0,0.1,0,0.2,0,0.3C959.6,170.8,959.5,171.3,959.3,171.7z M961.2,174.4l-0.1-2l3.8-0.2l0.1,2L961.2,174.4z M971.6,176.7l-1.9,0.1
	l-0.1-2.1l-4.2,0.2l-0.1-1.7l4.1-6.7l1.6-0.1l0.3,6h-1.9l-0.1-2.9l-2.2,3.6l2.3-0.1l0-0.3h1.9l0,0.3l1.3-0.1l0.1,1.7l-1.3,0.1
	L971.6,176.7z M979.4,175.2c-0.7,0.9-1.5,1.3-2.6,1.4c-0.8,0-1.5-0.1-2-0.5c-0.5-0.4-0.9-1-1-1.9l1.9-0.3c0.1,0.4,0.2,0.7,0.4,0.8
	c0.2,0.2,0.5,0.3,0.8,0.2c0.4,0,0.7-0.2,1-0.6c0.3-0.4,0.4-1.2,0.4-2.3c-0.5,0.6-1.1,0.9-1.8,0.9c-0.8,0-1.5-0.2-2.1-0.8
	c-0.6-0.6-0.9-1.4-1-2.4c0-1,0.2-1.9,0.8-2.5c0.6-0.7,1.4-1,2.3-1.1c1,0,1.9,0.3,2.6,1.1c0.5,0.5,0.8,1.4,1,2.4H978
	c0-0.6-0.2-1.1-0.5-1.4c-0.3-0.3-0.7-0.5-1-0.5c-0.4,0-0.7,0.2-0.9,0.5c-0.2,0.3-0.3,0.8-0.3,1.4c0,0.7,0.2,1.1,0.5,1.4
	c0.3,0.3,0.6,0.4,1,0.4c0.4,0,0.7-0.2,0.9-0.5c0.2-0.3,0.3-0.7,0.3-1.2h2.2c0.1,0.4,0.1,0.8,0.1,1.3
	C980.4,173,980.1,174.4,979.4,175.2z"/>
<path id="p-50" d="M1145,134l-121.9,5.5l2.4,49.3l121.9-5.4L1145,134z M1081.8,167.3c-0.3,0.3-0.7,0.4-1,0.5
	c-0.5,0.1-1.2,0.2-2.1,0.2l-1.3,0.1l0.2,3.8l-2.1,0.1l-0.5-10.2l3.3-0.2c1.3-0.1,2.1,0,2.5,0c0.6,0.1,1.1,0.4,1.5,0.9
	c0.4,0.5,0.6,1.1,0.7,2h-2.1c0-0.3-0.1-0.6-0.3-0.8c-0.2-0.2-0.5-0.4-0.8-0.4c-0.2,0-0.7,0-1.5,0l-1,0l0.1,2.9l1.1-0.1
	c0.8,0,1.4-0.1,1.6-0.2c0.3-0.1,0.5-0.3,0.6-0.5c0.1-0.2,0.2-0.4,0.2-0.7h2.1c0,0.5-0.1,1-0.3,1.4
	C1082.4,166.6,1082.1,167,1081.8,167.3z M1084.5,168.9l-0.1-2l3.8-0.2l0.1,2L1084.5,168.9z M1095.3,169.9c-0.6,0.9-1.5,1.4-2.7,1.5
	c-0.9,0-1.7-0.2-2.3-0.7c-0.6-0.5-1-1.1-1.2-2l1.9-0.3c0.1,0.4,0.3,0.8,0.5,1c0.3,0.2,0.6,0.4,1,0.3c0.4,0,0.7-0.2,1-0.5
	c0.3-0.3,0.4-0.9,0.4-1.5c0-0.6-0.2-1.1-0.5-1.4c-0.3-0.3-0.7-0.4-1.1-0.4c-0.6,0-1.1,0.3-1.5,0.8l-1.6-0.2l0.8-5.4l5.2-0.2l0.1,1.8
	l-3.7,0.2l-0.2,1.7c0.4-0.2,0.9-0.4,1.3-0.4c0.9,0,1.6,0.2,2.3,0.8c0.6,0.6,1,1.4,1,2.4C1096,168.5,1095.8,169.3,1095.3,169.9z
	 M1102.7,169.9c-0.5,0.7-1.3,1.1-2.3,1.2c-1,0-1.8-0.3-2.5-1s-1-2.1-1.1-4c-0.1-1.9,0.2-3.3,0.8-4.2c0.5-0.7,1.3-1.1,2.3-1.2
	c1,0,1.8,0.3,2.4,0.9c0.7,0.8,1.1,2.2,1.2,4.1c0,0.2,0,0.4,0,0.6h-2c0-0.2,0-0.3,0-0.5c-0.1-1.2-0.2-2-0.3-2.5
	c-0.1-0.4-0.3-0.7-0.5-0.9c-0.2-0.1-0.4-0.2-0.6-0.2c-0.2,0-0.4,0.1-0.6,0.3c-0.2,0.2-0.3,0.4-0.4,0.8c-0.1,0.5-0.1,1.4-0.1,2.6
	c0.1,1.2,0.2,2,0.3,2.5c0.1,0.4,0.3,0.7,0.5,0.9c0.2,0.1,0.4,0.2,0.6,0.2c0.2,0,0.4-0.1,0.6-0.3c0.2-0.2,0.3-0.4,0.4-0.8
	c0.1-0.4,0.1-1,0.1-1.9h2C1103.5,168,1103.2,169.1,1102.7,169.9z"/>
<path id="p-51" d="M1268.1,128.7l-121.9,5.3l2.4,49.4l121.9-5.4L1268.1,128.7z M1205.8,161.9c-0.3,0.3-0.7,0.4-1,0.5
	c-0.5,0.1-1.2,0.2-2.1,0.2l-1.3,0.1l0.2,3.8l-2.1,0.1l-0.5-10.2l3.3-0.2c1.3-0.1,2.1,0,2.5,0c0.6,0.1,1.1,0.4,1.5,0.9
	c0.4,0.5,0.6,1.1,0.7,2h-2.1c0-0.3-0.1-0.6-0.3-0.8c-0.2-0.2-0.5-0.4-0.8-0.4c-0.2,0-0.7,0-1.5,0l-1,0l0.1,2.9l1.1-0.1
	c0.8,0,1.4-0.1,1.6-0.2c0.3-0.1,0.5-0.3,0.6-0.5c0.1-0.2,0.2-0.4,0.2-0.7h2.1c0,0.5-0.1,1-0.3,1.4
	C1206.4,161.3,1206.1,161.6,1205.8,161.9z M1208.5,163.5l-0.1-2l3.8-0.2l0.1,2L1208.5,163.5z M1219.3,164.5
	c-0.6,0.9-1.5,1.4-2.7,1.5c-0.9,0-1.7-0.2-2.3-0.7c-0.6-0.5-1-1.1-1.2-2l1.9-0.3c0.1,0.4,0.3,0.8,0.5,1c0.3,0.2,0.6,0.4,1,0.3
	c0.4,0,0.7-0.2,1-0.5c0.3-0.3,0.4-0.9,0.4-1.5c0-0.6-0.2-1.1-0.5-1.4c-0.3-0.3-0.7-0.4-1.1-0.4c-0.6,0-1.1,0.3-1.5,0.8l-1.6-0.2
	l0.8-5.4l5.2-0.2l0.1,1.8l-3.7,0.2l-0.2,1.7c0.4-0.2,0.9-0.4,1.3-0.4c0.9,0,1.6,0.2,2.2,0.8c0.6,0.6,1,1.4,1,2.4
	C1220,163.1,1219.8,163.9,1219.3,164.5z M1224.2,165.5l-0.3-7.4c-0.7,0.7-1.5,1.2-2.5,1.6l-0.1-1.8c0.5-0.2,1-0.5,1.6-1
	c0.6-0.5,1-1.1,1.2-1.7l1.6-0.1l0.5,10.2L1224.2,165.5z"/>
<path id="p-57" d="M1143.1,83.2l-122.6,5.4l2.5,49.4l121.9-5.5L1143.1,83.2z M1079.1,112c-0.3,0.3-0.7,0.4-1,0.5
	c-0.5,0.1-1.2,0.2-2.1,0.3l-1.3,0.1l0.2,3.8l-2.1,0.1l-0.5-10.2l3.3-0.2c1.3-0.1,2.1-0.1,2.5,0c0.6,0.1,1.1,0.4,1.5,0.9
	c0.4,0.5,0.7,1.1,0.7,2c0,0.2,0,0.3,0,0.5h-2.1c0-0.1,0-0.2,0-0.4c0-0.4-0.1-0.7-0.4-0.9c-0.2-0.2-0.5-0.4-0.9-0.4
	c-0.2,0-0.7,0-1.5,0l-1,0.1l0.1,2.9l1.1-0.1c0.8,0,1.4-0.1,1.6-0.2c0.3-0.1,0.5-0.3,0.6-0.5c0-0.1,0.1-0.1,0.1-0.2h2.2
	c0,0.3-0.1,0.6-0.2,0.9C1079.8,111.4,1079.5,111.7,1079.1,112z M1081.9,113.6l-0.1-2l3.8-0.2l0.1,2L1081.9,113.6z M1092.7,114.6
	c-0.6,0.9-1.5,1.4-2.7,1.5c-0.9,0-1.7-0.2-2.3-0.6c-0.6-0.5-1-1.1-1.2-2l1.9-0.3c0.1,0.4,0.3,0.8,0.5,1c0.3,0.2,0.6,0.4,1,0.3
	c0.4,0,0.7-0.2,1-0.6c0.3-0.3,0.4-0.9,0.3-1.5c0-0.6-0.2-1.1-0.5-1.4c-0.3-0.3-0.7-0.4-1.1-0.4c-0.6,0-1.1,0.3-1.5,0.8l-1.6-0.1
	l0.7-5.4l5.2-0.3l0.1,1.8l-3.7,0.2l-0.2,1.7c0.4-0.2,0.9-0.4,1.3-0.4c0.9,0,1.6,0.2,2.3,0.8c0.6,0.6,1,1.4,1,2.4
	C1093.3,113.1,1093.1,113.9,1092.7,114.6z M1099.2,109.1c-0.5,1-0.9,2.1-1.1,3.3c-0.2,1.2-0.3,2.2-0.3,3.1l-1.9,0.1
	c0-1.4,0.2-2.9,0.7-4.4c0.5-1.5,1.1-2.8,2-4l-4.4,0.2l-0.1-1.8l6.7-0.3l0.1,1.4C1100.2,107.3,1099.7,108.1,1099.2,109.1z"/>
<path id="p-56" d="M1265.5,77.7l-121.1,5.4l1.8,49.3l121.9-5.3L1265.5,77.7z M1202.3,106.5c-0.3,0.3-0.7,0.4-1,0.5
	c-0.5,0.1-1.2,0.2-2.1,0.2l-1.3,0.1l0.2,3.8l-2.1,0.1l-0.5-10.2l3.3-0.2c1.3-0.1,2.1,0,2.5,0c0.6,0.1,1.1,0.4,1.5,0.9
	c0.4,0.5,0.6,1.1,0.7,1.9h-2.2c0-0.3-0.1-0.5-0.3-0.7c-0.2-0.2-0.5-0.4-0.9-0.4c-0.2,0-0.7,0-1.5,0l-1,0l0.1,2.9l1.1-0.1
	c0.8,0,1.4-0.1,1.6-0.2c0.3-0.1,0.5-0.3,0.6-0.5c0.1-0.2,0.2-0.5,0.2-0.8h2.1c0,0.5-0.1,1-0.3,1.4
	C1202.9,105.9,1202.7,106.2,1202.3,106.5z M1205.1,108.1l-0.1-2l3.8-0.2l0.1,2L1205.1,108.1z M1215.8,109.2
	c-0.6,0.9-1.5,1.4-2.7,1.5c-0.9,0-1.7-0.2-2.3-0.7c-0.6-0.5-1-1.1-1.2-2l1.9-0.3c0.1,0.4,0.3,0.8,0.5,1c0.3,0.2,0.6,0.4,1,0.3
	c0.4,0,0.7-0.2,1-0.5c0.3-0.3,0.4-0.9,0.4-1.5c0-0.6-0.2-1.1-0.5-1.4c-0.3-0.3-0.7-0.4-1.1-0.4c-0.6,0-1.1,0.3-1.5,0.8l-1.6-0.2
	l0.8-5.4l5.2-0.2l0.1,1.8l-3.7,0.2l-0.2,1.7c0.4-0.2,0.9-0.4,1.3-0.4c0.9,0,1.6,0.2,2.3,0.8c0.6,0.6,1,1.4,1,2.4
	C1216.5,107.7,1216.3,108.5,1215.8,109.2z M1223.5,109.2c-0.6,0.7-1.4,1-2.3,1.1c-1,0-1.9-0.3-2.6-1.1c-0.7-0.8-1.1-2.1-1.2-3.9
	c-0.1-1.9,0.2-3.2,0.8-4.1c0.7-0.9,1.5-1.3,2.6-1.4c0.8,0,1.4,0.2,2,0.6c0.5,0.4,0.9,1,1.1,1.8l-1.9,0.3c-0.1-0.4-0.2-0.7-0.4-0.8
	c-0.2-0.2-0.5-0.3-0.8-0.2c-0.4,0-0.8,0.2-1,0.6c-0.3,0.4-0.4,1.2-0.4,2.3c0.5-0.6,1.1-0.9,1.8-0.9c0.8,0,1.5,0.2,2.1,0.8
	c0.5,0.5,0.8,1.1,0.9,1.9h-1.9c-0.1-0.4-0.2-0.7-0.4-0.9c-0.3-0.3-0.6-0.4-1-0.4c-0.4,0-0.7,0.2-0.9,0.5c-0.2,0.3-0.4,0.7-0.3,1.3
	c0,0.6,0.2,1.1,0.5,1.5c0.3,0.3,0.7,0.5,1,0.5c0.4,0,0.7-0.2,0.9-0.5c0.2-0.3,0.3-0.8,0.3-1.4c0-0.1,0-0.2,0-0.3h1.9
	c0,0.1,0,0.2,0,0.2C1224.4,107.7,1224.1,108.5,1223.5,109.2z"/>
<path id="p-55" d="M1388.9,72.3l-122.1,5.4l2.6,49.4l121.9-5.5L1388.9,72.3z M1325.5,100.9c-0.3,0.3-0.7,0.4-1,0.5
	c-0.5,0.1-1.2,0.2-2.1,0.2l-1.3,0.1l0.2,3.8l-2.1,0.1l-0.5-10.2l3.3-0.2c1.3-0.1,2.1,0,2.5,0c0.6,0.1,1.1,0.4,1.5,0.9
	c0.4,0.5,0.6,1.1,0.7,2c0,0.2,0,0.4,0,0.6h-2.2c0-0.2,0.1-0.3,0.1-0.5c0-0.4-0.1-0.7-0.4-0.9c-0.2-0.2-0.5-0.4-0.8-0.4
	c-0.2,0-0.7,0-1.5,0l-1,0l0.1,2.9l1.1-0.1c0.8,0,1.4-0.1,1.6-0.2c0.3-0.1,0.5-0.3,0.6-0.5c0,0,0-0.1,0-0.1h2.2
	c0,0.3-0.1,0.5-0.2,0.8C1326.1,100.3,1325.8,100.7,1325.5,100.9z M1328.2,102.6l-0.1-2l3.8-0.2l0.1,2L1328.2,102.6z M1339,103.6
	c-0.6,0.9-1.5,1.4-2.7,1.5c-0.9,0-1.7-0.2-2.3-0.7c-0.6-0.5-1-1.1-1.2-2l1.9-0.3c0.1,0.4,0.3,0.8,0.5,1c0.3,0.2,0.6,0.4,1,0.3
	c0.4,0,0.7-0.2,1-0.5c0.3-0.3,0.4-0.9,0.4-1.5c0-0.6-0.2-1.1-0.5-1.4c-0.3-0.3-0.7-0.4-1.1-0.4c-0.6,0-1.1,0.3-1.5,0.8l-1.6-0.2
	l0.8-5.4l5.2-0.2l0.1,1.8l-3.7,0.2l-0.2,1.7c0.4-0.2,0.9-0.4,1.3-0.4c0.9,0,1.6,0.2,2.2,0.8c0.6,0.6,1,1.4,1,2.4
	C1339.7,102.2,1339.4,102.9,1339,103.6z M1346.9,103.3c-0.6,0.9-1.5,1.4-2.7,1.5c-0.9,0-1.7-0.2-2.3-0.7c-0.6-0.5-1-1.1-1.2-2
	l1.9-0.3c0.1,0.4,0.3,0.8,0.5,1c0.3,0.2,0.6,0.4,1,0.3c0.4,0,0.7-0.2,1-0.5c0.3-0.3,0.4-0.9,0.4-1.5c0-0.6-0.2-1.1-0.5-1.4
	c-0.3-0.3-0.7-0.4-1.1-0.4c-0.6,0-1.1,0.3-1.5,0.8l-1.6-0.2l0.8-5.4l5.2-0.2l0.1,1.8l-3.7,0.2l-0.2,1.7c0.4-0.2,0.9-0.4,1.3-0.4
	c0.9,0,1.6,0.2,2.2,0.8c0.6,0.6,1,1.4,1,2.4C1347.6,101.8,1347.4,102.6,1346.9,103.3z"/>
<path id="p-52" d="M1391.3,123.1l-121.9,5.5l2.4,49.3l122-5.4L1391.3,123.1z M1328.9,155.3c-0.2,0.4-0.5,0.8-0.8,1
	c-0.3,0.3-0.7,0.4-1,0.5c-0.5,0.1-1.2,0.2-2.1,0.2l-1.3,0.1l0.2,3.8l-2.1,0.1l-0.5-10.2l3.3-0.2c1.3-0.1,2.1,0,2.5,0
	c0.6,0.1,1.1,0.4,1.5,0.9c0.3,0.4,0.5,0.9,0.6,1.5h-2.2c-0.1-0.1-0.1-0.2-0.2-0.3c-0.2-0.2-0.5-0.4-0.8-0.4c-0.2,0-0.7,0-1.5,0l-1,0
	l0.1,2.9l1.1-0.1c0.8,0,1.4-0.1,1.6-0.2c0.3-0.1,0.5-0.3,0.6-0.5c0.1-0.2,0.2-0.5,0.2-0.8c0-0.1,0-0.2-0.1-0.3h2.2
	c0,0.1,0,0.1,0,0.2C1329.2,154.3,1329.1,154.9,1328.9,155.3z M1330.8,158l-0.1-2l3.8-0.2l0.1,2L1330.8,158z M1341.6,159
	c-0.6,0.9-1.5,1.4-2.7,1.5c-0.9,0-1.7-0.2-2.3-0.7c-0.6-0.5-1-1.1-1.2-2l1.9-0.3c0.1,0.4,0.3,0.8,0.5,1c0.3,0.2,0.6,0.4,1,0.3
	c0.4,0,0.7-0.2,1-0.5c0.3-0.3,0.4-0.9,0.4-1.5c0-0.6-0.2-1.1-0.5-1.4c-0.3-0.3-0.7-0.4-1.1-0.4c-0.6,0-1.1,0.3-1.5,0.8l-1.6-0.2
	l0.8-5.4l5.2-0.2l0.1,1.8l-3.7,0.2l-0.2,1.7c0.4-0.2,0.9-0.4,1.3-0.4c0.9,0,1.6,0.2,2.3,0.8c0.6,0.6,1,1.4,1,2.4
	C1342.3,157.6,1342.1,158.3,1341.6,159z M1343.2,160.1c0-0.7,0.2-1.4,0.6-2c0.3-0.6,1-1.5,2.1-2.5c0.8-0.9,1.4-1.4,1.5-1.7
	c0.2-0.4,0.4-0.8,0.3-1.2c0-0.4-0.2-0.8-0.4-1c-0.2-0.2-0.6-0.3-1-0.3c-0.4,0-0.7,0.2-1,0.4c-0.2,0.3-0.4,0.7-0.4,1.2l-2-0.1
	c0.1-1.1,0.4-1.9,1-2.4c0.6-0.5,1.3-0.8,2.3-0.8c1,0,1.8,0.2,2.4,0.7c0.6,0.5,0.9,1.2,1,2c0,0.5,0,0.9-0.2,1.3
	c-0.1,0.4-0.4,0.9-0.7,1.3c-0.2,0.3-0.6,0.8-1.2,1.4c-0.6,0.6-1,1-1.1,1.2c-0.2,0.2-0.3,0.4-0.4,0.6l3.9-0.2l0.1,1.8L1343.2,160.1z"
	/>
<path id="p-53" d="M1531.2,117l-138.6,6.1l2.5,49.4l129.5-5.7l8.6-9.5L1531.2,117z M1461.8,150.5c-0.3,0.3-0.7,0.4-1,0.5
	c-0.5,0.1-1.2,0.2-2.1,0.2l-1.3,0.1l0.2,3.8l-2.1,0.1l-0.5-10.2l3.3-0.2c1.3-0.1,2.1,0,2.5,0c0.6,0.1,1.1,0.4,1.5,0.9
	c0.4,0.5,0.6,1.1,0.7,2c0,0.2,0,0.4,0,0.5h-2.1c0-0.1,0-0.3,0-0.4c0-0.4-0.1-0.7-0.4-0.9c-0.2-0.2-0.5-0.4-0.8-0.4
	c-0.2,0-0.7,0-1.5,0l-1,0l0.1,2.9l1.1-0.1c0.8,0,1.4-0.1,1.6-0.2c0.3-0.1,0.5-0.3,0.6-0.5c0-0.1,0.1-0.1,0.1-0.2h2.2
	c0,0.3-0.1,0.6-0.2,0.9C1462.4,149.9,1462.2,150.3,1461.8,150.5z M1464.6,152.2l-0.1-2l3.8-0.2l0.1,2L1464.6,152.2z M1475.4,153.2
	c-0.6,0.9-1.5,1.4-2.7,1.5c-0.9,0-1.7-0.2-2.3-0.7c-0.6-0.5-1-1.1-1.2-2l1.9-0.3c0.1,0.4,0.3,0.8,0.5,1c0.3,0.2,0.6,0.4,1,0.3
	c0.4,0,0.7-0.2,1-0.5c0.3-0.3,0.4-0.9,0.4-1.5c0-0.6-0.2-1.1-0.5-1.4c-0.3-0.3-0.7-0.4-1.1-0.4c-0.6,0-1.1,0.3-1.5,0.8l-1.6-0.2
	l0.8-5.4l5.2-0.2l0.1,1.8l-3.7,0.2l-0.2,1.7c0.4-0.2,0.9-0.4,1.3-0.4c0.9,0,1.6,0.2,2.3,0.8c0.6,0.6,1,1.4,1,2.4
	C1476,151.8,1475.8,152.5,1475.4,153.2z M1482.9,153.3c-0.6,0.7-1.4,1-2.4,1.1c-0.9,0-1.7-0.2-2.3-0.7c-0.6-0.5-1-1.2-1.2-2l1.9-0.3
	c0.1,0.5,0.3,0.8,0.5,1.1c0.3,0.2,0.6,0.4,1,0.3c0.4,0,0.7-0.2,1-0.5c0.3-0.3,0.4-0.7,0.4-1.3c0-0.5-0.2-0.9-0.5-1.2
	c-0.3-0.3-0.6-0.4-1-0.4c-0.3,0-0.5,0.1-0.9,0.2l0.1-1.6c0.5,0,0.9-0.1,1.2-0.4c0.3-0.3,0.4-0.6,0.4-1c0-0.3-0.1-0.6-0.3-0.8
	c-0.2-0.2-0.5-0.3-0.8-0.3c-0.3,0-0.6,0.1-0.8,0.4c-0.2,0.2-0.4,0.6-0.4,1l-1.8-0.2c0.1-0.6,0.3-1.1,0.5-1.5c0.2-0.4,0.6-0.7,1-0.9
	c0.4-0.2,0.9-0.4,1.5-0.4c1,0,1.7,0.2,2.4,0.8c0.5,0.5,0.8,1,0.8,1.7c0,0.9-0.4,1.6-1.4,2.2c0.6,0.1,1.1,0.4,1.4,0.8
	c0.4,0.4,0.6,0.9,0.6,1.6C1483.8,151.8,1483.5,152.6,1482.9,153.3z"/>
<path id="p-54" d="M1529.2,75.2l-9.5-8.6l-129.5,5.7l2.4,49.3l138.6-6.1L1529.2,75.2z M1460.3,92.9h-2.1c0-0.1,0-0.2,0-0.3
	c0-0.4-0.1-0.7-0.4-0.9c-0.2-0.2-0.5-0.4-0.8-0.4c-0.2,0-0.7,0-1.5,0l-1,0l0.1,2.9l1.1-0.1c0.8,0,1.4-0.1,1.6-0.2
	c0.3-0.1,0.5-0.3,0.6-0.5c0.1-0.1,0.1-0.2,0.1-0.3h2.1c0,0.4-0.1,0.7-0.2,1c-0.2,0.4-0.5,0.8-0.8,1c-0.3,0.3-0.7,0.4-1,0.5
	c-0.5,0.1-1.2,0.2-2.1,0.2l-1.3,0.1l0.2,3.8l-2.1,0.1l-0.5-10.2l3.3-0.2c1.3-0.1,2.1,0,2.5,0c0.6,0.1,1.1,0.4,1.5,0.9
	c0.4,0.5,0.6,1.1,0.7,2C1460.3,92.6,1460.3,92.7,1460.3,92.9z M1462,96.8l-0.1-2l3.8-0.2l0.1,2L1462,96.8z M1472.7,97.8
	c-0.6,0.9-1.5,1.4-2.7,1.5c-0.9,0-1.7-0.2-2.3-0.7c-0.6-0.5-1-1.1-1.2-2l1.9-0.3c0.1,0.4,0.3,0.8,0.5,1c0.3,0.2,0.6,0.4,1,0.3
	c0.4,0,0.7-0.2,1-0.5c0.3-0.3,0.4-0.9,0.4-1.5c0-0.6-0.2-1.1-0.5-1.4c-0.3-0.3-0.7-0.4-1.1-0.4c-0.6,0-1.1,0.3-1.5,0.8l-1.6-0.2
	l0.8-5.4l5.2-0.2l0.1,1.8l-3.7,0.2l-0.2,1.7c0.4-0.2,0.9-0.4,1.3-0.4c0.9,0,1.6,0.2,2.3,0.8c0.6,0.6,1,1.4,1,2.4
	C1473.4,96.4,1473.2,97.1,1472.7,97.8z M1480.3,98.6l-1.9,0.1l-0.1-2.1l-4.2,0.2l-0.1-1.7l4.1-6.7l1.6-0.1l0.3,5.7h-1.9l-0.1-2.6
	l-2.2,3.6l2.3-0.1l0-0.7h1.9l0,0.6l1.3-0.1l0.1,1.7l-1.3,0.1L1480.3,98.6z"/>
</svg>
