<?xml version="1.0" encoding="utf-8"?>
<!-- Generator: Adobe Illustrator 22.1.0, SVG Export Plug-In . SVG Version: 6.00 Build 0)  -->
<svg version="1.1" id="p-x" xmlns="http://www.w3.org/2000/svg" xmlns:xlink="http://www.w3.org/1999/xlink" x="0px" y="0px"
	 viewBox="0 0 1684 351.4" style="enable-background:new 0 0 1684 351.4;" xml:space="preserve">
<path id="camino" d="M1543.3,66.3l13.6-0.7l-0.4-9.2l-138.3,6.3l-695.1,31l-112,4.7l-5.5,4.9l-71.3,3.3l-386.6,16.9l-9.5-56.9l2.3,0
	l-8,0.1l-5.8,0.4l10.3,64l7.4,10.6l-5.2,31l-8.6,57.4L118.8,317l9.2,0.4l10-70.9l10.5-9.5l441.7-19.8l552.8-24.3l382.7-16.9l9.6,8.7
	l4.1,83.6l9.2-0.4L1539,74.4L1543.3,66.3z M1525.2,167l-1375.4,61l-7.9-8.7l11.9-78l11.9-9.2l443.4-19.8l5.5-4.8l905.5-40.2l9.6,8.7
	l4.1,81.4L1525.2,167z"/>
<polygon id="p-xc" points="44.5,70.9 126.6,67.2 137,131.3 144.4,141.9 139.2,172.9 16.7,177.9 "/>
<polygon id="p-xx" points="147.6,123.6 605.5,103.3 606.8,46 138.1,66.7 "/>
<polygon id="p-xxx" points="16.7,177.9 139.2,172.9 130.6,230.3 14.4,235.1 "/>
<polygon id="p-xxxx" points="14.4,235.1 130.6,230.3 122.6,288.7 8.3,292.9 "/>
<polygon id="p-xxxxx" points="8.3,292.9 122.6,288.7 114.6,347 0,351.4 "/>
<path id="p-65" d="M720.5,40.9L606.8,46l-1.3,57.4l5.5-4.9l112-4.7L720.5,40.9z M662.1,74.6c-0.2,0.4-0.5,0.8-0.8,1.1
	s-0.7,0.4-1.1,0.5c-0.5,0.1-1.2,0.2-2.2,0.2l-1.4,0.1l0.2,3.9l-2.1,0.1l-0.3-7.3h2.1l0.1,1.6l1.1-0.1c0.8,0,1.4-0.1,1.6-0.2
	c0.3-0.1,0.5-0.3,0.6-0.5c0.1-0.2,0.2-0.5,0.2-0.8c0-0.4-0.1-0.7-0.4-0.9c-0.2-0.2-0.5-0.4-0.9-0.4c-0.3,0-0.8,0-1.5,0l-1,0l0.1,1.1
	h-2.1l-0.1-2.8l3.3-0.2c1.3-0.1,2.1,0,2.5,0c0.6,0.1,1.1,0.4,1.5,0.9c0.4,0.5,0.7,1.2,0.7,2C662.4,73.6,662.3,74.1,662.1,74.6z
	 M664,77.3l-0.1-2l3.9-0.2l0.1,2L664,77.3z M674.6,78.7c-0.6,0.7-1.4,1-2.3,1.1c-1,0-1.9-0.3-2.6-1.1c-0.7-0.8-1.1-2.1-1.2-3.9
	c-0.1-1.9,0.2-3.3,0.9-4.1c0.7-0.9,1.5-1.3,2.7-1.4c0.8,0,1.4,0.2,2,0.6c0.5,0.4,0.9,1,1.1,1.9l-1.9,0.3c-0.1-0.4-0.2-0.7-0.4-0.9
	c-0.2-0.2-0.5-0.3-0.8-0.2c-0.4,0-0.8,0.2-1,0.6c-0.3,0.4-0.4,1.2-0.4,2.4c0.5-0.6,1.1-0.9,1.8-1c0.8,0,1.5,0.2,2.2,0.8
	c0.5,0.5,0.8,1.1,0.9,1.9h-1.9c-0.1-0.4-0.2-0.6-0.4-0.8c-0.3-0.3-0.6-0.4-1-0.4c-0.4,0-0.7,0.2-0.9,0.5c-0.2,0.3-0.4,0.8-0.3,1.3
	c0,0.6,0.2,1.1,0.5,1.5c0.3,0.3,0.7,0.5,1,0.5c0.4,0,0.7-0.2,0.9-0.5c0.2-0.3,0.3-0.8,0.3-1.4c0-0.1,0-0.3,0-0.4h1.9
	c0,0.1,0,0.2,0,0.3C675.5,77.2,675.2,78.1,674.6,78.7z M682.9,77.9c-0.6,0.9-1.5,1.4-2.7,1.5c-1,0-1.7-0.2-2.4-0.7
	c-0.6-0.5-1-1.2-1.2-2l2-0.3c0.1,0.4,0.3,0.8,0.5,1c0.3,0.2,0.6,0.4,1,0.3c0.4,0,0.8-0.2,1-0.6c0.3-0.3,0.4-0.9,0.4-1.5
	c0-0.6-0.2-1.1-0.5-1.4c-0.3-0.3-0.7-0.4-1.1-0.4c-0.6,0-1.1,0.3-1.5,0.8l-1.6-0.2l0.8-5.4l5.2-0.2l0.1,1.8l-3.7,0.2l-0.2,1.8
	c0.4-0.2,0.9-0.4,1.3-0.4c0.9,0,1.6,0.2,2.3,0.9c0.6,0.6,1,1.4,1,2.4C683.6,76.5,683.4,77.3,682.9,77.9z"/>
<path id="p-66" d="M836.3,35.6l-115.7,5.3l2.6,52.8l115.7-5.2L836.3,35.6z M776.2,70.5c-0.3,0.3-0.7,0.4-1.1,0.5
	c-0.5,0.1-1.2,0.2-2.2,0.2l-1.4,0.1l0.2,3.9l-2.1,0.1L769.3,65l3.3-0.2c1.3-0.1,2.1,0,2.5,0c0.6,0.1,1.1,0.4,1.5,0.9
	c0.4,0.5,0.6,1.1,0.7,1.9h-2.2c-0.1-0.3-0.1-0.5-0.3-0.7c-0.2-0.2-0.5-0.4-0.9-0.4c-0.3,0-0.8,0-1.5,0l-1,0l0.1,2.9l1.1-0.1
	c0.8,0,1.4-0.1,1.6-0.2c0.3-0.1,0.5-0.3,0.6-0.5c0.1-0.2,0.2-0.5,0.2-0.8c0,0,0,0,0,0h2.1c0,0.6-0.1,1.1-0.3,1.5
	C776.8,69.9,776.6,70.3,776.2,70.5z M779,72.2l-0.1-2l3.9-0.2l0.1,2L779,72.2z M789.6,73.6c-0.6,0.7-1.4,1-2.3,1.1
	c-1,0-1.9-0.3-2.6-1.1c-0.7-0.8-1.1-2.1-1.2-3.9c-0.1-1.9,0.2-3.3,0.9-4.1c0.7-0.9,1.5-1.3,2.7-1.4c0.8,0,1.4,0.2,2,0.6
	c0.5,0.4,0.9,1,1.1,1.9l-1.9,0.3c-0.1-0.4-0.2-0.7-0.4-0.9c-0.2-0.2-0.5-0.3-0.8-0.2c-0.4,0-0.8,0.2-1,0.6c-0.3,0.4-0.4,1.2-0.4,2.4
	c0.5-0.6,1.1-0.9,1.8-1c0.8,0,1.5,0.2,2.2,0.8c0.5,0.5,0.8,1.1,0.9,1.9h-1.9c-0.1-0.4-0.2-0.7-0.4-0.9c-0.3-0.3-0.6-0.4-1-0.4
	c-0.4,0-0.7,0.2-0.9,0.5c-0.2,0.3-0.4,0.8-0.3,1.3c0,0.6,0.2,1.1,0.5,1.5c0.3,0.3,0.7,0.5,1,0.5c0.4,0,0.7-0.2,0.9-0.5
	c0.2-0.3,0.3-0.8,0.3-1.4c0-0.1,0-0.2,0-0.4h1.9c0,0.1,0,0.2,0,0.3C790.5,72.1,790.2,73,789.6,73.6z M795.3,74.3
	c-1,0-1.9-0.3-2.6-1.1c-0.7-0.8-1.1-2.1-1.2-3.9c-0.1-1.9,0.2-3.3,0.9-4.1c0.7-0.9,1.5-1.3,2.7-1.4c0.8,0,1.4,0.2,2,0.6
	c0.5,0.4,0.9,1,1.1,1.9l-1.9,0.3c-0.1-0.4-0.2-0.7-0.4-0.9c-0.2-0.2-0.5-0.3-0.8-0.2c-0.4,0-0.8,0.2-1,0.6c-0.3,0.4-0.4,1.2-0.4,2.4
	c0.5-0.6,1.1-0.9,1.8-1c0.8,0,1.5,0.2,2.2,0.8c0.6,0.6,0.9,1.4,1,2.4c0,0,0,0,0,0h-1.9c0-0.6-0.2-1.1-0.5-1.4
	c-0.3-0.3-0.6-0.4-1-0.4c-0.4,0-0.7,0.2-0.9,0.5c-0.2,0.3-0.4,0.8-0.3,1.3c0,0.6,0.2,1.1,0.5,1.5c0.3,0.3,0.7,0.5,1,0.5
	c0.4,0,0.7-0.2,0.9-0.5c0.2-0.3,0.3-0.7,0.3-1.3h1.9c0,0.9-0.3,1.7-0.8,2.4C797.1,73.9,796.3,74.3,795.3,74.3z"/>
<path id="p-67" d="M952,30.7l-115.7,4.9l2.6,53l115.7-5.2L952,30.7z M891.9,65.4c-0.3,0.3-0.7,0.4-1.1,0.5c-0.5,0.1-1.2,0.2-2.2,0.2
	l-1.4,0.1l0.2,3.9l-2.1,0.1L885,60l3.3-0.2c1.3-0.1,2.1,0,2.5,0c0.6,0.1,1.1,0.4,1.5,0.9c0.4,0.5,0.7,1.2,0.7,2c0,0,0,0,0,0h-2.2
	c0-0.3-0.1-0.6-0.4-0.8c-0.2-0.2-0.5-0.4-0.9-0.4c-0.3,0-0.8,0-1.5,0l-1,0l0.1,2.9l1.1-0.1c0.8,0,1.4-0.1,1.6-0.2
	c0.3-0.1,0.5-0.3,0.6-0.5c0.1-0.2,0.2-0.4,0.2-0.7h2.1c0,0.5-0.1,1-0.3,1.3C892.6,64.8,892.3,65.2,891.9,65.4z M894.7,67.1l-0.1-2
	l3.9-0.2l0.1,2L894.7,67.1z M905.4,68.5c-0.6,0.7-1.4,1-2.3,1.1c-1,0-1.9-0.3-2.6-1.1c-0.5-0.5-0.8-1.4-1-2.4h2.1
	c0,0.6,0.2,1.1,0.5,1.4c0.3,0.3,0.7,0.5,1,0.5c0.4,0,0.7-0.2,0.9-0.5c0.2-0.3,0.3-0.8,0.3-1.4c0-0.7-0.2-1.2-0.5-1.5
	c-0.3-0.3-0.6-0.4-1-0.4c-0.4,0-0.7,0.2-0.9,0.5c-0.2,0.3-0.3,0.7-0.3,1.2h-2.2c-0.1-0.4-0.1-0.8-0.1-1.3c-0.1-1.9,0.2-3.3,0.9-4.1
	c0.7-0.9,1.5-1.3,2.7-1.4c0.8,0,1.4,0.2,2,0.6c0.5,0.4,0.9,1,1.1,1.9l-1.9,0.3c-0.1-0.4-0.2-0.7-0.4-0.9c-0.2-0.2-0.5-0.3-0.8-0.2
	c-0.4,0-0.8,0.2-1,0.6c-0.3,0.4-0.4,1.2-0.4,2.4c0.5-0.6,1.1-0.9,1.8-1c0.8,0,1.5,0.2,2.2,0.8c0.6,0.6,1,1.4,1,2.4
	C906.2,67,905.9,67.9,905.4,68.5z M912.2,62.6c-0.5,1.1-0.9,2.2-1.2,3.3c-0.2,1.2-0.3,2.2-0.3,3.1l-1.9,0.1c0-1.4,0.2-2.9,0.7-4.4
	c0.5-1.5,1.2-2.9,2-4.1l-4.5,0.2l-0.1-1.8l6.8-0.3l0.1,1.4C913.3,60.8,912.7,61.6,912.2,62.6z"/>
<path id="p-68" d="M1067.7,25.5L952,30.7l2.5,52.7l115.8-5.2L1067.7,25.5z M1007.7,60.3c-0.3,0.3-0.7,0.4-1.1,0.5
	c-0.5,0.1-1.2,0.2-2.2,0.2l-1.4,0.1l0.2,3.9l-2.1,0.1l-0.5-10.3l3.3-0.2c1.3-0.1,2.1,0,2.5,0c0.6,0.1,1.1,0.4,1.5,0.9
	c0.4,0.5,0.7,1.2,0.7,2c0,0,0,0.1,0,0.1h-2.1c0-0.4-0.1-0.7-0.4-0.9c-0.2-0.2-0.5-0.4-0.9-0.4c-0.3,0-0.8,0-1.5,0l-1,0l0.1,2.9
	l1.1-0.1c0.8,0,1.4-0.1,1.6-0.2c0.3-0.1,0.5-0.3,0.6-0.5c0.1-0.2,0.2-0.4,0.2-0.6h2.1c0,0.5-0.1,0.9-0.3,1.3
	C1008.3,59.7,1008,60.1,1007.7,60.3z M1010.4,62l-0.1-2l3.9-0.2l0.1,2L1010.4,62z M1018.7,64.5c-1,0-1.9-0.3-2.6-1.1
	c-0.7-0.8-1.1-2.1-1.2-3.9c-0.1-1.9,0.2-3.3,0.9-4.1c0.7-0.9,1.5-1.3,2.7-1.4c0.8,0,1.4,0.2,2,0.6c0.5,0.4,0.9,1,1.1,1.9l-1.9,0.3
	c-0.1-0.4-0.2-0.7-0.4-0.9c-0.2-0.2-0.5-0.3-0.8-0.2c-0.4,0-0.8,0.2-1,0.6c-0.3,0.4-0.4,1.2-0.4,2.4c0.5-0.6,1.1-0.9,1.8-1
	c0.8,0,1.5,0.2,2.2,0.8c0.6,0.6,0.9,1.4,1,2.4c0,0.1,0,0.1,0,0.2h-1.9c0,0,0-0.1,0-0.1c0-0.7-0.2-1.2-0.5-1.5
	c-0.3-0.3-0.6-0.4-1-0.4c-0.4,0-0.7,0.2-0.9,0.5c-0.2,0.3-0.4,0.8-0.3,1.3c0,0.6,0.2,1.1,0.5,1.5c0.3,0.3,0.7,0.5,1,0.5
	c0.4,0,0.7-0.2,0.9-0.5c0.2-0.2,0.3-0.6,0.3-1.1h1.9c0,0.9-0.3,1.6-0.8,2.1C1020.5,64.1,1019.7,64.5,1018.7,64.5z M1026.6,64.2
	c-0.9,0-1.7-0.2-2.4-0.6c-0.8-0.5-1.2-1.3-1.2-2.3c0-0.6,0.1-1.1,0.3-1.6c0.3-0.5,0.7-0.9,1.3-1.1c-0.5-0.2-0.9-0.5-1.2-0.8
	c-0.2-0.4-0.4-0.8-0.4-1.2c0-0.8,0.2-1.4,0.7-1.9c0.5-0.5,1.3-0.8,2.3-0.9c1,0,1.8,0.2,2.3,0.6c0.6,0.5,0.9,1.1,0.9,1.9h-1.9
	c-0.1-0.3-0.1-0.5-0.3-0.7c-0.2-0.2-0.5-0.3-0.9-0.3c-0.4,0-0.7,0.1-0.9,0.4c-0.2,0.2-0.3,0.5-0.3,0.9c0,0.4,0.1,0.7,0.4,0.9
	c0.2,0.2,0.5,0.3,0.9,0.3c0.4,0,0.7-0.1,0.9-0.4c0.2-0.2,0.3-0.5,0.3-0.9h1.8c0,0.4-0.1,0.7-0.3,1.1c-0.2,0.4-0.6,0.7-1,0.9
	c0.6,0.2,1,0.5,1.4,0.9c0.3,0.4,0.5,0.9,0.5,1.5h-2c0-0.5-0.2-0.9-0.5-1.1c-0.3-0.3-0.6-0.4-1.1-0.4c-0.5,0-0.8,0.2-1.1,0.5
	c-0.2,0.3-0.3,0.7-0.3,1.1c0,0.5,0.2,1,0.5,1.3c0.3,0.3,0.6,0.4,1.1,0.4c0.4,0,0.7-0.2,1-0.5c0.2-0.3,0.3-0.6,0.3-1.1h2
	c0,0.8-0.3,1.6-0.8,2.1C1028.4,63.8,1027.6,64.1,1026.6,64.2z"/>
<path id="p-69" d="M1183.4,20.4l-115.7,5.1l2.6,52.8l115.9-5.2L1183.4,20.4z M1124.4,54c-0.2,0.4-0.5,0.8-0.8,1.1
	c-0.3,0.3-0.7,0.4-1.1,0.5c-0.5,0.1-1.2,0.2-2.2,0.2l-1.4,0.1l0.2,3.9l-2.1,0.1l-0.5-10.3l3.3-0.2c1.3-0.1,2.1,0,2.5,0
	c0.6,0.1,1.1,0.4,1.5,0.9c0.4,0.4,0.6,1,0.7,1.7h-2.2c-0.1-0.2-0.1-0.4-0.3-0.5c-0.2-0.2-0.5-0.4-0.9-0.4c-0.3,0-0.8,0-1.5,0l-1,0
	l0.1,2.9l1.1-0.1c0.8,0,1.4-0.1,1.6-0.2c0.3-0.1,0.5-0.3,0.6-0.5c0.1-0.2,0.2-0.5,0.2-0.8c0-0.1,0-0.1,0-0.1h2.2c0,0,0,0,0,0
	C1124.7,53.1,1124.6,53.6,1124.4,54z M1126.3,56.7l-0.1-2l3.9-0.2l0.1,2L1126.3,56.7z M1136.9,58.2c-0.6,0.7-1.4,1-2.3,1.1
	c-1,0-1.9-0.3-2.6-1.1s-1.1-2.1-1.2-3.9c-0.1-1.9,0.2-3.3,0.9-4.1c0.7-0.9,1.5-1.3,2.7-1.4c0.8,0,1.4,0.2,2,0.6
	c0.5,0.4,0.9,1,1.1,1.9l-1.9,0.3c-0.1-0.4-0.2-0.7-0.4-0.9c-0.2-0.2-0.5-0.3-0.8-0.2c-0.4,0-0.8,0.2-1,0.6c-0.3,0.4-0.4,1.2-0.4,2.4
	c0.5-0.6,1.1-0.9,1.8-1c0.8,0,1.5,0.2,2.2,0.8c0.6,0.5,0.9,1.3,1,2.1h-1.9c-0.1-0.5-0.2-0.9-0.4-1.1c-0.3-0.3-0.6-0.4-1-0.4
	c-0.4,0-0.7,0.2-0.9,0.5c-0.2,0.3-0.4,0.8-0.3,1.3c0,0.6,0.2,1.1,0.5,1.5c0.3,0.3,0.7,0.5,1,0.5c0.4,0,0.7-0.2,0.9-0.5
	c0.2-0.3,0.3-0.8,0.3-1.4c0,0,0-0.1,0-0.1h1.9c0,0,0,0,0,0C1137.8,56.7,1137.5,57.5,1136.9,58.2z M1144.7,57.6
	c-0.7,0.9-1.5,1.3-2.7,1.4c-0.8,0-1.5-0.1-2-0.6c-0.5-0.4-0.9-1-1-1.9l1.9-0.3c0.1,0.4,0.2,0.7,0.4,0.8c0.2,0.2,0.5,0.3,0.8,0.2
	c0.4,0,0.7-0.2,1-0.6c0.3-0.4,0.4-1.2,0.4-2.4c-0.5,0.6-1.1,0.9-1.8,1c-0.8,0-1.5-0.2-2.1-0.8c-0.6-0.6-0.9-1.4-1-2.4
	c0-1,0.2-1.9,0.8-2.6c0.6-0.7,1.4-1,2.3-1.1c1,0,1.9,0.3,2.6,1.1c0.5,0.5,0.8,1.3,1,2.2h-2.1c-0.1-0.5-0.2-0.9-0.5-1.2
	c-0.3-0.3-0.7-0.5-1-0.5c-0.4,0-0.7,0.2-0.9,0.5c-0.2,0.3-0.3,0.8-0.3,1.4c0,0.7,0.2,1.1,0.5,1.4c0.3,0.3,0.6,0.4,1,0.4
	c0.4,0,0.7-0.2,0.9-0.5c0.2-0.3,0.4-0.8,0.3-1.3c0,0,0,0,0-0.1h2.1c0.1,0.5,0.1,0.9,0.2,1.5C1145.6,55.3,1145.3,56.7,1144.7,57.6z"
	/>
<path id="p-70" d="M1299.3,15.3l-115.9,5.1l2.7,52.7l115.7-5.2L1299.3,15.3z M1239.3,50c-0.3,0.3-0.7,0.4-1.1,0.5
	c-0.5,0.1-1.2,0.2-2.2,0.2l-1.4,0.1l0.2,3.9l-2.1,0.1l-0.5-10.3l3.3-0.2c1.3-0.1,2.1,0,2.5,0c0.6,0.1,1.1,0.4,1.5,0.9
	c0.4,0.5,0.7,1.2,0.7,2c0,0,0,0,0,0h-2.2c0-0.3-0.1-0.6-0.4-0.8c-0.2-0.2-0.5-0.4-0.9-0.4c-0.3,0-0.8,0-1.5,0l-1,0l0.1,2.9l1.1-0.1
	c0.8,0,1.4-0.1,1.6-0.2c0.3-0.1,0.5-0.3,0.6-0.5c0.1-0.2,0.2-0.4,0.2-0.7h2.1c0,0.5-0.1,1-0.3,1.3
	C1239.9,49.4,1239.6,49.7,1239.3,50z M1242,51.6l-0.1-2l3.9-0.2l0.1,2L1242,51.6z M1251.5,47.6c-0.5,1.1-0.9,2.2-1.2,3.3
	c-0.2,1.2-0.3,2.2-0.3,3.1l-1.9,0.1c0-1.4,0.2-2.9,0.7-4.4c0.5-1.5,1.2-2.9,2-4.1l-4.5,0.2l-0.1-1.8l6.8-0.3l0.1,1.4
	C1252.6,45.7,1252,46.5,1251.5,47.6z M1258.1,53.8c-1,0-1.8-0.3-2.5-1c-0.7-0.7-1-2.1-1.1-4.1c-0.1-1.9,0.2-3.4,0.8-4.2
	c0.5-0.7,1.3-1.1,2.3-1.2c1,0,1.8,0.3,2.4,1c0.7,0.8,1.1,2.2,1.2,4.2c0,0.2,0,0.4,0,0.6h-2.1c0-0.2,0-0.3,0-0.5
	c-0.1-1.2-0.2-2-0.3-2.5c-0.1-0.4-0.3-0.7-0.5-0.9c-0.2-0.1-0.4-0.2-0.6-0.2c-0.2,0-0.4,0.1-0.6,0.3c-0.2,0.2-0.3,0.4-0.4,0.8
	c-0.1,0.5-0.1,1.4-0.1,2.6c0.1,1.2,0.2,2,0.3,2.5c0.1,0.4,0.3,0.7,0.5,0.9c0.2,0.1,0.4,0.2,0.6,0.2c0.2,0,0.4-0.1,0.6-0.3
	c0.2-0.2,0.3-0.4,0.4-0.8c0.1-0.4,0.1-1,0.1-1.9h2c0,1.5-0.3,2.7-0.8,3.5C1259.9,53.4,1259.1,53.8,1258.1,53.8z"/>
<path id="p-71" d="M1415.1,10.3l-115.9,5l2.6,52.6l115.9-5.2L1415.1,10.3z M1356.1,45.1c-0.3,0.3-0.7,0.4-1.1,0.5
	c-0.5,0.1-1.2,0.2-2.2,0.2l-1.4,0.1l0.2,3.9l-2.1,0.1l-0.5-10.3l3.3-0.2c1.3-0.1,2.1,0,2.5,0c0.6,0.1,1.1,0.4,1.5,0.9
	c0.4,0.5,0.7,1.2,0.7,2c0,0.2,0,0.3,0,0.5h-2.1c0-0.1,0-0.2,0-0.3c0-0.4-0.1-0.7-0.4-0.9c-0.2-0.2-0.5-0.4-0.9-0.4
	c-0.3,0-0.8,0-1.5,0l-1,0l0.1,2.9l1.1-0.1c0.8,0,1.4-0.1,1.6-0.2c0.3-0.1,0.5-0.3,0.6-0.5c0.1-0.1,0.1-0.2,0.1-0.3h2.2
	c0,0.3-0.1,0.7-0.2,0.9C1356.8,44.5,1356.5,44.9,1356.1,45.1z M1358.9,46.8l-0.1-2l3.9-0.2l0.1,2L1358.9,46.8z M1368.4,42.7
	c-0.5,1.1-0.9,2.2-1.2,3.3c-0.2,1.2-0.3,2.2-0.3,3.1l-1.9,0.1c0-1.4,0.2-2.9,0.7-4.4c0.5-1.5,1.2-2.9,2-4.1l-4.5,0.2l-0.1-1.8
	l6.8-0.3l0.1,1.4C1369.5,40.8,1368.9,41.6,1368.4,42.7z M1374.7,48.8l-0.3-7.4c-0.7,0.7-1.5,1.2-2.5,1.6l-0.1-1.8
	c0.5-0.2,1.1-0.5,1.6-1c0.6-0.5,1-1.1,1.2-1.7l1.6-0.1l0.5,10.3L1374.7,48.8z"/>
<path id="p-72" d="M1531,5.1l-115.9,5.2l2.5,52.4l115.9-5.2L1531,5.1z M1471,39.8c-0.3,0.3-0.7,0.4-1.1,0.5
	c-0.5,0.1-1.2,0.2-2.2,0.3l-1.4,0.1l0.2,3.9l-2.1,0.1l-0.5-10.3l3.3-0.2c1.3-0.1,2.1-0.1,2.5,0c0.6,0.1,1.1,0.4,1.5,0.9
	c0.4,0.5,0.7,1.2,0.7,2c0,0.1,0,0.1,0,0.2h-2.1c0,0,0,0,0,0c0-0.4-0.1-0.7-0.4-0.9c-0.2-0.2-0.5-0.4-0.9-0.4c-0.2,0-0.7,0-1.5,0
	l-1,0.1l0.1,2.9l1.1-0.1c0.8,0,1.4-0.1,1.6-0.2c0.3-0.1,0.5-0.3,0.6-0.5c0.1-0.2,0.1-0.4,0.2-0.5h2.1c0,0.5-0.1,0.9-0.2,1.2
	C1471.6,39.2,1471.3,39.5,1471,39.8z M1473.7,41.4l-0.1-2l3.9-0.2l0.1,2L1473.7,41.4z M1483.2,37.3c-0.5,1.1-0.9,2.2-1.2,3.3
	c-0.2,1.2-0.3,2.2-0.3,3.1l-1.9,0.1c0-1.4,0.2-2.9,0.7-4.4c0.5-1.5,1.2-2.9,2-4.1l-4.5,0.2l-0.1-1.8l6.8-0.3l0.1,1.4
	C1484.3,35.4,1483.7,36.2,1483.2,37.3z M1486.2,43.5c0-0.7,0.2-1.4,0.6-2c0.3-0.6,1-1.5,2.1-2.6c0.8-0.9,1.4-1.5,1.6-1.8
	c0.2-0.4,0.4-0.8,0.3-1.2c0-0.4-0.2-0.8-0.4-1c-0.2-0.2-0.6-0.3-1-0.3c-0.4,0-0.7,0.2-1,0.4c-0.2,0.3-0.4,0.7-0.4,1.3l-2-0.1
	c0.1-1.1,0.4-1.9,1-2.4c0.6-0.5,1.4-0.8,2.3-0.8c1-0.1,1.8,0.2,2.4,0.7c0.6,0.5,0.9,1.2,1,2c0,0.5,0,0.9-0.2,1.3
	c-0.1,0.4-0.4,0.9-0.7,1.4c-0.2,0.3-0.6,0.8-1.2,1.4c-0.6,0.6-1,1-1.1,1.2c-0.2,0.2-0.3,0.4-0.4,0.6l3.9-0.2l0.1,1.8L1486.2,43.5z"
	/>
<path id="p-13" d="M1644.4,0L1531,5.1l2.5,52.4l22.9-1l0.2,4.7l95.6-4.4L1644.4,0z M1588.2,34.6c-0.3,0.3-0.7,0.4-1.1,0.5
	c-0.5,0.1-1.2,0.2-2.2,0.2l-1.4,0.1l0.2,3.9l-2.1,0.1l-0.5-10.3l3.3-0.2c1.3-0.1,2.1,0,2.5,0c0.6,0.1,1.1,0.4,1.5,0.9
	c0.4,0.5,0.7,1.2,0.7,2h-2.2c0-0.3-0.1-0.6-0.3-0.8c-0.2-0.2-0.5-0.4-0.9-0.4c-0.3,0-0.7,0-1.5,0l-1,0l0.1,2.9l1.1-0.1
	c0.8,0,1.4-0.1,1.6-0.2c0.3-0.1,0.5-0.3,0.6-0.5c0.1-0.2,0.2-0.5,0.2-0.7h2.1c0,0.5-0.1,1-0.3,1.4
	C1588.8,33.9,1588.5,34.3,1588.2,34.6z M1590.9,36.2l-0.1-2l3.9-0.2l0.1,2L1590.9,36.2z M1598.7,38.6l-0.3-7.4
	c-0.7,0.7-1.5,1.2-2.5,1.6l-0.1-1.8c0.5-0.2,1.1-0.5,1.6-1c0.6-0.5,1-1.1,1.2-1.7l1.6-0.1l0.5,10.3L1598.7,38.6z M1609.4,37.3
	c-0.6,0.7-1.4,1-2.4,1.1c-0.9,0-1.7-0.2-2.4-0.7c-0.6-0.5-1-1.2-1.2-2.1l1.9-0.3c0.1,0.5,0.3,0.8,0.5,1.1c0.3,0.2,0.6,0.4,1,0.3
	c0.4,0,0.7-0.2,1-0.5c0.3-0.3,0.4-0.7,0.4-1.3c0-0.5-0.2-0.9-0.5-1.2c-0.3-0.3-0.6-0.4-1-0.4c-0.3,0-0.6,0.1-0.9,0.2l0.1-1.6
	c0.5,0,0.9-0.1,1.2-0.4c0.3-0.3,0.4-0.6,0.4-1c0-0.3-0.1-0.6-0.3-0.8s-0.5-0.3-0.8-0.3c-0.3,0-0.6,0.1-0.8,0.4
	c-0.2,0.2-0.4,0.6-0.4,1l-1.8-0.2c0.1-0.6,0.3-1.1,0.5-1.5c0.2-0.4,0.6-0.7,1-0.9c0.4-0.2,1-0.4,1.5-0.4c1,0,1.8,0.2,2.4,0.8
	c0.5,0.5,0.8,1,0.8,1.7c0,0.9-0.4,1.6-1.4,2.2c0.6,0.1,1.1,0.4,1.5,0.8c0.4,0.4,0.6,0.9,0.6,1.6C1610.3,35.9,1610,36.7,1609.4,37.3z
	"/>
<path id="p-14" d="M1652.3,56.8l-95.6,4.4l0.2,4.5l-13.6,0.7l-4.3,8.1l2.4,49.1l119.1-5.3L1652.3,56.8z M1593.7,93.8
	c-0.3,0.3-0.7,0.4-1.1,0.5c-0.5,0.1-1.2,0.2-2.2,0.2l-1.4,0.1l0.2,3.9l-2.1,0.1l-0.5-10.3l3.3-0.2c1.3-0.1,2.1,0,2.5,0
	c0.6,0.1,1.1,0.4,1.5,0.9c0.4,0.5,0.7,1.2,0.7,2c0,0.1,0,0.2,0,0.3h-2.1c0-0.1,0-0.1,0-0.2c0-0.4-0.1-0.7-0.4-0.9
	c-0.2-0.2-0.5-0.4-0.9-0.4c-0.2,0-0.7,0-1.5,0l-1,0l0.1,2.9l1.1-0.1c0.8,0,1.4-0.1,1.6-0.2s0.5-0.3,0.6-0.5c0.1-0.1,0.1-0.3,0.2-0.4
	h2.2c0,0.4-0.1,0.8-0.2,1.1C1594.3,93.2,1594,93.5,1593.7,93.8z M1596.5,95.5l-0.1-2l3.9-0.2l0.1,2L1596.5,95.5z M1604.3,97.8
	l-0.3-7.4c-0.7,0.7-1.5,1.2-2.5,1.6l-0.1-1.8c0.5-0.2,1.1-0.5,1.6-1c0.6-0.5,1-1.1,1.2-1.7l1.6-0.1l0.5,10.3L1604.3,97.8z
	 M1615,97.3l-1.9,0.1l-0.1-2.1l-4.2,0.2l-0.1-1.7l4.2-6.8l1.7-0.1l0.3,5.6h-1.9l-0.1-2.5l-2.2,3.6l2.4-0.1l0-0.8h1.9l0,0.7l1.3-0.1
	l0.1,1.7l-1.3,0.1L1615,97.3z"/>
<path id="p-15" d="M1660.6,118.2l-119.1,5.3l2.9,59.1l124.4-5.5L1660.6,118.2z M1600.1,153c-0.2,0.4-0.5,0.8-0.8,1.1
	c-0.3,0.3-0.7,0.4-1.1,0.5c-0.5,0.1-1.2,0.2-2.2,0.2l-1.4,0.1l0.2,3.9l-2.1,0.1l-0.5-10.3l3.3-0.2c1.3-0.1,2.1,0,2.5,0
	c0.6,0.1,1.1,0.4,1.5,0.9c0.3,0.4,0.5,0.9,0.6,1.4h-2.3c-0.1-0.1-0.1-0.2-0.2-0.2c-0.2-0.2-0.5-0.4-0.9-0.4c-0.3,0-0.7,0-1.5,0l-1,0
	l0.1,2.9l1.1-0.1c0.8,0,1.4-0.1,1.6-0.2c0.3-0.1,0.5-0.3,0.6-0.5c0.1-0.2,0.2-0.5,0.2-0.8c0-0.2,0-0.3-0.1-0.4h2.2
	c0,0.1,0,0.2,0,0.3C1600.4,152,1600.3,152.6,1600.1,153z M1602,155.7l-0.1-2l3.9-0.2l0.1,2L1602,155.7z M1609.8,158.1l-0.3-7.4
	c-0.7,0.7-1.5,1.2-2.5,1.6l-0.1-1.8c0.5-0.2,1.1-0.5,1.6-1c0.6-0.5,1-1.1,1.2-1.7l1.6-0.1l0.5,10.3L1609.8,158.1z M1620.9,156.4
	c-0.6,0.9-1.5,1.4-2.7,1.5c-1,0-1.7-0.2-2.4-0.7c-0.6-0.5-1-1.2-1.2-2l2-0.3c0.1,0.4,0.3,0.8,0.5,1c0.3,0.2,0.6,0.4,1,0.3
	c0.4,0,0.8-0.2,1-0.6c0.3-0.3,0.4-0.9,0.4-1.5c0-0.6-0.2-1.1-0.5-1.4c-0.3-0.3-0.7-0.4-1.1-0.4c-0.6,0-1.1,0.3-1.5,0.8l-1.6-0.2
	l0.8-5.4l5.2-0.2l0.1,1.8l-3.7,0.2l-0.2,1.8c0.4-0.2,0.9-0.4,1.3-0.4c0.9,0,1.6,0.2,2.3,0.9c0.6,0.6,1,1.4,1,2.4
	C1621.6,154.9,1621.4,155.7,1620.9,156.4z"/>
<path id="p-16" d="M1668.7,177.1l-124.4,5.5l2.8,56.8l129.3-5.8L1668.7,177.1z M1604.6,211.9c-0.3,0.3-0.7,0.4-1.1,0.5
	c-0.5,0.1-1.2,0.2-2.2,0.2l-1.4,0.1l0.2,3.9l-2.1,0.1l-0.5-10.3l3.3-0.2c1.3-0.1,2.1,0,2.5,0c0.6,0.1,1.1,0.4,1.5,0.9
	c0.4,0.5,0.6,1.1,0.7,1.9h-2.2c-0.1-0.3-0.1-0.5-0.3-0.7c-0.2-0.2-0.5-0.4-0.9-0.4c-0.2,0-0.7,0-1.5,0l-1,0l0.1,2.9l1.1-0.1
	c0.8,0,1.4-0.1,1.6-0.2c0.3-0.1,0.5-0.3,0.6-0.5c0.1-0.2,0.2-0.5,0.2-0.8c0,0,0,0,0,0h2.1c0,0.6-0.1,1.1-0.3,1.5
	C1605.2,211.2,1605,211.6,1604.6,211.9z M1607.4,213.5l-0.1-2l3.9-0.2l0.1,2L1607.4,213.5z M1615.2,215.9l-0.3-7.4
	c-0.7,0.7-1.5,1.2-2.5,1.6l-0.1-1.8c0.5-0.2,1.1-0.5,1.6-1c0.6-0.5,1-1.1,1.2-1.7l1.6-0.1l0.5,10.3L1615.2,215.9z M1626,214.6
	c-0.6,0.7-1.4,1-2.3,1.1c-1,0-1.9-0.3-2.6-1.1c-0.7-0.8-1.1-2.1-1.2-3.9c-0.1-1.9,0.2-3.3,0.9-4.1c0.7-0.9,1.5-1.3,2.7-1.4
	c0.8,0,1.4,0.2,2,0.6c0.5,0.4,0.9,1,1.1,1.9l-1.9,0.3c-0.1-0.4-0.2-0.7-0.4-0.9c-0.2-0.2-0.5-0.3-0.8-0.2c-0.4,0-0.8,0.2-1,0.6
	c-0.3,0.4-0.4,1.2-0.4,2.4c0.5-0.6,1.1-0.9,1.8-1c0.8,0,1.5,0.2,2.2,0.8c0.5,0.5,0.8,1.1,0.9,1.9h-2c-0.1-0.4-0.2-0.6-0.4-0.8
	c-0.3-0.3-0.6-0.4-1-0.4c-0.4,0-0.7,0.2-0.9,0.5c-0.2,0.3-0.4,0.8-0.3,1.3c0,0.6,0.2,1.1,0.5,1.5c0.3,0.3,0.7,0.5,1,0.5
	c0.4,0,0.7-0.2,0.9-0.5c0.2-0.3,0.3-0.8,0.3-1.4c0-0.1,0-0.3,0-0.4h1.9c0,0.1,0,0.2,0,0.3C1626.9,213.1,1626.6,213.9,1626,214.6z"/>
<path id="p-17" d="M1676.4,233.6l-129.3,5.8l1.4,28.6l-4.6,0.2l1.2,25.7l138.9-5.1L1676.4,233.6z M1610,267.6
	c-0.3,0.3-0.7,0.4-1.1,0.5c-0.5,0.1-1.2,0.2-2.2,0.2l-1.4,0.1l0.2,3.9l-2.1,0.1l-0.5-10.3l3.3-0.2c1.3-0.1,2.1,0,2.5,0
	c0.6,0.1,1.1,0.4,1.5,0.9c0.4,0.5,0.6,1.1,0.7,1.9h-2.2c0-0.3-0.1-0.5-0.3-0.7c-0.2-0.2-0.5-0.4-0.9-0.4c-0.3,0-0.8,0-1.5,0l-1,0
	l0.1,2.9l1.1-0.1c0.8,0,1.4-0.1,1.6-0.2c0.3-0.1,0.5-0.3,0.6-0.5c0.1-0.2,0.2-0.5,0.2-0.8h2.1c0,0.6-0.1,1-0.3,1.4
	C1610.6,267,1610.3,267.3,1610,267.6z M1612.8,269.3l-0.1-2l3.9-0.2l0.1,2L1612.8,269.3z M1620.6,271.6l-0.3-7.4
	c-0.7,0.7-1.5,1.2-2.5,1.6l-0.1-1.8c0.5-0.2,1.1-0.5,1.6-1c0.6-0.5,1-1.1,1.2-1.7l1.6-0.1l0.5,10.3L1620.6,271.6z M1630.3,264.8
	c-0.5,1.1-0.9,2.2-1.2,3.3c-0.2,1.2-0.3,2.2-0.3,3.1l-1.9,0.1c0-1.4,0.2-2.9,0.7-4.4c0.5-1.5,1.2-2.9,2-4.1l-4.5,0.2l-0.1-1.8
	l6.8-0.3l0.1,1.4C1631.3,262.9,1630.8,263.8,1630.3,264.8z"/>
<path id="p-18" d="M1543.9,268.2l-4.6,0.2l-4.1-83.6l-9.6-8.7l-41.6,1.8l5.7,118l55.3-2L1543.9,268.2z M1511,236.9
	c-0.3,0.3-0.7,0.4-1.1,0.5c-0.5,0.1-1.2,0.2-2.2,0.2l-1.4,0.1l0.2,3.9l-2.1,0.1l-0.5-10.3l3.3-0.2c1.3-0.1,2.1,0,2.5,0
	c0.6,0.1,1.1,0.4,1.5,0.9c0.4,0.5,0.7,1.2,0.7,2c0,0,0,0.1,0,0.1h-2.1c0-0.4-0.1-0.7-0.4-0.9c-0.2-0.2-0.5-0.4-0.9-0.4
	c-0.2,0-0.7,0-1.5,0l-1,0l0.1,2.9l1.1-0.1c0.8,0,1.4-0.1,1.6-0.2c0.3-0.1,0.5-0.3,0.6-0.5c0.1-0.2,0.2-0.4,0.2-0.6h2.1
	c0,0.5-0.1,0.9-0.3,1.3C1511.6,236.3,1511.4,236.6,1511,236.9z M1513.8,238.5l-0.1-2l3.9-0.2l0.1,2L1513.8,238.5z M1521.6,240.9
	l-0.3-7.4c-0.7,0.7-1.5,1.2-2.5,1.6l-0.1-1.8c0.5-0.2,1.1-0.5,1.6-1c0.6-0.5,1-1.1,1.2-1.7l1.6-0.1l0.5,10.3L1521.6,240.9z
	 M1529.9,240.7c-0.9,0-1.7-0.2-2.4-0.6c-0.8-0.5-1.2-1.3-1.2-2.3c0-0.6,0.1-1.1,0.3-1.6c0.3-0.5,0.7-0.9,1.3-1.1
	c-0.5-0.2-0.9-0.5-1.2-0.8c-0.2-0.4-0.4-0.8-0.4-1.2c0-0.8,0.2-1.4,0.7-1.9c0.5-0.5,1.3-0.8,2.3-0.9c1,0,1.8,0.2,2.3,0.6
	c0.6,0.5,0.9,1.1,0.9,1.9c0,0.1,0,0.3,0,0.4h-1.8c0-0.1,0-0.1,0-0.2c0-0.4-0.1-0.7-0.4-0.9c-0.2-0.2-0.5-0.3-0.9-0.3
	c-0.4,0-0.7,0.1-0.9,0.4c-0.2,0.2-0.3,0.5-0.3,0.9c0,0.4,0.1,0.7,0.4,0.9c0.2,0.2,0.5,0.3,0.9,0.3c0.4,0,0.7-0.1,0.9-0.4
	c0.1-0.1,0.2-0.3,0.2-0.5h1.8c-0.1,0.2-0.1,0.4-0.3,0.7c-0.2,0.4-0.6,0.7-1,0.9c0.6,0.2,1,0.5,1.4,0.9c0.3,0.4,0.5,0.9,0.5,1.5
	c0,0.2,0,0.4,0,0.6h-2c0-0.2,0.1-0.4,0.1-0.6c0-0.5-0.2-0.9-0.5-1.1c-0.3-0.3-0.6-0.4-1.1-0.4c-0.5,0-0.8,0.2-1.1,0.5
	c-0.2,0.3-0.3,0.7-0.3,1.1c0,0.5,0.2,1,0.5,1.3c0.3,0.3,0.6,0.4,1.1,0.4c0.4,0,0.7-0.2,1-0.5c0.1-0.1,0.2-0.3,0.2-0.4h2
	c-0.1,0.6-0.3,1.1-0.7,1.5C1531.7,240.3,1530.9,240.7,1529.9,240.7z"/>
<path id="p-19" d="M1484.1,178l-54.7,2.4l5.9,117.6l54.6-2L1484.1,178z M1456,239.4c-0.3,0.3-0.7,0.4-1.1,0.5
	c-0.5,0.1-1.2,0.2-2.2,0.2l-1.4,0.1l0.2,3.9l-2.1,0.1l-0.5-10.3l3.3-0.2c1.3-0.1,2.1,0,2.5,0c0.6,0.1,1.1,0.4,1.5,0.9
	c0.4,0.5,0.7,1.2,0.7,2c0,0.1,0,0.2,0,0.3h-2.1c0-0.1,0-0.1,0-0.2c0-0.4-0.1-0.7-0.4-0.9c-0.2-0.2-0.5-0.4-0.9-0.4
	c-0.2,0-0.7,0-1.5,0l-1,0l0.1,2.9l1.1-0.1c0.8,0,1.4-0.1,1.6-0.2c0.3-0.1,0.5-0.3,0.6-0.5c0.1-0.1,0.1-0.3,0.2-0.4h2.2
	c0,0.4-0.1,0.8-0.2,1.1C1456.6,238.8,1456.3,239.1,1456,239.4z M1458.8,241l-0.1-2l3.9-0.2l0.1,2L1458.8,241z M1466.6,243.4
	l-0.3-7.4c-0.7,0.7-1.5,1.2-2.5,1.6l-0.1-1.8c0.5-0.2,1.1-0.5,1.6-1c0.6-0.5,1-1.1,1.2-1.7l1.6-0.1l0.5,10.3L1466.6,243.4z
	 M1477.1,241.8c-0.7,0.9-1.5,1.3-2.7,1.4c-0.8,0-1.5-0.1-2-0.6c-0.5-0.4-0.9-1-1-1.9l1.9-0.3c0.1,0.4,0.2,0.7,0.4,0.8
	c0.2,0.2,0.5,0.3,0.8,0.2c0.4,0,0.7-0.2,1-0.6c0.3-0.4,0.4-1.2,0.4-2.4c-0.5,0.6-1.1,0.9-1.8,1c-0.8,0-1.5-0.2-2.1-0.8
	c-0.6-0.6-1-1.4-1-2.4c0-1,0.2-1.9,0.8-2.6c0.6-0.7,1.4-1,2.3-1.1c1,0,1.9,0.3,2.6,1.1c0.6,0.7,1,1.8,1.1,3.2h-2.3
	c0-0.2,0.1-0.4,0.1-0.7c0-0.6-0.2-1.1-0.5-1.5c-0.3-0.3-0.7-0.5-1-0.5c-0.4,0-0.7,0.2-0.9,0.5c-0.2,0.3-0.3,0.8-0.3,1.4
	c0,0.7,0.2,1.1,0.5,1.4c0.3,0.3,0.6,0.4,1,0.4c0.4,0,0.7-0.2,0.9-0.5c0.1-0.1,0.1-0.3,0.2-0.4h2.4c0,0.2,0,0.3,0,0.5
	C1478.1,239.6,1477.8,241,1477.1,241.8z"/>
<path id="p-20" d="M1429.4,180.4l-54.7,2.4l5.7,117.2l54.9-2L1429.4,180.4z M1401.3,241.6c-0.3,0.3-0.7,0.4-1.1,0.5
	c-0.5,0.1-1.2,0.2-2.2,0.2l-1.4,0.1l0.2,3.9l-2.1,0.1l-0.5-10.3l3.3-0.2c1.3-0.1,2.1,0,2.5,0c0.6,0.1,1.1,0.4,1.5,0.9
	c0.4,0.5,0.7,1.2,0.7,2c0,0.2,0,0.4,0,0.5h-2.2c0-0.1,0-0.3,0-0.4c0-0.4-0.1-0.7-0.4-0.9c-0.2-0.2-0.5-0.4-0.9-0.4
	c-0.3,0-0.7,0-1.5,0l-1,0l0.1,2.9l1.1-0.1c0.8,0,1.4-0.1,1.6-0.2c0.3-0.1,0.5-0.3,0.6-0.5c0-0.1,0.1-0.1,0.1-0.2h2.2
	c0,0.3-0.1,0.6-0.2,0.9C1401.9,240.9,1401.6,241.3,1401.3,241.6z M1404,243.2l-0.1-2l3.9-0.2l0.1,2L1404,243.2z M1408.5,245.7
	c0-0.7,0.2-1.4,0.6-2c0.3-0.6,1-1.5,2.1-2.6c0.9-0.9,1.4-1.5,1.6-1.8c0.3-0.4,0.4-0.8,0.4-1.2c0-0.4-0.2-0.8-0.4-1
	c-0.2-0.2-0.6-0.3-1-0.3c-0.4,0-0.7,0.2-1,0.4c-0.2,0.3-0.4,0.7-0.4,1.3l-2-0.1c0.1-1.1,0.4-1.9,1-2.4c0.6-0.5,1.4-0.8,2.3-0.8
	c1,0,1.8,0.2,2.4,0.7c0.6,0.5,0.9,1.2,1,2c0,0.5,0,0.9-0.2,1.3c-0.1,0.4-0.4,0.9-0.7,1.4c-0.2,0.3-0.6,0.8-1.2,1.4
	c-0.6,0.6-1,1-1.1,1.2c-0.2,0.2-0.3,0.4-0.4,0.6l3.9-0.2l0.1,1.8L1408.5,245.7z M1422.4,244.2c-0.5,0.7-1.3,1.1-2.3,1.2
	c-1,0-1.8-0.3-2.5-1c-0.6-0.7-1-2.1-1.1-4.1c-0.1-1.9,0.2-3.4,0.8-4.2c0.5-0.7,1.3-1.1,2.3-1.2c1,0,1.8,0.3,2.4,1
	c0.6,0.7,1,1.9,1.1,3.6h-2.1c-0.1-0.9-0.1-1.5-0.3-1.8c-0.1-0.4-0.3-0.7-0.5-0.9c-0.2-0.1-0.4-0.2-0.6-0.2c-0.2,0-0.5,0.1-0.6,0.3
	c-0.2,0.2-0.3,0.4-0.4,0.8c-0.1,0.5-0.1,1.4-0.1,2.6c0.1,1.2,0.2,2,0.3,2.5c0.1,0.4,0.3,0.7,0.5,0.9c0.2,0.1,0.4,0.2,0.6,0.2
	c0.2,0,0.4-0.1,0.6-0.3c0.2-0.2,0.3-0.4,0.4-0.8c0.1-0.5,0.1-1.4,0.1-2.6c0-0.2,0-0.3,0-0.4h2.1c0,0.1,0,0.2,0,0.3
	C1423.3,241.9,1423,243.3,1422.4,244.2z"/>
<path id="p-21" d="M1374.6,182.8l-54.9,2.4l5.6,116.8l55-2L1374.6,182.8z M1347.3,243.7c-0.3,0.3-0.7,0.4-1.1,0.5
	c-0.5,0.1-1.2,0.2-2.2,0.2l-1.4,0.1l0.2,3.9l-2.1,0.1l-0.5-10.3l3.3-0.2c1.3-0.1,2.1,0,2.5,0c0.6,0.1,1.1,0.4,1.5,0.9
	c0.4,0.5,0.7,1.2,0.7,2c0,0.3,0,0.5,0,0.8h-2.2c0.1-0.2,0.1-0.4,0.1-0.6c0-0.4-0.1-0.7-0.4-0.9c-0.2-0.2-0.5-0.4-0.9-0.4
	c-0.2,0-0.7,0-1.5,0l-1,0l0.1,2.9l1.1-0.1c0.8,0,1.4-0.1,1.6-0.2c0.2-0.1,0.4-0.3,0.6-0.5h2.3c0,0.2-0.1,0.4-0.2,0.6
	C1347.9,243.1,1347.6,243.5,1347.3,243.7z M1350,245.4l-0.1-2l3.9-0.2l0.1,2L1350,245.4z M1354.5,247.9c0-0.7,0.2-1.4,0.6-2
	c0.3-0.6,1-1.5,2.1-2.6c0.9-0.9,1.4-1.5,1.6-1.8c0.2-0.4,0.4-0.8,0.3-1.2c0-0.4-0.2-0.8-0.4-1c-0.2-0.2-0.6-0.3-1-0.3
	c-0.4,0-0.7,0.2-1,0.4c-0.2,0.3-0.4,0.7-0.4,1.3l-2-0.1c0.1-1.1,0.4-1.9,1-2.4c0.6-0.5,1.4-0.8,2.3-0.8c1,0,1.8,0.2,2.4,0.7
	c0.6,0.5,0.9,1.2,1,2c0,0.5,0,0.9-0.2,1.3c-0.1,0.4-0.4,0.9-0.7,1.4c-0.2,0.3-0.6,0.8-1.2,1.4c-0.6,0.6-1,1-1.1,1.2
	c-0.2,0.2-0.3,0.4-0.4,0.6l3.9-0.2l0.1,1.8L1354.5,247.9z M1365.8,247.4l-0.3-7.4c-0.7,0.7-1.5,1.2-2.5,1.6l-0.1-1.8
	c0.5-0.2,1.1-0.5,1.6-1c0.6-0.5,1-1.1,1.2-1.7l1.6-0.1l0.5,10.3L1365.8,247.4z"/>
<path id="p-22" d="M1319.7,185.2l-55.2,2.4l5.6,116.4l55.2-2L1319.7,185.2z M1291.4,246.1c-0.3,0.3-0.7,0.4-1.1,0.5
	c-0.5,0.1-1.2,0.2-2.2,0.2l-1.4,0.1l0.2,3.9l-2.1,0.1l-0.5-10.3l3.3-0.2c1.3-0.1,2.1,0,2.5,0c0.6,0.1,1.1,0.4,1.5,0.9
	c0.4,0.5,0.7,1.2,0.7,2c0,0.3,0,0.6,0,0.9h-2.3c0.1-0.2,0.2-0.5,0.2-0.7c0-0.4-0.1-0.7-0.4-0.9c-0.2-0.2-0.5-0.4-0.9-0.4
	c-0.2,0-0.8,0-1.5,0l-1,0l0.1,2.9l1.1-0.1c0.8,0,1.4-0.1,1.6-0.2c0.2-0.1,0.4-0.2,0.5-0.4h2.4c0,0.2-0.1,0.4-0.2,0.5
	C1292,245.4,1291.7,245.8,1291.4,246.1z M1294.1,247.7l-0.1-2l3.9-0.2l0.1,2L1294.1,247.7z M1298.6,250.3c0-0.7,0.2-1.4,0.6-2
	c0.3-0.6,1-1.5,2.1-2.6c0.9-0.9,1.4-1.5,1.6-1.8c0.3-0.4,0.4-0.8,0.4-1.2c0-0.4-0.2-0.8-0.4-1c-0.2-0.2-0.6-0.3-1-0.3
	c-0.4,0-0.7,0.2-1,0.4c-0.2,0.3-0.4,0.7-0.4,1.3l-2-0.1c0.1-1.1,0.4-1.9,1-2.4c0.6-0.5,1.4-0.8,2.3-0.8c1,0,1.8,0.2,2.4,0.7
	c0.6,0.5,0.9,1.2,1,2c0,0.5,0,0.9-0.2,1.3c-0.1,0.4-0.4,0.9-0.7,1.4c-0.2,0.3-0.6,0.8-1.2,1.4s-1,1-1.1,1.2
	c-0.2,0.2-0.3,0.4-0.4,0.6l3.9-0.2l0.1,1.8L1298.6,250.3z M1306.6,249.9c0-0.7,0.2-1.4,0.6-2c0.3-0.6,1-1.5,2.1-2.6
	c0.9-0.9,1.4-1.5,1.6-1.8c0.3-0.4,0.4-0.8,0.4-1.2c0-0.4-0.2-0.8-0.4-1c-0.2-0.2-0.6-0.3-1-0.3c-0.4,0-0.7,0.2-1,0.4
	c-0.2,0.3-0.4,0.7-0.4,1.3l-2-0.1c0.1-1.1,0.4-1.9,1-2.4c0.6-0.5,1.4-0.8,2.3-0.8c1,0,1.8,0.2,2.4,0.7c0.6,0.5,0.9,1.2,1,2
	c0,0.5,0,0.9-0.2,1.3c-0.1,0.4-0.4,0.9-0.7,1.4c-0.2,0.3-0.6,0.8-1.2,1.4s-1,1-1.1,1.2c-0.2,0.2-0.3,0.4-0.4,0.6l3.9-0.2l0.1,1.8
	L1306.6,249.9z"/>
<path id="p-23" d="M1264.6,187.7l-55.3,2.4l5.6,116l55.3-2L1264.6,187.7z M1236,248.4c-0.3,0.3-0.7,0.4-1.1,0.5
	c-0.5,0.1-1.2,0.2-2.2,0.2l-1.4,0.1l0.2,3.9l-2.1,0.1l-0.5-10.3l3.3-0.2c1.3-0.1,2.1,0,2.5,0c0.6,0.1,1.1,0.4,1.5,0.9
	c0.4,0.5,0.7,1.2,0.7,2c0,0.1,0,0.1,0,0.2h-2.1c0,0,0,0,0,0c0-0.4-0.1-0.7-0.4-0.9s-0.5-0.4-0.9-0.4c-0.3,0-0.8,0-1.5,0l-1,0
	l0.1,2.9l1.1-0.1c0.8,0,1.4-0.1,1.6-0.2c0.3-0.1,0.5-0.3,0.6-0.5c0.1-0.2,0.2-0.4,0.2-0.6h2.1c0,0.5-0.1,0.9-0.3,1.2
	C1236.7,247.8,1236.4,248.1,1236,248.4z M1238.8,250l-0.1-2l3.9-0.2l0.1,2L1238.8,250z M1243.3,252.6c0-0.7,0.2-1.4,0.6-2
	c0.3-0.6,1-1.5,2.1-2.6c0.9-0.9,1.4-1.5,1.6-1.8c0.3-0.4,0.4-0.8,0.4-1.2c0-0.4-0.2-0.8-0.4-1c-0.2-0.2-0.6-0.3-1-0.3
	c-0.4,0-0.7,0.2-1,0.4c-0.2,0.3-0.4,0.7-0.4,1.3l-2-0.1c0.1-1.1,0.4-1.9,1-2.4c0.6-0.5,1.4-0.8,2.3-0.8c1,0,1.8,0.2,2.4,0.7
	c0.6,0.5,0.9,1.2,1,2c0,0.5,0,0.9-0.2,1.3c-0.1,0.4-0.4,0.9-0.7,1.4c-0.2,0.3-0.6,0.8-1.2,1.4c-0.6,0.6-1,1-1.1,1.2
	c-0.2,0.2-0.3,0.4-0.4,0.6l3.9-0.2l0.1,1.8L1243.3,252.6z M1257.3,251.2c-0.6,0.7-1.4,1-2.4,1.1c-0.9,0-1.7-0.2-2.4-0.7
	c-0.6-0.5-1-1.2-1.2-2.1l1.9-0.3c0.1,0.5,0.3,0.8,0.5,1.1c0.3,0.2,0.6,0.4,1,0.3c0.4,0,0.7-0.2,1-0.5c0.3-0.3,0.4-0.7,0.4-1.3
	c0-0.5-0.2-0.9-0.5-1.2c-0.3-0.3-0.6-0.4-1-0.4c-0.3,0-0.6,0.1-0.9,0.2l0.1-1.6c0.5,0,0.9-0.1,1.2-0.4c0.3-0.3,0.4-0.6,0.4-1
	c0-0.3-0.1-0.6-0.3-0.8c-0.2-0.2-0.5-0.3-0.8-0.3c-0.3,0-0.6,0.1-0.8,0.4c-0.2,0.2-0.4,0.6-0.4,1l-1.8-0.2c0.1-0.6,0.3-1.1,0.5-1.5
	c0.2-0.4,0.6-0.7,1-0.9c0.4-0.2,1-0.4,1.5-0.4c1,0,1.8,0.2,2.4,0.8c0.5,0.5,0.8,1,0.8,1.7c0,0.9-0.4,1.7-1.4,2.2
	c0.6,0.1,1.1,0.4,1.5,0.8c0.4,0.4,0.6,0.9,0.6,1.6C1258.2,249.7,1257.9,250.5,1257.3,251.2z"/>
<path id="p-24" d="M1209.3,190.1l-55.6,2.5l5.7,115.7l55.5-2.2L1209.3,190.1z M1180.4,250.6c-0.3,0.3-0.7,0.4-1.1,0.5
	c-0.5,0.1-1.2,0.2-2.2,0.2l-1.4,0.1l0.2,3.9l-2.1,0.1l-0.5-10.3l3.3-0.2c1.3-0.1,2.1,0,2.5,0c0.6,0.1,1.1,0.4,1.5,0.9
	c0.4,0.5,0.6,1.1,0.7,1.9h-2.2c0-0.3-0.1-0.5-0.3-0.7c-0.2-0.2-0.5-0.4-0.9-0.4c-0.2,0-0.8,0-1.5,0l-1,0l0.1,2.9l1.1-0.1
	c0.8,0,1.4-0.1,1.6-0.2c0.3-0.1,0.5-0.3,0.6-0.5c0.1-0.2,0.2-0.5,0.2-0.8h2.1c0,0.5-0.1,1-0.3,1.4
	C1181.1,250,1180.8,250.3,1180.4,250.6z M1183.2,252.2l-0.1-2l3.9-0.2l0.1,2L1183.2,252.2z M1187.7,254.8c0-0.7,0.2-1.4,0.6-2
	c0.3-0.6,1-1.5,2.1-2.6c0.9-0.9,1.4-1.5,1.6-1.8c0.3-0.4,0.4-0.8,0.4-1.2c0-0.4-0.2-0.8-0.4-1c-0.2-0.2-0.6-0.3-1-0.3
	c-0.4,0-0.7,0.2-1,0.4c-0.2,0.3-0.4,0.7-0.4,1.3l-2-0.1c0.1-1.1,0.4-1.9,1-2.4c0.6-0.5,1.4-0.8,2.3-0.8c1,0,1.8,0.2,2.4,0.7
	c0.6,0.5,0.9,1.2,1,2c0,0.5,0,0.9-0.2,1.3c-0.1,0.4-0.4,0.9-0.7,1.4c-0.2,0.3-0.6,0.8-1.2,1.4c-0.6,0.6-1,1-1.1,1.2
	c-0.2,0.2-0.3,0.4-0.4,0.6l3.9-0.2l0.1,1.8L1187.7,254.8z M1201.7,254.1l-1.9,0.1l-0.1-2.1l-4.2,0.2l-0.1-1.7l4.2-6.8l1.7-0.1
	l0.3,5.4h-1.9l-0.1-2.3l-2.2,3.6l2.4-0.1l0-1h1.9l0,0.9l1.3-0.1l0.1,1.7l-1.3,0.1L1201.7,254.1z"/>
<path id="p-25" d="M1153.7,192.6L1098,195l5.6,115.3l55.8-2L1153.7,192.6z M1125,252.9c-0.3,0.3-0.7,0.4-1.1,0.5
	c-0.5,0.1-1.2,0.2-2.2,0.2l-1.4,0.1l0.2,3.9l-2.1,0.1l-0.5-10.3l3.3-0.2c1.3-0.1,2.1,0,2.5,0c0.6,0.1,1.1,0.4,1.5,0.9
	c0.4,0.5,0.7,1.2,0.7,2c0,0,0,0.1,0,0.1h-2.1c0-0.4-0.1-0.7-0.4-0.9c-0.2-0.2-0.5-0.4-0.9-0.4c-0.3,0-0.8,0-1.5,0l-1,0l0.1,2.9
	l1.1-0.1c0.8,0,1.4-0.1,1.6-0.2c0.3-0.1,0.5-0.3,0.6-0.5c0.1-0.2,0.2-0.4,0.2-0.6h2.1c0,0.5-0.1,0.9-0.3,1.3
	C1125.6,252.3,1125.3,252.6,1125,252.9z M1127.8,254.6l-0.1-2l3.9-0.2l0.1,2L1127.8,254.6z M1132.2,257.1c0-0.7,0.2-1.4,0.6-2
	c0.3-0.6,1-1.5,2.1-2.6c0.9-0.9,1.4-1.5,1.6-1.8c0.3-0.4,0.4-0.8,0.4-1.2c0-0.4-0.2-0.8-0.4-1c-0.2-0.2-0.6-0.3-1-0.3
	c-0.4,0-0.7,0.2-1,0.4c-0.2,0.3-0.4,0.7-0.4,1.3l-2-0.1c0.1-1.1,0.4-1.9,1-2.4c0.6-0.5,1.4-0.8,2.3-0.8c1,0,1.8,0.2,2.4,0.7
	c0.6,0.5,0.9,1.2,1,2c0,0.5,0,0.9-0.2,1.3c-0.1,0.4-0.4,0.9-0.7,1.4c-0.2,0.3-0.6,0.8-1.2,1.4c-0.6,0.6-1,1-1.1,1.2
	c-0.2,0.2-0.3,0.4-0.4,0.6l3.9-0.2l0.1,1.8L1132.2,257.1z M1146.7,255.2c-0.6,0.9-1.5,1.4-2.7,1.5c-1,0-1.7-0.2-2.4-0.7
	c-0.6-0.5-1-1.2-1.2-2l2-0.3c0.1,0.4,0.3,0.8,0.5,1c0.3,0.2,0.6,0.4,1,0.3c0.4,0,0.8-0.2,1-0.6c0.3-0.3,0.4-0.9,0.4-1.5
	c0-0.6-0.2-1.1-0.5-1.4c-0.3-0.3-0.7-0.4-1.1-0.4c-0.6,0-1.1,0.3-1.5,0.8l-1.6-0.2l0.8-5.4l5.2-0.2l0.1,1.8l-3.7,0.2l-0.2,1.8
	c0.4-0.2,0.9-0.4,1.3-0.4c0.9,0,1.6,0.2,2.3,0.9c0.6,0.6,1,1.4,1,2.4C1147.3,253.8,1147.1,254.5,1146.7,255.2z"/>
<path id="p-26" d="M1098,195l-55.9,2.5l5.6,114.9l55.9-2L1098,195z M1065.2,255.1c-0.3,0.3-0.7,0.4-1.1,0.5
	c-0.5,0.1-1.2,0.2-2.2,0.2l-1.4,0.1l0.2,3.9l-2.1,0.1l-0.5-10.3l3.3-0.2c1.3-0.1,2.1,0,2.5,0c0.6,0.1,1.1,0.4,1.5,0.9
	c0.4,0.5,0.7,1.2,0.7,2c0,0.1,0,0.1,0,0.2h-2.1c0,0,0,0,0,0c0-0.4-0.1-0.7-0.4-0.9c-0.2-0.2-0.5-0.4-0.9-0.4c-0.2,0-0.8,0-1.5,0
	l-1,0l0.1,2.9l1.1-0.1c0.8,0,1.4-0.1,1.6-0.2c0.3-0.1,0.5-0.3,0.6-0.5c0.1-0.2,0.2-0.4,0.2-0.6h2.1c0,0.5-0.1,0.9-0.2,1.2
	C1065.8,254.5,1065.5,254.8,1065.2,255.1z M1067.9,256.7l-0.1-2l3.9-0.2l0.1,2L1067.9,256.7z M1072.4,259.3c0-0.7,0.2-1.4,0.6-2
	c0.3-0.6,1-1.5,2.1-2.6c0.9-0.9,1.4-1.5,1.6-1.8c0.3-0.4,0.4-0.8,0.4-1.2c0-0.4-0.2-0.8-0.4-1c-0.2-0.2-0.6-0.3-1-0.3
	c-0.4,0-0.7,0.2-1,0.4c-0.2,0.3-0.4,0.7-0.4,1.3l-2-0.1c0.1-1.1,0.4-1.9,1-2.4c0.6-0.5,1.4-0.8,2.3-0.8c1,0,1.8,0.2,2.4,0.7
	c0.6,0.5,0.9,1.2,1,2c0,0.5,0,0.9-0.2,1.3c-0.1,0.4-0.4,0.9-0.7,1.4c-0.2,0.3-0.6,0.8-1.2,1.4c-0.6,0.6-1,1-1.1,1.2
	c-0.2,0.2-0.3,0.4-0.4,0.6l3.9-0.2l0.1,1.8L1072.4,259.3z M1086.6,257.8c-0.6,0.7-1.4,1-2.3,1.1c-1,0-1.9-0.3-2.6-1.1
	c-0.7-0.8-1.1-2.1-1.2-3.9c-0.1-1.9,0.2-3.3,0.9-4.1c0.7-0.9,1.5-1.3,2.7-1.4c0.8,0,1.4,0.2,2,0.6c0.5,0.4,0.9,1,1.1,1.9l-1.9,0.3
	c-0.1-0.4-0.2-0.7-0.4-0.9c-0.2-0.2-0.5-0.3-0.8-0.2c-0.4,0-0.8,0.2-1,0.6c-0.3,0.4-0.4,1.2-0.4,2.4c0.5-0.6,1.1-0.9,1.8-1
	c0.8,0,1.5,0.2,2.2,0.8c0.6,0.6,0.9,1.3,1,2.2h-1.9c-0.1-0.5-0.2-0.9-0.4-1.1c-0.3-0.3-0.6-0.4-1-0.4c-0.4,0-0.7,0.2-0.9,0.5
	c-0.2,0.3-0.4,0.8-0.3,1.3c0,0.6,0.2,1.1,0.5,1.5c0.3,0.3,0.7,0.5,1,0.5c0.4,0,0.7-0.2,0.9-0.5c0.2-0.3,0.3-0.8,0.3-1.4
	c0,0,0-0.1,0-0.1h1.9C1087.4,256.3,1087.2,257.2,1086.6,257.8z"/>
<path id="p-27" d="M1042.2,197.5l-56,2.5l5.6,114.5l56-2L1042.2,197.5z M1013.3,257.4c-0.3,0.3-0.7,0.4-1.1,0.5
	c-0.5,0.1-1.2,0.2-2.2,0.2l-1.4,0.1l0.2,3.9l-2.1,0.1l-0.5-10.3l3.3-0.2c1.3-0.1,2.1,0,2.5,0c0.6,0.1,1.1,0.4,1.5,0.9
	c0.4,0.5,0.7,1.2,0.7,2h-2.2c0-0.3-0.1-0.6-0.3-0.8c-0.2-0.2-0.5-0.4-0.9-0.4c-0.2,0-0.8,0-1.5,0l-1,0l0.1,2.9l1.1-0.1
	c0.8,0,1.4-0.1,1.6-0.2c0.3-0.1,0.5-0.3,0.6-0.5c0.1-0.2,0.2-0.5,0.2-0.7h2.1c0,0.5-0.1,1-0.3,1.4
	C1014,256.8,1013.7,257.2,1013.3,257.4z M1016.1,259.1l-0.1-2l3.9-0.2l0.1,2L1016.1,259.1z M1020.6,261.6c0-0.7,0.2-1.4,0.6-2
	c0.3-0.6,1-1.5,2.1-2.6c0.9-0.9,1.4-1.5,1.6-1.8c0.3-0.4,0.4-0.8,0.4-1.2c0-0.4-0.2-0.8-0.4-1c-0.2-0.2-0.6-0.3-1-0.3
	c-0.4,0-0.7,0.2-1,0.4c-0.2,0.3-0.4,0.7-0.4,1.3l-2-0.1c0.1-1.1,0.4-1.9,1-2.4c0.6-0.5,1.4-0.8,2.3-0.8c1,0,1.8,0.2,2.4,0.7
	c0.6,0.5,0.9,1.2,1,2c0,0.5,0,0.9-0.2,1.3c-0.1,0.4-0.4,0.9-0.7,1.4c-0.2,0.3-0.6,0.8-1.2,1.4c-0.6,0.6-1,1-1.1,1.2
	c-0.2,0.2-0.3,0.4-0.4,0.6l3.9-0.2l0.1,1.8L1020.6,261.6z M1033.6,254.6c-0.5,1.1-0.9,2.2-1.2,3.3c-0.2,1.2-0.3,2.2-0.3,3.1
	l-1.9,0.1c0-1.4,0.2-2.9,0.7-4.4c0.5-1.5,1.2-2.9,2-4.1l-4.5,0.2l-0.1-1.8l6.8-0.3l0.1,1.4C1034.7,252.8,1034.1,253.6,1033.6,254.6z
	"/>
<path id="p-28" d="M986.1,199.9l-56.3,2.5l5.6,114.2l56.3-2.2L986.1,199.9z M957.2,259.7c-0.3,0.3-0.7,0.4-1.1,0.5
	c-0.5,0.1-1.2,0.2-2.2,0.2l-1.4,0.1l0.2,3.9l-2.1,0.1l-0.5-10.3l3.3-0.2c1.3-0.1,2.1,0,2.5,0c0.6,0.1,1.1,0.4,1.5,0.9
	c0.4,0.5,0.7,1.2,0.7,2c0,0.1,0,0.1,0,0.2h-2.1c0,0,0,0,0,0c0-0.4-0.1-0.7-0.4-0.9c-0.2-0.2-0.5-0.4-0.9-0.4c-0.3,0-0.8,0-1.5,0
	l-1,0l0.1,2.9l1.1-0.1c0.8,0,1.4-0.1,1.6-0.2c0.3-0.1,0.5-0.3,0.6-0.5c0.1-0.2,0.2-0.4,0.2-0.6h2.1c0,0.5-0.1,0.9-0.3,1.2
	C957.8,259.1,957.5,259.5,957.2,259.7z M959.9,261.4l-0.1-2l3.9-0.2l0.1,2L959.9,261.4z M964.4,263.9c0-0.7,0.2-1.4,0.6-2
	c0.3-0.6,1-1.5,2.1-2.6c0.9-0.9,1.4-1.5,1.6-1.8c0.3-0.4,0.4-0.8,0.4-1.2c0-0.4-0.2-0.8-0.4-1c-0.2-0.2-0.6-0.3-1-0.3
	c-0.4,0-0.7,0.2-1,0.4c-0.2,0.3-0.4,0.7-0.4,1.3l-2-0.1c0.1-1.1,0.4-1.9,1-2.4c0.6-0.5,1.4-0.8,2.3-0.8c1,0,1.8,0.2,2.4,0.7
	c0.6,0.5,0.9,1.2,1,2c0,0.5,0,0.9-0.2,1.3c-0.1,0.4-0.4,0.9-0.7,1.4c-0.2,0.3-0.6,0.8-1.2,1.4c-0.6,0.6-1,1-1.1,1.2
	c-0.2,0.2-0.3,0.4-0.4,0.6l3.9-0.2l0.1,1.8L964.4,263.9z M976.1,263.6c-0.9,0-1.7-0.2-2.4-0.6c-0.8-0.5-1.2-1.3-1.2-2.3
	c0-0.6,0.1-1.1,0.3-1.6c0.3-0.5,0.7-0.9,1.3-1.1c-0.5-0.2-0.9-0.5-1.2-0.8c-0.2-0.4-0.4-0.8-0.4-1.2c0-0.8,0.2-1.4,0.7-1.9
	c0.5-0.5,1.3-0.8,2.3-0.9c1,0,1.8,0.2,2.3,0.6c0.5,0.4,0.8,0.9,0.9,1.6h-1.9c-0.1-0.1-0.1-0.3-0.3-0.4c-0.2-0.2-0.5-0.3-0.9-0.3
	c-0.4,0-0.7,0.1-0.9,0.4c-0.2,0.2-0.3,0.5-0.3,0.9c0,0.4,0.1,0.7,0.4,0.9c0.2,0.2,0.5,0.3,0.9,0.3c0.4,0,0.7-0.1,0.9-0.4
	c0.2-0.2,0.3-0.5,0.3-0.9c0-0.1,0-0.2-0.1-0.3h1.9c0,0,0,0,0,0.1c0,0.5-0.1,0.9-0.3,1.3c-0.2,0.4-0.6,0.7-1,0.9
	c0.6,0.2,1,0.5,1.4,0.9c0.3,0.4,0.5,0.9,0.5,1.5c0,0.1,0,0.2,0,0.3h-2c0-0.1,0-0.2,0-0.3c0-0.5-0.2-0.9-0.5-1.1
	c-0.3-0.3-0.6-0.4-1.1-0.4c-0.5,0-0.8,0.2-1.1,0.5c-0.2,0.3-0.3,0.7-0.3,1.1c0,0.5,0.2,1,0.5,1.3c0.3,0.3,0.6,0.4,1.1,0.4
	c0.4,0,0.7-0.2,1-0.5c0.2-0.2,0.2-0.4,0.3-0.7h2c-0.1,0.7-0.3,1.3-0.8,1.8C977.9,263.2,977.1,263.5,976.1,263.6z"/>
<path id="p-29" d="M929.8,202.4l-56.5,2.5l5.6,113.8l56.5-2L929.8,202.4z M900.8,262.1c-0.3,0.3-0.7,0.4-1.1,0.5
	c-0.5,0.1-1.2,0.2-2.2,0.2l-1.4,0.1l0.2,3.9l-2.1,0.1l-0.5-10.3l3.3-0.2c1.3-0.1,2.1,0,2.5,0c0.6,0.1,1.1,0.4,1.5,0.9
	c0.4,0.5,0.7,1.2,0.7,2c0,0.1,0,0.1,0,0.2h-2.1c0,0,0,0,0,0c0-0.4-0.1-0.7-0.4-0.9c-0.2-0.2-0.5-0.4-0.9-0.4c-0.2,0-0.7,0-1.5,0
	l-1,0l0.1,2.9l1.1-0.1c0.8,0,1.4-0.1,1.6-0.2c0.3-0.1,0.5-0.3,0.6-0.5c0.1-0.2,0.2-0.4,0.2-0.6h2.1c0,0.5-0.1,0.9-0.3,1.2
	C901.4,261.5,901.2,261.8,900.8,262.1z M903.6,263.7l-0.1-2l3.9-0.2l0.1,2L903.6,263.7z M908.1,266.3c0-0.7,0.2-1.4,0.6-2
	c0.3-0.6,1-1.5,2.1-2.6c0.9-0.9,1.4-1.5,1.6-1.8c0.3-0.4,0.4-0.8,0.4-1.2c0-0.4-0.2-0.8-0.4-1c-0.2-0.2-0.6-0.3-1-0.3
	c-0.4,0-0.7,0.2-1,0.4c-0.2,0.3-0.4,0.7-0.4,1.3l-2-0.1c0.1-1.1,0.4-1.9,1-2.4s1.4-0.8,2.3-0.8c1,0,1.8,0.2,2.4,0.7
	c0.6,0.5,0.9,1.2,1,2c0,0.5,0,0.9-0.2,1.3c-0.1,0.4-0.4,0.9-0.7,1.4c-0.2,0.3-0.6,0.8-1.2,1.4c-0.6,0.6-1,1-1.1,1.2
	c-0.2,0.2-0.3,0.4-0.4,0.6l3.9-0.2l0.1,1.8L908.1,266.3z M922,264.6c-0.7,0.9-1.5,1.3-2.7,1.4c-0.8,0-1.5-0.1-2-0.6
	c-0.5-0.4-0.9-1-1-1.9l1.9-0.3c0.1,0.4,0.2,0.7,0.4,0.8c0.2,0.2,0.5,0.3,0.8,0.2c0.4,0,0.7-0.2,1-0.6c0.3-0.4,0.4-1.2,0.4-2.4
	c-0.5,0.6-1.1,0.9-1.8,1c-0.8,0-1.5-0.2-2.1-0.8c-0.6-0.6-0.9-1.4-1-2.4c0-1,0.2-1.9,0.8-2.6c0.6-0.7,1.4-1,2.3-1.1
	c1,0,1.9,0.3,2.6,1.1c0.4,0.4,0.6,1,0.8,1.7h-2.1c-0.1-0.2-0.2-0.5-0.4-0.6c-0.3-0.3-0.7-0.5-1-0.5c-0.4,0-0.7,0.2-0.9,0.5
	c-0.2,0.3-0.3,0.8-0.3,1.4c0,0.7,0.2,1.1,0.5,1.4c0.3,0.3,0.6,0.4,1,0.4c0.4,0,0.7-0.2,0.9-0.5c0.2-0.3,0.4-0.8,0.3-1.3
	c0-0.2-0.1-0.4-0.1-0.6h2.1c0.2,0.6,0.3,1.3,0.3,2.1C922.9,262.3,922.6,263.7,922,264.6z"/>
<path id="p-30" d="M873.3,204.9l-56.6,2.5l5.6,113.5l56.6-2.2L873.3,204.9z M844.2,264.3c-0.3,0.3-0.7,0.4-1.1,0.5
	c-0.5,0.1-1.2,0.2-2.2,0.2l-1.4,0.1l0.2,3.9l-2.1,0.1l-0.5-10.3l3.3-0.2c1.3-0.1,2.1,0,2.5,0c0.6,0.1,1.1,0.4,1.5,0.9
	c0.4,0.5,0.7,1.2,0.7,2c0,0.2,0,0.3,0,0.4h-2.1c0-0.1,0-0.2,0-0.3c0-0.4-0.1-0.7-0.4-0.9c-0.2-0.2-0.5-0.4-0.9-0.4
	c-0.3,0-0.8,0-1.5,0l-1,0l0.1,2.9l1.1-0.1c0.8,0,1.4-0.1,1.6-0.2c0.3-0.1,0.5-0.3,0.6-0.5c0.1-0.1,0.1-0.2,0.1-0.3h2.2
	c0,0.4-0.1,0.7-0.2,1C844.8,263.6,844.5,264,844.2,264.3z M847,265.9l-0.1-2l3.9-0.2l0.1,2L847,265.9z M857.4,267.4
	c-0.6,0.7-1.4,1-2.4,1.1c-0.9,0-1.7-0.2-2.4-0.7c-0.6-0.5-1-1.2-1.2-2.1l1.9-0.3c0.1,0.5,0.3,0.8,0.5,1.1c0.3,0.2,0.6,0.4,1,0.3
	c0.4,0,0.7-0.2,1-0.5s0.4-0.7,0.4-1.3c0-0.5-0.2-0.9-0.5-1.2c-0.3-0.3-0.6-0.4-1-0.4c-0.3,0-0.6,0.1-0.9,0.2l0.1-1.6
	c0.5,0,0.9-0.1,1.2-0.4s0.4-0.6,0.4-1c0-0.3-0.1-0.6-0.3-0.8c-0.2-0.2-0.5-0.3-0.8-0.3c-0.3,0-0.6,0.1-0.8,0.4
	c-0.2,0.2-0.4,0.6-0.4,1l-1.8-0.2c0.1-0.6,0.3-1.1,0.5-1.5c0.2-0.4,0.6-0.7,1-0.9c0.4-0.2,1-0.4,1.5-0.4c1,0,1.8,0.2,2.4,0.8
	c0.5,0.5,0.8,1,0.8,1.7c0,0.9-0.4,1.6-1.4,2.2c0.6,0.1,1.1,0.4,1.5,0.8c0.4,0.4,0.6,0.9,0.6,1.6
	C858.4,265.9,858.1,266.7,857.4,267.4z M865.3,266.9c-0.5,0.7-1.3,1.1-2.3,1.2c-1,0-1.8-0.3-2.5-1c-0.7-0.7-1-2.1-1.1-4.1
	c-0.1-1.9,0.2-3.4,0.8-4.2c0.5-0.7,1.3-1.1,2.3-1.2c1,0,1.8,0.3,2.4,1c0.7,0.8,1.1,2.2,1.2,4.2c0,0.1,0,0.3,0,0.4h-2.1
	c0-0.1,0-0.2,0-0.3c-0.1-1.2-0.2-2-0.3-2.5c-0.1-0.4-0.3-0.7-0.5-0.9c-0.2-0.1-0.4-0.2-0.6-0.2c-0.2,0-0.4,0.1-0.6,0.3
	c-0.2,0.2-0.3,0.4-0.4,0.8c-0.1,0.5-0.1,1.4-0.1,2.6c0.1,1.2,0.2,2,0.3,2.5c0.1,0.4,0.3,0.7,0.5,0.9c0.2,0.1,0.4,0.2,0.6,0.2
	c0.2,0,0.4-0.1,0.6-0.3c0.2-0.2,0.3-0.4,0.4-0.8c0.1-0.4,0.1-1.1,0.1-2h2C866.2,264.9,865.9,266.1,865.3,266.9z"/>
<path id="p-31" d="M816.7,207.4l-56.8,2.5l5.5,113l56.9-2L816.7,207.4z M789.1,265.5c-0.2,0.4-0.5,0.8-0.8,1.1
	c-0.3,0.3-0.7,0.4-1.1,0.5c-0.5,0.1-1.2,0.2-2.2,0.2l-1.4,0.1l0.2,3.9l-2.1,0.1l-0.5-10.3l3.3-0.2c1.3-0.1,2.1,0,2.5,0
	c0.6,0.1,1.1,0.4,1.5,0.9c0.4,0.5,0.6,1,0.7,1.8h-2.2c-0.1-0.2-0.1-0.4-0.3-0.6c-0.2-0.2-0.5-0.4-0.9-0.4c-0.3,0-0.8,0-1.5,0l-1,0
	l0.1,2.9l1.1-0.1c0.8,0,1.4-0.1,1.6-0.2c0.3-0.1,0.5-0.3,0.6-0.5s0.2-0.5,0.2-0.8c0,0,0-0.1,0-0.1h2.2
	C789.4,264.6,789.3,265.1,789.1,265.5z M791.1,268.2l-0.1-2l3.9-0.2l0.1,2L791.1,268.2z M801.5,269.7c-0.6,0.7-1.4,1-2.4,1.1
	c-0.9,0-1.7-0.2-2.4-0.7c-0.6-0.5-1-1.2-1.2-2.1l1.9-0.3c0.1,0.5,0.3,0.8,0.5,1.1c0.3,0.2,0.6,0.4,1,0.3c0.4,0,0.7-0.2,1-0.5
	c0.3-0.3,0.4-0.7,0.4-1.3c0-0.5-0.2-0.9-0.5-1.2c-0.3-0.3-0.6-0.4-1-0.4c-0.3,0-0.6,0.1-0.9,0.2l0.1-1.6c0.5,0,0.9-0.1,1.2-0.4
	c0.3-0.3,0.4-0.6,0.4-1c0-0.3-0.1-0.6-0.3-0.8c-0.2-0.2-0.5-0.3-0.8-0.3c-0.3,0-0.6,0.1-0.8,0.4s-0.4,0.6-0.4,1l-1.8-0.2
	c0.1-0.6,0.3-1.1,0.5-1.5c0.2-0.4,0.6-0.7,1-0.9c0.4-0.2,1-0.4,1.5-0.4c1,0,1.8,0.2,2.4,0.8c0.5,0.5,0.8,1,0.8,1.7
	c0,0.9-0.4,1.7-1.4,2.2c0.6,0.1,1.1,0.4,1.5,0.8c0.4,0.4,0.6,0.9,0.6,1.6C802.5,268.3,802.2,269.1,801.5,269.7z M806.9,270.3
	l-0.3-7.4c-0.7,0.7-1.5,1.2-2.5,1.6l-0.1-1.8c0.5-0.2,1.1-0.5,1.6-1c0.6-0.5,1-1.1,1.2-1.7l1.6-0.1l0.5,10.3L806.9,270.3z"/>
<path id="p-32" d="M759.9,209.9l-57.1,2.5l5.5,112.7l57.1-2.2L759.9,209.9z M730.5,268.9c-0.3,0.3-0.7,0.4-1.1,0.5
	c-0.5,0.1-1.2,0.2-2.2,0.2l-1.4,0.1l0.2,3.9l-2.1,0.1l-0.5-10.3l3.3-0.2c1.3-0.1,2.1,0,2.5,0c0.6,0.1,1.1,0.4,1.5,0.9
	c0.4,0.5,0.7,1.2,0.7,2h-2.2c0-0.3-0.1-0.6-0.3-0.8c-0.2-0.2-0.5-0.4-0.9-0.4c-0.3,0-0.8,0-1.5,0l-1,0l0.1,2.9l1.1-0.1
	c0.8,0,1.4-0.1,1.6-0.2c0.3-0.1,0.5-0.3,0.6-0.5c0.1-0.2,0.2-0.5,0.2-0.7h2.1c0,0.5-0.1,1-0.3,1.4
	C731.1,268.3,730.9,268.7,730.5,268.9z M733.3,270.6l-0.1-2l3.9-0.2l0.1,2L733.3,270.6z M743.8,272c-0.6,0.7-1.4,1-2.4,1.1
	c-0.9,0-1.7-0.2-2.4-0.7c-0.6-0.5-1-1.2-1.2-2.1l1.9-0.3c0.1,0.5,0.3,0.8,0.5,1.1c0.3,0.2,0.6,0.4,1,0.3c0.4,0,0.7-0.2,1-0.5
	c0.3-0.3,0.4-0.7,0.4-1.3c0-0.5-0.2-0.9-0.5-1.2c-0.3-0.3-0.6-0.4-1-0.4c-0.3,0-0.6,0.1-0.9,0.2l0.1-1.6c0.5,0,0.9-0.1,1.2-0.4
	c0.3-0.3,0.4-0.6,0.4-1c0-0.3-0.1-0.6-0.3-0.8c-0.2-0.2-0.5-0.3-0.8-0.3c-0.3,0-0.6,0.1-0.8,0.4c-0.2,0.2-0.4,0.6-0.4,1l-1.8-0.2
	c0.1-0.6,0.3-1.1,0.5-1.5c0.2-0.4,0.6-0.7,1-0.9c0.4-0.2,1-0.4,1.5-0.4c1,0,1.8,0.2,2.4,0.8c0.5,0.5,0.8,1,0.8,1.7
	c0,0.9-0.4,1.6-1.4,2.2c0.6,0.1,1.1,0.4,1.5,0.8c0.4,0.4,0.6,0.9,0.6,1.6C744.7,270.6,744.4,271.4,743.8,272z M745.8,272.7
	c0-0.7,0.2-1.4,0.6-2c0.3-0.6,1-1.5,2.1-2.6c0.9-0.9,1.4-1.5,1.6-1.8c0.3-0.4,0.4-0.8,0.4-1.2c0-0.4-0.2-0.8-0.4-1
	c-0.2-0.2-0.6-0.3-1-0.3c-0.4,0-0.7,0.2-1,0.4c-0.2,0.3-0.4,0.7-0.4,1.3l-2-0.1c0.1-1.1,0.4-1.9,1-2.4c0.6-0.5,1.4-0.8,2.3-0.8
	c1,0,1.8,0.2,2.4,0.7s0.9,1.2,1,2c0,0.5,0,0.9-0.2,1.3c-0.1,0.4-0.4,0.9-0.7,1.4c-0.2,0.3-0.6,0.8-1.2,1.4c-0.6,0.6-1,1-1.1,1.2
	c-0.2,0.2-0.3,0.4-0.4,0.6l3.9-0.2l0.1,1.8L745.8,272.7z"/>
<path id="p-33" d="M702.8,212.4l-57.2,2.5l5.5,112.2l57.2-2L702.8,212.4z M673.3,271.2c-0.3,0.3-0.7,0.4-1.1,0.5
	c-0.5,0.1-1.2,0.2-2.2,0.2l-1.4,0.1l0.2,3.9l-2.1,0.1l-0.5-10.3l3.3-0.2c1.3-0.1,2.1,0,2.5,0c0.6,0.1,1.1,0.4,1.5,0.9
	c0.4,0.5,0.7,1.2,0.7,2c0,0.1,0,0.2,0,0.3h-2.1c0-0.1,0-0.1,0-0.2c0-0.4-0.1-0.7-0.4-0.9c-0.2-0.2-0.5-0.4-0.9-0.4
	c-0.3,0-0.8,0-1.5,0l-1,0l0.1,2.9l1.1-0.1c0.8,0,1.4-0.1,1.6-0.2c0.3-0.1,0.5-0.3,0.6-0.5c0.1-0.1,0.1-0.2,0.2-0.4h2.2
	c0,0.4-0.1,0.8-0.2,1.1C673.9,270.6,673.7,271,673.3,271.2z M676.1,272.9l-0.1-2l3.9-0.2l0.1,2L676.1,272.9z M686.6,274.4
	c-0.6,0.7-1.4,1-2.4,1.1c-0.9,0-1.7-0.2-2.4-0.7c-0.6-0.5-1-1.2-1.2-2.1l1.9-0.3c0.1,0.5,0.3,0.8,0.5,1.1c0.3,0.2,0.6,0.4,1,0.3
	c0.4,0,0.7-0.2,1-0.5c0.3-0.3,0.4-0.7,0.4-1.3c0-0.5-0.2-0.9-0.5-1.2c-0.3-0.3-0.6-0.4-1-0.4c-0.3,0-0.6,0.1-0.9,0.2l0.1-1.6
	c0.5,0,0.9-0.1,1.2-0.4c0.3-0.3,0.4-0.6,0.4-1c0-0.3-0.1-0.6-0.3-0.8c-0.2-0.2-0.5-0.3-0.8-0.3c-0.3,0-0.6,0.1-0.8,0.4
	s-0.4,0.6-0.4,1l-1.8-0.2c0.1-0.6,0.3-1.1,0.5-1.5c0.2-0.4,0.6-0.7,1-0.9c0.4-0.2,1-0.4,1.5-0.4c1,0,1.8,0.2,2.4,0.8
	c0.5,0.5,0.8,1,0.8,1.7c0,0.9-0.4,1.6-1.4,2.2c0.6,0.1,1.1,0.4,1.5,0.8c0.4,0.4,0.6,0.9,0.6,1.6
	C687.5,272.9,687.2,273.7,686.6,274.4z M694.6,274c-0.6,0.7-1.4,1-2.4,1.1c-0.9,0-1.7-0.2-2.4-0.7c-0.6-0.5-1-1.2-1.2-2.1l1.9-0.3
	c0.1,0.5,0.3,0.8,0.5,1.1c0.3,0.2,0.6,0.4,1,0.3c0.4,0,0.7-0.2,1-0.5s0.4-0.7,0.4-1.3c0-0.5-0.2-0.9-0.5-1.2c-0.3-0.3-0.6-0.4-1-0.4
	c-0.3,0-0.6,0.1-0.9,0.2l0.1-1.6c0.5,0,0.9-0.1,1.2-0.4c0.3-0.3,0.4-0.6,0.4-1c0-0.3-0.1-0.6-0.3-0.8c-0.2-0.2-0.5-0.3-0.8-0.3
	c-0.3,0-0.6,0.1-0.8,0.4c-0.2,0.2-0.4,0.6-0.4,1l-1.8-0.2c0.1-0.6,0.3-1.1,0.5-1.5c0.2-0.4,0.6-0.7,1-0.9c0.4-0.2,1-0.4,1.5-0.4
	c1,0,1.8,0.2,2.4,0.8c0.5,0.5,0.8,1,0.8,1.7c0,0.9-0.4,1.6-1.4,2.2c0.6,0.1,1.1,0.4,1.5,0.8c0.4,0.4,0.6,0.9,0.6,1.6
	C695.5,272.6,695.2,273.3,694.6,274z"/>
<path id="p-34" d="M645.6,214.9l-57.5,2.4l5.5,111.9l57.5-2.2L645.6,214.9z M616.6,272.5c-0.2,0.4-0.5,0.8-0.8,1.1
	c-0.3,0.3-0.7,0.4-1.1,0.5c-0.5,0.1-1.2,0.2-2.2,0.2l-1.4,0.1l0.2,3.9l-2.1,0.1l-0.5-10.3l3.3-0.2c1.3-0.1,2.1,0,2.5,0
	c0.6,0.1,1.1,0.4,1.5,0.9c0.4,0.5,0.6,1,0.7,1.8h-2.2c-0.1-0.2-0.1-0.4-0.3-0.6c-0.2-0.2-0.5-0.4-0.9-0.4c-0.3,0-0.8,0-1.5,0l-1,0
	l0.1,2.9l1.1-0.1c0.8,0,1.4-0.1,1.6-0.2c0.3-0.1,0.5-0.3,0.6-0.5c0.1-0.2,0.2-0.5,0.2-0.8c0,0,0-0.1,0-0.1h2.2
	C616.9,271.5,616.8,272.1,616.6,272.5z M618.6,275.2l-0.1-2l3.9-0.2l0.1,2L618.6,275.2z M629.1,276.7c-0.6,0.7-1.4,1-2.4,1.1
	c-0.9,0-1.7-0.2-2.4-0.7c-0.6-0.5-1-1.2-1.2-2.1l1.9-0.3c0.1,0.5,0.3,0.8,0.5,1.1c0.3,0.2,0.6,0.4,1,0.3c0.4,0,0.7-0.2,1-0.5
	c0.3-0.3,0.4-0.7,0.4-1.3c0-0.5-0.2-0.9-0.5-1.2c-0.3-0.3-0.6-0.4-1-0.4c-0.3,0-0.6,0.1-0.9,0.2l0.1-1.6c0.5,0,0.9-0.1,1.2-0.4
	c0.3-0.3,0.4-0.6,0.4-1c0-0.3-0.1-0.6-0.3-0.8c-0.2-0.2-0.5-0.3-0.8-0.3c-0.3,0-0.6,0.1-0.8,0.4c-0.2,0.2-0.4,0.6-0.4,1l-1.8-0.2
	c0.1-0.6,0.3-1.1,0.5-1.5c0.2-0.4,0.6-0.7,1-0.9c0.4-0.2,1-0.4,1.5-0.4c1,0,1.8,0.2,2.4,0.8c0.5,0.5,0.8,1,0.8,1.7
	c0,0.9-0.4,1.7-1.4,2.2c0.6,0.1,1.1,0.4,1.5,0.8c0.4,0.4,0.6,0.9,0.6,1.6C630,275.3,629.7,276,629.1,276.7z M637.1,277.1l-1.9,0.1
	l-0.1-2.1l-4.2,0.2l-0.1-1.7l4.2-6.8l1.7-0.1l0.2,5.2h-1.9l-0.1-2.1l-2.2,3.6l2.4-0.1l-0.1-1.2h1.9l0.1,1.1l1.3-0.1l0.1,1.7L637,275
	L637.1,277.1z"/>
<path id="p-35" d="M588.1,217.3l-57.8,2.8l5.7,111.4l57.6-2.2L588.1,217.3z M554.2,275.9c-0.3,0.3-0.7,0.4-1.1,0.5
	c-0.5,0.1-1.2,0.2-2.2,0.2l-1.4,0.1l0.2,3.9l-2.1,0.1l-0.5-10.3l3.3-0.2c1.3-0.1,2.1,0,2.5,0c0.6,0.1,1.1,0.4,1.5,0.9
	c0.4,0.5,0.7,1.2,0.7,2h-2.2c0-0.3-0.1-0.6-0.3-0.8c-0.2-0.2-0.5-0.4-0.9-0.4c-0.3,0-0.8,0-1.5,0l-1,0l0.1,2.9l1.1-0.1
	c0.8,0,1.4-0.1,1.6-0.2c0.3-0.1,0.5-0.3,0.6-0.5c0.1-0.2,0.2-0.5,0.2-0.7h2.1c0,0.5-0.1,1-0.3,1.4
	C554.9,275.3,554.6,275.6,554.2,275.9z M557,277.6l-0.1-2l3.9-0.2l0.1,2L557,277.6z M567.5,279c-0.6,0.7-1.4,1-2.4,1.1
	c-0.9,0-1.7-0.2-2.4-0.7c-0.6-0.5-1-1.2-1.2-2.1l1.9-0.3c0.1,0.5,0.3,0.8,0.5,1.1c0.3,0.2,0.6,0.4,1,0.3c0.4,0,0.7-0.2,1-0.5
	c0.3-0.3,0.4-0.7,0.4-1.3c0-0.5-0.2-0.9-0.5-1.2c-0.3-0.3-0.6-0.4-1-0.4c-0.3,0-0.6,0.1-0.9,0.2l0.1-1.6c0.5,0,0.9-0.1,1.2-0.4
	c0.3-0.3,0.4-0.6,0.4-1c0-0.3-0.1-0.6-0.3-0.8c-0.2-0.2-0.5-0.3-0.8-0.3c-0.3,0-0.6,0.1-0.8,0.4c-0.2,0.2-0.4,0.6-0.4,1l-1.8-0.2
	c0.1-0.6,0.3-1.1,0.5-1.5c0.2-0.4,0.6-0.7,1-0.9c0.4-0.2,1-0.4,1.5-0.4c1,0,1.8,0.2,2.4,0.8c0.5,0.5,0.8,1,0.8,1.7
	c0,0.9-0.4,1.6-1.4,2.2c0.6,0.1,1.1,0.4,1.5,0.8c0.4,0.4,0.6,0.9,0.6,1.6C568.4,277.6,568.1,278.4,567.5,279z M575.9,278.2
	c-0.6,0.9-1.5,1.4-2.7,1.5c-1,0-1.7-0.2-2.4-0.7c-0.6-0.5-1-1.2-1.2-2l2-0.3c0.1,0.4,0.3,0.8,0.5,1c0.3,0.2,0.6,0.4,1,0.3
	c0.4,0,0.8-0.2,1-0.6c0.3-0.3,0.4-0.9,0.4-1.5c0-0.6-0.2-1.1-0.5-1.4c-0.3-0.3-0.7-0.4-1.1-0.4c-0.6,0-1.1,0.3-1.5,0.8l-1.6-0.2
	l0.8-5.4l5.2-0.2l0.1,1.8l-3.7,0.2l-0.2,1.8c0.4-0.2,0.9-0.4,1.3-0.4c0.9,0,1.6,0.2,2.3,0.9c0.6,0.6,1,1.4,1,2.4
	C576.6,276.8,576.4,277.5,575.9,278.2z"/>
<path id="p-36" d="M530.3,220.1l-57.6,2.5l5.4,110.9l57.9-2.1L530.3,220.1z M496.5,278.4c-0.3,0.3-0.7,0.4-1.1,0.5
	c-0.5,0.1-1.2,0.2-2.2,0.2l-1.4,0.1l0.2,3.9l-2.1,0.1l-0.5-10.3l3.3-0.2c1.3-0.1,2.1,0,2.5,0c0.6,0.1,1.1,0.4,1.5,0.9
	c0.4,0.5,0.7,1.2,0.7,2c0,0.1,0,0.1,0,0.2h-2.1c0,0,0,0,0,0c0-0.4-0.1-0.7-0.4-0.9c-0.2-0.2-0.5-0.4-0.9-0.4c-0.3,0-0.8,0-1.5,0
	l-1,0l0.1,2.9l1.1-0.1c0.8,0,1.4-0.1,1.6-0.2c0.3-0.1,0.5-0.3,0.6-0.5c0.1-0.2,0.2-0.4,0.2-0.6h2.1c0,0.5-0.1,0.9-0.3,1.2
	C497.1,277.8,496.8,278.1,496.5,278.4z M499.2,280l-0.1-2l3.9-0.2l0.1,2L499.2,280z M509.7,281.5c-0.6,0.7-1.4,1-2.4,1.1
	c-0.9,0-1.7-0.2-2.4-0.7c-0.6-0.5-1-1.2-1.2-2.1l1.9-0.3c0.1,0.5,0.3,0.8,0.5,1.1c0.3,0.2,0.6,0.4,1,0.3c0.4,0,0.7-0.2,1-0.5
	c0.3-0.3,0.4-0.7,0.4-1.3c0-0.5-0.2-0.9-0.5-1.2c-0.3-0.3-0.6-0.4-1-0.4c-0.3,0-0.6,0.1-0.9,0.2l0.1-1.6c0.5,0,0.9-0.1,1.2-0.4
	c0.3-0.3,0.4-0.6,0.4-1c0-0.3-0.1-0.6-0.3-0.8c-0.2-0.2-0.5-0.3-0.8-0.3c-0.3,0-0.6,0.1-0.8,0.4c-0.2,0.2-0.4,0.6-0.4,1l-1.8-0.2
	c0.1-0.6,0.3-1.1,0.5-1.5c0.2-0.4,0.6-0.7,1-0.9c0.4-0.2,1-0.4,1.5-0.4c1,0,1.8,0.2,2.4,0.8c0.5,0.5,0.8,1,0.8,1.7
	c0,0.9-0.4,1.7-1.4,2.2c0.6,0.1,1.1,0.4,1.5,0.8c0.4,0.4,0.6,0.9,0.6,1.6C510.6,280.1,510.3,280.8,509.7,281.5z M515.5,282.2
	c-1,0-1.9-0.3-2.6-1.1c-0.7-0.8-1.1-2.1-1.2-3.9c-0.1-1.9,0.2-3.3,0.9-4.1c0.7-0.9,1.5-1.3,2.7-1.4c0.8,0,1.4,0.2,2,0.6
	c0.5,0.4,0.9,1,1.1,1.9l-1.9,0.3c-0.1-0.4-0.2-0.7-0.4-0.9c-0.2-0.2-0.5-0.3-0.8-0.2c-0.4,0-0.8,0.2-1,0.6c-0.3,0.4-0.4,1.2-0.4,2.4
	c0.5-0.6,1.1-0.9,1.8-1c0.8,0,1.5,0.2,2.2,0.8c0.6,0.6,0.9,1.4,1,2.4c0,0.1,0,0.2,0,0.3h-1.9c0-0.1,0-0.1,0-0.2
	c0-0.7-0.2-1.2-0.5-1.5c-0.3-0.3-0.6-0.4-1-0.4c-0.4,0-0.7,0.2-0.9,0.5c-0.2,0.3-0.4,0.8-0.3,1.3c0,0.6,0.2,1.1,0.5,1.5
	c0.3,0.3,0.7,0.5,1,0.5c0.4,0,0.7-0.2,0.9-0.5c0.2-0.2,0.3-0.6,0.3-1h1.9c0,0.8-0.3,1.5-0.8,2.1
	C517.3,281.8,516.5,282.2,515.5,282.2z"/>
<path id="p-37" d="M472.6,222.6l-58,2.6l5.3,110.5l58.1-2.1L472.6,222.6z M438.7,280.7c-0.3,0.3-0.7,0.4-1.1,0.5
	c-0.5,0.1-1.2,0.2-2.2,0.2l-1.4,0.1l0.2,3.9l-2.1,0.1l-0.5-10.3l3.3-0.2c1.3-0.1,2.1,0,2.5,0c0.6,0.1,1.1,0.4,1.5,0.9
	c0.4,0.5,0.7,1.2,0.7,2h-2.2c0-0.3-0.1-0.6-0.3-0.8c-0.2-0.2-0.5-0.4-0.9-0.4c-0.3,0-0.8,0-1.5,0l-1,0l0.1,2.9l1.1-0.1
	c0.8,0,1.4-0.1,1.6-0.2c0.3-0.1,0.5-0.3,0.6-0.5c0.1-0.2,0.2-0.5,0.2-0.7h2.1c0,0.5-0.1,1-0.3,1.4
	C439.3,280.1,439,280.4,438.7,280.7z M441.4,282.4l-0.1-2l3.9-0.2l0.1,2L441.4,282.4z M451.9,283.8c-0.6,0.7-1.4,1-2.4,1.1
	c-0.9,0-1.7-0.2-2.4-0.7c-0.6-0.5-1-1.2-1.2-2.1l1.9-0.3c0.1,0.5,0.3,0.8,0.5,1.1c0.3,0.2,0.6,0.4,1,0.3c0.4,0,0.7-0.2,1-0.5
	c0.3-0.3,0.4-0.7,0.4-1.3c0-0.5-0.2-0.9-0.5-1.2c-0.3-0.3-0.6-0.4-1-0.4c-0.3,0-0.6,0.1-0.9,0.2l0.1-1.6c0.5,0,0.9-0.1,1.2-0.4
	c0.3-0.3,0.4-0.6,0.4-1c0-0.3-0.1-0.6-0.3-0.8c-0.2-0.2-0.5-0.3-0.8-0.3c-0.3,0-0.6,0.1-0.8,0.4c-0.2,0.2-0.4,0.6-0.4,1l-1.8-0.2
	c0.1-0.6,0.3-1.1,0.5-1.5c0.2-0.4,0.6-0.7,1-0.9c0.4-0.2,1-0.4,1.5-0.4c1,0,1.8,0.2,2.4,0.8c0.5,0.5,0.8,1,0.8,1.7
	c0,0.9-0.4,1.6-1.4,2.2c0.6,0.1,1.1,0.4,1.5,0.8c0.4,0.4,0.6,0.9,0.6,1.6C452.8,282.4,452.5,283.2,451.9,283.8z M458.9,277.9
	c-0.5,1.1-0.9,2.2-1.2,3.3c-0.2,1.2-0.3,2.2-0.3,3.1l-1.9,0.1c0-1.4,0.2-2.9,0.7-4.4c0.5-1.5,1.2-2.9,2-4.1l-4.5,0.2l-0.1-1.8
	l6.8-0.3l0.1,1.4C460,276,459.5,276.9,458.9,277.9z"/>
<path id="p-38" d="M414.6,225.2l-58.4,2.6l5.5,110l58.2-2.2L414.6,225.2z M381.3,282c-0.2,0.4-0.5,0.8-0.8,1.1
	c-0.3,0.3-0.7,0.4-1.1,0.5c-0.5,0.1-1.2,0.2-2.2,0.2l-1.4,0.1l0.2,3.9l-2.1,0.1l-0.5-10.3l3.3-0.2c1.3-0.1,2.1,0,2.5,0
	c0.6,0.1,1.1,0.4,1.5,0.9c0.3,0.4,0.5,0.9,0.6,1.5h-2.3c-0.1-0.1-0.1-0.2-0.2-0.3c-0.2-0.2-0.5-0.4-0.9-0.4c-0.3,0-0.8,0-1.5,0l-1,0
	l0.1,2.9l1.1-0.1c0.8,0,1.4-0.1,1.6-0.2c0.3-0.1,0.5-0.3,0.6-0.5c0.1-0.2,0.2-0.5,0.2-0.8c0-0.2,0-0.3-0.1-0.4h2.2
	c0,0.1,0,0.2,0,0.3C381.6,281,381.5,281.5,381.3,282z M383.2,284.7l-0.1-2l3.9-0.2l0.1,2L383.2,284.7z M393.7,286.2
	c-0.6,0.7-1.4,1-2.4,1.1c-0.9,0-1.7-0.2-2.4-0.7c-0.6-0.5-1-1.2-1.2-2.1l1.9-0.3c0.1,0.5,0.3,0.8,0.5,1.1c0.3,0.2,0.6,0.4,1,0.3
	c0.4,0,0.7-0.2,1-0.5c0.3-0.3,0.4-0.7,0.4-1.3c0-0.5-0.2-0.9-0.5-1.2c-0.3-0.3-0.6-0.4-1-0.4c-0.3,0-0.6,0.1-0.9,0.2l0.1-1.6
	c0.5,0,0.9-0.1,1.2-0.4c0.3-0.3,0.4-0.6,0.4-1c0-0.3-0.1-0.6-0.3-0.8c-0.2-0.2-0.5-0.3-0.8-0.3c-0.3,0-0.6,0.1-0.8,0.4
	c-0.2,0.2-0.4,0.6-0.4,1l-1.8-0.2c0.1-0.6,0.3-1.1,0.5-1.5c0.2-0.4,0.6-0.7,1-0.9c0.4-0.2,1-0.4,1.5-0.4c1,0,1.8,0.2,2.4,0.8
	c0.5,0.5,0.8,1,0.8,1.7c0,0.9-0.4,1.6-1.4,2.2c0.6,0.1,1.1,0.4,1.5,0.8c0.4,0.4,0.6,0.9,0.6,1.6
	C394.6,284.7,394.3,285.5,393.7,286.2z M399.4,286.9c-0.9,0-1.7-0.2-2.4-0.6c-0.8-0.5-1.2-1.3-1.2-2.3c0-0.6,0.1-1.1,0.3-1.6
	c0.3-0.5,0.7-0.9,1.3-1.1c-0.5-0.2-0.9-0.5-1.2-0.8c-0.2-0.4-0.4-0.8-0.4-1.2c0-0.8,0.2-1.4,0.7-1.9c0.5-0.5,1.3-0.8,2.3-0.9
	c1,0,1.8,0.2,2.3,0.6c0.6,0.5,0.9,1.1,0.9,1.9h-1.9c-0.1-0.3-0.1-0.5-0.3-0.7c-0.2-0.2-0.5-0.3-0.9-0.3c-0.4,0-0.7,0.1-0.9,0.4
	c-0.2,0.2-0.3,0.5-0.3,0.9c0,0.4,0.1,0.7,0.4,0.9c0.2,0.2,0.5,0.3,0.9,0.3c0.4,0,0.7-0.1,0.9-0.4c0.2-0.2,0.3-0.5,0.3-0.9h1.8
	c0,0.4-0.1,0.7-0.3,1.1c-0.2,0.4-0.6,0.7-1,0.9c0.6,0.2,1,0.5,1.4,0.9c0.3,0.4,0.5,0.9,0.5,1.5h-2c0-0.5-0.2-0.9-0.5-1.1
	c-0.3-0.3-0.6-0.4-1.1-0.4c-0.5,0-0.8,0.2-1.1,0.5c-0.2,0.3-0.3,0.7-0.3,1.1c0,0.5,0.2,1,0.5,1.3c0.3,0.3,0.6,0.4,1.1,0.4
	c0.4,0,0.7-0.2,1-0.5c0.2-0.3,0.3-0.6,0.3-1.1h2c0,0.8-0.3,1.6-0.8,2.1C401.2,286.5,400.4,286.8,399.4,286.9z"/>
<path id="p-39" d="M356.3,227.8l-58.5,2.6l5.5,109.6l58.5-2.2L356.3,227.8z M322.9,284.3c-0.2,0.4-0.5,0.8-0.8,1.1
	c-0.3,0.3-0.7,0.4-1.1,0.5c-0.5,0.1-1.2,0.2-2.2,0.2l-1.4,0.1l0.2,3.9l-2.1,0.1l-0.5-10.3l3.3-0.2c1.3-0.1,2.1,0,2.5,0
	c0.6,0.1,1.1,0.4,1.5,0.9c0.3,0.3,0.5,0.7,0.6,1.2h-2.4c-0.2-0.2-0.5-0.3-0.8-0.4c-0.2,0-0.8,0-1.5,0l-1,0l0.1,2.9l1.1-0.1
	c0.8,0,1.4-0.1,1.6-0.2c0.3-0.1,0.5-0.3,0.6-0.5c0.1-0.2,0.2-0.5,0.2-0.8c0-0.3-0.1-0.5-0.3-0.7h2.3c0,0.2,0.1,0.4,0.1,0.6
	C323.2,283.3,323.1,283.9,322.9,284.3z M324.8,287l-0.1-2l3.9-0.2l0.1,2L324.8,287z M335.3,288.5c-0.6,0.7-1.4,1-2.4,1.1
	c-0.9,0-1.7-0.2-2.4-0.7c-0.6-0.5-1-1.2-1.2-2.1l1.9-0.3c0.1,0.5,0.3,0.8,0.5,1.1c0.3,0.2,0.6,0.4,1,0.3c0.4,0,0.7-0.2,1-0.5
	c0.3-0.3,0.4-0.7,0.4-1.3c0-0.5-0.2-0.9-0.5-1.2c-0.3-0.3-0.6-0.4-1-0.4c-0.3,0-0.6,0.1-0.9,0.2l0.1-1.6c0.5,0,0.9-0.1,1.2-0.4
	c0.3-0.3,0.4-0.6,0.4-1c0-0.3-0.1-0.6-0.3-0.8c-0.2-0.2-0.5-0.3-0.8-0.3c-0.3,0-0.6,0.1-0.8,0.4c-0.2,0.2-0.4,0.6-0.4,1l-1.8-0.2
	c0.1-0.6,0.3-1.1,0.5-1.5c0.2-0.4,0.6-0.7,1-0.9c0.4-0.2,1-0.4,1.5-0.4c1,0,1.8,0.2,2.4,0.8c0.5,0.5,0.8,1,0.8,1.7
	c0,0.9-0.4,1.6-1.4,2.2c0.6,0.1,1.1,0.4,1.5,0.8s0.6,0.9,0.6,1.6C336.2,287,335.9,287.8,335.3,288.5z M343.2,287.8
	c-0.7,0.9-1.5,1.3-2.7,1.4c-0.8,0-1.5-0.1-2-0.6c-0.5-0.4-0.9-1-1-1.9l1.9-0.3c0.1,0.4,0.2,0.7,0.4,0.8c0.2,0.2,0.5,0.3,0.8,0.2
	c0.4,0,0.7-0.2,1-0.6c0.3-0.4,0.4-1.2,0.4-2.4c-0.5,0.6-1.1,0.9-1.8,1c-0.8,0-1.5-0.2-2.1-0.8c-0.6-0.6-0.9-1.4-1-2.4
	c0-1,0.2-1.9,0.8-2.6c0.6-0.7,1.4-1,2.3-1.1c1,0,1.9,0.3,2.6,1.1c0.4,0.5,0.7,1.2,0.9,2.1h-2.1c-0.1-0.4-0.2-0.8-0.4-1.1
	c-0.3-0.3-0.7-0.5-1-0.5c-0.4,0-0.7,0.2-0.9,0.5c-0.2,0.3-0.3,0.8-0.3,1.4c0,0.7,0.2,1.1,0.5,1.4c0.3,0.3,0.6,0.4,1,0.4
	c0.4,0,0.7-0.2,0.9-0.5c0.2-0.3,0.4-0.8,0.3-1.3c0-0.1,0-0.1,0-0.2h2.1c0.1,0.5,0.2,1,0.2,1.6C344.1,285.6,343.9,287,343.2,287.8z"
	/>
<path id="p-40" d="M297.8,230.4l-58.7,2.6l5.3,109.2l58.8-2.2L297.8,230.4z M264.2,286.8c-0.2,0.4-0.5,0.8-0.8,1.1
	c-0.3,0.3-0.7,0.4-1.1,0.5c-0.5,0.1-1.2,0.2-2.2,0.2l-1.4,0.1l0.2,3.9l-2.1,0.1l-0.5-10.3l3.3-0.2c1.3-0.1,2.1,0,2.5,0
	c0.6,0.1,1.1,0.4,1.5,0.9c0.4,0.5,0.6,1,0.7,1.8h-2.2c-0.1-0.2-0.1-0.4-0.3-0.6c-0.2-0.2-0.5-0.4-0.9-0.4c-0.3,0-0.8,0-1.5,0l-1,0
	l0.1,2.9l1.1-0.1c0.8,0,1.4-0.1,1.6-0.2c0.3-0.1,0.5-0.3,0.6-0.5c0.1-0.2,0.2-0.5,0.2-0.8c0,0,0-0.1,0-0.1h2.2
	C264.5,285.8,264.4,286.3,264.2,286.8z M266.2,289.5l-0.1-2l3.9-0.2l0.1,2L266.2,289.5z M276.7,291.8l-1.9,0.1l-0.1-2.1l-4.2,0.2
	l-0.1-1.7l4.2-6.8l1.7-0.1l0.3,5.5h-1.9l-0.1-2.4l-2.2,3.6l2.4-0.1l0-0.9h1.9l0,0.8l1.3-0.1l0.1,1.7l-1.3,0.1L276.7,291.8z
	 M284.5,290.5c-0.5,0.7-1.3,1.1-2.3,1.2c-1,0-1.8-0.3-2.5-1c-0.7-0.7-1-2.1-1.1-4.1c-0.1-1.9,0.2-3.4,0.8-4.2
	c0.5-0.7,1.3-1.1,2.3-1.2c1,0,1.8,0.3,2.4,1c0.7,0.8,1.1,2.1,1.2,3.9h-2.1c-0.1-1-0.2-1.8-0.3-2.2c-0.1-0.4-0.3-0.7-0.5-0.9
	c-0.2-0.1-0.4-0.2-0.6-0.2c-0.2,0-0.4,0.1-0.6,0.3c-0.2,0.2-0.3,0.4-0.4,0.8c-0.1,0.5-0.1,1.4-0.1,2.6c0.1,1.2,0.2,2,0.3,2.5
	c0.1,0.4,0.3,0.7,0.5,0.9c0.2,0.1,0.4,0.2,0.6,0.2c0.2,0,0.4-0.1,0.6-0.3c0.2-0.2,0.3-0.4,0.4-0.8c0.1-0.5,0.1-1.4,0.1-2.6
	c0,0,0-0.1,0-0.1h2.1C285.5,288.2,285.2,289.6,284.5,290.5z"/>
<path id="p-41" d="M239.1,233.1l-59,2.6l5.3,108.7l59-2.2C245,340.5,239.1,233.1,239.1,233.1z M205.5,290.2
	c-0.3,0.3-0.7,0.4-1.1,0.5c-0.5,0.1-1.2,0.2-2.2,0.2l-1.4,0.1l0.2,3.9L199,295l-0.5-10.3l3.3-0.2c1.3-0.1,2.1,0,2.5,0
	c0.6,0.1,1.1,0.4,1.5,0.9c0.4,0.5,0.7,1.2,0.7,2c0,0.2,0,0.3,0,0.4h-2.1c0-0.1,0-0.2,0-0.3c0-0.4-0.1-0.7-0.4-0.9
	c-0.2-0.2-0.5-0.4-0.9-0.4c-0.3,0-0.8,0-1.5,0l-1,0l0.1,2.9l1.1-0.1c0.8,0,1.4-0.1,1.6-0.2c0.3-0.1,0.5-0.3,0.6-0.5
	c0.1-0.1,0.1-0.2,0.1-0.3h2.2c0,0.4-0.1,0.7-0.2,1C206.1,289.6,205.8,289.9,205.5,290.2z M208.2,291.8l-0.1-2l3.9-0.2l0.1,2
	L208.2,291.8z M218.8,294.1l-1.9,0.1l-0.1-2.1l-4.2,0.2l-0.1-1.7l4.2-6.8l1.7-0.1l0.3,5.4h-1.9l-0.1-2.3l-2.2,3.6l2.4-0.1l0-1h1.9
	l0,0.9l1.3-0.1l0.1,1.7l-1.3,0.1L218.8,294.1z M224.1,293.8l-0.3-7.4c-0.7,0.7-1.5,1.2-2.5,1.6l-0.1-1.8c0.5-0.2,1.1-0.5,1.6-1
	c0.6-0.5,1-1.1,1.2-1.7l1.6-0.1l0.5,10.3L224.1,293.8z"/>
<path id="p-42" d="M180.1,235.7l-31.7,1.4l-10.5,9.5l-10,70.9l-9.2-0.4l-4.2,30l70.9-2.6L180.1,235.7z M145.2,294.7
	c-0.3,0.3-0.7,0.4-1.1,0.5c-0.5,0.1-1.2,0.2-2.2,0.2l-1.4,0.1l0.2,3.9l-2.1,0.1l-0.5-10.3l3.3-0.2c1.3-0.1,2.1,0,2.5,0
	c0.6,0.1,1.1,0.4,1.5,0.9c0.4,0.5,0.7,1.2,0.7,2h-2.2c0-0.3-0.1-0.6-0.3-0.8c-0.2-0.2-0.5-0.4-0.9-0.4c-0.3,0-0.8,0-1.5,0l-1,0
	l0.1,2.9l1.1-0.1c0.8,0,1.4-0.1,1.6-0.2c0.3-0.1,0.5-0.3,0.6-0.5c0.1-0.2,0.2-0.5,0.2-0.7h2.1c0,0.5-0.1,1-0.3,1.4
	C145.8,294.1,145.6,294.4,145.2,294.7z M148,296.3l-0.1-2l3.9-0.2l0.1,2L148,296.3z M158.5,298.6l-1.9,0.1l-0.1-2.1l-4.2,0.2
	l-0.1-1.7l4.2-6.8l1.7-0.1l0.3,5.9h-1.9l-0.1-2.8L154,295l2.4-0.1l0-0.5h1.9l0,0.4l1.3-0.1l0.1,1.7l-1.3,0.1L158.5,298.6z
	 M160.5,298.5c0-0.7,0.2-1.4,0.6-2c0.3-0.6,1-1.5,2.1-2.6c0.9-0.9,1.4-1.5,1.6-1.8c0.3-0.4,0.4-0.8,0.4-1.2c0-0.4-0.2-0.8-0.4-1
	c-0.2-0.2-0.6-0.3-1-0.3c-0.4,0-0.7,0.2-1,0.4c-0.2,0.3-0.4,0.7-0.4,1.3l-2-0.1c0.1-1.1,0.4-1.9,1-2.4c0.6-0.5,1.4-0.8,2.3-0.8
	c1,0,1.8,0.2,2.4,0.7c0.6,0.5,0.9,1.2,1,2c0,0.5,0,0.9-0.2,1.3c-0.1,0.4-0.4,0.9-0.7,1.4c-0.2,0.3-0.6,0.8-1.2,1.4
	c-0.6,0.6-1,1-1.1,1.2c-0.2,0.2-0.3,0.4-0.4,0.6l3.9-0.2l0.1,1.8L160.5,298.5z"/>
<path id="p-64" d="M281,126.9L165.8,132l-11.9,9.2l-5.8,38.2l135.2-7.3L281,126.9z M207.5,151.7c-0.3,0.3-0.7,0.4-1.1,0.5
	c-0.5,0.1-1.2,0.2-2.2,0.2l-1.4,0.1l0.2,3.9l-2.1,0.1l-0.5-10.3l3.3-0.2c1.3-0.1,2.1,0,2.5,0c0.6,0.1,1.1,0.4,1.5,0.9
	c0.4,0.5,0.7,1.2,0.7,2c0,0.2,0,0.4,0,0.6h-2.2c0-0.1,0.1-0.3,0-0.4c0-0.4-0.1-0.7-0.4-0.9c-0.2-0.2-0.5-0.4-0.9-0.4
	c-0.3,0-0.8,0-1.5,0l-1,0l0.1,2.9l1.1-0.1c0.8,0,1.4-0.1,1.6-0.2c0.3-0.1,0.5-0.3,0.6-0.5c0,0,0-0.1,0.1-0.1h2.2
	c0,0.3-0.1,0.6-0.2,0.8C208.1,151.1,207.9,151.5,207.5,151.7z M210.3,153.4l-0.1-2l3.9-0.2l0.1,2L210.3,153.4z M220.9,154.9
	c-0.6,0.7-1.4,1-2.3,1.1c-1,0-1.9-0.3-2.6-1.1c-0.7-0.8-1.1-2.1-1.2-3.9c-0.1-1.9,0.2-3.3,0.9-4.1c0.7-0.9,1.5-1.3,2.7-1.4
	c0.8,0,1.4,0.2,2,0.6c0.5,0.4,0.9,1,1.1,1.9l-1.9,0.3c-0.1-0.4-0.2-0.7-0.4-0.9c-0.2-0.2-0.5-0.3-0.8-0.2c-0.4,0-0.8,0.2-1,0.6
	c-0.3,0.4-0.4,1.2-0.4,2.4c0.5-0.6,1.1-0.9,1.8-1c0.8,0,1.5,0.2,2.2,0.8c0.3,0.3,0.5,0.6,0.7,1h-2.2c-0.3-0.2-0.5-0.4-0.9-0.3
	c-0.4,0-0.7,0.2-0.9,0.5c-0.2,0.3-0.4,0.8-0.3,1.3c0,0.6,0.2,1.1,0.5,1.5c0.3,0.3,0.7,0.5,1,0.5c0.4,0,0.7-0.2,0.9-0.5
	s0.3-0.8,0.3-1.4c0-0.6-0.2-1-0.4-1.3h2.1c0.1,0.4,0.2,0.8,0.2,1.2C221.8,153.3,221.5,154.2,220.9,154.9z M228.8,155.3l-1.9,0.1
	l-0.1-2.1l-4.2,0.2l-0.1-1.7l4.2-6.8l1.7-0.1l0.3,5.9h-1.9l-0.1-2.8l-2.2,3.6l2.4-0.1l0-0.5h1.9l0,0.4l1.3-0.1l0.1,1.7l-1.3,0.1
	L228.8,155.3z"/>
<path id="p-43" d="M283.3,172.1L148,179.4l-6.1,39.8l7.9,8.7l135.9-6L283.3,172.1z M204.6,206.5c-0.3,0.3-0.7,0.4-1.1,0.5
	c-0.5,0.1-1.2,0.2-2.2,0.2l-1.4,0.1l0.2,3.9l-2.1,0.1l-0.5-10.3l3.3-0.2c1.3-0.1,2.1,0,2.5,0c0.6,0.1,1.1,0.4,1.5,0.9
	c0.4,0.5,0.7,1.2,0.7,2c0,0.2,0,0.3,0,0.4h-2.1c0-0.1,0-0.2,0-0.3c0-0.4-0.1-0.7-0.4-0.9c-0.2-0.2-0.5-0.4-0.9-0.4
	c-0.3,0-0.8,0-1.5,0l-1,0l0.1,2.9l1.1-0.1c0.8,0,1.4-0.1,1.6-0.2c0.3-0.1,0.5-0.3,0.6-0.5c0.1-0.1,0.1-0.2,0.1-0.3h2.2
	c0,0.4-0.1,0.7-0.2,1C205.2,205.9,204.9,206.2,204.6,206.5z M207.4,208.1l-0.1-2l3.9-0.2l0.1,2L207.4,208.1z M217.9,210.4l-1.9,0.1
	l-0.1-2.1l-4.2,0.2l-0.1-1.7l4.2-6.8l1.7-0.1l0.3,5.4h-1.9l-0.1-2.3l-2.2,3.6l2.4-0.1l0-1h1.9l0,0.9l1.3-0.1l0.1,1.7l-1.3,0.1
	L217.9,210.4z M225.9,209.2c-0.6,0.7-1.4,1-2.4,1.1c-0.9,0-1.7-0.2-2.4-0.7c-0.6-0.5-1-1.2-1.2-2.1l1.9-0.3c0.1,0.5,0.3,0.8,0.5,1.1
	c0.3,0.2,0.6,0.4,1,0.3c0.4,0,0.7-0.2,1-0.5c0.3-0.3,0.4-0.7,0.4-1.3c0-0.5-0.2-0.9-0.5-1.2c-0.3-0.3-0.6-0.4-1-0.4
	c-0.3,0-0.6,0.1-0.9,0.2l0.1-1.6c0.5,0,0.9-0.1,1.2-0.4c0.3-0.3,0.4-0.6,0.4-1c0-0.3-0.1-0.6-0.3-0.8c-0.2-0.2-0.5-0.3-0.8-0.3
	c-0.3,0-0.6,0.1-0.8,0.4c-0.2,0.2-0.4,0.6-0.4,1l-1.8-0.2c0.1-0.6,0.3-1.1,0.5-1.5c0.2-0.4,0.6-0.7,1-0.9c0.4-0.2,1-0.4,1.5-0.4
	c1,0,1.8,0.2,2.4,0.8c0.5,0.5,0.8,1,0.8,1.7c0,0.9-0.4,1.6-1.4,2.2c0.6,0.1,1.1,0.4,1.5,0.8c0.4,0.4,0.6,0.9,0.6,1.6
	C226.8,207.8,226.5,208.6,225.9,209.2z"/>
<path id="p-44" d="M406.4,166.7l-123.1,5.4l2.4,49.9l124.7-5L406.4,166.7z M338.4,200.2c-0.3,0.3-0.7,0.4-1.1,0.5
	c-0.5,0.1-1.2,0.2-2.2,0.2l-1.4,0.1l0.2,3.9l-2.1,0.1l-0.5-10.3l3.3-0.2c1.3-0.1,2.1,0,2.5,0c0.6,0.1,1.1,0.4,1.5,0.9
	c0.4,0.5,0.7,1.2,0.7,2c0,0.2,0,0.4,0,0.6h-2.2c0-0.2,0.1-0.3,0.1-0.5c0-0.4-0.1-0.7-0.4-0.9c-0.2-0.2-0.5-0.4-0.9-0.4
	c-0.3,0-0.8,0-1.5,0l-1,0l0.1,2.9l1.1-0.1c0.8,0,1.4-0.1,1.6-0.2c0.3-0.1,0.5-0.3,0.6-0.5c0,0,0-0.1,0-0.1h2.3
	c0,0.3-0.1,0.5-0.2,0.8C339,199.6,338.7,199.9,338.4,200.2z M341.1,201.9l-0.1-2l3.9-0.2l0.1,2L341.1,201.9z M351.7,204.1l-1.9,0.1
	l-0.1-2.1l-4.2,0.2l-0.1-1.7l4.2-6.8l1.7-0.1l0.3,5.6h-1.9l-0.1-2.5l-2.2,3.6l2.4-0.1l0-0.8h1.9l0,0.7l1.3-0.1l0.1,1.7l-1.3,0.1
	L351.7,204.1z M359.7,203.8l-1.9,0.1l-0.1-2.1l-4.2,0.2l-0.1-1.7l4.2-6.8l1.7-0.1l0.3,6h-1.9l-0.1-2.9l-2.2,3.6l2.4-0.1l0-0.4h1.9
	l0,0.3l1.3-0.1l0.1,1.7l-1.3,0.1L359.7,203.8z"/>
<path id="p-63" d="M404.2,121.4L281,126.9l2.2,45.2l123.1-5.4L404.2,121.4z M335.9,145.8c-0.3,0.3-0.7,0.4-1.1,0.5
	c-0.5,0.1-1.2,0.2-2.2,0.2l-1.4,0.1l0.2,3.9l-2.1,0.1l-0.5-10.3l3.3-0.2c1.3-0.1,2.1,0,2.5,0c0.6,0.1,1.1,0.4,1.5,0.9
	c0.4,0.5,0.7,1.2,0.7,2c0,0.1,0,0.1,0,0.2h-2.1c0,0,0,0,0,0c0-0.4-0.1-0.7-0.4-0.9c-0.2-0.2-0.5-0.4-0.9-0.4c-0.3,0-0.8,0-1.5,0
	l-1,0l0.1,2.9l1.1-0.1c0.8,0,1.4-0.1,1.6-0.2c0.3-0.1,0.5-0.3,0.6-0.5c0.1-0.2,0.2-0.4,0.2-0.6h2.1c0,0.5-0.1,0.9-0.2,1.2
	C336.5,145.2,336.2,145.5,335.9,145.8z M338.7,147.4l-0.1-2l3.9-0.2l0.1,2L338.7,147.4z M349.3,148.9c-0.6,0.7-1.4,1-2.3,1.1
	c-1,0-1.9-0.3-2.6-1.1c-0.7-0.8-1.1-2.1-1.2-3.9c-0.1-1.9,0.2-3.3,0.9-4.1c0.7-0.9,1.5-1.3,2.7-1.4c0.8,0,1.4,0.2,2,0.6
	c0.5,0.4,0.9,1,1.1,1.9l-1.9,0.3c-0.1-0.4-0.2-0.7-0.4-0.9c-0.2-0.2-0.5-0.3-0.8-0.2c-0.4,0-0.8,0.2-1,0.6c-0.3,0.4-0.4,1.2-0.4,2.4
	c0.5-0.6,1.1-0.9,1.8-1c0.8,0,1.5,0.2,2.2,0.8c0.5,0.4,0.8,1,0.9,1.6h-2c-0.1-0.2-0.2-0.4-0.3-0.6c-0.3-0.3-0.6-0.4-1-0.4
	c-0.4,0-0.7,0.2-0.9,0.5c-0.2,0.3-0.4,0.8-0.3,1.3c0,0.6,0.2,1.1,0.5,1.5c0.3,0.3,0.7,0.5,1,0.5c0.4,0,0.7-0.2,0.9-0.5
	c0.2-0.3,0.3-0.8,0.3-1.4c0-0.2,0-0.4-0.1-0.6h2c0,0.2,0.1,0.3,0.1,0.5C350.2,147.4,349.9,148.2,349.3,148.9z M357.1,148.5
	c-0.6,0.7-1.4,1-2.4,1.1c-0.9,0-1.7-0.2-2.4-0.7c-0.6-0.5-1-1.2-1.2-2.1l1.9-0.3c0.1,0.5,0.3,0.9,0.5,1.1c0.3,0.2,0.6,0.4,1,0.3
	c0.4,0,0.7-0.2,1-0.5c0.3-0.3,0.4-0.7,0.4-1.3c0-0.5-0.2-0.9-0.5-1.2c-0.3-0.3-0.6-0.4-1-0.4c-0.3,0-0.6,0.1-0.9,0.2l0.1-1.6
	c0.5,0,0.9-0.1,1.2-0.4c0.3-0.3,0.4-0.6,0.4-1c0-0.3-0.1-0.6-0.3-0.8c-0.2-0.2-0.5-0.3-0.8-0.3c-0.3,0-0.6,0.1-0.8,0.4
	c-0.2,0.2-0.4,0.6-0.4,1l-1.8-0.2c0.1-0.6,0.3-1.1,0.5-1.5c0.2-0.4,0.6-0.7,1-0.9c0.4-0.2,1-0.4,1.5-0.4c1,0,1.8,0.2,2.4,0.8
	c0.5,0.5,0.8,1,0.8,1.7c0,0.9-0.4,1.6-1.4,2.2c0.6,0.1,1.1,0.4,1.5,0.8c0.4,0.4,0.6,0.9,0.6,1.6
	C358.1,147.1,357.8,147.9,357.1,148.5z"/>
<path id="p-62" d="M527.4,115.9l-123.2,5.5l2.2,45.3l123.3-5.5L527.4,115.9z M463.3,140.2c-0.3,0.3-0.7,0.4-1.1,0.5
	c-0.5,0.1-1.2,0.2-2.2,0.2l-1.4,0.1l0.2,3.9l-2.1,0.1l-0.5-10.3l3.3-0.2c1.3-0.1,2.1,0,2.5,0c0.6,0.1,1.1,0.4,1.5,0.9
	c0.4,0.5,0.7,1.2,0.7,2h-2.2c0-0.3-0.1-0.6-0.3-0.8c-0.2-0.2-0.5-0.4-0.9-0.4c-0.3,0-0.8,0-1.5,0l-1,0l0.1,2.9l1.1-0.1
	c0.8,0,1.4-0.1,1.6-0.2c0.3-0.1,0.5-0.3,0.6-0.5c0.1-0.2,0.2-0.5,0.2-0.7h2.1c0,0.5-0.1,1-0.3,1.4
	C463.9,139.6,463.6,140,463.3,140.2z M466,141.9l-0.1-2l3.9-0.2l0.1,2L466,141.9z M476.7,143.4c-0.6,0.7-1.4,1-2.3,1.1
	c-1,0-1.9-0.3-2.6-1.1c-0.7-0.8-1.1-2.1-1.2-3.9c-0.1-1.9,0.2-3.3,0.9-4.1c0.7-0.9,1.5-1.3,2.7-1.4c0.8,0,1.4,0.2,2,0.6
	c0.5,0.4,0.9,1,1.1,1.9l-1.9,0.3c-0.1-0.4-0.2-0.7-0.4-0.9c-0.2-0.2-0.5-0.3-0.8-0.2c-0.4,0-0.8,0.2-1,0.6c-0.3,0.4-0.4,1.2-0.4,2.4
	c0.5-0.6,1.1-0.9,1.8-1c0.8,0,1.5,0.2,2.2,0.8c0.4,0.4,0.7,1,0.9,1.6h-2c-0.1-0.2-0.2-0.4-0.3-0.6c-0.3-0.3-0.6-0.4-1-0.4
	c-0.4,0-0.7,0.2-0.9,0.5c-0.2,0.3-0.4,0.8-0.3,1.3c0,0.6,0.2,1.1,0.5,1.5c0.3,0.3,0.7,0.5,1,0.5c0.4,0,0.7-0.2,0.9-0.5
	c0.2-0.3,0.3-0.8,0.3-1.4c0-0.3,0-0.5-0.1-0.7h2c0,0.2,0.1,0.4,0.1,0.6C477.5,141.8,477.3,142.7,476.7,143.4z M478.5,144.1
	c0-0.7,0.2-1.4,0.6-2c0.3-0.6,1-1.5,2.1-2.6c0.9-0.9,1.4-1.5,1.6-1.8c0.3-0.4,0.4-0.8,0.4-1.2c0-0.4-0.2-0.8-0.4-1
	c-0.2-0.2-0.6-0.3-1-0.3c-0.4,0-0.7,0.2-1,0.4c-0.2,0.3-0.4,0.7-0.4,1.3l-2-0.1c0.1-1.1,0.4-1.9,1-2.4c0.6-0.5,1.4-0.8,2.3-0.8
	c1,0,1.8,0.2,2.4,0.7c0.6,0.5,0.9,1.2,1,2c0,0.5,0,0.9-0.2,1.3c-0.1,0.4-0.4,0.9-0.7,1.4c-0.2,0.3-0.6,0.8-1.2,1.4
	c-0.6,0.6-1,1-1.1,1.2c-0.2,0.2-0.3,0.4-0.4,0.6l3.9-0.2l0.1,1.8L478.5,144.1z"/>
<path id="p-45" d="M529.7,161.1l-123.3,5.5l3.9,50.2l121.8-5.9L529.7,161.1z M461.5,194.7c-0.3,0.3-0.7,0.4-1.1,0.5
	c-0.5,0.1-1.2,0.2-2.2,0.2l-1.4,0.1l0.2,3.9l-2.1,0.1l-0.5-10.3l3.3-0.2c1.3-0.1,2.1,0,2.5,0c0.6,0.1,1.1,0.4,1.5,0.9
	c0.4,0.5,0.7,1.2,0.7,2h-2.2c0-0.3-0.1-0.6-0.3-0.8c-0.2-0.2-0.5-0.4-0.9-0.4c-0.3,0-0.8,0-1.5,0l-1,0l0.1,2.9l1.1-0.1
	c0.8,0,1.4-0.1,1.6-0.2c0.3-0.1,0.5-0.3,0.6-0.5c0.1-0.2,0.2-0.5,0.2-0.7h2.1c0,0.5-0.1,1-0.3,1.4
	C462.1,194.1,461.9,194.4,461.5,194.7z M464.3,196.3l-0.1-2l3.9-0.2l0.1,2L464.3,196.3z M474.8,198.6l-1.9,0.1l-0.1-2.1l-4.2,0.2
	l-0.1-1.7l4.2-6.8l1.7-0.1l0.3,6h-1.9l-0.1-2.9l-2.2,3.6l2.4-0.1l0-0.4h1.9l0,0.3l1.3-0.1l0.1,1.7l-1.3,0.1L474.8,198.6z M483.2,197
	c-0.6,0.9-1.5,1.4-2.7,1.5c-1,0-1.7-0.2-2.4-0.7c-0.6-0.5-1-1.2-1.2-2l2-0.3c0.1,0.4,0.3,0.8,0.5,1c0.3,0.2,0.6,0.4,1,0.3
	c0.4,0,0.8-0.2,1-0.6c0.3-0.3,0.4-0.9,0.4-1.5c0-0.6-0.2-1.1-0.5-1.4c-0.3-0.3-0.7-0.4-1.1-0.4c-0.6,0-1.1,0.3-1.5,0.8l-1.6-0.2
	l0.8-5.4l5.2-0.2l0.1,1.8l-3.7,0.2l-0.2,1.8c0.4-0.2,0.9-0.4,1.3-0.4c0.9,0,1.6,0.2,2.3,0.9c0.6,0.6,1,1.4,1,2.4
	C483.9,195.6,483.6,196.3,483.2,197z"/>
<path id="p-61" d="M650.4,105.9l-35.7,1.5l-5.5,4.8l-81.8,3.7l2.3,45.3l123.1-5.4L650.4,105.9z M587.4,134.9
	c-0.3,0.3-0.7,0.4-1.1,0.5c-0.5,0.1-1.2,0.2-2.2,0.2l-1.4,0.1l0.2,3.9l-2.1,0.1l-0.5-10.3l3.3-0.2c1.3-0.1,2.1,0,2.5,0
	c0.6,0.1,1.1,0.4,1.5,0.9c0.4,0.5,0.7,1.2,0.7,2c0,0.1,0,0.2,0,0.4h-2.1c0-0.1,0-0.2,0-0.2c0-0.4-0.1-0.7-0.4-0.9
	c-0.2-0.2-0.5-0.4-0.9-0.4c-0.3,0-0.8,0-1.5,0l-1,0l0.1,2.9l1.1-0.1c0.8,0,1.4-0.1,1.6-0.2c0.3-0.1,0.5-0.3,0.6-0.5
	c0.1-0.1,0.1-0.2,0.1-0.3h2.2c0,0.4-0.1,0.7-0.2,1C588,134.2,587.8,134.6,587.4,134.9z M590.2,136.5l-0.1-2l3.9-0.2l0.1,2
	L590.2,136.5z M598.5,139c-1,0-1.9-0.3-2.6-1.1c-0.7-0.8-1.1-2.1-1.2-3.9c-0.1-1.9,0.2-3.3,0.9-4.1c0.7-0.9,1.5-1.3,2.7-1.4
	c0.8,0,1.4,0.2,2,0.6c0.5,0.4,0.9,1,1.1,1.9l-1.9,0.3c-0.1-0.4-0.2-0.7-0.4-0.9c-0.2-0.2-0.5-0.3-0.8-0.2c-0.4,0-0.8,0.2-1,0.6
	c-0.3,0.4-0.4,1.2-0.4,2.4c0.5-0.6,1.1-0.9,1.8-1c0.8,0,1.5,0.2,2.2,0.8c0.6,0.6,0.9,1.4,1,2.4c0,0.2,0,0.4,0,0.6h-1.9
	c0-0.2,0-0.3,0-0.5c0-0.7-0.2-1.2-0.5-1.5c-0.3-0.3-0.6-0.4-1-0.4c-0.4,0-0.7,0.2-0.9,0.5c-0.2,0.3-0.4,0.8-0.3,1.3
	c0,0.6,0.2,1.1,0.5,1.5c0.3,0.3,0.7,0.5,1,0.5c0.4,0,0.7-0.2,0.9-0.5c0.1-0.2,0.2-0.4,0.3-0.7h1.9c-0.1,0.7-0.3,1.3-0.8,1.8
	C600.3,138.6,599.5,139,598.5,139z M606,138.5l-0.3-7.4c-0.7,0.7-1.5,1.2-2.5,1.6l-0.1-1.8c0.5-0.2,1.1-0.5,1.6-1
	c0.6-0.5,1-1.1,1.2-1.7l1.6-0.1l0.5,10.3L606,138.5z"/>
<path id="p-46" d="M652.8,155.8l-123.1,5.4l2.4,49.9l122.9-5.5L652.8,155.8z M589.7,188.2c-0.2,0.4-0.5,0.8-0.8,1.1
	c-0.3,0.3-0.7,0.4-1.1,0.5c-0.5,0.1-1.2,0.2-2.2,0.2l-1.4,0.1l0.2,3.9l-2.1,0.1l-0.5-10.3l3.3-0.2c1.3-0.1,2.1,0,2.5,0
	c0.6,0.1,1.1,0.4,1.5,0.9c0.3,0.3,0.5,0.7,0.6,1.2h-2.4c0,0,0,0,0,0c-0.2-0.2-0.5-0.4-0.9-0.4c-0.3,0-0.8,0-1.5,0l-1,0l0.1,2.9
	l1.1-0.1c0.8,0,1.4-0.1,1.6-0.2c0.3-0.1,0.5-0.3,0.6-0.5c0.1-0.2,0.2-0.5,0.2-0.8c0-0.3-0.1-0.5-0.2-0.7h2.3c0,0.2,0.1,0.4,0.1,0.5
	C590,187.3,589.9,187.8,589.7,188.2z M591.7,190.9l-0.1-2l3.9-0.2l0.1,2L591.7,190.9z M602.2,193.2l-1.9,0.1l-0.1-2.1l-4.2,0.2
	l-0.1-1.7l4.2-6.8l1.7-0.1l0.3,5.8H600l-0.1-2.7l-2.2,3.6l2.4-0.1l0-0.6h1.9l0,0.5l1.3-0.1l0.1,1.7l-1.3,0.1L602.2,193.2z
	 M608,193.1c-1,0-1.9-0.3-2.6-1.1c-0.7-0.8-1.1-2.1-1.2-3.9c-0.1-1.9,0.2-3.3,0.9-4.1c0.7-0.9,1.5-1.3,2.7-1.4c0.8,0,1.4,0.2,2,0.6
	c0.5,0.4,0.9,1,1.1,1.9l-1.9,0.3c-0.1-0.4-0.2-0.7-0.4-0.9c-0.2-0.2-0.5-0.3-0.8-0.2c-0.4,0-0.8,0.2-1,0.6c-0.3,0.4-0.4,1.2-0.4,2.4
	c0.5-0.6,1.1-0.9,1.8-1c0.8,0,1.5,0.2,2.2,0.8c0.6,0.6,1,1.4,1,2.4c0,0,0,0,0,0h-1.9c0-0.6-0.2-1.1-0.5-1.4c-0.3-0.3-0.6-0.4-1-0.4
	c-0.4,0-0.7,0.2-0.9,0.5c-0.2,0.3-0.4,0.8-0.3,1.3c0,0.6,0.2,1.1,0.5,1.5c0.3,0.3,0.7,0.5,1,0.5c0.4,0,0.7-0.2,0.9-0.5
	c0.2-0.3,0.3-0.7,0.3-1.3h1.9c0,0.9-0.3,1.7-0.8,2.3C609.7,192.7,608.9,193.1,608,193.1z"/>
<path id="p-47" d="M776,150.2l-123.1,5.5l2.1,49.8c3.4-0.1,123.4-5.5,123.4-5.5L776,150.2z M712.2,183.8c-0.3,0.3-0.7,0.4-1.1,0.5
	c-0.5,0.1-1.2,0.2-2.2,0.2l-1.4,0.1l0.2,3.9l-2.1,0.1l-0.5-10.3l3.3-0.2c1.3-0.1,2.1,0,2.5,0c0.6,0.1,1.1,0.4,1.5,0.9
	c0.4,0.5,0.7,1.2,0.7,2c0,0.3,0,0.6-0.1,0.9h-2.3c0.1-0.2,0.2-0.5,0.2-0.8c0-0.4-0.1-0.7-0.4-0.9c-0.2-0.2-0.5-0.4-0.9-0.4
	c-0.3,0-0.8,0-1.5,0l-1,0l0.1,2.9l1.1-0.1c0.8,0,1.4-0.1,1.6-0.2c0.2-0.1,0.3-0.2,0.4-0.3h2.4c0,0.2-0.1,0.3-0.1,0.5
	C712.8,183.1,712.5,183.5,712.2,183.8z M714.9,185.4l-0.1-2l3.9-0.2l0.1,2L714.9,185.4z M725.5,187.7l-1.9,0.1l-0.1-2.1l-4.2,0.2
	l-0.1-1.7l4.2-6.8l1.7-0.1l0.3,6h-1.9l-0.1-2.9l-2.2,3.6l2.4-0.1l0-0.4h1.9l0,0.3l1.3-0.1l0.1,1.7l-1.3,0.1L725.5,187.7z M732.4,181
	c-0.5,1.1-0.9,2.2-1.2,3.3c-0.2,1.2-0.3,2.2-0.3,3.1l-1.9,0.1c0-1.4,0.2-2.9,0.7-4.4c0.5-1.5,1.2-2.9,2-4.1l-4.5,0.2l-0.1-1.8
	l6.8-0.3l0.1,1.4C733.5,179.1,733,179.9,732.4,181z"/>
<path id="p-60" d="M773.7,100.4l-123.3,5.5l2.4,49.9l123.1-5.5L773.7,100.4z M709.6,129.3c-0.3,0.3-0.7,0.4-1.1,0.5
	c-0.5,0.1-1.2,0.2-2.2,0.2l-1.4,0.1l0.2,3.9l-2.1,0.1l-0.5-10.3l3.3-0.2c1.3-0.1,2.1,0,2.5,0c0.6,0.1,1.1,0.4,1.5,0.9
	c0.4,0.5,0.7,1.2,0.7,2h-2.2c0-0.3-0.1-0.6-0.3-0.8c-0.2-0.2-0.5-0.4-0.9-0.4c-0.2,0-0.8,0-1.5,0l-1,0l0.1,2.9l1.1-0.1
	c0.8,0,1.4-0.1,1.6-0.2c0.3-0.1,0.5-0.3,0.6-0.5c0.1-0.2,0.2-0.5,0.2-0.7h2.1c0,0.5-0.1,1-0.3,1.4
	C710.2,128.7,709.9,129.1,709.6,129.3z M712.3,131l-0.1-2l3.9-0.2l0.1,2L712.3,131z M720.6,133.5c-1,0-1.9-0.3-2.6-1.1
	c-0.7-0.8-1.1-2.1-1.2-3.9c-0.1-1.9,0.2-3.3,0.9-4.1c0.7-0.9,1.5-1.3,2.7-1.4c0.8,0,1.4,0.2,2,0.6c0.5,0.4,0.9,1,1.1,1.9l-1.9,0.3
	c-0.1-0.4-0.2-0.7-0.4-0.9c-0.2-0.2-0.5-0.3-0.8-0.2c-0.4,0-0.8,0.2-1,0.6c-0.3,0.4-0.4,1.2-0.4,2.4c0.5-0.6,1.1-0.9,1.8-1
	c0.8,0,1.5,0.2,2.2,0.8c0.6,0.6,0.9,1.4,1,2.4c0,0,0,0,0,0h-1.9c0-0.6-0.2-1.1-0.5-1.4c-0.3-0.3-0.6-0.4-1-0.4
	c-0.4,0-0.7,0.2-0.9,0.5c-0.2,0.3-0.4,0.8-0.3,1.3c0,0.6,0.2,1.1,0.5,1.5c0.3,0.3,0.7,0.5,1,0.5c0.4,0,0.7-0.2,0.9-0.5
	c0.2-0.3,0.3-0.7,0.3-1.3h1.9c0,0.9-0.3,1.7-0.8,2.4C722.4,133.1,721.6,133.5,720.6,133.5z M728.4,133.2c-1,0-1.8-0.3-2.5-1
	c-0.6-0.7-1-2.1-1.1-4.1c-0.1-1.9,0.2-3.4,0.8-4.2c0.5-0.7,1.3-1.1,2.3-1.2c1,0,1.8,0.3,2.4,1c0.7,0.8,1.1,2.2,1.2,4.2
	c0,0.8,0,1.4-0.1,2h-2c0-0.5,0-1.1,0-1.9c-0.1-1.2-0.2-2-0.3-2.5c-0.1-0.4-0.3-0.7-0.5-0.9c-0.2-0.1-0.4-0.2-0.6-0.2
	c-0.2,0-0.4,0.1-0.6,0.3c-0.2,0.2-0.3,0.4-0.4,0.8c-0.1,0.5-0.1,1.4-0.1,2.6c0.1,1.2,0.2,2,0.3,2.5c0.1,0.4,0.3,0.7,0.5,0.9
	c0.2,0.1,0.4,0.2,0.6,0.2c0.2,0,0.4-0.1,0.6-0.3c0.2-0.2,0.3-0.4,0.4-0.8c0-0.1,0-0.3,0.1-0.4h2c-0.1,0.8-0.4,1.5-0.7,2
	C730.2,132.7,729.4,133.1,728.4,133.2z"/>
<path id="p-48" d="M899.1,144.7L776,150.2l2.4,49.8l123.3-5.5L899.1,144.7z M836.1,177.3c-0.2,0.4-0.5,0.8-0.8,1.1
	c-0.3,0.3-0.7,0.4-1.1,0.5c-0.5,0.1-1.2,0.2-2.2,0.2l-1.4,0.1l0.2,3.9l-2.1,0.1l-0.5-10.3l3.3-0.2c1.3-0.1,2.1,0,2.5,0
	c0.6,0.1,1.1,0.4,1.5,0.9c0.4,0.5,0.6,1,0.7,1.8h-2.2c-0.1-0.2-0.1-0.4-0.3-0.6c-0.2-0.2-0.5-0.4-0.9-0.4c-0.3,0-0.8,0-1.5,0l-1,0
	l0.1,2.9l1.1-0.1c0.8,0,1.4-0.1,1.6-0.2c0.3-0.1,0.5-0.3,0.6-0.5c0.1-0.2,0.2-0.5,0.2-0.8c0,0,0-0.1,0-0.1h2.2
	C836.4,176.3,836.4,176.9,836.1,177.3z M838.1,180l-0.1-2l3.9-0.2l0.1,2L838.1,180z M848.6,182.3l-1.9,0.1l-0.1-2.1l-4.2,0.2
	l-0.1-1.7l4.2-6.8l1.7-0.1l0.3,5.4h-1.9l-0.1-2.3l-2.2,3.6l2.4-0.1l0-1h1.9l0,0.9l1.3-0.1l0.1,1.7l-1.3,0.1L848.6,182.3z
	 M854.2,182.2c-0.9,0-1.7-0.2-2.4-0.6c-0.8-0.5-1.2-1.3-1.2-2.3c0-0.6,0.1-1.1,0.3-1.6c0.3-0.5,0.7-0.9,1.3-1.1
	c-0.5-0.2-0.9-0.5-1.2-0.8c-0.2-0.4-0.4-0.8-0.4-1.2c0-0.8,0.2-1.4,0.7-1.9c0.5-0.5,1.3-0.8,2.3-0.9c1,0,1.8,0.2,2.3,0.6
	c0.6,0.5,0.9,1.1,0.9,1.9c0,0.1,0,0.1,0,0.2H855c0-0.4-0.1-0.6-0.4-0.8c-0.2-0.2-0.5-0.3-0.9-0.3c-0.4,0-0.7,0.1-0.9,0.4
	c-0.2,0.2-0.3,0.5-0.3,0.9c0,0.4,0.1,0.7,0.4,0.9c0.2,0.2,0.5,0.3,0.9,0.3c0.4,0,0.7-0.1,0.9-0.4c0.2-0.2,0.3-0.5,0.3-0.8h1.8
	c0,0.3-0.1,0.6-0.3,0.9c-0.2,0.4-0.6,0.7-1,0.9c0.6,0.2,1,0.5,1.4,0.9c0.3,0.4,0.5,0.9,0.5,1.5c0,0.1,0,0.1,0,0.2h-2
	c0-0.1,0-0.1,0-0.2c0-0.5-0.2-0.9-0.5-1.1c-0.3-0.3-0.6-0.4-1.1-0.4c-0.5,0-0.8,0.2-1.1,0.5c-0.2,0.3-0.3,0.7-0.3,1.1
	c0,0.5,0.2,1,0.5,1.3c0.3,0.3,0.6,0.4,1.1,0.4c0.4,0,0.7-0.2,1-0.5c0.2-0.2,0.3-0.5,0.3-0.9h2c0,0.8-0.3,1.4-0.8,2
	C856,181.8,855.3,182.2,854.2,182.2z"/>
<path id="p-59" d="M897.5,94.9l-123.7,5.5l2.3,49.9l123.1-5.5L897.5,94.9z M832.8,123.9c-0.3,0.3-0.7,0.4-1.1,0.5
	c-0.5,0.1-1.2,0.2-2.2,0.2l-1.4,0.1l0.2,3.9l-2.1,0.1l-0.5-10.3l3.3-0.2c1.3-0.1,2.1,0,2.5,0c0.6,0.1,1.1,0.4,1.5,0.9
	c0.4,0.5,0.7,1.2,0.7,2c0,0.2,0,0.3,0,0.5h-2.1c0-0.1,0-0.2,0-0.4c0-0.4-0.1-0.7-0.4-0.9c-0.2-0.2-0.5-0.4-0.9-0.4
	c-0.2,0-0.8,0-1.5,0l-1,0l0.1,2.9l1.1-0.1c0.8,0,1.4-0.1,1.6-0.2c0.3-0.1,0.5-0.3,0.6-0.5c0-0.1,0.1-0.2,0.1-0.2h2.2
	c0,0.3-0.1,0.6-0.2,0.9C833.5,123.3,833.2,123.7,832.8,123.9z M835.6,125.6l-0.1-2l3.9-0.2l0.1,2L835.6,125.6z M846.5,126.6
	c-0.6,0.9-1.5,1.4-2.7,1.5c-1,0-1.7-0.2-2.4-0.7c-0.6-0.5-1-1.2-1.2-2l2-0.3c0.1,0.4,0.3,0.8,0.5,1c0.3,0.2,0.6,0.4,1,0.3
	c0.4,0,0.8-0.2,1-0.6c0.3-0.3,0.4-0.9,0.4-1.5c0-0.6-0.2-1.1-0.5-1.4c-0.3-0.3-0.7-0.4-1.1-0.4c-0.6,0-1.1,0.3-1.5,0.8l-1.6-0.2
	l0.8-5.4l5.2-0.2l0.1,1.8l-3.7,0.2l-0.2,1.8c0.4-0.2,0.9-0.4,1.3-0.4c0.9,0,1.6,0.2,2.3,0.9c0.6,0.6,1,1.4,1,2.4
	C847.2,125.2,847,126,846.5,126.6z M854,126.4c-0.7,0.9-1.5,1.3-2.7,1.4c-0.8,0-1.5-0.1-2-0.6c-0.5-0.4-0.9-1-1-1.9l1.9-0.3
	c0.1,0.4,0.2,0.7,0.4,0.8c0.2,0.2,0.5,0.3,0.8,0.2c0.4,0,0.7-0.2,1-0.6c0.3-0.4,0.4-1.2,0.4-2.4c-0.5,0.6-1.1,0.9-1.8,1
	c-0.8,0-1.5-0.2-2.1-0.8c-0.6-0.6-1-1.4-1-2.4c0-1,0.2-1.9,0.8-2.6c0.6-0.7,1.4-1,2.3-1.1c1,0,1.9,0.3,2.6,1.1
	c0.5,0.5,0.8,1.2,1,2.2h-2.1c-0.1-0.5-0.2-0.9-0.5-1.2c-0.3-0.3-0.7-0.5-1-0.5c-0.4,0-0.7,0.2-0.9,0.5c-0.2,0.3-0.3,0.8-0.3,1.4
	c0,0.7,0.2,1.1,0.5,1.4c0.3,0.3,0.6,0.4,1,0.4c0.4,0,0.7-0.2,0.9-0.5c0.2-0.3,0.4-0.8,0.3-1.3c0,0,0,0,0-0.1h2.1
	c0.1,0.5,0.1,1,0.2,1.5C854.9,124.2,854.6,125.5,854,126.4z"/>
<path id="p-58" d="M1019.9,89.4l-122.4,5.4l1.7,49.8l123.3-5.4L1019.9,89.4z M956,118.4c-0.3,0.3-0.7,0.4-1.1,0.5
	c-0.5,0.1-1.2,0.2-2.2,0.2l-1.4,0.1l0.2,3.9l-2.1,0.1l-0.5-10.3l3.3-0.2c1.3-0.1,2.1,0,2.5,0c0.6,0.1,1.1,0.4,1.5,0.9
	c0.4,0.5,0.6,1.1,0.7,1.9h-2.2c0-0.3-0.1-0.5-0.3-0.7c-0.2-0.2-0.5-0.4-0.9-0.4c-0.3,0-0.8,0-1.5,0l-1,0l0.1,2.9l1.1-0.1
	c0.8,0,1.4-0.1,1.6-0.2c0.3-0.1,0.5-0.3,0.6-0.5c0.1-0.2,0.2-0.5,0.2-0.8h2.1c0,0.6-0.1,1-0.3,1.4
	C956.6,117.8,956.3,118.1,956,118.4z M958.8,120.1l-0.1-2l3.9-0.2l0.1,2L958.8,120.1z M969.7,121.1c-0.6,0.9-1.5,1.4-2.7,1.5
	c-1,0-1.7-0.2-2.4-0.7c-0.6-0.5-1-1.2-1.2-2l2-0.3c0.1,0.4,0.3,0.8,0.5,1c0.3,0.2,0.6,0.4,1,0.3c0.4,0,0.8-0.2,1-0.6
	c0.3-0.3,0.4-0.9,0.4-1.5c0-0.6-0.2-1.1-0.5-1.4c-0.3-0.3-0.7-0.4-1.1-0.4c-0.6,0-1.1,0.3-1.5,0.8l-1.6-0.2l0.8-5.4l5.2-0.2l0.1,1.8
	l-3.7,0.2l-0.2,1.8c0.4-0.2,0.9-0.4,1.3-0.4c0.9,0,1.6,0.2,2.3,0.9c0.6,0.6,1,1.4,1,2.4C970.3,119.7,970.1,120.4,969.7,121.1z
	 M974.9,122.2c-0.9,0-1.7-0.2-2.4-0.6c-0.8-0.5-1.2-1.3-1.2-2.3c0-0.6,0.1-1.1,0.3-1.6c0.3-0.5,0.7-0.9,1.3-1.1
	c-0.5-0.2-0.9-0.5-1.2-0.8c-0.2-0.4-0.4-0.8-0.4-1.2c0-0.8,0.2-1.4,0.7-1.9c0.5-0.5,1.3-0.8,2.3-0.9c1,0,1.8,0.2,2.3,0.6
	c0.6,0.5,0.9,1.1,0.9,1.9c0,0.1,0,0.2,0,0.2h-1.8c0,0,0,0,0,0c0-0.4-0.1-0.7-0.4-0.9c-0.2-0.2-0.5-0.3-0.9-0.3
	c-0.4,0-0.7,0.1-0.9,0.4c-0.2,0.2-0.3,0.5-0.3,0.9c0,0.4,0.1,0.7,0.4,0.9c0.2,0.2,0.5,0.3,0.9,0.3c0.4,0,0.7-0.1,0.9-0.4
	c0.2-0.2,0.2-0.4,0.3-0.7h1.8c0,0.3-0.1,0.6-0.3,0.8c-0.2,0.4-0.6,0.7-1,0.9c0.6,0.2,1,0.5,1.4,0.9c0.3,0.4,0.5,0.9,0.5,1.5
	c0,0.2,0,0.3,0,0.5h-2c0-0.1,0-0.3,0-0.4c0-0.5-0.2-0.9-0.5-1.1c-0.3-0.3-0.6-0.4-1.1-0.4c-0.5,0-0.8,0.2-1.1,0.5
	c-0.2,0.3-0.3,0.7-0.3,1.1c0,0.5,0.2,1,0.5,1.3c0.3,0.3,0.6,0.4,1.1,0.4c0.4,0,0.7-0.2,1-0.5c0.1-0.2,0.2-0.4,0.3-0.6h2
	c-0.1,0.7-0.3,1.2-0.8,1.7C976.7,121.9,975.9,122.2,974.9,122.2z"/>
<path id="p-49" d="M1022.4,139.3l-123.3,5.4l2.5,49.9l123.2-5.5L1022.4,139.3z M959.3,171.8c-0.2,0.4-0.5,0.8-0.8,1.1
	c-0.3,0.3-0.7,0.4-1.1,0.5c-0.5,0.1-1.2,0.2-2.2,0.2l-1.4,0.1l0.2,3.9l-2.1,0.1l-0.5-10.3l3.3-0.2c1.3-0.1,2.1,0,2.5,0
	c0.6,0.1,1.1,0.4,1.5,0.9c0.3,0.4,0.5,0.9,0.6,1.5h-2.3c-0.1-0.1-0.1-0.2-0.2-0.3c-0.2-0.2-0.5-0.4-0.9-0.4c-0.2,0-0.7,0-1.5,0l-1,0
	l0.1,2.9l1.1-0.1c0.8,0,1.4-0.1,1.6-0.2c0.3-0.1,0.5-0.3,0.6-0.5c0.1-0.2,0.2-0.5,0.2-0.8c0-0.1,0-0.3-0.1-0.4h2.2
	c0,0.1,0,0.2,0,0.3C959.6,170.8,959.5,171.4,959.3,171.8z M961.2,174.5l-0.1-2l3.9-0.2l0.1,2L961.2,174.5z M971.7,176.8l-1.9,0.1
	l-0.1-2.1l-4.2,0.2l-0.1-1.7l4.2-6.8l1.7-0.1l0.3,6.1h-1.9l-0.1-2.9l-2.2,3.6l2.4-0.1l0-0.3h1.9l0,0.3l1.3-0.1l0.1,1.7l-1.3,0.1
	L971.7,176.8z M979.6,175.3c-0.7,0.9-1.5,1.3-2.7,1.4c-0.8,0-1.5-0.1-2-0.6c-0.5-0.4-0.9-1-1-1.9l1.9-0.3c0.1,0.4,0.2,0.7,0.4,0.8
	c0.2,0.2,0.5,0.3,0.8,0.2c0.4,0,0.7-0.2,1-0.6c0.3-0.4,0.4-1.2,0.4-2.4c-0.5,0.6-1.1,0.9-1.8,1c-0.8,0-1.5-0.2-2.1-0.8
	c-0.6-0.6-0.9-1.4-1-2.4c0-1,0.2-1.9,0.8-2.6c0.6-0.7,1.4-1,2.3-1.1c1,0,1.9,0.3,2.6,1.1c0.5,0.5,0.8,1.4,1,2.4h-2.1
	c0-0.6-0.2-1.1-0.5-1.4c-0.3-0.3-0.7-0.5-1-0.5c-0.4,0-0.7,0.2-0.9,0.5c-0.2,0.3-0.3,0.8-0.3,1.4c0,0.7,0.2,1.1,0.5,1.4
	c0.3,0.3,0.6,0.4,1,0.4c0.4,0,0.7-0.2,0.9-0.5c0.2-0.3,0.3-0.7,0.3-1.2h2.2c0.1,0.4,0.1,0.8,0.1,1.3
	C980.5,173.1,980.3,174.5,979.6,175.3z"/>
<path id="p-50" d="M1145.6,133.8l-123.1,5.5l2.4,49.8l123.1-5.5L1145.6,133.8z M1081.8,167.3c-0.3,0.3-0.7,0.4-1.1,0.5
	c-0.5,0.1-1.2,0.2-2.2,0.2l-1.4,0.1l0.2,3.9l-2.1,0.1l-0.5-10.3l3.3-0.2c1.3-0.1,2.1,0,2.5,0c0.6,0.1,1.1,0.4,1.5,0.9
	c0.4,0.5,0.7,1.2,0.7,2h-2.2c0-0.3-0.1-0.6-0.3-0.8c-0.2-0.2-0.5-0.4-0.9-0.4c-0.3,0-0.8,0-1.5,0l-1,0l0.1,2.9l1.1-0.1
	c0.8,0,1.4-0.1,1.6-0.2c0.3-0.1,0.5-0.3,0.6-0.5c0.1-0.2,0.2-0.5,0.2-0.7h2.1c0,0.5-0.1,1-0.3,1.4
	C1082.4,166.7,1082.1,167.1,1081.8,167.3z M1084.5,169l-0.1-2l3.9-0.2l0.1,2L1084.5,169z M1095.4,170c-0.6,0.9-1.5,1.4-2.7,1.5
	c-1,0-1.7-0.2-2.4-0.7c-0.6-0.5-1-1.2-1.2-2l2-0.3c0.1,0.4,0.3,0.8,0.5,1c0.3,0.2,0.6,0.4,1,0.3c0.4,0,0.8-0.2,1-0.6
	c0.3-0.3,0.4-0.9,0.4-1.5c0-0.6-0.2-1.1-0.5-1.4c-0.3-0.3-0.7-0.4-1.1-0.4c-0.6,0-1.1,0.3-1.5,0.8l-1.6-0.2l0.8-5.4l5.2-0.2l0.1,1.8
	l-3.7,0.2l-0.2,1.8c0.4-0.2,0.9-0.4,1.3-0.4c0.9,0,1.6,0.2,2.3,0.9c0.6,0.6,1,1.4,1,2.4C1096.1,168.6,1095.9,169.3,1095.4,170z
	 M1102.9,170c-0.5,0.7-1.3,1.1-2.3,1.2c-1,0-1.8-0.3-2.5-1c-0.7-0.7-1-2.1-1.1-4.1c-0.1-1.9,0.2-3.4,0.8-4.2
	c0.5-0.7,1.3-1.1,2.3-1.2c1,0,1.8,0.3,2.4,1c0.7,0.8,1.1,2.2,1.2,4.2c0,0.2,0,0.4,0,0.6h-2.1c0-0.2,0-0.3,0-0.5
	c-0.1-1.2-0.2-2-0.3-2.5c-0.1-0.4-0.3-0.7-0.5-0.9c-0.2-0.1-0.4-0.2-0.6-0.2c-0.2,0-0.4,0.1-0.6,0.3c-0.2,0.2-0.3,0.4-0.4,0.8
	c-0.1,0.5-0.1,1.4-0.1,2.6c0.1,1.2,0.2,2,0.3,2.5c0.1,0.4,0.3,0.7,0.5,0.9c0.2,0.1,0.4,0.2,0.6,0.2c0.2,0,0.4-0.1,0.6-0.3
	c0.2-0.2,0.3-0.4,0.4-0.8c0.1-0.4,0.1-1,0.1-1.9h2C1103.7,168.1,1103.4,169.2,1102.9,170z"/>
<path id="p-51" d="M1268.7,128.4l-123.1,5.4l2.4,49.9l123.1-5.5L1268.7,128.4z M1205.8,161.9c-0.3,0.3-0.7,0.4-1.1,0.5
	c-0.5,0.1-1.2,0.2-2.2,0.2l-1.4,0.1l0.2,3.9l-2.1,0.1l-0.5-10.3l3.3-0.2c1.3-0.1,2.1,0,2.5,0c0.6,0.1,1.1,0.4,1.5,0.9
	c0.4,0.5,0.7,1.2,0.7,2h-2.2c0-0.3-0.1-0.6-0.3-0.8c-0.2-0.2-0.5-0.4-0.9-0.4c-0.3,0-0.8,0-1.5,0l-1,0l0.1,2.9l1.1-0.1
	c0.8,0,1.4-0.1,1.6-0.2c0.3-0.1,0.5-0.3,0.6-0.5c0.1-0.2,0.2-0.5,0.2-0.7h2.1c0,0.5-0.1,1-0.3,1.4
	C1206.4,161.3,1206.1,161.7,1205.8,161.9z M1208.5,163.6l-0.1-2l3.9-0.2l0.1,2L1208.5,163.6z M1219.4,164.6
	c-0.6,0.9-1.5,1.4-2.7,1.5c-1,0-1.7-0.2-2.4-0.7c-0.6-0.5-1-1.2-1.2-2l2-0.3c0.1,0.4,0.3,0.8,0.5,1c0.3,0.2,0.6,0.4,1,0.3
	c0.4,0,0.8-0.2,1-0.6c0.3-0.3,0.4-0.9,0.4-1.5c0-0.6-0.2-1.1-0.5-1.4c-0.3-0.3-0.7-0.4-1.1-0.4c-0.6,0-1.1,0.3-1.5,0.8l-1.6-0.2
	l0.8-5.4l5.2-0.2l0.1,1.8l-3.7,0.2l-0.2,1.8c0.4-0.2,0.9-0.4,1.3-0.4c0.9,0,1.6,0.2,2.3,0.9c0.6,0.6,1,1.4,1,2.4
	C1220.1,163.2,1219.9,163.9,1219.4,164.6z M1224.4,165.6l-0.3-7.4c-0.7,0.7-1.5,1.2-2.5,1.6l-0.1-1.8c0.5-0.2,1.1-0.5,1.6-1
	c0.6-0.5,1-1.1,1.2-1.7l1.6-0.1l0.5,10.3L1224.4,165.6z"/>
<path id="p-57" d="M1143.7,84l-123.9,5.5l2.5,49.9l123.1-5.5L1143.7,84z M1079.1,113c-0.3,0.3-0.7,0.4-1.1,0.5
	c-0.5,0.1-1.2,0.2-2.2,0.3l-1.4,0.1l0.2,3.9l-2.1,0.1l-0.5-10.3l3.3-0.2c1.3-0.1,2.1-0.1,2.5,0c0.6,0.1,1.1,0.4,1.5,0.9
	c0.4,0.5,0.7,1.2,0.7,2c0,0.2,0,0.4,0,0.5h-2.2c0-0.1,0-0.2,0-0.4c0-0.4-0.1-0.7-0.4-0.9c-0.2-0.2-0.5-0.4-0.9-0.4
	c-0.3,0-0.8,0-1.5,0l-1,0.1l0.2,2.9l1.1-0.1c0.8,0,1.4-0.1,1.6-0.2c0.3-0.1,0.5-0.3,0.6-0.5c0-0.1,0.1-0.1,0.1-0.2h2.2
	c0,0.3-0.1,0.6-0.2,0.9C1079.7,112.4,1079.5,112.7,1079.1,113z M1081.9,114.6l-0.1-2l3.9-0.2l0.1,2L1081.9,114.6z M1092.8,115.6
	c-0.6,0.9-1.5,1.4-2.7,1.5c-1,0-1.7-0.2-2.4-0.6c-0.6-0.5-1-1.1-1.2-2l2-0.3c0.1,0.4,0.3,0.8,0.6,1c0.3,0.2,0.6,0.4,1,0.3
	c0.4,0,0.8-0.2,1-0.6s0.4-0.9,0.4-1.5c0-0.6-0.2-1.1-0.5-1.4c-0.3-0.3-0.7-0.4-1.1-0.4c-0.6,0-1.1,0.3-1.5,0.8l-1.6-0.1l0.7-5.4
	l5.2-0.3l0.1,1.8l-3.7,0.2l-0.2,1.8c0.4-0.2,0.9-0.4,1.3-0.4c0.9,0,1.6,0.2,2.3,0.8c0.6,0.6,1,1.4,1,2.4
	C1093.5,114.2,1093.2,114.9,1092.8,115.6z M1099.4,110.1c-0.5,1.1-0.9,2.2-1.2,3.3c-0.2,1.2-0.3,2.2-0.3,3.1l-1.9,0.1
	c0-1.4,0.2-2.9,0.7-4.4c0.5-1.5,1.2-2.9,2-4.1l-4.5,0.2l-0.1-1.8l6.8-0.3l0.1,1.4C1100.4,108.2,1099.9,109,1099.4,110.1z"/>
<path id="p-56" d="M1266.1,78.5L1143.7,84l1.8,49.8l123.1-5.4L1266.1,78.5z M1202.3,107.5c-0.3,0.3-0.7,0.4-1.1,0.5
	c-0.5,0.1-1.2,0.2-2.2,0.2l-1.4,0.1l0.2,3.9l-2.1,0.1l-0.5-10.3l3.3-0.2c1.3-0.1,2.1,0,2.5,0c0.6,0.1,1.1,0.4,1.5,0.9
	c0.4,0.5,0.6,1.1,0.7,1.9h-2.2c0-0.3-0.1-0.5-0.3-0.7c-0.2-0.2-0.5-0.4-0.9-0.4c-0.2,0-0.8,0-1.5,0l-1,0l0.1,2.9l1.1-0.1
	c0.8,0,1.4-0.1,1.6-0.2c0.3-0.1,0.5-0.3,0.6-0.5c0.1-0.2,0.2-0.5,0.2-0.8h2.1c0,0.6-0.1,1-0.3,1.4
	C1202.9,106.9,1202.6,107.2,1202.3,107.5z M1205.1,109.1l-0.1-2l3.9-0.2l0.1,2L1205.1,109.1z M1215.9,110.2
	c-0.6,0.9-1.5,1.4-2.7,1.5c-1,0-1.7-0.2-2.4-0.7c-0.6-0.5-1-1.2-1.2-2l2-0.3c0.1,0.4,0.3,0.8,0.5,1c0.3,0.2,0.6,0.4,1,0.3
	c0.4,0,0.8-0.2,1-0.6c0.3-0.3,0.4-0.9,0.4-1.5c0-0.6-0.2-1.1-0.5-1.4c-0.3-0.3-0.7-0.4-1.1-0.4c-0.6,0-1.1,0.3-1.5,0.8l-1.6-0.2
	l0.8-5.4l5.2-0.2l0.1,1.8l-3.7,0.2l-0.2,1.8c0.4-0.2,0.9-0.4,1.3-0.4c0.9,0,1.6,0.2,2.3,0.9c0.6,0.6,1,1.4,1,2.4
	C1216.6,108.7,1216.4,109.5,1215.9,110.2z M1223.7,110.2c-0.6,0.7-1.4,1-2.3,1.1c-1,0-1.9-0.3-2.6-1.1c-0.7-0.8-1.1-2.1-1.2-3.9
	c-0.1-1.9,0.2-3.3,0.9-4.1c0.7-0.9,1.5-1.3,2.7-1.4c0.8,0,1.4,0.2,2,0.6c0.5,0.4,0.9,1,1.1,1.9l-1.9,0.3c-0.1-0.4-0.2-0.7-0.4-0.9
	c-0.2-0.2-0.5-0.3-0.8-0.2c-0.4,0-0.8,0.2-1,0.6c-0.3,0.4-0.4,1.2-0.4,2.4c0.5-0.6,1.1-0.9,1.8-1c0.8,0,1.5,0.2,2.2,0.8
	c0.5,0.5,0.8,1.2,0.9,1.9h-1.9c-0.1-0.4-0.2-0.7-0.4-0.9c-0.3-0.3-0.6-0.4-1-0.4c-0.4,0-0.7,0.2-0.9,0.5c-0.2,0.3-0.4,0.8-0.3,1.3
	c0,0.6,0.2,1.1,0.5,1.5c0.3,0.3,0.7,0.5,1,0.5c0.4,0,0.7-0.2,0.9-0.5c0.2-0.3,0.3-0.8,0.3-1.4c0-0.1,0-0.2,0-0.4h1.9
	c0,0.1,0,0.2,0,0.2C1224.6,108.7,1224.3,109.6,1223.7,110.2z"/>
<path id="p-55" d="M1389.5,73.1l-123.4,5.4l2.6,49.9l123.1-5.5L1389.5,73.1z M1325.4,102c-0.3,0.3-0.7,0.4-1.1,0.5
	c-0.5,0.1-1.2,0.2-2.2,0.2l-1.4,0.1l0.2,3.9l-2.1,0.1l-0.5-10.3l3.3-0.2c1.3-0.1,2.1,0,2.5,0c0.6,0.1,1.1,0.4,1.5,0.9
	c0.4,0.5,0.7,1.2,0.7,2c0,0.2,0,0.4,0,0.6h-2.2c0-0.2,0.1-0.3,0.1-0.5c0-0.4-0.1-0.7-0.4-0.9c-0.2-0.2-0.5-0.4-0.9-0.4
	c-0.3,0-0.7,0-1.5,0l-1,0l0.1,2.9l1.1-0.1c0.8,0,1.4-0.1,1.6-0.2s0.5-0.3,0.6-0.5c0,0,0-0.1,0-0.1h2.3c0,0.3-0.1,0.5-0.2,0.8
	C1326,101.3,1325.8,101.7,1325.4,102z M1328.2,103.6l-0.1-2l3.9-0.2l0.1,2L1328.2,103.6z M1339.1,104.7c-0.6,0.9-1.5,1.4-2.7,1.5
	c-1,0-1.7-0.2-2.4-0.7c-0.6-0.5-1-1.2-1.2-2l2-0.3c0.1,0.4,0.3,0.8,0.5,1c0.3,0.2,0.6,0.4,1,0.3c0.4,0,0.8-0.2,1-0.6
	c0.3-0.3,0.4-0.9,0.4-1.5c0-0.6-0.2-1.1-0.5-1.4c-0.3-0.3-0.7-0.4-1.1-0.4c-0.6,0-1.1,0.3-1.5,0.8l-1.6-0.2l0.8-5.4l5.2-0.2l0.1,1.8
	l-3.7,0.2l-0.2,1.8c0.4-0.2,0.9-0.4,1.3-0.4c0.9,0,1.6,0.2,2.3,0.9c0.6,0.6,1,1.4,1,2.4C1339.8,103.2,1339.5,104,1339.1,104.7z
	 M1347.1,104.3c-0.6,0.9-1.5,1.4-2.7,1.5c-1,0-1.7-0.2-2.4-0.7c-0.6-0.5-1-1.2-1.2-2l2-0.3c0.1,0.4,0.3,0.8,0.5,1
	c0.3,0.2,0.6,0.4,1,0.3c0.4,0,0.8-0.2,1-0.6c0.3-0.3,0.4-0.9,0.4-1.5c0-0.6-0.2-1.1-0.5-1.4c-0.3-0.3-0.7-0.4-1.1-0.4
	c-0.6,0-1.1,0.3-1.5,0.8l-1.6-0.2l0.8-5.4l5.2-0.2l0.1,1.8l-3.7,0.2l-0.2,1.8c0.4-0.2,0.9-0.4,1.3-0.4c0.9,0,1.6,0.2,2.3,0.9
	c0.6,0.6,1,1.4,1,2.4C1347.8,102.8,1347.6,103.6,1347.1,104.3z"/>
<path id="p-52" d="M1391.9,122.9l-123.1,5.5l2.4,49.8l123.3-5.5L1391.9,122.9z M1328.9,155.3c-0.2,0.4-0.5,0.8-0.8,1.1
	c-0.3,0.3-0.7,0.4-1.1,0.5c-0.5,0.1-1.2,0.2-2.2,0.2l-1.4,0.1l0.2,3.9l-2.1,0.1l-0.5-10.3l3.3-0.2c1.3-0.1,2.1,0,2.5,0
	c0.6,0.1,1.1,0.4,1.5,0.9c0.3,0.4,0.6,0.9,0.6,1.5h-2.2c-0.1-0.1-0.1-0.2-0.2-0.3c-0.2-0.2-0.5-0.4-0.9-0.4c-0.3,0-0.7,0-1.5,0l-1,0
	l0.1,2.9l1.1-0.1c0.8,0,1.4-0.1,1.6-0.2c0.3-0.1,0.5-0.3,0.6-0.5c0.1-0.2,0.2-0.5,0.2-0.8c0-0.1,0-0.2-0.1-0.3h2.2
	c0,0.1,0,0.1,0,0.2C1329.2,154.4,1329.1,154.9,1328.9,155.3z M1330.8,158l-0.1-2l3.9-0.2l0.1,2L1330.8,158z M1341.7,159.1
	c-0.6,0.9-1.5,1.4-2.7,1.5c-1,0-1.7-0.2-2.4-0.7c-0.6-0.5-1-1.2-1.2-2l2-0.3c0.1,0.4,0.3,0.8,0.5,1c0.3,0.2,0.6,0.4,1,0.3
	c0.4,0,0.8-0.2,1-0.6c0.3-0.3,0.4-0.9,0.4-1.5c0-0.6-0.2-1.1-0.5-1.4c-0.3-0.3-0.7-0.4-1.1-0.4c-0.6,0-1.1,0.3-1.5,0.8l-1.6-0.2
	l0.8-5.4l5.2-0.2l0.1,1.8l-3.7,0.2l-0.2,1.8c0.4-0.2,0.9-0.4,1.3-0.4c0.9,0,1.6,0.2,2.3,0.9c0.6,0.6,1,1.4,1,2.4
	C1342.4,157.7,1342.2,158.4,1341.7,159.1z M1343.3,160.2c0-0.7,0.2-1.4,0.6-2c0.3-0.6,1-1.5,2.1-2.6c0.9-0.9,1.4-1.5,1.6-1.8
	c0.3-0.4,0.4-0.8,0.4-1.2c0-0.4-0.2-0.8-0.4-1c-0.2-0.2-0.6-0.3-1-0.3c-0.4,0-0.7,0.2-1,0.4c-0.2,0.3-0.4,0.7-0.4,1.3l-2-0.1
	c0.1-1.1,0.4-1.9,1-2.4c0.6-0.5,1.4-0.8,2.3-0.8c1,0,1.8,0.2,2.4,0.7c0.6,0.5,0.9,1.2,1,2c0,0.5,0,0.9-0.2,1.3
	c-0.1,0.4-0.4,0.9-0.7,1.4c-0.2,0.3-0.6,0.8-1.2,1.4c-0.6,0.6-1,1-1.1,1.2c-0.2,0.2-0.3,0.4-0.4,0.6l3.9-0.2l0.1,1.8L1343.3,160.2z"
	/>
<path id="p-53" d="M1531.9,116.7l-140,6.2l2.5,49.9l130.8-5.8l8.7-9.6L1531.9,116.7z M1461.8,150.6c-0.3,0.3-0.7,0.4-1.1,0.5
	c-0.5,0.1-1.2,0.2-2.2,0.2l-1.4,0.1l0.2,3.9l-2.1,0.1l-0.5-10.3l3.3-0.2c1.3-0.1,2.1,0,2.5,0c0.6,0.1,1.1,0.4,1.5,0.9
	c0.4,0.5,0.7,1.2,0.7,2c0,0.2,0,0.4,0,0.5h-2.2c0-0.1,0-0.3,0-0.4c0-0.4-0.1-0.7-0.4-0.9c-0.2-0.2-0.5-0.4-0.9-0.4
	c-0.3,0-0.7,0-1.5,0l-1,0l0.1,2.9l1.1-0.1c0.8,0,1.4-0.1,1.6-0.2c0.3-0.1,0.5-0.3,0.6-0.5c0-0.1,0.1-0.1,0.1-0.2h2.2
	c0,0.3-0.1,0.6-0.2,0.9C1462.4,150,1462.2,150.3,1461.8,150.6z M1464.6,152.2l-0.1-2l3.9-0.2l0.1,2L1464.6,152.2z M1475.5,153.3
	c-0.6,0.9-1.5,1.4-2.7,1.5c-1,0-1.7-0.2-2.4-0.7c-0.6-0.5-1-1.2-1.2-2l2-0.3c0.1,0.4,0.3,0.8,0.5,1c0.3,0.2,0.6,0.4,1,0.3
	c0.4,0,0.8-0.2,1-0.6c0.3-0.3,0.4-0.9,0.4-1.5c0-0.6-0.2-1.1-0.5-1.4c-0.3-0.3-0.7-0.4-1.1-0.4c-0.6,0-1.1,0.3-1.5,0.8l-1.6-0.2
	l0.8-5.4l5.2-0.2l0.1,1.8l-3.7,0.2l-0.2,1.8c0.4-0.2,0.9-0.4,1.3-0.4c0.9,0,1.6,0.2,2.3,0.9c0.6,0.6,1,1.4,1,2.4
	C1476.2,151.8,1475.9,152.6,1475.5,153.3z M1483.1,153.3c-0.6,0.7-1.4,1-2.4,1.1c-0.9,0-1.7-0.2-2.4-0.7c-0.6-0.5-1-1.2-1.2-2.1
	l1.9-0.3c0.1,0.5,0.3,0.9,0.5,1.1c0.3,0.2,0.6,0.4,1,0.3c0.4,0,0.7-0.2,1-0.5c0.3-0.3,0.4-0.7,0.4-1.3c0-0.5-0.2-0.9-0.5-1.2
	c-0.3-0.3-0.6-0.4-1-0.4c-0.3,0-0.6,0.1-0.9,0.2l0.1-1.6c0.5,0,0.9-0.1,1.2-0.4c0.3-0.3,0.4-0.6,0.4-1c0-0.3-0.1-0.6-0.3-0.8
	c-0.2-0.2-0.5-0.3-0.8-0.3c-0.3,0-0.6,0.1-0.8,0.4c-0.2,0.2-0.4,0.6-0.4,1l-1.8-0.2c0.1-0.6,0.3-1.1,0.5-1.5c0.2-0.4,0.6-0.7,1-0.9
	c0.4-0.2,1-0.4,1.5-0.4c1,0,1.8,0.2,2.4,0.8c0.5,0.5,0.8,1,0.8,1.7c0,0.9-0.4,1.6-1.4,2.2c0.6,0.1,1.1,0.4,1.5,0.8
	c0.4,0.4,0.6,0.9,0.6,1.6C1484,151.9,1483.7,152.7,1483.1,153.3z"/>
<path id="p-54" d="M1529.9,76l-9.6-8.7l-130.8,5.8l2.4,49.8l140-6.2L1529.9,76z M1460.3,93.9h-2.1c0-0.1,0-0.2,0-0.3
	c0-0.4-0.1-0.7-0.4-0.9c-0.2-0.2-0.5-0.4-0.9-0.4c-0.2,0-0.7,0-1.5,0l-1,0l0.1,2.9l1.1-0.1c0.8,0,1.4-0.1,1.6-0.2
	c0.3-0.1,0.5-0.3,0.6-0.5c0.1-0.1,0.1-0.2,0.1-0.3h2.2c0,0.4-0.1,0.7-0.2,1c-0.2,0.4-0.5,0.8-0.8,1.1c-0.3,0.3-0.7,0.4-1.1,0.5
	c-0.5,0.1-1.2,0.2-2.2,0.2l-1.4,0.1l0.2,3.9l-2.1,0.1l-0.5-10.3l3.3-0.2c1.3-0.1,2.1,0,2.5,0c0.6,0.1,1.1,0.4,1.5,0.9
	c0.4,0.5,0.7,1.2,0.7,2C1460.3,93.6,1460.3,93.7,1460.3,93.9z M1462,97.8l-0.1-2l3.9-0.2l0.1,2L1462,97.8z M1472.9,98.8
	c-0.6,0.9-1.5,1.4-2.7,1.5c-1,0-1.7-0.2-2.4-0.7c-0.6-0.5-1-1.2-1.2-2l2-0.3c0.1,0.4,0.3,0.8,0.5,1c0.3,0.2,0.6,0.4,1,0.3
	c0.4,0,0.8-0.2,1-0.6c0.3-0.3,0.4-0.9,0.4-1.5c0-0.6-0.2-1.1-0.5-1.4c-0.3-0.3-0.7-0.4-1.1-0.4c-0.6,0-1.1,0.3-1.5,0.8l-1.6-0.2
	l0.8-5.4l5.2-0.2l0.1,1.8l-3.7,0.2l-0.2,1.8c0.4-0.2,0.9-0.4,1.3-0.4c0.9,0,1.6,0.2,2.3,0.9c0.6,0.6,1,1.4,1,2.4
	C1473.5,97.4,1473.3,98.2,1472.9,98.8z M1480.5,99.7l-1.9,0.1l-0.1-2.1l-4.2,0.2l-0.1-1.7l4.2-6.8l1.7-0.1l0.3,5.7h-1.9l-0.1-2.6
	l-2.2,3.6l2.4-0.1l0-0.7h1.9l0,0.6l1.3-0.1l0.1,1.7l-1.3,0.1L1480.5,99.7z"/>
</svg>
