<svg id="Capa_1" data-name="Capa 1" xmlns="http://www.w3.org/2000/svg" viewBox="0 0 224.96 222.06"><defs><style>.cls-1{fill:#778e32;}.cls-14,.cls-2{fill:#fff;}.cls-2,.cls-3,.cls-7{opacity:0.2;}.cls-3{fill:#040006;}.cls-4{fill:#8ea932;}.cls-5{fill:#c2455e;}.cls-6{fill:#e3af34;}.cls-15,.cls-7{fill:#7c1a1f;}.cls-11,.cls-8{fill:#a9221f;}.cls-15,.cls-8{opacity:0.5;}.cls-9{fill:#c24554;}.cls-10{fill:#dea230;}.cls-12{fill:#be323a;}.cls-13{fill:#597132;}.cls-14{opacity:0.3;}.cls-16{fill:#c55049;}.cls-17{fill:#c13d3e;}.cls-18{fill:#bf344b;}</style></defs><title>copihue</title><path class="cls-1" d="M186.83,120.38c2.73-5.64,5.77-11.92,5.53-20.63a39.35,39.35,0,0,0-.36-4.18L189,96c1.41,10-1.79,16.64-4.9,23s-6,12.45-3.2,20.55a2.11,2.11,0,0,0-.26,0c-6.28-1.27-7.35-6.09-8.7-12.19-1.4-6.33-3-13.51-10.9-18L159.48,112c6.72,3.84,8.09,10,9.42,16,1.37,6.17,2.83,12.5,10.53,14.37-3.49,2-7.33,1.69-10.81,1.36s-7-.67-9.2,1.79l2.29,2.06c1.12-1.25,3.25-1.11,6.62-.79,4.45.43,10.49.95,15.52-4,6.94-.4,11.89-5.92,17.07-11.72,6.32-7.09,12.85-14.4,24-14.71l-.09-3.08c-12.51.35-19.81,8.53-26.24,15.74-4.74,5.3-8.95,9.95-14.41,10.59C181.17,132.23,183.65,127,186.83,120.38Z"/><path class="cls-2" d="M184.06,119c-2.38,4.92-4.63,9.66-4.26,15.28,0-5.12,2.07-9.55,4.29-14.13,2.76-5.71,5.61-11.61,5.17-19.91C189.39,108,186.7,113.6,184.06,119Z"/><path class="cls-3" d="M168.65,144.92c3.48.34,8.58-.33,11.36-2.62-.51-.12-1.49.94-1.95.78-3.1,1.27-6.4,1-9.44.69-3.59-.35-7-.67-9.2,1.79l.66.59C162.28,144.33,165.38,144.61,168.65,144.92Z"/><path class="cls-3" d="M161,110.51c7.89,4.51,9.49,11.69,10.89,18,1.35,6.1,1.85,9.92,8.65,11-6.26-1.28-7.33-6.09-8.68-12.18-1.4-6.33-3-13.51-10.9-18L159.48,112c.18.11.32.23.5.33Z"/><path class="cls-3" d="M198.63,129.08c-4.74,5.3-8.95,9.95-14.41,10.59,5.32.3,9.71-4.13,14.44-9.44,6.43-7.21,13.73-15.38,26.24-15.74l0-1.15C212.36,113.69,205.06,121.87,198.63,129.08Z"/><path class="cls-3" d="M189,96c0,.39.06.75.1,1.14l3-.42a34.5,34.5,0,0,1,.31,3.67c0-.21,0-.42,0-.64a39.35,39.35,0,0,0-.36-4.18Z"/><path class="cls-4" d="M161.22,145.38c6.63,8.27,7.56,29-12.27,46.72-36,32.29-88.44,37.35-120.65,20.58,21.37-6.5,42.24-29.89,52.75-47.87s37.56-40.18,54.76-38.95C151.32,127,160.88,133.6,161.22,145.38Z"/><path class="cls-1" d="M28.3,212.68c6.79-.85,13.07-3.73,18.85-7.21a99,99,0,0,0,16.2-12.09,112.79,112.79,0,0,0,13.7-14.8c2-2.64,3.87-5.56,6-8.29s4.29-5.4,6.59-8a119.61,119.61,0,0,1,15.23-14,71.6,71.6,0,0,1,18-10.35c6.49-2.44,13.64-3.69,20.56-2.49a32.62,32.62,0,0,1,17.81,9.91c-5.13-4.47-11.37-7.72-18-8.42-6.63-.85-13.35.59-19.46,3.2-12.3,5.3-22.82,14.26-31.82,24.22-2.28,2.48-4.46,5-6.54,7.71s-4,5.42-6.1,8.19A98.68,98.68,0,0,1,64.9,195.16a99.26,99.26,0,0,1-17,11.62C41.77,209.87,35.18,212.52,28.3,212.68Z"/><path class="cls-1" d="M28.3,212.68c6.6,1.49,17.87,1.82,24.6,1.93a162.89,162.89,0,0,0,20.13-.8A149.07,149.07,0,0,0,112.09,205c12.53-4.51,24.23-11.55,33-21.55s13.59-24,16.72-37.08c-.94,6.7-1.85,14.69-4.4,21a70.49,70.49,0,0,1-10.53,17.58c-8.77,10.71-21,18.07-33.76,22.9a142.35,142.35,0,0,1-39.95,8.33C59.68,216.84,41.31,216.68,28.3,212.68Z"/><path class="cls-1" d="M28.3,212.68c6.21-1.28,18.08-3.62,23.82-6.21a131.12,131.12,0,0,0,16.66-8.81,115.51,115.51,0,0,0,15.06-11.13,66.72,66.72,0,0,0,6.49-6.65l5.93-7.41a170.91,170.91,0,0,1,13.07-14c4.67-4.37,9.63-8.57,15.38-11.62a35.8,35.8,0,0,1,9.11-3.5,61.47,61.47,0,0,1,9.56-1.25,33.87,33.87,0,0,1,18.48,4.21,34.85,34.85,0,0,0-18.38-2.71,62,62,0,0,0-9.2,1.63,33.66,33.66,0,0,0-8.42,3.68c-10.59,6.45-19.24,15.89-27.24,25.52l-6.05,7.34a68.33,68.33,0,0,1-6.88,6.84,96,96,0,0,1-15.71,11C58.87,205.87,41,211.2,28.3,212.68Z"/><path class="cls-1" d="M161.86,146.32c-5.7,1.81-10.78,5.05-15.8,8.22s-9.92,6.61-14.65,10.22-9.33,7.31-13.82,11.29-9.31,7.63-14.19,11.16A172.11,172.11,0,0,1,72,205.1c-11.08,4.62-31.2,8.52-43.23,7.51,6-.15,20-1.69,25.66-3.38a103.22,103.22,0,0,0,16.62-6.29,189.69,189.69,0,0,0,30.53-18.22q7.29-5.11,14.18-10.81A170.63,170.63,0,0,1,130,162.85c4.95-3.42,10-6.66,15.26-9.59,2.64-1.45,5.32-2.82,8.06-4A35.48,35.48,0,0,1,161.86,146.32Z"/><path class="cls-1" d="M161.86,146.32c-5.92,12-14.5,21.85-24.21,30.88a147.16,147.16,0,0,1-32.95,22.67,111.93,111.93,0,0,1-18.87,6.86,188.53,188.53,0,0,1-19.4,4.74,131.71,131.71,0,0,1-19.89,2.1,156.14,156.14,0,0,1-18.24-.89c13.26,0,24.84-.54,37.66-3.53C72.36,207.66,78.73,206,85,204a110.77,110.77,0,0,0,18.34-6.93c11.83-5.6,22.64-13.26,32.72-21.68a164.12,164.12,0,0,0,14.37-13.54A84.18,84.18,0,0,0,161.86,146.32Z"/><path class="cls-4" d="M190.63,101c7.58-1.11,18.23-11.62,16.46-30.79C203.89,35.43,178.59,7,153.27,0c8.14,14,7.69,36.61,4.42,51.31s.15,39.76,9.87,47.57C176.32,105.93,184.65,107.1,190.63,101Z"/><path class="cls-1" d="M153.27,0a35.42,35.42,0,0,1,6.45,13.09,71.6,71.6,0,0,1,2.64,14.37,82.67,82.67,0,0,1,0,14.59c-.24,2.37-.68,4.85-.9,7.34s-.38,5-.42,7.46a85.67,85.67,0,0,0,1.18,14.91,51.31,51.31,0,0,0,4.44,14.32,28.62,28.62,0,0,0,9.67,11.44,23.48,23.48,0,0,0,14.32,3.5,24,24,0,0,1-13.7-4.4,27.3,27.3,0,0,1-8.75-11.26c-3.9-8.86-5.07-18.78-5-28.48,0-2.44.11-4.88.32-7.31s.58-4.82.8-7.34a72.92,72.92,0,0,0-3.61-29.48C159,8.12,156.84,3.47,153.27,0Z"/><path class="cls-1" d="M153.27,0c4.24,2.45,10.37,7.82,14,11.07a117.78,117.78,0,0,1,10.28,10.32A107.78,107.78,0,0,1,193.88,45.3c4.42,8.55,7.16,18,6.91,27.67s-4.57,19.37-9.37,27.88c2.8-4,6.24-8.7,8-13.32A50.36,50.36,0,0,0,202.49,73c.63-10-2.25-19.9-6.63-28.74a102.34,102.34,0,0,0-17.07-24C171.94,13.23,162.13,4.27,153.27,0Z"/><path class="cls-1" d="M153.27,0c2.67,3.73,7.8,10.81,9.57,15a92.09,92.09,0,0,1,4.49,12.87,80.77,80.77,0,0,1,2.51,13.3,45.66,45.66,0,0,1,.18,6.71l-.5,6.84a125.49,125.49,0,0,0,0,13.85A52,52,0,0,0,172,82.29a25.83,25.83,0,0,0,3.1,6.33A45.87,45.87,0,0,0,179.56,94a24.62,24.62,0,0,0,11.86,6.86,25.25,25.25,0,0,1-11.06-7.61,44.35,44.35,0,0,1-4.08-5.39,24.37,24.37,0,0,1-2.66-6.09c-2.43-8.63-2.38-17.87-1.88-26.92l.4-6.87a49.56,49.56,0,0,0-.29-7A68.66,68.66,0,0,0,169,27.39C166.12,18.64,159.26,7,153.27,0Z"/><path class="cls-1" d="M191.42,100.85c-2.12-3.77-3.22-8-4.33-12.13s-2-8.38-2.74-12.62-1.34-8.47-1.77-12.79-1.18-8.61-2-12.89a125.38,125.38,0,0,0-7.82-24.9C169.13,17.64,160.38,5.67,153.5.28c3.11,3,9.76,10.72,11.94,14.41a75.22,75.22,0,0,1,5.72,11.51,136.86,136.86,0,0,1,7.22,24.67q1.35,6.3,2.2,12.69a125.89,125.89,0,0,0,2.1,12.87c.94,4.24,2,8.45,3.37,12.59.69,2,1.44,4.11,2.28,6.11A25.69,25.69,0,0,0,191.42,100.85Z"/><path class="cls-1" d="M191.42,100.85c2.75-9.25,3.07-18.73,2.35-28.29a106.42,106.42,0,0,0-6.3-28.21,82.33,82.33,0,0,0-6.64-12.91,132.7,132.7,0,0,0-8-12,94.66,94.66,0,0,0-9.49-10.9A115,115,0,0,0,153.27,0c7,6.51,12.9,12.49,18.22,20.39,2.66,3.93,5.23,8,7.6,12.08a79.77,79.77,0,0,1,6.31,12.69,112.15,112.15,0,0,1,6.68,27.58A116.92,116.92,0,0,1,193,87,60.86,60.86,0,0,1,191.42,100.85Z"/><path class="cls-5" d="M36.25,68.1c5.18,1.79,8.19,9.15,8.91,17.4a40.74,40.74,0,0,1,.09,6.15c-.54,10.53-4.8,20.64-13.12,21.15-9.24.54-16-6.09-21.38-12.15C8,97.53,5.6,94.51,3.39,92.76A6.07,6.07,0,0,0,.46,91.25,1,1,0,0,0,0,91.17a21.48,21.48,0,0,1,2.63-6A41.41,41.41,0,0,1,18.09,71C24.21,67.7,30.84,66.22,36.25,68.1Z"/><path class="cls-6" d="M2.63,85.22c-.29,1.67-.43,3.37-.81,5a7.17,7.17,0,0,1,1.57,2.57A6.07,6.07,0,0,0,.46,91.25,1,1,0,0,0,0,91.17,21.48,21.48,0,0,1,2.63,85.22Z"/><path class="cls-7" d="M10.65,88.21C14.54,79,31.48,70,40.78,74.86s4.5,34.59-8.23,33.44S15.87,89.24,10.65,88.21Z"/><path class="cls-8" d="M45.16,85.5c.52,0,1.08.06,1.64.11,10.14.82,23.69,2.55,34.4,4.07a2.13,2.13,0,0,0,.18.21c7.06,7-6,5.3-6,5.3-11-.94-21.43-1.79-30.17-3.54-.54,10.53-4.8,20.64-13.12,21.15-9.24.54-16-6.09-21.38-12.15a18.93,18.93,0,0,1,4.45-6.8c4.36-4,7.74-6.65,13.8-7.86C33,85.2,38,85,45.16,85.5Z"/><path class="cls-5" d="M47.77,86.48C67,88,98.82,93,98.82,93s-32.9,17.41-50.32,27.8c-16.75,10-20.87,15-27.31,12.82a19.82,19.82,0,0,1-8.86-5.38c-.76-.69-1.58-1.43-2.64-2.26a39.49,39.49,0,0,1-.31-4.17c-.34-9,1.17-21.62,7.35-27.27C24,87.91,28.52,85,47.77,86.48Z"/><path class="cls-9" d="M44.58,14.3C48.82,18.79,57,23,61.47,26.89a36,36,0,0,1,12,19.65,45.62,45.62,0,0,1,.89,6.16A43.29,43.29,0,0,1,74.42,59a36.54,36.54,0,0,1-2.65,11.67c-3.11,8.17-8.38,15.54-12,23a45.84,45.84,0,0,0-3,7.21c.07-.59.12-1.16.19-1.72v0c.22-1.94.45-3.84.67-5.7,1.67-12.84,3.65-23.29,3.5-28.67-.16-5.92-1.36-17.42-3.57-21.85v-.07a8.12,8.12,0,0,0-.52-.86C54.48,38.38,43,34.09,34.9,34.25c0-.74-.14-1.47-.19-2.2C34.18,26.59,33.84,20.69,44.58,14.3Z"/><path class="cls-10" d="M37,20.79a64.11,64.11,0,0,1,7.59-5.2,12.79,12.79,0,0,0,4.92,2.83,35,35,0,0,1-4.88-4.11A24.77,24.77,0,0,0,37,20.79Z"/><path class="cls-8" d="M36.25,68.1c5.18,1.79,8.19,9.15,8.91,17.4.52,0,1.08.06,1.64.11,10.14.82,23.69,2.55,34.4,4.07a2.13,2.13,0,0,0,.18.21c7.06,7-6,5.3-6,5.3-11-.94-21.74-1.18-30.49-2.93A49.49,49.49,0,0,1,29,86a20.56,20.56,0,0,1-7.37-7.24A50.8,50.8,0,0,1,18.09,71C24.21,67.7,30.84,66.22,36.25,68.1Z"/><path class="cls-6" d="M9.38,121.81a14.58,14.58,0,0,1,1,3.76,7.71,7.71,0,0,1,1.92,2.67c-.76-.69-1.58-1.43-2.64-2.26A39.49,39.49,0,0,1,9.38,121.81Z"/><path class="cls-8" d="M34.71,32.05c8-.36,16.12,1.6,21.42,7.42,5.75,6.29,10.95,19.61,15.64,31.17,3.5,8.63,6.74,16.25,9.68,19.24,6.84,7-5.76,5.3-5.76,5.3-5.54-.48-10.91-.94-16-1.57-.71,0-1.42-.15-2.1-.25,1.67-12.84,3.65-23.29,3.5-28.67-.16-5.92-1.36-17.42-3.57-21.85v-.07a8.12,8.12,0,0,0-.52-.86C54.48,38.38,43,34.09,34.9,34.25,34.85,33.51,34.76,32.78,34.71,32.05Z"/><path class="cls-11" d="M44.88,17.44c.24,2.49,0,5,.17,7.4a20.48,20.48,0,0,0,1.57,6.92,21.73,21.73,0,0,0,3.93,5.95,52.49,52.49,0,0,0,5.4,5c-4.45-2.12-8.64-5.53-10.74-10.32a17.19,17.19,0,0,1-1.34-7.53A58.2,58.2,0,0,1,44.88,17.44Z"/><path class="cls-7" d="M40.18,34.66c-3.76-5.11,3.39-8.53,4.48-13,3.29,3,6.84,6.22,11.91,8.64S66.7,36.56,68.62,44.13c3.6,14.24-1.93,31.75-11.86,56.7,5-19.69,7.71-47.41,4.86-52.73C57.7,40.77,48.31,34.89,40.18,34.66Z"/><path class="cls-5" d="M57.26,41.55c10,11,17.32,41.37,24.19,48.33s-5.76,5.3-5.76,5.3c-24.13-2.14-44.94-3.86-52-16.49-6.18-11.1-7.43-23.77-7.16-34.88,0-1.48.07-3,.15-4.37a29.36,29.36,0,0,1,4.46-2.19C32.06,32.86,48.5,32,57.26,41.55Z"/><path class="cls-5" d="M57,41.91c10,11,17.55,41,24.42,48s-5.76,5.3-5.76,5.3c-24.13-2.14-44.94-3.86-52-16.49-6.18-11.1-7.43-23.77-7.16-34.88,0-1.48.07-3,.15-4.37a29.36,29.36,0,0,1,4.46-2.19C32.06,32.86,48.28,32.31,57,41.91Z"/><path class="cls-5" d="M57,41.91c10,11,17.55,41,24.42,48s-5.76,5.3-5.76,5.3c-24.13-2.14-44.94-3.86-52-16.49-6.18-11.1-7.43-23.77-7.16-34.88,0-1.48.07-3,.15-4.37a29.36,29.36,0,0,1,4.46-2.19C32.06,32.86,48.28,32.31,57,41.91Z"/><path class="cls-5" d="M57,41.91c10,11,17.55,41,24.42,48s-5.76,5.3-5.76,5.3c-24.13-2.14-44.94-3.86-52-16.49-6.18-11.1-7.43-23.77-7.16-34.88,0-1.48.07-3,.15-4.37a29.36,29.36,0,0,1,4.46-2.19C32.06,32.86,48.28,32.31,57,41.91Z"/><path class="cls-12" d="M93.74,104c8.86-.07,20.07-.21,30.72.11,9.26.29,18.11.91,24.53,2.2a33.73,33.73,0,0,1,6,1.71,2.33,2.33,0,0,1,.31.14,9.56,9.56,0,0,1,2,1.12c.26.17.47.35.7.52,1.1.9,1.58,1.62,1.6,2.18.07,2.49-9.36,2.08-17.75,2.28-.89,0-1.74.06-2.6.08-11,.49-42.37,1.38-56.12,4.56s-34.55,12.51-39.5,15.66c.51-3.8,8.22-16,11.21-17.85,4.44-2.67,8.67-5.59,14.14-8h.06C75.1,106.07,82.7,104.14,93.74,104Z"/><path class="cls-7" d="M39.32,41c8,1.2,15,3.86,19.1,10.85C62,58,62,68.16,60.3,73.94,39.7,65.29,27.53,50.11,21.87,43.52c0,0,0-.05.06-.08C23.28,41,29.94,39.58,39.32,41Z"/><path class="cls-13" d="M44.08,83.19c-3.64-.37-6.75.87-6.93,2.77s2.59,3.73,6.24,4.11a15,15,0,0,0,5.47-.9C52.79,88.23,65,90,65,90l.27-2.58s-12.35-.59-16-2.29C47.91,84.52,46.27,83.4,44.08,83.19Z"/><path class="cls-14" d="M41.82,84.13c1.94-.27,3.59,0,3.68.64s-1.42,1.37-3.36,1.64-3.59,0-3.69-.64S39.87,84.41,41.82,84.13Z"/><path class="cls-10" d="M49.48,92.16c-2.57.36-4.5,1.73-4.31,3.07s2.41,2.15,5,1.79a10.69,10.69,0,0,0,3.63-1.52c2.56-1.31,11.27-2.1,11.27-2.1l-.24-1.83s-8.61,1.64-11.42,1.08A11,11,0,0,0,49.48,92.16Z"/><path class="cls-14" d="M48.08,93.19c1.3-.51,2.48-.59,2.65-.18s-.74,1.19-2,1.7-2.48.59-2.65.17S46.79,93.7,48.08,93.19Z"/><path class="cls-10" d="M53.37,77.71c-2.52-1.57-5.28-2-6.16-1s.44,3.13,3,4.71A14.94,14.94,0,0,0,54.52,83c3.25.93,11.5,6.54,11.5,6.54l1.2-1.42s-8.8-5-10.82-7.31A12.56,12.56,0,0,0,53.37,77.71Z"/><path class="cls-14" d="M51.35,77.41c1.53.57,2.63,1.35,2.45,1.75s-1.57.27-3.1-.29-2.64-1.35-2.45-1.76S49.81,76.85,51.35,77.41Z"/><path class="cls-7" d="M57.42,103.47c-6.43,6.24-10.18,17.92-25.31,22.66-6.73,2.11-14.84.55-18.79-3.28,8.89-6.44,15.62-10.75,18.27-12.11-7.8-2.45-11.32-5-13.59-10.09-7,7.88-8.26,18.55-6.95,24,5.39,4.72,12.81,9.34,18.36,8s35-22.36,39.58-24C63.13,107.77,58.08,106.11,57.42,103.47Z"/><path class="cls-6" d="M21.17,37.25a38.88,38.88,0,0,0-3.33,2.83s-.6,1.59-1.28,3.73c0-1.48.07-3,.15-4.37A29.36,29.36,0,0,1,21.17,37.25Z"/><path class="cls-9" d="M27.11,132.94c-5.12,4.54-5.24,9.42-4.81,10.81s5.25,9.34,5.25,9.34,10.62-9.86,15.08-17C53.8,118.28,55.72,115.86,69,108.73,56.42,113.59,30.66,131.69,27.11,132.94Z"/><path class="cls-10" d="M27.62,150.91s-2.43-2.8-4.44-5.33c1.51,2.81,4.37,7.51,4.37,7.51s1.63-1.51,3.87-3.78C29.19,150.33,27.62,150.91,27.62,150.91Z"/><path class="cls-15" d="M74.37,52.66a50,50,0,0,0,8,9.16,140.36,140.36,0,0,0,15.91,12.4C127.61,94.43,149.71,96.36,159.6,112c-10.92-6.33-84.55-2.37-93-1.22-7.33,1.05-8.86-5.56-9.69-8.68v0a4,4,0,0,1-.15-1.29c0-.45.09-1,.19-1.72v0c.1-.73.3-1.6.52-2.56A206.22,206.22,0,0,1,68.72,62.58c2-4.49,4-8.11,5.63-9.88Z"/><path class="cls-16" d="M74.37,52.66a50,50,0,0,0,8,9.16,140.36,140.36,0,0,0,15.91,12.4C127.61,94.43,149.71,96.36,159.6,112c-10.92-6.33-82.14-4.48-90.59-3.32-7.33,1-11.27-3.46-12.1-6.58v0a4,4,0,0,1-.15-1.29c0-.45.09-1,.19-1.72v0c.1-.73.3-1.6.52-2.56A206.22,206.22,0,0,1,68.72,62.58c2-4.49,4-8.11,5.63-9.88Z"/><path class="cls-2" d="M68.72,62.58c7,3.85,17,10.21,18.77,11.33,15.36,9.47,29.11,15.2,34.25,17.71,4.56,2.2,18.31,7.81,20.79,8.69,1.52.51,3.07,1,4.54,1.6,1.71.72,8.72,3.81,8.23,6.41-2.9.51-72.72-11.12-79.85-10.91-3.16.08-14.15,0-18-.91A206.22,206.22,0,0,1,68.72,62.58Z"/><path class="cls-15" d="M74.37,52.66c2.67,2.09,5.82,4.42,9.17,6.82,9.7,6.89,21.35,14.37,29.31,17.74,10.71,4.5,38.12,16.21,44.08,23.36s3.56,8.57,2.67,11.46c-12.29-12.35-32.7-16.2-52.93-29.4-6-3.94-17-10.41-25.12-18.91C78.58,60.65,76.38,56.17,74.37,52.66Z"/><path class="cls-17" d="M74.36,52.68c2.68,2.07,5.82,4.42,9.17,6.81,9.71,6.9,21.35,14.37,29.32,17.75,8.25,3.46,26.42,11.22,37.06,17.87h0a32.59,32.59,0,0,1,7,5.48c6,7.06,3.6,8.55,2.7,11.4,0,0,0,0,0,.06a42.11,42.11,0,0,0-4.29-3.78A3.22,3.22,0,0,0,155,108c-1.54-1.22-3.27-2.46-5.08-3.67-1.64-1.09-3.32-2.18-5.11-3.27,0,0,0,0-.06,0-13.95-8.53-31.3-16.15-37.79-19.78-6.31-3.51-16.83-10.17-25-18.67A51.44,51.44,0,0,1,74.36,52.68Z"/><path class="cls-11" d="M13.06,123.07a94.12,94.12,0,0,1,19.85-13.89c7.25-3.6,15.16-6.34,23.29-6.53a79.88,79.88,0,0,0-22.58,7.9C26.43,114.1,19.8,118.62,13.06,123.07Z"/><path class="cls-3" d="M73.46,46.54a45.62,45.62,0,0,1,.89,6.16l0,0c2.67,2.09,5.82,4.42,9.17,6.82-.41.72-.78,1.5-1.16,2.34-.12.25-.23.53-.35.77A47.94,47.94,0,0,0,79.76,69C74,90.07,58.67,96.83,56.91,102.11c0,0,0,0,0,0a4.42,4.42,0,0,0-.1.5c-2.66-9.36,2.53-20.21,3.45-32.36s-1-17.89-2.71-27.44v-.07A29.27,29.27,0,0,1,73.46,46.54Z"/><path class="cls-18" d="M57.55,42.77c13.41-1,19.17,9.15,25.59,12-1.7,1.12-5.36,7.56-7.2,14.29C70,90.89,57.62,97.3,56.81,102.64a21.29,21.29,0,0,1-.74-6.53c.21-7.76,3.47-16.39,4.19-25.83.85-11.21-.72-17-2.32-25.45C57.81,44.18,57.69,43.48,57.55,42.77Z"/><path class="cls-10" d="M80.91,55c-.64.41-1.17,2.62-1.68,5.57,1.48-3,3-5.18,3.91-5.78-3.72-1.68-7.23-5.78-12.13-8.74C74.89,50,78.14,53.78,80.91,55Z"/><path class="cls-2" d="M57.94,44.83c3,.62,7.24,2.22,9,3.89,3.51,3.26,2.89,8.57,2.92,13,0,5.25-2,9.31-3.26,14.27-1,3.75-6.71,17-10.56,20.1.21-7.76,3.47-16.39,4.19-25.83C61.11,59.07,59.54,53.24,57.94,44.83Z"/><path class="cls-11" d="M60.37,74l-.07,0h0a64.37,64.37,0,0,1-11.49-5.25A81.85,81.85,0,0,1,38.4,61.47a95.7,95.7,0,0,1-9.15-8.74,122,122,0,0,1-7.92-9.83c3,3,5.78,6.09,8.78,9a118.12,118.12,0,0,0,9.26,8.37A110.75,110.75,0,0,0,60.3,73.93h0Z"/><path class="cls-11" d="M28.22,149.26a23.93,23.93,0,0,1,.62-6.95,30.29,30.29,0,0,1,2.27-6.64,27.53,27.53,0,0,1,3.79-5.93,22.51,22.51,0,0,1,5.18-4.66,45.41,45.41,0,0,0-7.58,11.25A54.69,54.69,0,0,0,28.22,149.26Z"/><path class="cls-4" d="M149.91,95.11h0a32.59,32.59,0,0,1,7,5.48c6,7.06,5,10.57,2.73,13.19-1.66,1.86-10.15,1.71-17.78.49a27.24,27.24,0,0,0,5.21-5.06,13.51,13.51,0,0,0,1.15-1.64,10.17,10.17,0,0,0,.76-1.25c.36-.65.65-1.31.94-2a9.86,9.86,0,0,1,.31-1c.06-.21.1-.46.16-.67A12,12,0,0,0,149.91,95.11Z"/><path class="cls-1" d="M159.45,110.66c-1.31,2.13-9.45,3.45-17.23,3.67,7.54,1.16,15.81,1.29,17.43-.55s2.47-4.11.88-7.72A6.57,6.57,0,0,1,159.45,110.66Z"/></svg>